<?xml version="1.0" encoding="utf-8"?>
<!-- Generator: Adobe Illustrator 19.0.0, SVG Export Plug-In . SVG Version: 6.00 Build 0)  -->
<svg version="1.1" id="MAP" xmlns="http://www.w3.org/2000/svg" xmlns:xlink="http://www.w3.org/1999/xlink" x="0px" y="0px"
	 viewBox="0 0 1019 559" style="enable-background:new 0 0 1019 559;" xml:space="preserve">
<style type="text/css">
	@import url(https://fonts.googleapis.com/css?family=Open+Sans:600italic,300italic,600,300);
	.st0{opacity:0.1;fill:#636363;}
	.st1{opacity:0.3;fill:#3F4977;}
	.st2{opacity:0.3;}
	.st3{fill:#8EB2DD;}
	.st4{fill:#ABC5FF;}
	.st5{font-family:'Open Sans'; font-weight: light; text-transform: uppercase;}
	.st6{font-size:9px;}
	.st7{clip-path:url(#XMLID_191_);fill:#3F4977;}
	.st8{clip-path:url(#XMLID_201_);fill:#8EB2DD;}
	.st9{clip-path:url(#XMLID_525_);fill:#3F4977;}
	.st10{clip-path:url(#XMLID_526_);fill:#8EB2DD;}
	.st11{clip-path:url(#XMLID_536_);fill:#3F4977;}
	.st12{clip-path:url(#XMLID_537_);fill:#8EB2DD;}
	.st13{clip-path:url(#XMLID_546_);fill:#3F4977;}
	.st14{clip-path:url(#XMLID_547_);fill:#8EB2DD;}
	.st15{clip-path:url(#XMLID_564_);fill:#3F4977;}
	.st16{clip-path:url(#XMLID_565_);fill:#8EB2DD;}
	.st17{clip-path:url(#XMLID_569_);fill:#3F4977;}
	.st18{clip-path:url(#XMLID_576_);fill:#8EB2DD;}
	.st19{clip-path:url(#XMLID_589_);fill:#3F4977;}
	.st20{clip-path:url(#XMLID_590_);fill:#8EB2DD;}
	.st21{font-size:9.1077px;}
	.st22{clip-path:url(#XMLID_592_);fill:#3F4977;}
	.st23{clip-path:url(#XMLID_593_);fill:#8EB2DD;}
	.st24{clip-path:url(#XMLID_595_);fill:#3F4977;}
	.st25{clip-path:url(#XMLID_596_);fill:#8EB2DD;}
	.st26{clip-path:url(#XMLID_597_);fill:#3F4977;}
	.st27{clip-path:url(#XMLID_599_);fill:#8EB2DD;}
	.st28{clip-path:url(#XMLID_600_);fill:#3F4977;}
	.st29{clip-path:url(#XMLID_601_);fill:#8EB2DD;}
	.st30{fill:none;}
	.st31{clip-path:url(#XMLID_602_);fill:#3F4977;}
	.st32{clip-path:url(#XMLID_603_);fill:#8EB2DD;}
	.st33{fill:#3F4977;}
	.st34{clip-path:url(#XMLID_604_);fill:#3F4977;}
	.st35{clip-path:url(#XMLID_605_);fill:#8EB2DD;}
	.st36{clip-path:url(#XMLID_607_);fill:#3F4977;}
	.st37{clip-path:url(#XMLID_608_);fill:#8EB2DD;}
	.st38{fill:#FFFFFF;}
	.st39{font-family: 'Open Sans', sans-serif; font-weight: bold; font-style: italic; text-transform: uppercase;}
	.st40{font-size:12px;}
</style>
<path id="Londres" class="st0" d="M965.7,383.9c0,0-22.9,3.9-20.3-20.9c0,0-22.7-1.1-24.2-2c-5.9-3.3-12.4,15-65.4,32.7
	c0,0,0,34.7-6.5,35.3c0,0,45.8,36.6,46.4,39.2c0.7,2.6,2.6-8.5,32,15c0,0,11.7-7.8,16.7-9.9c3.4-2.1,6.9,1.1,9.4,3.5
	c1.9,1.7,3.6,3.7,5.3,5.5c0,0,0.1,0.1,0.1,0.1c1.3,1.3,2.8,2.9,4.4,4.6c0,0,14.4-13.1,16.3-20.3v-28.8l14.4-12.4v-12.4l21.6-13.1
	C1016,400.3,1002.9,356.5,965.7,383.9z"/>
<path id="Birmingham" class="st0" d="M982.8,249c-2.1-2.1-4.9,4.9-13.3,2.8c-8.4-2.1-10.5-13.3-15.4-19l2.8-4.2l-4.9-0.7
	c0,0-7.7-9.8-11.2-7.7c0,0-0.7-0.7-8.1,4.2c0,0-6,0-7.7-2.5c0,0-24.2,4.6-20.7,9.5c3.5,4.9,5.6,2.1,0.7,10.5
	c-3.2,5.5,1.1,11,3.4,13.4c0.1,0,0.2,0,0.3,0c0.2-1.1,12.5,2.5,18.8,0.7c7-2.1,5.6,2.8,9.1,5.6c3.5,2.8,10.5-2.1,14.7-0.7
	c4.2,1.4,7,13.3,14,9.8c7-3.5,23.9,0,28.1-13.3C993.4,257.5,984.9,251.1,982.8,249z"/>
<path id="Liverpool" class="st0" d="M856.8,72.1c0,0-2,36.5,13,28.5c0,0,2.5-3,17.5,7.5c0,0,4.5,2.5,8-5l5,0.5c0,0,12,17,13.5,12.5
	c1.5-4.5,0,16.5,0,16.5s-19,2-15.5,16c0,0-11,11.5-27-3c-16-14.5-26.5-46.5-26.5-46.5S839.8,91.1,856.8,72.1z"/>
<path id="NY" class="st0" d="M822.2,219.9c-1.8-1.3-4.8,2.5-8.9,0.5c-4-2-4.3,2.3-4.8,3.8c-0.5,1.5-5.8,8.3-7.3,7.6
	c-1.5-0.8,2.5-5,3.8-8.1c1.3-3,0.3-8.6-0.8-5.3c-1,3.3-5.3,9.3-9.4,11.6c-4,2.3-9.9,3-13.2,3.3c-3.3,0.3-7.1,1-8.9,4.5
	c-1.8,3.5-6.3,3-9.9,4c-3.5,1-6.3,4.3-9.4,5.5c-3,1.3-5.3,1.3-2.5-2c0.9-1,1.9-2,3-2.9c-1.5-1.5-3.6-3.7-3.8-4.9
	c-0.3-1.8,2.8-5.5,4.6-7.1c1.8-1.5,1.3-4.5,0.5-6.3c-0.8-1.8-2-2.3-2-5c0-2.8-1-11.3-3.3-15.9c-2.3-4.5-2.6-12.2-3.1-12.9
	c-0.5-0.7-0.7-8.7-1-8.9c0,0,0,0,0-0.1c-0.8-0.2-1.1-1.4-1.1-1.4l0.9-38.3c-0.5-0.8-4.6-19.9-6.1-26.5c-1.5-6.6-3.5-14.6-5.3-18.2
	c-1.8-3.5-2,0.8-5.1,0c-3-0.8-3.3-8.6-3.3-11.3c0-2.8-1.8-10.3-3.3-14.6c-1.5-4.3,0.8-7.6,0.5-10.8c-0.2-3.3-2.3-10.3-3.8-12.9
	c-1.5-2.5-3.8-2.8-4.8-6.8c-1-4,0-9.1-1.5-11.1c-1.2-1.5-1.3-8.2-1.3-11.3c-29.1,7.1-56.6,13.4-58.7,13.7
	c-4.6,0.8-31.2,35.3-31.2,40.1c0,3.8-6.6,9-11,12.8c1.3,0.1,2.2,0.3,1.5,0.8c-1.9,1.2-7.8,7.7-7.8,9.1c0,1.3,4.6,2.7,5.4,1.8
	c0.8-0.8,4.1-1.5,3.6,0.7c-0.5,2.2-0.3,2.7,1.7,1.3c2-1.3,4.6,0.7,2.4,1.7c-2.2,1-3.7,3.9-3.4,4.5c0.3,0.7-0.7,1.2-0.8,3.5
	c-0.2,2.3,1,3.9,2,6.4c1,2.5,2.9,4.2,2.2,6.7c-0.7,2.5-0.5,5.7-2.9,5.7c-2.4,0-4.4-1.2-5.4,1c-1,2.2-1.7,4.2-3,4.5
	c-1.4,0.3-3,0.7-3.6,2.4c-0.5,1.7-1.3,4-3.7,5.4c-2.4,1.3-4.4,3-5.2,4.4c-0.8,1.4-0.2,2.7-2,2.2c-1.9-0.5-3-1-5.9-0.8
	c-2.9,0.2-7.3,0.7-9.1,1.7c-1.9,1-5.7,2-7.1,3.7c-1.4,1.7-3.2,2.7-5.4,0.8c-2.2-1.8-4.9-4.2-7.3-3.5c-2.4,0.7-28.4-1.2-44.2,10.9
	c-2,1.5-3.7,2.8-5.1,3.8c1.2,3.1,2,7.4,2.5,9.8c0.6,2.9,4.2,8.5,5.8,10.9c0.6-0.2,1-0.5,0.9-0.9c0,0,4.1,0.2,3.2,2.2
	c-0.8,2-1.2,6.7-4.1,8.7c-2.9,2-12.8,16.1-16.7,20.3c-1.6,1.7-5.6,5.6-10.5,10l2.9,13.2c0,0,164.8-31.6,168.2-32.9
	c3.4-1.3,6.2-5.2,12-0.7c5.7,4.5,8.6,4.5,12.2,4.7c3.5,0.2,6.7,13.8,8.9,17.3c2.2,3.5,2.7,0.7,7.8,1.8c5.1,1.2,6.9,2.2,10,5.4
	c3,3.2,25.5,8.5,28.2,9c2.7,0.5,4.5,1.9,5.2,3.6c0.8,1.8-1.5,9.1-1.9,10.9c-0.3,1.2-1.2,4.1-1.7,5.9c2.2,1.3,0.5,4.2,6,3.2
	c5.6-1,19-8.8,28.4-12.9c9.4-4,15.7-10.8,24.3-14.6c8.6-3.8,9.4-5.8,13.2-9.1C816.2,226.5,824,221.2,822.2,219.9z"/>
<path id="Washington" class="st0" d="M120.9,125.7c0.3-1.1,4.2-21.7,5.2-26.8c-49.4-10.3-81-19.3-81-19.3c0.7,0.6,1.5,0,1.8,1
	c0.3,1,0,2.3,0.9,3.2c0.9,0.9,1.7,1,1.9,1.7c0.3,0.7,0.6,0.8,0.4,2.1c-0.1,1.3-0.6,2-0.8,2.4c-0.3,0.4-0.5,0.8-0.5,1.5
	c0.1,0.7,0.1,0.6-0.7,0.6c-0.8,0-1.8-0.1-0.9,0.8c0.9,0.8,0.9,1.2,1.3,1.8c0.4,0.6,1.4,0.6,1.2,1.5c-0.3,1-0.9,0.8-0.8,1.9
	c0.1,1,0.6,1.8,0.9,2.3c0.3,0.5,0.3,1.8-0.2,2.7c-0.4,0.9-0.6,1.3-1.3,1.9c-0.8,0.6-1.2,1.3-1.8,2c-0.6,0.7-1,0.9-0.6,2.1
	c0.3,1.2,0.4,1.6,0,2.3c-0.4,0.7-0.4,1-0.6,2.1c-0.2,1-0.1,0.9-1,2c-1,1.1-0.6,1.4-2.6,2c-2,0.7-1,1.7-3.2,0.9
	c-2.2-0.7-3.6-0.8-3.1-1.9c0.5-1.1,1.6-1.2,2.1-2.3c0.4-1.1,1-1.5,1-0.5c0,1-1,2.2-0.1,2.2c0.9,0.1,0.4-0.9,1-1.4
	c0.6-0.5,0.6-1.4,1-0.5c0.4,0.8-0.3,1.3,0.8,1.4c1.2,0.1,2-1.2,2.1-2.5c0.1-1.3,1-2.7,0.1-2.9c-0.9-0.2-1.9-0.6-1-1.3
	c0.9-0.7,0.7-1.5,1.3-2.1c0.6-0.6,1.7-0.3,1.8-1.2c0.1-0.9-0.3-2.2-1-2.2c-0.6,0-0.6,0.6-0.9-0.9c-0.3-1.5,0-2.1-0.2-3.3
	c-0.2-1.2-1.2-2-1.6-1.3c-0.4,0.7-1,0.6-1.5-0.4c-0.6-1-1-1.7-2.2-1.7c-1.2,0-1.2-0.1-3.5-1.1c-2.4-1-11-2.7-15-8.8
	c0,0-0.8-1.1-0.8-0.1c0.1,1,0.3,0.6-0.1,1.3c-0.4,0.7-2.3,3.1-2,5.2c0.3,2,1.5,2.6,1.8,4.3c0.3,1.7,0.2,1.7-0.1,3.8
	c-0.3,2.1,0.1,4.7,0.4,6.6c0.3,1.8,0.5,0.5,0.2,2.1c-0.3,1.6-0.3,2.5-0.6,3.6c-0.4,1.1-1.1,1.5-0.6,2.3c0.5,0.8,0.7-0.3,1.3,0
	c0.6,0.3,1.2,0.5,1.6,1c0.4,0.5,1.5,0.7,0.8,1c-0.6,0.3-0.4,1-1.6,1c-1.2,0-1.7-1.5-1.9-0.8c-0.1,0.7-0.3,1.3-0.1,2.7
	c0.1,1.4-1.2,2.2,0.5,2.3c1.7,0.1,1.9-0.6,2.3,0c0.4,0.6,0.4,0.8-0.3,0.9c-0.7,0.1-1.6-0.6-1.7,0.2c-0.1,0.8-0.2,1.3-0.1,2
	c0.1,0.7-0.6,0.7-1,1.5c-0.3,0.8,0.1,2.2-0.5,1.3c-0.6-1-0.7-1-0.4-2.5c0.3-1.6,0.6-2.6,0-1.9c-0.6,0.7-0.9,1.5-0.7,2.6
	c0.2,1.1,0.1,2.6,0.4,3.7c0.2,0.8,0.4,0.9,0.4,1.3c1.8,0.7,3.9,1.5,4.6,1.7c1.3,0.4,1.2,0.4,1.5,2.3c0.4,1.9,0.9,0.6,2.6,0.6
	c1.7,0,2.6,1.8,3.8,3.8c1.3,2-0.6,5.5-0.9,7.1c-0.3,1.7-0.1,2.7,0.5,3.2c0.6,0.5,3.2,0.4,4.5,1.5c1.3,1.1,4.1,1.3,5.9,0.6
	c1.8-0.6,1.9-1.5,3.8-0.6c1.9,0.9,2.3,0.3,3.8,0.3c1.5,0,1.8,0.5,2.7,1.7c0.9,1.1,1,1.5,1.8,1.4c0.8-0.1,2.7-0.3,3.5,0.5
	c0.8,0.8,3.2-0.1,4-0.6c0.8-0.5,2.8,0.1,4,1.5c1.1,1.4,4.2,0.6,4.9,0.1c0.6-0.5,3.5-0.5,6.9-0.3c3.5,0.3,1.4-0.1,2-0.8
	c0.6-0.6,2.7,0,3.8,0.4c1.2,0.4,4,0.4,5-0.1c1-0.5,8.3,1.4,10.9,2.7c2.6,1.3,18.7,3.4,18.7,3.4l0.7,0.2c-0.2-1.2-0.2-2.2-0.1-2.6
	c0.1-0.9,0.9-2.8,0.4-3.7c-0.5-0.9-0.6-7.4,0.3-8.8C117,145.3,120.5,127,120.9,125.7z"/>
<path id="tennessee" class="st0" d="M512.1,354.1c1.1-1,0.4-2.5,0.1-4.1c-0.3-1.6,1-0.1,3.7-2.3c2.8-2.2,4.1,0.4,5.7-1.1
	c1.5-1.5,5.2-6.2,7.2-6.3c1.9-0.1,2.1-2.3,2.1-3.4c0-1.1,2.3-0.7,3.2-1.8c0.8-1.1-0.3-2.2,1-2.2c1.2,0,0.1,2.2,2.6,1.9
	c2.5-0.3,0.7-3,2.8-5.1c2.1-2.1,4.1,0,4.3,1c0.1,1,2.5-2.2,3.3-4.4c0.8-2.2,1.5-1,2.6-3.2c0.7-1.3,0.5-3.7,0.3-5.3
	c-1.8,0.1-4.8,0.6-7.5,1.1c-3.6,0.7-65.5,9.6-99,11.1c0,0-2.1,0.7-2.5,1.5c-0.4,0.8-1.5-0.1-2.5-0.8c-1-0.7-4.1-0.8-4.1,0.3
	c0,1.1,1.8,3.9,0,4c-1.6,0.1-19.6,1.7-24.2,1.1c-0.3,0.2-1.1,0.2-2.6-0.2c-2.1-0.5,0.6,2.7,0.2,3.6c-0.4,0.9,0,2-1.2,2.9
	c-1.2,0.9,0,3-0.9,3.8c-0.9,0.8-0.2,1.2,0.2,2.6c0.4,1.3-1.2,5.6-2.8,6c-1.5,0.4,0.2,1.9-0.5,2.7c-0.7,0.8-0.9,0.1-1.1,1.2
	c-0.2,1.1-0.2,2.1-1.6,2.7c-1.3,0.6-1,1.3-1,2.5c0,1.1,2.1,0.5,2.5,2.9c0.4,2.4-0.6,1.8-1.9,2.7c-1.2,0.9-1.9,2.3-1.9,2.3
	c28.7-1.3,80-7.1,109.3-10.5c0.1-2.2,0.1-4.7,0.1-5.3C507.8,354.6,511,355,512.1,354.1z"/>
<path id="Oklahoma" class="st0" d="M292.6,334c-2.4-9.7-2.6-17.6-2.6-17.6c-30.5,0.4-57.6-0.4-81-1.8l-0.1,6.3l29,1.5
	c0,0-0.4,22.9,0.5,23.4c0.9,0.5,1,1.5,2,2.3c1,0.8,1-0.1,2.1,0.2c1.1,0.3,0.7-0.7,1.2-0.9c0.6-0.2,0.9,0.5,1.2,1.2
	c0.3,0.7,0,1.6,0.9,1.9c0.9,0.2,1.1,0.5,2.2,0.4c1.1-0.1,1.4,0.7,1.4,0.7c0.7,0.6,1.5-0.2,2.4-0.1c0.9,0.1,0.8,0.4,0.9,1
	c0.1,0.7,1,0.3,1.2-0.5c0.2-0.8,0.8-0.1,0.9-0.4c0.1-0.4,0.7-0.1,1.5-0.1s0.5,0.5,0.5,1.1c0,0.6,0.2,0.4,0.7,0.7
	c0.5,0.2,0.1,1,0.4,1.8c0.2,0.8,1.2-0.2,1.5-0.7c0.3-0.5,0.9-0.7,1.7-0.4c0.8,0.2,1,0.7,1.3,1.1c0.3,0.4,1.1,0.4,1.1-0.1
	c0-0.5,2-0.4,2.4-0.4c0.4,0,0.1,0.5-0.1,1.3c-0.1,0.8,0.4,0.9,0.8,1c0.4,0.1,0.6-0.7,0.6-1.5c0-0.7,0.1-0.7,0.5-1.5
	c0.4-0.9,0.4-0.1,0.8,0.2c0.4,0.4,0.7,0.7,1.1,1.2c0.4,0.6,0.7-0.1,0.9-0.7c0.2-0.6,0.8,0.1,1.5,0.9c0.7,0.7,1.2,1.2,1.9,1.7
	c0.7,0.5,1.2-0.2,1.7-0.9c0.5-0.7,1.3-1.2,2.2-1.5c0.9-0.3,0.5,0.2,1.2,0.7c0.7,0.5,1.1-0.1,1.2-0.9c0.1-0.7,1.2-0.7,1.8-0.7
	c0.5,0,0.4,0.4,1.2,1.1c0.8,0.7,1.2-0.1,1.5-0.4c0.3-0.4,0.6-0.9,1.2-1c0.6-0.1,1.1,0.4,2.2,1.6c1.1,1.2,1.8,1,2.1,1.3
	c0.3,0.3,0.8,0.8,1.7,0.8c0.7,0,0.7-0.3,1.1-0.3L292.6,334z"/>
<path id="Missouri" class="st0" d="M183.7,310c-0.2-0.2-1.6,0.4-2-0.6c-0.4-1-1.6-1.7-1.2-2.2c0.4-0.5,1-0.2,0.6-1.1
	c-0.4-0.9-1.1-1.7-1-2.4c0-0.6-0.8-0.2-1.3-0.9c-0.5-0.7-1.6-0.6-2-1.3c-0.4-0.7-5-2.9-3.8-5c1.2-2,1.9-4.1,1.2-4.7
	c-0.7-0.6-1.3-0.9-1.3-0.6s-0.5,0.4-0.6,0.1c-0.1-0.3-0.4-0.4-0.9-0.2c-0.5,0.3-0.8,0.7-1.1-0.2c-0.4-0.9-0.4-2.7-0.9-2.8
	c-0.4-0.2-2.5-1.1-2.6-2c-0.1-1-2.9-2.9-3.1-4.1c-0.2-1.1-0.3-3.7,0.1-4.4c-0.7-0.7-1.7-1.7-2-2.1c-0.4-0.6-0.6-0.4-0.6-0.4
	c-6.9,1.1-27.1,1.4-29.7,1.4c0,0.2,0.1,0.5,0.3,0.7c0.4,0.6,0,0,0.1,0.8c0.1,0.8,0.9,1,1.6,1.7c0.7,0.7,0.3,1,0.3,1.7
	c0,0.7,0.7,0.5,0.9,0.7c0.2,0.2,1.3,1.3,1.7,1.7c0.4,0.4,0.4,0,0.4-0.5c0-0.5,0.8-0.4,0.8,0.1c0,0.5,0.5,0.5,0.8,1.1
	c0.3,0.5-0.1,0.5-0.5,0.7c-0.5,0.1-0.9,0.6-1.5,1.2c-0.6,0.7,0.5,0.7,1.2,1.2c0.8,0.5,0.8,0.5,0.7,1.1c-0.1,0.7,0.7,0.9,1.1,1.4
	c0.4,0.5,1.2-0.3,1.1,2.4c-0.2,2.7,0.1,19.6,0.1,19.6s0.1,2.1,0.5,5.2c4.5-0.1,29-1,34.4-1.8c0,0,1.9,0.3,1.5,1.8
	c-0.4,1.5-1.1,1.8-1.5,2.4c-0.4,0.7-0.4,1.1,0.7,0.9c0.7-0.1,2.8-0.3,4.1-0.4c0-0.1,0-0.1,0-0.2c-0.2-0.6-0.5-0.8-0.1-1.1
	c0.4-0.4-0.1-1.2,0.4-1.6c0.5-0.4,0.4-0.8,0.5-1.2c0.2-0.4-1-1.8-0.1-1.6c0.9,0.2,1.2,0.2,1.2-0.1c0-0.3,0.4-0.6,0.7-0.5
	c0.3,0.1,0.3,0.4,0.6-0.5c0.3-1-0.4-1.4,0.4-1.5C184.4,312,183.8,310.2,183.7,310z"/>
<path id="New_Jersey" class="st0" d="M690.4,303.8c-6.2,1.1-3.5,0-3.5-2c0-2,1-4.3,2-3.7c0,0,0,0,0,0c0.3-0.9,0.7-2.2,0.8-2.8
	c0.2-0.9,1.3-4.3,0.9-5.2c-0.4-0.8-1.2-1.5-2.5-1.7c-1.3-0.2-11.9-2.8-13.4-4.3c-0.6-0.6-1.1-1-1.6-1.4c-0.9,0.8-3.2,3.2-3.1,3.9
	c0.1,0.9,0.5,3.2-0.5,3.9c-1,0.7-4.7,5.2-2.6,6.1c2.1,0.9,2.2,0,2.2,1.3c0,1.3-0.2,1.9-1.2,2.7c-1,0.8-1.4,2.8-0.6,3.4
	c0.7,0.6,11.2,9.2,11.4,9.6c0.2,0.3-2,3.3-2.9,4.3c-0.9,1-1.3,3.4-1.8,4.9c-0.6,1.4-1.3,2-2.8,2.5c-1.5,0.5-4.2,2.8-3.7,5.4
	c0.4,2,0.9,4.5,2.3,6.7c0.8-0.4,0-1.3,1.5,0.4c1.6,1.8-1.3,1.4,2.8,2.9c4.1,1.4,4,1,5.2,0.6c1.2-0.4,1.8-1.4,1.9,0.4
	c0.1,1.8,2.7-0.1,1.6,2.2c-1.1,2.3-2.1,3.2-0.2,3.1c1.9-0.1,2.5-0.4,3-1.7c0.6-1.3,1.8-1.8,2.3-3.8c0.5-2-0.6-3.7,0.7-5.5
	c1.4-1.8,1.7-2.6,2.2-4.8c0.6-2.2-0.4-3.3,1.4-4.1c1.8-0.8,2.3-12.4,1.8-15.3C693.6,308.9,696.6,302.7,690.4,303.8z"/>
<path id="Georgie" class="st0" d="M673.9,439.7c-2-1.1,0.6-4.4-0.5-5c-1.1-0.6-2.2-3-3.3-4.5c-1.1-1.6-2.4-1.4-3.6-2.4
	c-1.3-0.9-0.6-3.1-0.8-4.4c-0.2-1.3-2.8-4.7-4.4-5.8c-1.6-1.1-2.8-1.9-5.7-4.2c-2.8-2.4-2.8-3.8-3.9-5.3c-1.1-1.6-2.5-2-4.4-2.7
	c-1.9-0.6-3.2-1.3-4.9-3.6c-1.7-2.3-2.5-2.7-5.4-3.8c-2.8-1.1-6-6-7.6-8.6c-1.6-2.7-2.2-4.4-3.5-4.4c-1.3,0-2.4,1.3-3.3,0
	c-0.9-1.3-4.1-3.1-5-3.8c-0.9-0.6-0.6-2.8-0.5-4.5c0.2-1.7,3.2-3.3,3.6-3.8c0.1-0.2,0.2-0.5,0.2-1c-0.6,0.1-1.2,0.2-1.9,0.2
	c-2,0.1-24,2.8-51.8,5.8l20,62.7c0,0,1.4,0.5,2.2,1.1c0.8,0.6,0,1.6,0.5,3.3c0.5,1.7,1.4,0.9,1.4,2.4c0,1.4-0.5,2-1.4,2.7
	c-0.9,0.6-2,1.3-1.4,2.2c0.6,0.9,0.8,3.3,0,4.1c-0.8,0.8-1.6,4.2-0.8,5.2c0.8,0.9,2.8,2.5,2.8,4.5c0,2-0.9,6.7-0.6,8
	c0.3,1.3,2.8,5.7,2.8,7c0,0,4.2,7.3,5,7.3c0.7,0,58.1-4.7,58.1-4.7s0.6,0.1,1.1,1.5c0.5,1.4-0.2,3.5,1.5,3.6c1.8,0.1,3,0.7,3-1.4
	c0-2.1,0.8-4.9-0.2-6.6c-1.1-1.6-1.5-2.9-0.4-3.6c1.2-0.7,10.9,2.1,11.9,0c0.1-0.1,0.1-0.3,0.2-0.4c-1.2-0.7-1.1-1.1-0.8-3.2
	c0.2-2.2,0.6-2.4-0.4-3.8c-0.9-1.4,1.8-2,0.9-2.7c-0.8-0.7-0.6-1.9,0.9-2.1c1.5-0.2,3.1-2.2,2-2.9c-1.1-0.7-2,0.8-1.5-0.9
	c0.5-1.8-0.6-1.7,0.5-2.1c1.1-0.5,2.5-1.5,1.7-2.4c-0.8-0.9-1.1-0.9-1.8-1.1c-0.8-0.2-1.1-0.9-0.2-1.5c0.9-0.5,2-0.1,2.4-1.4
	c0.4-1.3,0-1.6-0.9-1.6c-0.9,0-2,0.2-1.1-0.5c0.9-0.7,2.1-0.5,2.8-1.3c0.7-0.8,1.8-1.6,0.2-2.2c-1.6-0.5-2.7-0.5-1.9-0.9
	c0.8-0.5,2-0.9,2.8-0.7c0.8,0.2,1.7,0.4,1.2-0.4c-0.5-0.8-1.1-1.6-0.2-1.6c0.9,0,2,0.1,1.5-0.4c-0.4-0.4,2.3-0.6,1.7-1.4
	c-0.5-0.6-1.3-0.7-1.6-1C679.6,440.6,675.5,440.5,673.9,439.7z"/>
<path id="Californie" class="st0" d="M83.5,256.9c-25.6-6.2-44.9-11.6-53.5-14c0.2,1.2-1.2,1.2-1.2,1.2s-2,1-1,2.6
	c1,1.6,2.2,1.6,1.6,2.9c-0.5,1.3-1,1.2-1.2,2.6c-0.2,1.4,0.4,1.4-0.3,2.1c-0.8,0.7-1.8,1.3-2,2.4c-0.2,1.1,0.4,1.5-0.2,2.8
	c-0.7,1.3-0.8,0.8-1.2,2c-0.4,1.2-0.2,1.6-0.9,2.3c-0.7,0.7-2.4,2.2-3,3c-0.5,0.9-1.6,0.5-1.6,2.6c0,2.1-1,2.2,0.2,4
	c1.2,1.9,1.4,1,2,2.9c0.5,2,1.1,1.6,1.5,3.9c0.4,2.3,0.3,2.2,0.2,4c-0.1,1.9,0.9,2.6-0.3,3.6c-1.2,1-1.9,0.8-1.3,2.3
	c0.5,1.5,0.7,1.5,0,3.2c-0.7,1.6-1.1,2.5-0.8,3.5c0.3,1-1.8-0.4,0.3,2.4c2.1,2.8,0.8,3.3,1.8,4.4c1,1.1,1.4,1.1,1.8,2.7
	c0.3,1.6,0.5,1.3,1.4,2.1c0.9,0.8,0.4,0.8,0.8,2.3c0.3,1.5,0.7,0.7,0.9,2c0.2,1.3,0,2.7-0.7,3.3c-0.7,0.5-2.1,1.5-0.7,1.6
	c1.4,0.1,2-1,2.8,1.2c0.9,2.2,1.5,3.2,2.1,3.4c0.5,0.2,1.5,0.4,1.5-0.8c0-1.2-0.4-1.1,0.2-2.3c0.7-1.2,0.1-2.3,0.9-2.1
	c0.8,0.2,1.2,0.5,2,1.2c0.8,0.7-0.1,1.7-0.9,1.7c-0.8,0-1.3,0.8-1.1,1.5c0.2,0.8,0.9,0.3,1.1,1.5c0.2,1.2,0.7,2.9,0.9,4.4
	c0.2,1.4,1,2.6,0,2.6c-1,0-0.7,1-1.9-1.5c-1.2-2.5-1-2.6-1.9-3.2c-0.9-0.5-1.1-0.3-1.1,1c0,1.3,0.7,1.6,0.1,3.3
	c-0.5,1.6-0.9,1.3-0.9,2.8c0,1.5-0.4,3.2,0.7,4.4c1.1,1.2,0.8,0.5,2.1,2.2c1.3,1.6,0.7,0.8,2.4,1.1c1.8,0.3,2,0,1.5,2.1
	c-0.4,2.1-0.3,3.4-2.3,3.6c-2,0.2-0.8-0.1-1,1.6c-0.2,1.7-0.4,5,0.4,5.9c0.9,0.9,1.2,1.3,1.6,2.6c0.4,1.3,1,2.4,1.8,2.6
	c0.8,0.2,0.3,1.4,0.4,2.6c0.1,1.2,0.3,1.4,0.9,1.9c0.5,0.4,0.2,0.5,0.7,2c0.4,1.4,0.3,0.3,0.9,1.7c0.5,1.4,0.5,2.6,1.5,3.2
	c1,0.5,2.4,1.4,1.6,2.5c-0.8,1.1-1.5,2.4-0.7,3.1c0.9,0.7,2.3,0.7,2.2,2.6c-0.1,2-1.2,1.2-1,2.7c0.2,1.5-0.7,1.6-0.8,3
	c-0.1,1.4-1,1.9-0.2,2.7c0.8,0.9,1.3,0.8,1.4,2.1c0.1,1.3,0.9,1.4,2.5,1.4c1.6,0,3.3,0,3.9,1.2c0.7,1.2,3,2.8,4.9,2.4
	c2-0.4,2.6,1,3.2,1.4c0.5,0.4,2.1,2.4,3,4.5c0.9,2.1,2.2,2,3.1,2.5c0.9,0.5,2.4,2.3,5.3,1.6c2.8-0.7,1.5,1.4,1.6,2.2
	c0.1,0.8-0.5,5,1.6,4.8c2.2-0.2,2.8-1,3.6,1.1c0.8,2.1,3.6,5.7,5.8,7.1c2.2,1.4,2.7,9.7,2.5,12.2c-0.2,2.4-1.3,2.9-0.4,3.9
	c7.5,0.8,34.9,3.9,36.3,4.2c0.5,0.1,0.8,0.3,0.9,0.5c0.4-0.1,1.1-0.2,1.5-0.2c0.7,0,2.2-0.2,2.3-1.2c0.1-1.1,1.5-0.5,1.3-2
	c-0.2-1.5-0.2-1.7-1.2-2.2c-1-0.5-2,0.1-1.9-1c0.1-1.1,0.5-0.2,0.7-1.7c0.2-1.5-1.2-2-0.6-3.1c0.7-1.1,2.1-0.8,2.5-1.6
	c0.5-0.8,2.4-3.3,2.7-5.1c0.3-1.8-0.9-3,0.7-3.9c1.6-0.9,2.3-2.4,3.7-3.2c1.4-0.8,1.9-0.5,2.4-1.3c0.5-0.8,0.2-2.3-0.7-2.8
	c-0.9-0.5-1.7-3-1.9-4c-0.2-1-0.6-1.6-1.2-2.9c-0.7-1.3-1.7-1.2-1.3-3c0.1-0.7,0.2-1.2,0.2-1.6l-61.5-88L83.5,256.9z"/>
<path id="Illinois" class="st0" d="M242.4,213.4c2.2,1.8,4-0.6,4.3-2.2c0.4-1.6-1-2-1.8-5.5c-0.8-3.5,7.5-3.6,8.5-4.1
	c1.1-0.5-0.2-1.7-1.4-2.9c-1.2-1.2,0.4-2,1.2-3.2c0.8-1.2-0.4-2.5-0.5-4.4c-0.1-1.9,0-3,0.7-4.1c0.7-1.1,0.8-2.6,0.7-3.3
	c-0.1-0.7-0.8-3.1,0.6-3.6c1.4-0.5,4.6-6.5,4.6-7.5c0-1.1,0.8-2.4,2.3-3.2c1.4-0.8,0.5-3.8-0.4-4.3c-0.8-0.5-0.8-1.8-1-4.7
	c-0.1-2.9-1.2-1.6-2.2-3.2c-1-1.7,0.1-3.8,0.8-4.8c0.7-1,1-5.7,1-5.7l-5.7-58.7c-0.9-0.6-1.6-1.4-1.9-2.5c-1-2.6-1.1-5.1-2.9-7.5
	c-1.8-2.4-2.6-1.3-2.6-5.1c0-1.5,0-3.8-0.1-6.2c-10,1.5-45.1,4.2-55.5,5c0.1,0.3,0.2,0.6,0.2,0.8c0.4,1.1,4.9,4.2,5.2,6.1
	c0.2,1.9,3.1,2.5,4.3,3.5c1.2,1,1.4,5.5,0.4,7.5c-1.1,2-2.8,1.7-2.8,4.8c0,3.1-1.6,3-3.4,3.9c-1.8,1-2.6,1-4,2.3
	c-1.3,1.3-4,0.2-6.2,0.7c-2.3,0.5-0.4,3.6-0.4,5.3c0,1.7,2.4,1.8,2.8,3.4c0.4,1.6-0.8,5.3-2,6c-1.2,0.7-0.5,1.1-0.5,3.5
	c0,2.4-4.3,3.6-6,4.4c-1.7,0.8,0.1,1.2,0.6,2.2c0.5,1,0.4,2.2-0.8,3.5c-1.2,1.3-0.8,8.9-0.4,12c0.5,3.1,8.2,8.4,8.4,11
	c0.2,2.6,5.9,5,7.1,5.5c1.2,0.5,1.4,5.1,2.4,7.7c1,2.5,1.6,1.3,3,0.6c1.4-0.7,2.2-0.4,2.5,0.5c0.4,0.8,1.7,0.5,1.7-0.4
	c0-0.8,1.7,0,3.6,1.7c1.9,1.7,0,7.3-3.2,12.8c-3.2,5.5,9.3,11.5,10.2,13.4c1,1.9,4.1,1.7,5.4,3.5c1.3,1.8,3.6,0.7,3.5,2.4
	c-0.1,1.7,1.7,3.8,2.8,6.3c1.1,2.5-0.5,1.7-1.6,3c-1.1,1.3,2,3.2,3.1,5.9c1.1,2.6,4.8,1.1,5.3,1.6
	C232.2,209.8,240.3,211.6,242.4,213.4z"/>
<path id="Mississipi" class="st0" d="M504.8,456.7c0-0.4,0.4-0.9-0.5-1.6c-0.3-0.2-0.6-0.6-0.8-1.1c-9.2,0.9-17.9,1.5-24.6,1.9
	c0,0-0.6,0.3-0.6,1.4c0,1.1-0.1,0.9-0.7,1c-0.5,0.1-1.2,0-1.3,1.1c-0.1,1.1-0.3,2.9-0.8,3.3c-0.5,0.4-0.6,1.2-0.6,2.1
	c0,0.9-0.2,1.4-1.1,1.7c-0.9,0.3-2.3,0.9-2.2,1.8c0.1,0.9,0.4,1.1,0,1.5c-0.4,0.4-0.3,0.7-0.1,1c0.3,0.3,0.1,0.9-0.7,0.9
	c-0.7,0-1.4-0.1-1.3,0.9c0.1,1,0.9,2.1,0.1,2.6c-0.9,0.5-0.9,1.5-0.9,2c0,0.5,0.5,1.7,0.1,2.1c-0.5,0.4-0.3,1.1,0.4,2.1
	c0.7,0.9,1.2,1.1,0.9,1.9c-0.3,0.8-0.6,1.1-0.3,1.8c0.3,0.7-0.5,0.2-0.1,1.7c0.3,1.5,0.7,1.4,0.9,2c0.2,0.6-1.1,1.6-0.6,2.1
	c0.5,0.5-0.3,2.7,1.1,2.5c0,0,0.5,0.6,0.3,1.3c-0.2,0.7-0.8,0.7,0.3,1.3c1.1,0.5,1.7,1.1,1,1.3c-0.7,0.2-4.1,0.7-2.7,1.5
	c1.4,0.7,1.9,0.5,1.7,1.3c-0.2,0.7-1.3,2.8-1.7,3.1c-0.4,0.3-1.2,0.1-1,1c0.2,0.9,0.1,1.3-0.2,1.4c-0.3,0.1-1.1-0.1-1,0.5
	c0.1,0.7,0.5,1.2,0.1,1.3c-0.4,0.1-1.3,0.1-1.3,0.8c0,0.7,0.2,1.9-0.1,1.9c-0.3,0.1-0.7,0.6-0.5,1.1c0.3,0.5,0.3,1.9-0.2,2.1
	c-0.5,0.2-1.1,0.7-0.7,1.3c0.5,0.6,0.8,1.3,0.5,1.7c-0.3,0.3-0.4,0.5,0.2,0.6c0.6,0.1,23.1-1.2,23.1-1.2s1.2,0.3,0.7,0.8
	c-0.5,0.5-2.5,2.2-1.1,4c1.3,1.8,2,1.7,2.3,2.9c0.3,1.2,2.4,3.9,2.5,4.1c0.2-0.1,0.4-0.2,0.6-0.5c0.8-0.9,1-1.3,1.7-2
	c0.7-0.7,1.6-0.1,2.4-0.5c0.8-0.4,1.8-1.7,3-1.3c1.2,0.4,2.6,0.8,3.4,0.3c0.8-0.5,1.2,0.8,2,0.1c0.1-0.1,0.3-0.2,0.4-0.3l-2.7-21
	C504.3,502.3,504.8,457.2,504.8,456.7z"/>
<path id="Texas" class="st0" d="M251.4,462.8c-0.2-0.1-0.4-0.2-0.3-0.5c0.1-0.3,0.3-0.5,0.7-0.8c0.4-0.3,0.2-0.8,0.4-1.1
	c0.2-0.3,0.4-0.2,0.4-0.5c0-0.3,0.1-0.7-0.1-1.1c-0.2-0.4-0.4-0.6-0.4-0.9c0.1-0.3,0.2-0.8,0.4-0.8c0.2,0,0.2-0.3,0-0.6
	c-0.1-0.3-0.8-0.1-0.3-0.6c0.5-0.5,0.6-0.3,0.9-1c0.3-0.7,0.4-1.2,0.3-1.5c0-0.3-0.1-0.7,0-1.1c0.1-0.4,0-1.1-0.3-1.6
	c-0.3-0.6-0.8-0.1-0.7-0.9c0-0.8-0.3-1.2-0.6-1.4c-0.3-0.3-0.6-0.2-0.5-0.7c0.1-0.4,0.3-0.5,0.1-1.1c-0.2-0.6-0.7-0.9-1-1.3
	c-0.3-0.4-0.8-0.7-0.8-0.7l-0.2-13c0,0-0.2-0.3-0.7-0.3c-0.5,0-0.9-0.1-1.1-0.1c-0.2,0-0.1,0.9-0.5,0.5c-0.4-0.3-0.1-1-0.6-1.1
	c-0.5,0-0.3,0.2-0.9,0.2c-0.6,0-0.9-0.3-1.1-0.5c-0.2-0.2-0.6,0-1.4-0.9c-0.7-0.8-1.1-1.1-1.5-1.1c-0.4,0-0.6,0.4-0.8,0.7
	c-0.2,0.2-0.5,0.7-1,0.3c-0.5-0.4-0.4-0.7-0.8-0.7c-0.3,0-1.1,0-1.2,0.5c-0.1,0.5-0.4,0.9-0.8,0.6c-0.4-0.3-0.2-0.7-0.8-0.5
	c-0.6,0.2-1.1,0.5-1.5,1c-0.3,0.4-0.6,0.9-1.1,0.6c-0.5-0.3-0.8-0.6-1.3-1.1c-0.5-0.5-0.9-1-1-0.6c-0.1,0.4-0.3,0.9-0.6,0.5
	c-0.3-0.4-0.5-0.6-0.7-0.8c-0.2-0.2-0.3-0.7-0.5-0.1c-0.2,0.6-0.3,0.5-0.3,1c0,0.5-0.1,1.1-0.4,1c-0.2-0.1-0.6-0.1-0.5-0.7
	c0.1-0.5,0.3-0.9,0-0.9c-0.2,0-1.6-0.1-1.6,0.2c0,0.3-0.5,0.4-0.7,0.1c-0.2-0.3-0.3-0.6-0.9-0.7c-0.5-0.1-0.9,0-1.1,0.3
	c-0.2,0.3-0.8,1-1,0.5c-0.1-0.5,0.1-1.1-0.2-1.2c-0.3-0.1-0.5,0-0.5-0.4c0-0.4,0.1-0.7-0.3-0.7c-0.5,0-0.9-0.1-1,0.1
	c0,0.2-0.4-0.2-0.6,0.3c-0.1,0.5-0.7,0.8-0.8,0.3c0-0.4,0-0.6-0.6-0.7c-0.6-0.1-1.1,0.4-1.6,0c0,0-0.2-0.6-0.9-0.5
	c-0.7,0.1-0.9-0.2-1.5-0.3c-0.6-0.1-0.4-0.8-0.6-1.3c-0.2-0.4-0.4-1-0.8-0.8c-0.4,0.1-0.1,0.8-0.8,0.6c-0.7-0.2-0.7,0.4-1.4-0.1
	c-0.7-0.5-0.7-1.2-1.3-1.6c-0.6-0.4-0.3-15.8-0.3-15.8l-19.9-1l-2.5,36.5c0,0,0,0.8-0.5,0.8c-0.5,0-24.4-2.1-24.4-2.1
	s-0.7-0.7,0.5,1.9c0.3,0,0.6,0.1,0.6,0.1c0.1,0,1.4,0.9,1.4,2.1c0,1.2,0.2,0.4,1.2,1.1c1,0.6,1.4,1,2.1,1.8c0.7,0.8,1,0.8,1.2,1.9
	c0.2,1.1,1.1,0.7,1.8,1.4c0.7,0.7,1,1.2,2.2,2c1.1,0.8,0.7,0.9,0.7,1.5c0,0.6-0.3,0.4,0.8,1.8c1.1,1.4-0.1,0.9-0.4,1.8
	c-0.3,0.9,0.8,2,1,2.9c0.2,0.8,0.7,0.9,1.4,1.2c0.7,0.2,0.4,0.4,0.8,1c0.4,0.6,1.5,1.1,2.1,1.1c0.6,0,1.5,1.4,1.9,1.2
	c0.3-0.1,2.3,1.3,3.3,2c1,0.7,0.6-0.6,1.5-1c0.8-0.4,0.8-1.4,1-2.1c0.2-0.7,0.7-1.3,0.9-1.7c0.2-0.4-0.1-1.3,1.3-1.4
	c1.4-0.1,1.4-0.8,2.3-0.7c0.8,0.1,0.9,0.8,1.4,0.8c0.5,0,0.5-0.1,1.1-0.2c0.6-0.2,0.7,0.1,1.1,0.4c0.3,0.3,0.9,0.1,1.3-0.1
	c0.3-0.3,1.8,1.8,2.4,2.4c0.6,0.6,2,1.8,2.8,2.3c0.8,0.5-0.2,0.8,1.6,3.4c1.8,2.7,1.2,3.1,1.7,3.7c0.5,0.6-0.4,0.8,0.4,1.2
	c0.8,0.4,2.5,2.7,2.9,3.3c0.4,0.6,0.3,1.3,1,1.4c0.7,0.1,0.9,0.6,1.3,1c0.4,0.3,0.1,0.3,0,0.9c-0.1,0.6-0.3,1,0.5,1.5
	c0.9,0.5-0.6,1.1,0,1.8c0.6,0.7,1.3,2.3,1.8,2.8c0.4,0.4-0.2,1.2,0.2,1.5c0.4,0.3,0.2,0.8,0.6,0.9c0.3,0,1,0.2,1.9,0.7
	c0.9,0.5,0.6,0.7,1.4,0.6c0.8-0.1,1,0.3,1.9,0.9c0.9,0.6,1.2,0.8,2,0.9c0.8,0.1,1,0.1,1.5-0.3c0.6-0.4,1.5,0.5,2.2,0.8
	c0.6,0.3,0.9,0.9,1.2,1.2c0.3,0.3,0.1,0.5,0.7,0.4c0.6-0.2,0.3-0.6,0.3-0.6s0.6-0.3,0.7-0.5c0.1-0.2,0.4,0,0.5,0c0,0,0-0.1,0-0.1
	c-0.2-1-0.3-0.7-0.5-0.5c-0.1,0.2-0.1,0.7-0.3,0.4c-0.2-0.3,0.3-0.4,0-1c-0.4-0.6-0.4-0.4-0.6-1.3c-0.1-0.9-0.7-0.6-0.7-1.6
	c0-1,0.3-1.5,0-2c-0.4-0.5-0.7-0.8-0.6-1.1c0.1-0.4-0.2-0.3-0.3-0.7c-0.1-0.4-0.1-0.5,0.3-0.7c0.4-0.2,0.5-0.6,0.5-0.8
	c0-0.2,0.3,0.1,0.3,0.8c0,0.7,0.2,3,0.5,3.4c0.3,0.4,0.9,2,0.8,2.4c0,0.4,0.1,1.4,0.3,1.1c0.1-0.3,0.2-0.3,0-1
	c-0.2-0.8-0.4-1.9-0.7-3c-0.3-1.1-0.6-1.6-0.6-2.3c0-0.7-0.1-1-0.3-1.4c-0.1-0.4,0-0.5-0.3-0.8c-0.2-0.3-0.3-0.4-0.7-0.4
	c-0.4,0-0.6,0.3-0.9,0c-0.3-0.3-0.6-0.4-0.4-0.6c0.3-0.2,1-0.1,1.3,0.1c0.3,0.1,0.4,0.3,0.7,0.1c0.3-0.2,0.3-0.7,0.4-0.4
	c0.1,0.3-0.2,0.8,0.1,0.8c0.3,0,0.2-0.2,0.3-0.7c0.1-0.4,1.1-2.5,1.4-3c0.3-0.4,0.2-1-0.1-0.6c-0.3,0.3-0.6,0.5-0.6,0.8
	c0,0.4-0.1,0.8-0.3,0.9c-0.1,0.1-0.3,0.1-0.3-0.4c0-0.6,0.1-0.5-0.3-0.8c-0.4-0.4-0.9-0.2-0.9-0.6c0-0.4-0.3-0.6,0.1-0.6
	c0.4,0,0.8-0.1,1,0c0.2,0.1,0.1,0.5,0.4,0.6c0.3,0,0.2,0,0.5-0.5c0.3-0.5,1.3-1.8,0.9-1.8c-0.4,0-0.8,0.6-0.9,0.3
	c-0.1-0.4,0-0.8,0.3-0.8c0.3,0,0.7-0.4,1.1-0.1c0.4,0.3,0.4,0.4,0.6,0.2c0.3-0.2,1.3-1.3,0.9-1.4c-0.5-0.1-0.5-0.1-0.5-0.5
	c0-0.3,0-0.8,0.6-0.3c0.6,0.6,0.2,0.7,0.7,0.7c0.6,0,1.1-0.7,1-0.3c-0.1,0.4-1.9,1.4-1.8,1.7c0.1,0.3,0.4,0,0.8-0.3
	c0.4-0.3,2.3-1.4,1.9-1.6c-0.4-0.2,0.1-0.6-0.5-0.9c-0.7-0.3-0.3-0.4-0.7-0.7c-0.3-0.3-0.6-0.8-0.3-1c0.4-0.1,0.1,0.4,0.6,0.6
	c0.5,0.2,0.9,0.5,1.1,0.1c0.3-0.4,0.4-0.4,0.8-0.3c0.4,0.2,0.7,0.5,1.1,0.4c0.4-0.1,0.2,0.3-0.2,0.4c-0.4,0.1-0.6,0.7-0.5,0.7
	c0.1,0,1-0.5,1.8-0.9c0.8-0.4,1.3-0.7,1.1-0.9c-0.2-0.2-0.2-0.3,0.2-0.4c0.4-0.1,0.9-0.1,1.2-0.4c0.3-0.3,2.6-1.5,3-2.3
	c0.4-0.8,0-1.1,0.6-1.3c0.5-0.3,1.1-0.7,1.2-0.8c0.2-0.2,0.4-0.8,0.1-1.1c-0.3-0.3-0.2-0.4-0.5-0.8c-0.2-0.4-0.4-0.3-0.4-0.7
	c0.1-0.4-0.2-0.7,0.1-0.6c0.3,0.1,0.7,0.6,0.9,0.3c0.2-0.3,0.2-0.4,0.4-0.6c0.2-0.2,0.4-0.4,0.5-0.2c0.1,0.2,0.6,0.5,0.2,0.7
	c-0.3,0.1-0.4,0.5-0.3,0.6c0.1,0.1-0.4,0.1-0.2,0.4c0.1,0.3,0,0.3,0.5,0.3c0.5,0,0.7,0,0.4,0.1c-0.3,0.1-0.9,0.9-1,1.2
	c-0.1,0.3-0.4,0.6-0.7,0.8c-0.3,0.2-0.9,0.4-0.9,0.7c0,0.2-0.3,0.6,0.4,0.2c0.6-0.3,1.3-0.8,1.4-1.1c0.1-0.3,0.4-1,1.4-1.4
	c0.9-0.4,1.4-1,2.1-1.1c0.6-0.1,2.6-1,3.1-1.1c0.1,0,0.1,0,0.2,0l0-0.1C251.6,463,251.6,462.9,251.4,462.8z"/>
<path id="Michigan" class="st0" d="M358.1,202.1c1.1,1.5,20.7-3.6,28.9-5.7c0-0.2,0.2-0.5,0.4-0.9c1.3-2.2,2.2-4.6,3.5-5.4
	c1.1-0.7,1.6-2.6,2.9-3.2c-0.6-1.8-1-3.5-1.3-4.4c-0.4-1.1,2-3.9,4.7-6.6c0-0.2-0.1-0.6-0.2-1.4c-0.4-2.2-1.4-2.4-0.4-4.1
	c1-1.7-0.3-3.4,2.4-2.9c2.6,0.4,5.1,0.6,5.3,1.5c0.3-0.7-0.2-1-0.2-1c-0.2-2.5,0.2-7.2,0.8-12c-0.1,0.3,0,0.4-0.5-1
	c-0.7-2.1-0.9-0.9-2-4c-1.1-3.1-2.9-8.7-4-10.9c-1.2-2.1-2.7-6.3-3-8.4c-0.3-2.1-4.7-4.8-7-4.6c-2.2,0.2-6.1,2.8-6.8,4.3
	c0,0-0.4,0.9-1.2,0.6c-0.7-0.3-0.7,1.1-0.6,2.4c0.1,1.3-0.8,2.1-1.8,3.6c-1,1.5-2.4,2.7-2.9,3.6c-0.4,1-3.7,0.5-5.4-1.3
	c-1.7-1.9-2.1-6.6-0.4-7.7c1.6-1.2,3,0.4,4.1-2.1c1.1-2.5,1.4-4.2,1.4-5.2c0-1.1,0.2-3,1.6-3.6c1.4-0.6,1.8-0.2,2.2-2.3
	c0.4-2.1,0.7-3.5-0.3-5.5c-1-2-0.3-3.2-0.2-5.4c0.1-2.2-2.1-5.2-2.9-6c-0.8-0.7-2.6-2.2-1.3-3.1c1.3-0.9,2.8-2.8,2-3.4
	c-0.8-0.6-2.1-0.8-2.5-2c-0.4-1.2-1.3-2.8-3.1-3.3c-1.9-0.4-10.4-3.6-11.3-3.6c-1,0.1-1.4,0.4-2.1-1.2c-0.7-1.7-3.8-2-5.3-1.8
	c-1.4,0.2-3-0.3-3.7-1.2c-0.7-0.9-3.7-2.1-5.5-1.2c-1.9,0.9-3,3.7-3.7,4.1c-0.7,0.4-2.8,2.1-1.7,3.9c1.1,1.8,2.7,1.5,2.6,2.8
	c-0.1,1.3,0,1.4-1.8,1.4c-1.8,0-3.2,0.5-3.8,1.5c-0.6,1-1.5-0.4-1.8,2.5c-0.3,2.8,0.5,5.7,0.6,8c0.1,2.3-0.1,5.7-1.3,5
	c-1.2-0.7-0.3-3.8-1.1-4.2c-0.8-0.4-0.5,1.3-0.4,2.3c0.1,1,0.7,3.8-0.4,2.2c-1.1-1.6-1-3-0.8-5c0.2-2,0.2-5.1-0.2-5.7
	c-0.4-0.6-1.3-0.6-1.5,0.5c-0.2,1.2-1.3,4.1-2.3,5.1c-1,1,0.6,3.4-2.1,2.7c-2.8-0.7-2-0.6-2.6,1.2c-0.6,1.9-1,4.4-1.8,4.5
	c-0.8,0.1-3.3,1.1-2.5,2.8c0.8,1.7,2,2.6,1.3,3.9c-0.6,1.3,1.1,6.2,0,7.5c-1.1,1.2-2.3,3.5-3.3,4.8c-1,1.3-3,2.8-1.6,4.1
	c1.4,1.3,2.2,2,2.1,4.2c-0.2,2.1,0.8,4.2-0.2,5.1c-1,0.9-0.3,4.9,0.6,6.2c0.9,1.3,2,2.7,3.5,5.2c1.5,2.6,7.4,17.5,4,26.6
	c-3.4,9.1-2.9,11.4-3.6,12.6c-0.7,1.2-2.9,5.5-5,7.5c-0.2,0.2-0.3,0.3-0.5,0.5l42.2-5C355.4,200.5,356.7,200.2,358.1,202.1z"/>
<path id="Louisiane" class="st0" d="M299.9,431.6c0,0,1.8,0.9,2.8,2.3c1,1.4,2.8,2.4,3.6,4.6c0.8,2.2-0.1,2.4-0.4,4
	c-0.3,1.5,0.8,1.4,1.8,2.3c1,0.9,2.1,2.3,1.9,5c-0.1,2.7,1.5,1.3,2.6,3.2c1,1.9,1.3,4.1,0.9,5.6c-0.4,1.5-0.1,2.7,0,3.8
	c0.1,1.2-0.1,2.9-1.2,5.3c-1,2.3-1.3,1.7-3,3.3c-1.7,1.7,0.5,1.1,1,2.2c0.5,1,0.5,2.2-0.1,2.2c-0.6,0-1,1.8-1.3,2.7
	c-0.3,0.9,0.5,1.8,1.3,3.1c0.8,1.3,0.5,2.7,0.5,3.7c0,1-0.6,0.8-1.4,1.7c-0.8,0.9-0.3,2.6-1.5,3.7c-1.3,1.2-1.9,1.9-2.4,2.9
	c-0.5,1,0.4,1.4,1,1.8c0.6,0.4,0.9,1,0.9,1l0.1,0.2c1.4-0.4,2.3-1.6,5.2-1.7c3.3-0.1,6.2,0.2,6.5-0.8c0.3-1-0.8-2.8-1-2.8
	c-0.2-0.1,1.3,0.1,1.4-1c0.1-1-0.5-1.4-0.1-2.4c0.4-1,0.6-2.8,1.3-1.1c0.6,1.7,1.3,2.1,1.5,2.6c0.2,0.5,0.3,1.2-0.8,1.3
	c-1,0.2-2.3,0.1-1.3,1.5c1,1.3-0.1,1.9,1.1,1.9c1.2,0.1,12.2,3.1,14.3,4.3c2.1,1.2,15.8,2.6,15.4-1.7c-0.5-4.3-3.2-2.4-1-3.6
	c2.3-1.2,1.9-0.3,3.2-1.1c1.2-0.8,3-1.9,3-0.3c0,1.6,0,3.3,1.5,2.5c1.5-0.8,0.4-2.9,2.6-1.3c2.3,1.6,2.8,1.6,3.2,3.4
	c0.5,1.8,0.7,2.4,2.1,2.4c1.4,0.1,4.4,0.8,5.3,1.3c0.9,0.4,1.4,0.7,2.4,1.5c1.1,0.8,0.7,1.8-0.6,1.8c-1.3,0-2.8,0-2.1,1.3
	c0.7,1.3,0.7,2.1,2.6,2.4c1.9,0.3,2.2-0.4,4.1,0.3c1.9,0.6,0.6,1.4,3.3,1.9c2.7,0.5,6.6,1.1,7.4-0.5c0.8-1.6-1-3.1,0.2-4
	c1.2-1,5.4-0.7,5.8-0.1c0.4,0.6,0.9,1.3,1.8,0.8c0.9-0.5,1.5-0.6,1.4,0.6c-0.1,1.3-1.3,2.8,0.2,3.1c1.5,0.3,3.5,1.7,4-0.7
	c0.4-2.4,0.4-4,1-4.9c0.6-0.9,0.9-1.1,0.3-2.6c-0.6-1.5-1.1-1.2-2.8-2.2c-1.7-1.1-3.1-3.1-1.6-2.8c1.5,0.3,1.5,0.4,3.7,1.3
	c2.3,0.8,4.1,1,5.2,1.6c1.1,0.6,2.2,2,1.2,2.2c-1,0.3-2,0.7-0.3,1c1.7,0.3,2.9-0.4,3.5,0.2c0.6,0.6-0.4,1.8,1.2,2.1
	c1.6,0.3,4.2-1.5,4.2-0.6c0,0.8-0.3,1.5,0.6,2.6c1,1.1,1.7,0.4,2.1,1.2c0.4,0.8,1.1,1.2,0.2,2.2c-0.9,1-1.4,1.4-1,2.3
	c0.4,0.9-0.3,2.8,1.1,1.1c1.4-1.7,1.7-3.3,2.4-4.2c0.7-1,0.8-0.8,1.1,0.1c0.3,0.9,1,2.2,1.6,1.5c0.6-0.8,0.5-0.8,1-2.5
	c0.5-1.7,0.6-0.7,1.5-2c0.9-1.3,0.6-2.7-1-3.4c-1.5-0.7-0.9-1.7-3.1-2.1c-2.2-0.4-2.6,0.1-4.9-1c-2.3-1-3.1-0.5-5.1-2.2
	c-1.9-1.7-3.5-1.7-3.1-2.8c0.4-1,1.9-1.9,3.1-1.7c1.2,0.3,3.1-0.1,1.9-0.6c-1.2-0.5-3.6-0.3-3.1-1.3c0.5-1,1.5-2,2.7-2.1
	c1.2-0.1,2.5,1.3,3,0.3c0.5-1,0.5-1.4,0-3.1c-0.4-1.7-1.8-0.9-1.9-2.2c-0.1-1.3,0.5-3.2-0.7-3.7c-1.2-0.4-2.3,1.3-2.3,1.3
	s-1.1,2.6-1.1,3.1c0,0.5,0.3,1.6-0.7,1.3c-1-0.3-1.9,0.6-2.1-1.1c-0.1-1.7-2.3-0.6-1.7-1.8c0.5-1.1,1.9-1.5,2.5-2.3
	c0.6-0.8-0.8-1.6-1.4-1.6c-0.6,0-3.3-1-4.4-0.2c-1.1,0.8-2.9,2.5-1.7,3.7c1.2,1.2,2.8,3.2,0.7,2.4c-2.1-0.9-2.6-3.3-3.9-3.3
	c-1.3-0.1-1.9,0.3-2.9-0.2c-1-0.5-3.3,2-3.8-0.8c-0.5-2.8,2.2-5.6,3.2-6.7c0.9-1.1-0.9-2.3,2.5-0.5c3.4,1.8,1.7,1.3,4.9,2.5
	c3.2,1.2,2.8,1.4,4.8,2c2,0.5,2.9,0.9,4.3,0.4c0.9-0.3,1.3,0,2-0.2c-0.2-0.5-4.2-5.6-4.9-7.9c-0.6-2.3-1.9-2-4.5-5.5
	c-2.6-3.5,1.3-6.8,2.2-7.7c0.9-0.9-1.4-1.5-1.4-1.5s-43.2,2.6-44.4,2.3c-1.2-0.3-0.9-0.5-0.4-1.2c0.5-0.6-0.1-2-1-3.2
	c-0.9-1.2,0.4-2.1,1.3-2.4c0.9-0.4,0.9-3.1,0.4-4.1c-0.5-1,0.3-2,0.9-2.2c0.6-0.1,0.3-2.3,0.3-3.7c0-1.4,1.8-1.3,2.6-1.5
	c0.8-0.3,0-1.3-0.1-2.6c-0.1-1.3,1.4-0.9,1.9-1c0.5-0.1,0.8-0.9,0.4-2.7c-0.4-1.8,1.2-1.4,1.9-1.9c0.8-0.5,2.8-4.5,3.2-5.9
	c0.4-1.4-0.6-1-3.3-2.4c-2.7-1.4,4-2.4,5.3-2.8c1.3-0.4,0.3-1.5-1.9-2.6c-2.2-1-1-1.1-0.6-2.4c0.4-1.3-0.6-2.4-0.6-2.4
	c-2.8,0.3-1.2-3.8-2.2-4.9c-1-1,1.5-2.9,1.2-4.1c-0.4-1.1-1.1-0.9-1.7-3.3l-68.7,2.1L299.9,431.6z"/>
<path id="Southampton" class="st0" d="M739.3,460.6l-1.3-1.7c0,0-1.5,0.3-1.9,0.7c-0.5,0.5,0.2-2.5,0.2-2.5s0.6-0.6,1,0.1
	c0.5,0.6,1.5,1.9,4.3-2.2l0.5-3c0,0,0.9-0.1,1.1,0.5l0.2,2.3c0,0,1.2,3,1.7,3c0.5,0,0.6-1.3,1-1.4c0.4-0.1,2,1.3,2.3,0.7
	c0.3-0.6,1.3-1.4,2.4-0.9c1.1,0.5,3.5,1.2,4.9,0.8c0,0,0.4-2.2,2-2.6c0,0,2.7,0.8,3-1.1l1-1.6c0,0,2.1,1.9,3,2.2
	c0.8,0.3,1.2,0,1.2,0l2.4,1.9c0,0,0.8,0,1.8,1.4c0.9,1.4,2.1,1.6,2.1,1.6s6.7-0.1,7.9,0.3l1.6-1.5h1.1c0,0,0.9-0.2,0.8,1.4l0.1,0.8
	l-1.7,1.4l0.9,1.1c0,0,0.2,0,0.1,1.3l-4.3,0.2l-2.7,3c0,0-0.5,1.2,0.8,0.6c1.3-0.6,8.1-5.3,10.5,0.9c0,0,1.6,2.8,1.1-1.7
	c0,0,0.3-3.9,5.7,2.4c0,0,3.8,3.5,3,0.2l2.5-1.1l1.9-0.1l2,1.8v1.2l-1,0.7l-0.6,1.4h-2.3l-0.6,3.9l3.1,4.5c0,0,0.4,2.6,1,2.6
	c0,0,0.4,1-1.8,2v5.2l-7.5,3.5c0,0,0.6,3.8-2.4,4.3c0,0-1.3-1-1.9,1.6c0,0-3-0.1-3,1.7c0,0-4.2,0.6-4.6-0.9c0,0-0.7-1.5-2.7-0.1
	c0,0-5.1-0.5-4.7-3.6l0.6-1.1l-0.2-2.4h0.8l-0.2-3.7c0,0-2.7-2.6,1.3-3.9c4-1.4,3.6-3,3.6-3s0.3-4-5.3-4c-5.6,0,2.2-2.4,1.7-2.9
	c0,0,2.6-1.3,0.2-4.7c0,0-1-0.6-0.5,2.2c0.6,2.8-3.6,1.3-4.5,3.4c-0.9,2.1-0.2,4.1,3.2,4.2c3.4,0.1,2.6,2.5,1.3,2.6
	c-1.3,0.1-5.4,1.3-3.5,6.9l-0.4,3.6c0,0-1-1.6-1.7-0.4c-0.7,1.2,0.5,1.7,1,1.9c0.5,0.2-0.8,2.9-0.8,2.9l-0.2,0.2l-1.5-2.4
	c0,0-0.7-0.9-0.3,2l1.5,1.3l-0.4,3c0,0-0.5,0.7-1.2-1.2c-0.8-2-1.6-1.9-1.6-1.9l-0.1-1l0.7-1.1l0.4-2.2L768,496l-1.1,2.3l-0.5-1.8
	l-1.4-2.3l-0.1,2.9l-0.8,0l-0.2-2.3l-2.6-2.6l-4.5-2.4l-7.3-3.7c0,0-2.4-1.3-3.8,3l-2.3,0c0,0-9-5.5-9-10.6l-2.4-3.4
	c0,0,3,0,4.2-1.2c0,0,0.2-1.5-0.8-2.2l-0.1-1l2.7,0.3v-0.7l-1.8-1.5c0,0-1.9-0.8,1.1-2.2v-0.8l-2.4-0.3c0,0,1.6-2.4,1.9-2.2
	c0.4,0.2,2.4-2.7,2.4-2.7L739.3,460.6z"/>
<path id="Ohio" class="st0" d="M481,111.5c-0.2-1-0.4-2-0.5-2.6c-0.1-0.4,0.5-0.4,1-0.4L477.3,86c-3.4,1.9-8.4,5.3-9.3,6.6
	c-1.1,1.6-3.6,4.4-4.8,4.4c-1.3,0-3.6,0-4.3,0.8c-0.8,0.8-4.3,2.2-5,1.6c-0.7-0.6-2.2-0.7-2.3-0.5c0,0.3-1.2,0.5-1.8,0.7
	c-0.6,0.3-1-0.6-0.5-0.8c0.5-0.2,1.9-0.1,1.7-0.6c-0.2-0.6-0.5-0.9-1.3-0.5c-0.8,0.4-0.6,1-1.2,0.3c-0.6-0.7-0.7-0.5-2.1-1
	c-1.5-0.5-1.4-0.3-2.5-0.9c-0.9-0.5-1.9-0.2-1.8-0.8c-4.6,1.2-15.7,4.1-16.3,3.2c0,0-0.1-0.1-0.1-0.1l5.3,43.1
	c0.2-0.3,0.4-0.5,0.8-0.5c0.9,0,1.9,0.2,3,0.4c1.1,0.3,1.3-1,2.2,0.3c0.8,1.2,1,2,1.8,2.5c0.8,0.5,0.2,1.8,2,2
	c1.7,0.2,3.3-0.8,3.9,0c0.6,0.7,2.3,2.1,3.1,1.8c0.9-0.3,0.6-1.9,1.7-1.6c1.1,0.3,1.4,0.9,2.1,0.8c0.7,0,1.1-0.3,1.2-0.7
	c0.2-0.4,0.7-0.3,1-0.2c0.3,0.1,0.6-0.5,0.7-0.7c0.1-0.2,0.8-0.5,0.8-0.5l0.8-0.7l0.5,0.4c0,0,0,0.1,0.2,0.5
	c0.1,0.4,0.5,0.7,0.9,0.8c0.4,0.1,0.1,0.3,0.5,0.7c0.4,0.5,1.3,0.7,1.8,0.8c0.6,0.1,0.5,0.6,0.7,1.1c0.1,0.2,0.6,0.6,1.1,0.9
	c0.4-0.2,1-0.4,1.6-0.4c1-0.2,0.9-0.4,0.9-1.7c0-1.2,0.5-0.9,1.2-1.2c0.8-0.3,0.4-1.7,0-2.5c-0.4-0.8,0.3-2,0.2-3
	c-0.1-1,0.8-2.3,1.2-2.8c0.5-0.5,1.5,0.8,2.3,1.3c0.8,0.5,0.2-3.5-0.2-4.7c-0.3-1.2,1.4-1.4,2.2-1.8c0.8-0.4,0.7-1.4,0.9-2.6
	c0.2-1.1,1.1-0.3,2,0.3c0.9,0.6,1.1,0.1,2.1-0.2c1-0.2,2.2-2.7,2.9-3.7c0.8-1,0.5-3.1,0.3-5.2c-0.2-2.1,0.9-1.4,1.4-1.8
	c0.5-0.5-0.1-3.3-0.1-4.7c-0.1-1.4,0.1-0.9,0.7-1.1C482,113.9,481.3,112.6,481,111.5z"/>
<path id="Maryland" class="st0" d="M402,293.7c-0.7-1.2-1.7-2-0.4-2.9c1.3-0.9,0.6-0.9,2.3-2.6c1.2-1.3,1.5-2.1,1.6-3.1
	c-2.2-0.7-5.3-0.9-8.1-1.3c-4-0.6-6.5-0.6-6.9-1.3c-0.4-0.7-2.2-9.9-2.3-12.4c-0.2-2.5-2.4-9.3-3.8-12.5c-1-2.3-1.4-4.1-1.4-5.1
	l-71.8,13.6l2.1,13.1l6.8-7.7c0,0,2.3-1,2.5-0.1c0.2,0.9,0.7-0.1,1-0.7c0.3-0.6,1.7-5.4,2.3-4.6c0.6,0.8,0.6,1.7,2.8,1.9
	c2.2,0.2,2.3-1.9,3.5-2.5c1.2-0.5,2.5-0.9,3.1-1.5c0.6-0.6,2-1.5,3-1c1,0.5,2.3,0.5,3.8,0.5c1.5,0,2.6,1,3,2.2
	c0.3,1.2,2.3,4.1,2.3,4.1s4.5-0.7,4.7,0.5c0.2,1.2,0.4,4,1,4.5c0.6,0.5,3.3-0.3,4.6,0.6c1.3,0.9,5.4,2.6,5.5,4.4
	c0.2,1.9,0.6,3.4-0.7,5.7c-1.3,2.2-2.6,5.2-1.9,6.4c0.8,1.2,3,1,4.1-0.1c1.1-1.1,3-0.6,3.5,0.1c0.5,0.7-1.1,1,0.3,1.7
	c1.4,0.7,3.9,1.5,5.8,1.9c1.8,0.3,4-0.7,4.8-0.3c0.2-1,0.6-1.6,0.1-3c-0.6-1.9,0.1-2.5-0.8-4.3c-0.9-1.9-1.7-1.4-2.2-3
	c-0.5-1.6-1.9-3.3-2-5.7c-0.2-2.3-0.1-4.7-0.3-6.6c-0.2-1.9,0.4-3.2-0.9-3.7c-1.2-0.5-2.6-3.6-1.9-3.3c0.7,0.3,1.3,1.2,1.9-0.1
	c0.6-1.3,1.9-2.9,2.3-3c0.4-0.2,0.9-0.3,2-1c1.1-0.7,2.1-1.4,1.9-2.1c-0.2-0.7,0.8-1.5,0.8-0.4c0,1.1-0.3,2.5,0.4,2.5
	c0.7,0,1.5,0.5,0.4,0.8c-1.1,0.3-5.6,1.1-4.9,2.6c0.7,1.5,0.2,5.1,1.5,5c1.3-0.2,1.6-0.2,1.4,0.9c-0.2,1.2-1.4,0.9-2,2
	c-0.6,1.1-2.8,2.4-1.1,2.6c1.7,0.2,2.7-1.9,3.1-1.2c0.4,0.6,1.6,1,0.8,1.9c-0.9,0.9-1.8,0.3-1.9,1.2c-0.1,0.9-0.8,1.6,0.5,1.9
	c1.3,0.3,1.9-0.9,2.6,0c0.7,0.8,1.9,1.1,0.9,1.8c-0.9,0.7-2-0.2-2.3,1.3c-0.3,1.5-1,2,0.5,2.2c1.5,0.2,1.9-0.2,2,1.1
	c0.2,1.2,0,0.6-0.2,2.5c-0.2,1.9-0.5,2.5,1.2,2.6c1.6,0.2,2.5-1.3,2.8-1.9c0.3-0.5,1.1-1.9,2.7,0.7c1.6,2.6,2.6,2.9,2.1,4.8
	c-0.5,1.9-0.9,1.3,0.3,2.1c1.2,0.8,1.9,0.8,2.5,0.5c0.5-0.2,0.9,0.5,1,2c0.1,1.5-1.7,5.4-1.8,7.1c-0.1,1.7-0.7,3.3-0.5,6
	c0.2,2.7-0.5,3.7,0.8,5c1.3,1.3,2,1.9,2.1-1c0.1-2.9-0.5-5.1,0.3-6c0.8-0.9,1.1-0.8,1.1-2.2c0-1.4,2.8,1.1,2.4-1.4
	c-0.4-2.5-0.6-4.7,0.3-6.3c0.9-1.5,0.1-2.8,2.1-3.6c2-0.8,2.7-1.2,2.6-2C403.8,293.8,402.7,294.8,402,293.7z"/>
<path id="Caroline_du_nord" class="st0" d="M817.3,344.9c-0.6-0.6-0.9-1-1.4-1.8c-0.5-0.8-1.2-2.3-1.6-2.8c-0.4-0.5-0.5-1.2-1.2-2.3
	c-0.2-0.3-0.3-0.5-0.4-0.6c-4.1,1-28.9,6.9-50.5,9.7c0,0-1.8,0.4-2.4,0.2c-0.1-0.1-0.4-0.1-0.7-0.1c0.1,0.8,0.2,2-0.2,2.7
	c-0.6,1.1-0.9,0.5-1.3,1.6c-0.4,1.1-1.6,2.7-1.7,2.2c-0.1-0.5-1.1-1.5-2.2-0.5c-1,1-0.1,2.4-1.4,2.6c-1.3,0.1-0.7-1-1.3-1
	c-0.6,0-0.1,0.6-0.5,1.1c-0.4,0.6-1.6,0.3-1.6,0.9c0,0.6-0.1,1.7-1,1.7c-1,0.1-2.9,2.4-3.6,3.2c-0.8,0.8-1.5-0.6-2.9,0.6
	c-1.4,1.1-2,0.3-1.9,1.2c0.1,0.8,0.5,1.6-0.1,2.1c-0.6,0.5-2.2,0.3-2.2,0.8c0,0.3,0,1.6-0.1,2.7c6.2-0.7,10.5-1.2,11-1.2
	c1.9-0.1,2.2-0.8,3.4-1.5c1.2-0.7,4.7-2.5,5.6-2.6c0.8-0.1,10.3-1.5,10.3-1c0,0.4-0.6,0.7,0.6,0.8c1.1,0.1,1.4-0.1,1.8,0.3
	c0.4,0.4,1,2.4,1,2.4l10.9-1.8l12,9.1c0.2-0.1,0.5-0.3,0.8-0.4c1.3-0.4,1-0.4,2.4-0.6c1.4-0.2,2.2,0.3,2.3-1.5
	c0.1-1.8,3.3-6.1,4-6.6c0.7-0.5,0.1-0.7,0-1c-0.1-0.3-0.2-0.9,0-1c0.2-0.1,0,0.1,0.2,0.5c0.2,0.4,0.8,0.8,0.9,0.5
	c0.1-0.3,0.6-0.8,0.7-1.4c0.1-0.6,0.4-1,0.7-0.7c0.3,0.3,1,0.5,1.3,0.3c0.3-0.2,1.5-0.5,1.9-0.7c0.3-0.2,0-0.8,0.2-1.1
	c0.2-0.3,0.1,0.2,0.8,0.1c0.8-0.1,0.6-0.5,0.9-0.2c0.3,0.4,0.1,0.9,0.3,1.2c0.2,0.3,0.1,0.6,0.5-0.5c0.4-1.1,1-2.3,1.5-2.7
	c0.4-0.4,0.2-0.8-0.2-0.6c-0.4,0.2-0.5,0.6-0.5-0.1c0-0.7,0.4-1.6-0.1-1.2c-0.5,0.5-0.5,1.7-0.9,1.3c-0.4-0.5-0.4-0.5-0.4-1
	c0-0.6-0.5-1.4-0.5-0.5c-0.1,0.9,0.2,1.3-0.5,1.5c-0.7,0.2-0.8,0.6-1.6,0.7c-0.9,0.1-1.7,0.1-1.2-0.1c0.6-0.2,1,0.2,1.5-0.7
	c0.5-0.9,0.4-1,0.8-1.8c0.4-0.8,1.3-1,0.6-1.4c-0.7-0.4-0.4-0.3-1.6-0.7c-1.2-0.4-2.6-0.5-2.1-0.7c0.5-0.2,1.1,0.1,1.7-0.2
	c0.6-0.3,0.2-0.9,0.8-0.7c0.6,0.2-0.1,0.3,1.5,0.5c1.6,0.2,1.7,0.3,2,0.2c0.3,0,1.7-1,1.9-2.7c0.1-1.6,0.4-0.9,0.8-0.9
	c0.4,0,0.8,0,0.7-0.7c-0.1-0.7-0.3-1.5-0.4-2.3c0-0.8-0.7-0.9-0.9-0.9c-0.2-0.1-0.9-0.2-0.9,0.3c0,0.5-0.8,0.2-0.5,0.8
	c0.3,0.6,0.7,1.3,0.1,1.8c-0.6,0.5-1,0.6-0.8-0.5c0.2-1.1,0.9-1.3,0.3-1.9c-0.6-0.6-0.7-1.1-1.2-0.7c-0.5,0.4-1.3,0.4-1.4,1
	c-0.1,0.6-1.4-0.8-1.6-0.3c-0.2,0.5-0.8,1.3-1.7,0.9c-0.9-0.4-1.4-1-1.5-1.5c-0.1-0.4,0.1,0.1,0.8,0.3c0.7,0.1,0.7,0.5,1.2,0.2
	c0.5-0.3,1.3-0.1,1.6-0.8c0.4-0.7,0.8-0.9,1.6-1c0.8-0.1,1.5-0.7,0.9-1c-0.6-0.3-0.7-1.1,0-0.7c0.7,0.4,1.3,0.9,1.6,0.7
	c0.3-0.2,0.3,0,0.6,0.1c0.2,0.2,1,0.6,0.4-0.1c-0.7-0.7-0.7-1.6-1.2-2.1c-0.5-0.5-1.1-0.6-1.3-1.2c-0.2-0.6-0.5-1.4,0.3-1
	c0.7,0.4,0.9,0.3,1.2,1.3c0.3,0.9,0.8,1.3,1.1,1.8c0.3,0.5,0.5,1,1.1,2c0.6,1,1,1.6,1.4,2C817.1,345.2,817.8,345.5,817.3,344.9z"/>
<g id="SYNTHrock">
	<g id="XMLID_5_">
		<circle id="XMLID_810_" class="st1" cx="988.4" cy="427.3" r="24.6"/>
		<g id="XMLID_804_">
			<g id="XMLID_44_" class="st2">
				<g id="XMLID_133_">
					<path id="XMLID_136_" class="st3" d="M988.4,407.4c11,0,19.8,8.9,19.8,19.8c0,11-8.9,19.8-19.8,19.8c-11,0-19.8-8.9-19.8-19.8
						C968.5,416.3,977.4,407.4,988.4,407.4 M988.4,405.8c-11.8,0-21.5,9.6-21.5,21.5c0,11.8,9.6,21.5,21.5,21.5s21.5-9.6,21.5-21.5
						C1009.8,415.4,1000.2,405.8,988.4,405.8L988.4,405.8z"/>
				</g>
			</g>
		</g>
	</g>
	<text id="XMLID_6_" transform="matrix(1 0 0 1 963.1688 460.7119)" class="st4 st5 st6">SYNTHrock</text>
</g>
<g id="blues_rock">
	<circle id="XMLID_770_" class="st1" cx="928" cy="378.9" r="24.6"/>
	<g id="XMLID_764_">
		<g id="XMLID_47_" class="st2">
			<g id="XMLID_134_">
				<path id="XMLID_135_" class="st3" d="M928,359c11,0,19.8,8.9,19.8,19.8c0,11-8.9,19.8-19.8,19.8c-11,0-19.8-8.9-19.8-19.8
					C908.2,367.9,917.1,359,928,359 M928,357.4c-11.8,0-21.5,9.6-21.5,21.5c0,11.8,9.6,21.5,21.5,21.5c11.8,0,21.5-9.6,21.5-21.5
					C949.5,367,939.9,357.4,928,357.4L928,357.4z"/>
			</g>
		</g>
	</g>
	<text id="XMLID_9_" transform="matrix(1 0 0 1 901.1414 414.0166)" class="st4 st5 st6">blues rock</text>
</g>
<g id="XMLID_1126_">
	<g id="XMLID_618_">
		<circle id="XMLID_627_" class="st1" cx="639.9" cy="43.4" r="24.6"/>
		<g id="XMLID_621_">
			<g id="XMLID_53_" class="st2">
				<g id="XMLID_65_">
					<path id="XMLID_130_" class="st3" d="M639.9,23.6c11,0,19.8,8.9,19.8,19.8s-8.9,19.8-19.8,19.8c-11,0-19.8-8.9-19.8-19.8
						S629,23.6,639.9,23.6 M639.9,22c-11.8,0-21.5,9.6-21.5,21.5s9.6,21.5,21.5,21.5c11.8,0,21.5-9.6,21.5-21.5S651.8,22,639.9,22
						L639.9,22z"/>
				</g>
			</g>
		</g>
	</g>
	<text id="XMLID_16_" transform="matrix(1 0 0 1 629.2894 77.1248)" class="st4 st5 st6">folk</text>
</g>
<g id="XMLID_1116_">
	<g id="XMLID_496_">
		<circle id="XMLID_513_" class="st1" cx="659.5" cy="107.6" r="24.6"/>
		<g id="XMLID_499_">
			<g id="XMLID_56_" class="st2">
				<g id="XMLID_67_">
					<path id="XMLID_109_" class="st3" d="M659.5,87.8c11,0,19.8,8.9,19.8,19.8c0,11-8.9,19.8-19.8,19.8c-11,0-19.8-8.9-19.8-19.8
						C639.7,96.6,648.5,87.8,659.5,87.8 M659.5,86.1c-11.8,0-21.5,9.6-21.5,21.5s9.6,21.5,21.5,21.5c11.8,0,21.5-9.6,21.5-21.5
						S671.3,86.1,659.5,86.1L659.5,86.1z"/>
				</g>
			</g>
		</g>
	</g>
	<text id="XMLID_18_" transform="matrix(1 0 0 1 628.8265 141.4524)" class="st4 st5 st6">pop Baroque</text>
</g>
<g id="disco">
	<g id="XMLID_292_">
		<circle id="XMLID_340_" class="st1" cx="709" cy="66.2" r="24.6"/>
		<g id="XMLID_316_">
			<g id="XMLID_59_" class="st2">
				<g id="XMLID_69_">
					<path id="XMLID_106_" class="st3" d="M709,46.4c11,0,19.8,8.9,19.8,19.8c0,11-8.9,19.8-19.8,19.8c-11,0-19.8-8.9-19.8-19.8
						C689.2,55.3,698,46.4,709,46.4 M709,44.8c-11.8,0-21.5,9.6-21.5,21.5s9.6,21.5,21.5,21.5c11.8,0,21.5-9.6,21.5-21.5
						S720.8,44.8,709,44.8L709,44.8z"/>
				</g>
			</g>
		</g>
	</g>
	<text id="XMLID_24_" transform="matrix(1 0 0 1 696.0062 100.2839)" class="st4 st5 st6">disco</text>
</g>
<g id="r_x2019_n_x2019_b">
	<g id="XMLID_539_">
		<circle id="XMLID_551_" class="st1" cx="626.5" cy="194.1" r="24.6"/>
		<g id="XMLID_542_">
			<g id="XMLID_62_" class="st2">
				<g id="XMLID_71_">
					<path id="XMLID_103_" class="st3" d="M626.5,174.3c11,0,19.8,8.9,19.8,19.8c0,11-8.9,19.8-19.8,19.8c-11,0-19.8-8.9-19.8-19.8
						C606.7,183.2,615.6,174.3,626.5,174.3 M626.5,172.7c-11.8,0-21.5,9.6-21.5,21.5s9.6,21.5,21.5,21.5S648,206,648,194.1
						S638.4,172.7,626.5,172.7L626.5,172.7z"/>
				</g>
			</g>
		</g>
	</g>
	<text id="XMLID_27_" transform="matrix(1 0 0 1 616.4677 228.3405)" class="st4 st5 st6">r’n’b</text>
</g>
<g id="hip-hop">
	<g id="XMLID_640_">
		<circle id="XMLID_650_" class="st1" cx="740.5" cy="133.7" r="24.6"/>
		<g id="XMLID_644_">
			<g id="XMLID_64_" class="st2">
				<g id="XMLID_73_">
					<path id="XMLID_100_" class="st3" d="M740.5,113.9c11,0,19.8,8.9,19.8,19.8c0,11-8.9,19.8-19.8,19.8c-11,0-19.8-8.9-19.8-19.8
						C720.6,122.7,729.5,113.9,740.5,113.9 M740.5,112.2c-11.8,0-21.5,9.6-21.5,21.5s9.6,21.5,21.5,21.5c11.8,0,21.5-9.6,21.5-21.5
						S752.3,112.2,740.5,112.2L740.5,112.2z"/>
				</g>
			</g>
		</g>
	</g>
	<text id="XMLID_30_" transform="matrix(1 0 0 1 722.7279 167.4403)" class="st4 st5 st6">hip-hop</text>
</g>
<g id="post-disco">
	<g id="XMLID_514_">
		<circle id="XMLID_527_" class="st1" cx="533.4" cy="156.8" r="24.6"/>
		<g id="XMLID_519_">
			<g id="XMLID_66_" class="st2">
				<g id="XMLID_75_">
					<path id="XMLID_97_" class="st3" d="M533.4,136.9c11,0,19.8,8.9,19.8,19.8s-8.9,19.8-19.8,19.8c-11,0-19.8-8.9-19.8-19.8
						S522.5,136.9,533.4,136.9 M533.4,135.3c-11.8,0-21.5,9.6-21.5,21.5s9.6,21.5,21.5,21.5c11.8,0,21.5-9.6,21.5-21.5
						S545.3,135.3,533.4,135.3L533.4,135.3z"/>
				</g>
			</g>
		</g>
	</g>
	<text id="XMLID_33_" transform="matrix(1 0 0 1 508.1185 191.2904)" class="st4 st5 st6">post-disco</text>
</g>
<g id="heartland_rock">
	<g id="XMLID_833_">
		<circle id="XMLID_842_" class="st1" cx="678.2" cy="308.2" r="24.6"/>
		<g id="XMLID_836_">
			<g id="XMLID_68_" class="st2">
				<g id="XMLID_76_">
					<path id="XMLID_85_" class="st3" d="M678.2,288.3c11,0,19.8,8.9,19.8,19.8c0,11-8.9,19.8-19.8,19.8c-11,0-19.8-8.9-19.8-19.8
						C658.4,297.2,667.2,288.3,678.2,288.3 M678.2,286.7c-11.8,0-21.5,9.6-21.5,21.5c0,11.8,9.6,21.5,21.5,21.5
						c11.8,0,21.5-9.6,21.5-21.5C699.7,296.3,690,286.7,678.2,286.7L678.2,286.7z"/>
				</g>
			</g>
		</g>
	</g>
	<text id="XMLID_36_" transform="matrix(1 0 0 1 640.6179 343.1652)" class="st4 st5 st6">heartland rock</text>
</g>
<g id="break_beat">
	<g id="XMLID_476_">
		<circle id="XMLID_485_" class="st1" cx="595.7" cy="124" r="24.6"/>
		<g id="XMLID_479_">
			<g id="XMLID_70_" class="st2">
				<g id="XMLID_77_">
					<path id="XMLID_82_" class="st3" d="M595.7,104.2c11,0,19.8,8.9,19.8,19.8c0,11-8.9,19.8-19.8,19.8c-11,0-19.8-8.9-19.8-19.8
						C575.9,113,584.8,104.2,595.7,104.2 M595.7,102.5c-11.8,0-21.5,9.6-21.5,21.5c0,11.8,9.6,21.5,21.5,21.5
						c11.8,0,21.5-9.6,21.5-21.5C617.2,112.2,607.6,102.5,595.7,102.5L595.7,102.5z"/>
				</g>
			</g>
		</g>
	</g>
	<text id="XMLID_39_" transform="matrix(1 0 0 1 570.914 158.7009)" class="st4 st5 st6">break beat</text>
</g>
<g id="soul_psychédélique">
	<g id="XMLID_651_">
		<circle id="XMLID_660_" class="st1" cx="481.7" cy="218.9" r="24.6"/>
		<g id="XMLID_654_">
			<g id="XMLID_72_" class="st2">
				<g id="XMLID_78_">
					<path id="XMLID_79_" class="st3" d="M481.7,199.1c11,0,19.8,8.9,19.8,19.8c0,11-8.9,19.8-19.8,19.8c-11,0-19.8-8.9-19.8-19.8
						C461.8,208,470.7,199.1,481.7,199.1 M481.7,197.4c-11.8,0-21.5,9.6-21.5,21.5c0,11.8,9.6,21.5,21.5,21.5
						c11.8,0,21.5-9.6,21.5-21.5C503.2,207.1,493.5,197.4,481.7,197.4L481.7,197.4z"/>
				</g>
			</g>
		</g>
	</g>
	<text id="XMLID_42_" transform="matrix(1 0 0 1 434.8424 253.1497)" class="st4 st5 st6">soul psychédélique</text>
</g>
<g id="soft_Rock">
	<g id="XMLID_672_">
		<circle id="XMLID_684_" class="st1" cx="568.5" cy="223.7" r="24.6"/>
		<g id="XMLID_677_">
			<g id="XMLID_74_" class="st2">
				<g id="XMLID_89_">
					<path id="XMLID_90_" class="st3" d="M568.5,203.9c11,0,19.8,8.9,19.8,19.8c0,11-8.9,19.8-19.8,19.8c-11,0-19.8-8.9-19.8-19.8
						C548.6,212.8,557.5,203.9,568.5,203.9 M568.5,202.3c-11.8,0-21.5,9.6-21.5,21.5c0,11.8,9.6,21.5,21.5,21.5
						c11.8,0,21.5-9.6,21.5-21.5C589.9,211.9,580.3,202.3,568.5,202.3L568.5,202.3z"/>
				</g>
			</g>
		</g>
	</g>
	<text id="XMLID_45_" transform="matrix(1 0 0 1 545.2595 257.4389)" class="st4 st5 st6">soft Rock</text>
</g>
<g id="rap_rock">
	<g id="XMLID_486_">
		<circle id="XMLID_495_" class="st1" cx="683.9" cy="178.6" r="24.6"/>
		<g id="XMLID_489_">
			<g id="XMLID_86_" class="st2">
				<g id="XMLID_111_">
					<path id="XMLID_112_" class="st3" d="M683.9,158.8c11,0,19.8,8.9,19.8,19.8c0,11-8.9,19.8-19.8,19.8s-19.8-8.9-19.8-19.8
						C664.1,167.7,672.9,158.8,683.9,158.8 M683.9,157.2c-11.8,0-21.5,9.6-21.5,21.5s9.6,21.5,21.5,21.5c11.8,0,21.5-9.6,21.5-21.5
						S695.7,157.2,683.9,157.2L683.9,157.2z"/>
				</g>
			</g>
		</g>
	</g>
	<text id="XMLID_48_" transform="matrix(1 0 0 1 663.2031 213.2561)" class="st4 st5 st6">rap rock</text>
</g>
<g id="electro">
	<g id="XMLID_661_">
		<circle id="XMLID_671_" class="st1" cx="740.6" cy="211" r="24.6"/>
		<g id="XMLID_664_">
			<g id="XMLID_95_" class="st2">
				<g id="XMLID_117_">
					<path id="XMLID_118_" class="st3" d="M740.6,191.1c11,0,19.8,8.9,19.8,19.8s-8.9,19.8-19.8,19.8c-11,0-19.8-8.9-19.8-19.8
						S729.6,191.1,740.6,191.1 M740.6,189.5c-11.8,0-21.5,9.6-21.5,21.5s9.6,21.5,21.5,21.5c11.8,0,21.5-9.6,21.5-21.5
						S752.4,189.5,740.6,189.5L740.6,189.5z"/>
				</g>
			</g>
		</g>
	</g>
	<text id="XMLID_51_" transform="matrix(1 0 0 1 722.4203 244.8339)" class="st4 st5 st6">electro</text>
</g>
<g id="blue-eyed_soul">
	<g id="XMLID_529_">
		<circle id="XMLID_538_" class="st1" cx="798.8" cy="228.6" r="24.6"/>
		<g id="XMLID_532_">
			<g id="XMLID_116_" class="st2">
				<g id="XMLID_122_">
					<path id="XMLID_123_" class="st3" d="M798.8,208.7c11,0,19.8,8.9,19.8,19.8c0,11-8.9,19.8-19.8,19.8c-11,0-19.8-8.9-19.8-19.8
						C779,217.6,787.8,208.7,798.8,208.7 M798.8,207.1c-11.8,0-21.5,9.6-21.5,21.5c0,11.8,9.6,21.5,21.5,21.5
						c11.8,0,21.5-9.6,21.5-21.5C820.3,216.7,810.6,207.1,798.8,207.1L798.8,207.1z"/>
				</g>
			</g>
		</g>
	</g>
	<text id="XMLID_54_" transform="matrix(1 0 0 1 763.3792 261.9763)" class="st4 st5 st6">blue-eyed soul</text>
</g>
<g id="garage_Rock">
	<g id="XMLID_594_">
		<circle id="XMLID_606_" class="st1" cx="99.2" cy="105.5" r="24.6"/>
		<g id="XMLID_598_">
			<g id="XMLID_121_" class="st2">
				<g id="XMLID_127_">
					<path id="XMLID_128_" class="st3" d="M99.2,85.7c11,0,19.8,8.9,19.8,19.8c0,11-8.9,19.8-19.8,19.8s-19.8-8.9-19.8-19.8
						C79.4,94.5,88.3,85.7,99.2,85.7 M99.2,84c-11.8,0-21.5,9.6-21.5,21.5c0,11.8,9.6,21.5,21.5,21.5s21.5-9.6,21.5-21.5
						C120.7,93.7,111,84,99.2,84L99.2,84z"/>
				</g>
			</g>
		</g>
	</g>
	<text id="XMLID_57_" transform="matrix(1 0 0 1 69.4482 139.0839)" class="st4 st5 st6">garage Rock</text>
</g>
<g id="grunge">
	<g id="XMLID_349_">
		<circle id="XMLID_455_" class="st1" cx="32.5" cy="129.7" r="24.6"/>
		<g id="XMLID_445_">
			<g id="XMLID_126_" class="st2">
				<g id="XMLID_143_">
					<path id="XMLID_144_" class="st3" d="M32.5,109.9c11,0,19.8,8.9,19.8,19.8c0,11-8.9,19.8-19.8,19.8c-11,0-19.8-8.9-19.8-19.8
						C12.7,118.8,21.6,109.9,32.5,109.9 M32.5,108.2c-11.8,0-21.5,9.6-21.5,21.5c0,11.8,9.6,21.5,21.5,21.5S54,141.6,54,129.7
						C54,117.9,44.4,108.2,32.5,108.2L32.5,108.2z"/>
				</g>
			</g>
		</g>
	</g>
	<text id="XMLID_61_" transform="matrix(1 0 0 1 14.3809 163.9017)" class="st4 st5 st6">grunge</text>
</g>
<g id="glam_rock">
	<g id="XMLID_771_">
		<circle id="XMLID_780_" class="st1" cx="866.1" cy="388.4" r="24.6"/>
		<g id="XMLID_774_">
			<g id="XMLID_142_" class="st2">
				<g id="XMLID_149_">
					<path id="XMLID_150_" class="st3" d="M866.1,368.6c11,0,19.8,8.9,19.8,19.8c0,11-8.9,19.8-19.8,19.8c-11,0-19.8-8.9-19.8-19.8
						C846.3,377.5,855.2,368.6,866.1,368.6 M866.1,366.9c-11.8,0-21.5,9.6-21.5,21.5c0,11.8,9.6,21.5,21.5,21.5
						c11.8,0,21.5-9.6,21.5-21.5C887.6,376.6,878,366.9,866.1,366.9L866.1,366.9z"/>
				</g>
			</g>
		</g>
	</g>
	<text id="XMLID_87_" transform="matrix(1 0 0 1 841.1766 423.9092)" class="st4 st5 st6">glam rock</text>
</g>
<g id="power_pop">
	<g id="XMLID_781_">
		<circle id="XMLID_790_" class="st1" cx="869.4" cy="456.4" r="24.6"/>
		<g id="XMLID_784_">
			<g id="XMLID_148_" class="st2">
				<g id="XMLID_154_">
					<path id="XMLID_155_" class="st3" d="M869.4,436.6c11,0,19.8,8.9,19.8,19.8c0,11-8.9,19.8-19.8,19.8c-11,0-19.8-8.9-19.8-19.8
						C849.5,445.4,858.4,436.6,869.4,436.6 M869.4,434.9c-11.8,0-21.5,9.6-21.5,21.5c0,11.8,9.6,21.5,21.5,21.5
						c11.8,0,21.5-9.6,21.5-21.5C890.9,444.6,881.2,434.9,869.4,434.9L869.4,434.9z"/>
				</g>
			</g>
		</g>
	</g>
	<text id="XMLID_88_" transform="matrix(1 0 0 1 844.2645 492.6787)" class="st4 st5 st6">power pop</text>
</g>
<g id="pop">
	<g id="XMLID_965_">
		<circle id="XMLID_978_" class="st1" cx="924.2" cy="446.7" r="24.6"/>
		<g id="XMLID_970_">
			<g id="XMLID_153_" class="st2">
				<g id="XMLID_160_">
					<path id="XMLID_161_" class="st3" d="M924.2,426.9c11,0,19.8,8.9,19.8,19.8c0,11-8.9,19.8-19.8,19.8c-11,0-19.8-8.9-19.8-19.8
						C904.3,435.8,913.2,426.9,924.2,426.9 M924.2,425.2c-11.8,0-21.5,9.6-21.5,21.5c0,11.8,9.6,21.5,21.5,21.5s21.5-9.6,21.5-21.5
						C945.6,434.9,936,425.2,924.2,425.2L924.2,425.2z"/>
				</g>
			</g>
		</g>
	</g>
	<text id="XMLID_91_" transform="matrix(1 0 0 1 915.4568 483.1455)" class="st4 st5 st6">pop</text>
</g>
<g id="PUNK_rock">
	<g id="XMLID_1017_">
		<circle id="XMLID_1026_" class="st1" cx="989.2" cy="358.8" r="24.6"/>
		<g id="XMLID_1020_">
			<g id="XMLID_158_" class="st2">
				<g id="XMLID_165_">
					<path id="XMLID_166_" class="st3" d="M989.2,339c11,0,19.8,8.9,19.8,19.8c0,11-8.9,19.8-19.8,19.8c-11,0-19.8-8.9-19.8-19.8
						C969.3,347.9,978.2,339,989.2,339 M989.2,337.4c-11.8,0-21.5,9.6-21.5,21.5s9.6,21.5,21.5,21.5c11.8,0,21.5-9.6,21.5-21.5
						S1001,337.4,989.2,337.4L989.2,337.4z"/>
				</g>
			</g>
		</g>
	</g>
	<text id="XMLID_113_" transform="matrix(1 0 0 1 964.7488 394.8232)" class="st4 st5 st6">PUNK rock</text>
</g>
<g id="rockabilly">
	<g id="XMLID_552_">
		<circle id="XMLID_567_" class="st1" cx="409" cy="355.5" r="24.6"/>
		<g id="XMLID_558_">
			<g id="XMLID_164_" class="st2">
				<g id="XMLID_174_">
					<path id="XMLID_175_" class="st3" d="M409,335.7c11,0,19.8,8.9,19.8,19.8c0,11-8.9,19.8-19.8,19.8c-11,0-19.8-8.9-19.8-19.8
						C389.1,344.6,398,335.7,409,335.7 M409,334.1c-11.8,0-21.5,9.6-21.5,21.5S397.1,377,409,377c11.8,0,21.5-9.6,21.5-21.5
						S420.8,334.1,409,334.1L409,334.1z"/>
				</g>
			</g>
		</g>
	</g>
	<text id="XMLID_140_" transform="matrix(1 0 0 1 383.7886 389.4476)" class="st4 st5 st6">rockabilly</text>
</g>
<g id="country_rock">
	<g id="XMLID_685_">
		<circle id="XMLID_695_" class="st1" cx="473.6" cy="343.7" r="24.6"/>
		<g id="XMLID_688_">
			<g id="XMLID_172_" class="st2">
				<g id="XMLID_184_">
					<path id="XMLID_185_" class="st3" d="M473.6,323.9c11,0,19.8,8.9,19.8,19.8c0,11-8.9,19.8-19.8,19.8c-11,0-19.8-8.9-19.8-19.8
						C453.8,332.7,462.7,323.9,473.6,323.9 M473.6,322.2c-11.8,0-21.5,9.6-21.5,21.5c0,11.8,9.6,21.5,21.5,21.5
						c11.8,0,21.5-9.6,21.5-21.5C495.1,331.9,485.5,322.2,473.6,322.2L473.6,322.2z"/>
				</g>
			</g>
		</g>
	</g>
	<text id="XMLID_146_" transform="matrix(1 0 0 1 440.8121 377.3997)" class="st4 st5 st6">country rock</text>
</g>
<g id="country">
	<g id="XMLID_579_">
		<circle id="XMLID_591_" class="st1" cx="528.7" cy="326.6" r="24.6"/>
		<g id="XMLID_584_">
			<g id="XMLID_181_" class="st2">
				<g id="XMLID_192_">
					<path id="XMLID_193_" class="st3" d="M528.7,306.7c11,0,19.8,8.9,19.8,19.8c0,11-8.9,19.8-19.8,19.8c-11,0-19.8-8.9-19.8-19.8
						C508.9,315.6,517.7,306.7,528.7,306.7 M528.7,305.1c-11.8,0-21.5,9.6-21.5,21.5c0,11.8,9.6,21.5,21.5,21.5
						c11.8,0,21.5-9.6,21.5-21.5C550.2,314.7,540.5,305.1,528.7,305.1L528.7,305.1z"/>
				</g>
			</g>
		</g>
	</g>
	<g id="XMLID_159_">
		<text id="XMLID_578_" transform="matrix(1 0 0 1 508.566 360.1741)" class="st4 st5 st6">country</text>
	</g>
</g>
<g id="honky-tonk">
	<g id="XMLID_466_">
		<circle id="XMLID_475_" class="st1" cx="263.5" cy="333.3" r="24.6"/>
		<g id="XMLID_469_">
			<g id="XMLID_189_" class="st2">
				<g id="XMLID_198_">
					<path id="XMLID_199_" class="st3" d="M263.5,313.5c11,0,19.8,8.9,19.8,19.8c0,11-8.9,19.8-19.8,19.8c-11,0-19.8-8.9-19.8-19.8
						C243.7,322.3,252.6,313.5,263.5,313.5 M263.5,311.8c-11.8,0-21.5,9.6-21.5,21.5c0,11.8,9.6,21.5,21.5,21.5
						c11.8,0,21.5-9.6,21.5-21.5C285,321.5,275.4,311.8,263.5,311.8L263.5,311.8z"/>
				</g>
			</g>
		</g>
	</g>
	<g id="XMLID_167_">
		<text id="XMLID_586_" transform="matrix(1 0 0 1 235.9198 366.968)" class="st4 st5 st6">honky-tonk</text>
	</g>
</g>
<g id="jazz">
	<g id="XMLID_456_">
		<circle id="XMLID_465_" class="st1" cx="156.7" cy="297.1" r="24.6"/>
		<g id="XMLID_459_">
			<g id="XMLID_197_" class="st2">
				<g id="XMLID_209_">
					<path id="XMLID_210_" class="st3" d="M156.7,277.3c11,0,19.8,8.9,19.8,19.8c0,11-8.9,19.8-19.8,19.8c-11,0-19.8-8.9-19.8-19.8
						C136.9,286.2,145.8,277.3,156.7,277.3 M156.7,275.6c-11.8,0-21.5,9.6-21.5,21.5c0,11.8,9.6,21.5,21.5,21.5s21.5-9.6,21.5-21.5
						C178.2,285.3,168.6,275.6,156.7,275.6L156.7,275.6z"/>
				</g>
			</g>
		</g>
	</g>
	<g id="XMLID_176_">
		<text id="XMLID_588_" transform="matrix(1 0 0 1 148.0014 330.9949)" class="st4 st5 st6">jazz</text>
	</g>
</g>
<g id="SYNTHpop">
	<g id="XMLID_791_">
		<circle id="XMLID_800_" class="st1" cx="965.1" cy="490.8" r="24.6"/>
		<g id="XMLID_794_">
			<g id="XMLID_208_" class="st2">
				<g id="XMLID_223_">
					<path id="XMLID_224_" class="st3" d="M965.1,470.9c11,0,19.8,8.9,19.8,19.8c0,11-8.9,19.8-19.8,19.8c-11,0-19.8-8.9-19.8-19.8
						C945.3,479.8,954.2,470.9,965.1,470.9 M965.1,469.3c-11.8,0-21.5,9.6-21.5,21.5s9.6,21.5,21.5,21.5c11.8,0,21.5-9.6,21.5-21.5
						S977,469.3,965.1,469.3L965.1,469.3z"/>
				</g>
			</g>
		</g>
	</g>
	<text id="XMLID_177_" transform="matrix(1 0 0 1 942.7537 528.6836)" class="st4 st5 st6">SYNTHpop</text>
</g>
<g id="country_rap">
	<g id="XMLID_204_">
		<circle id="XMLID_216_" class="st1" cx="600.9" cy="361.9" r="24.6"/>
		<g id="XMLID_207_">
			<g id="XMLID_222_" class="st2">
				<g id="XMLID_244_">
					<path id="XMLID_245_" class="st3" d="M600.9,342c11,0,19.8,8.9,19.8,19.8c0,11-8.9,19.8-19.8,19.8s-19.8-8.9-19.8-19.8
						C581.1,350.9,590,342,600.9,342 M600.9,340.4c-11.8,0-21.5,9.6-21.5,21.5c0,11.8,9.6,21.5,21.5,21.5c11.8,0,21.5-9.6,21.5-21.5
						C622.4,350,612.8,340.4,600.9,340.4L600.9,340.4z"/>
				</g>
			</g>
		</g>
		<g id="XMLID_205_" class="st2">
		</g>
	</g>
	<text id="XMLID_183_" transform="matrix(1 0 0 1 571.6409 398.6692)" class="st4 st5 st6">country rap</text>
</g>
<g id="talking_blues">
	<g id="XMLID_234_">
		<circle id="XMLID_241_" class="st1" cx="579.4" cy="429.4" r="24.6"/>
		<g id="XMLID_235_">
			<g id="XMLID_243_" class="st2">
				<g id="XMLID_255_">
					<path id="XMLID_256_" class="st3" d="M579.4,409.6c11,0,19.8,8.9,19.8,19.8c0,11-8.9,19.8-19.8,19.8s-19.8-8.9-19.8-19.8
						C559.6,418.5,568.5,409.6,579.4,409.6 M579.4,408c-11.8,0-21.5,9.6-21.5,21.5c0,11.8,9.6,21.5,21.5,21.5s21.5-9.6,21.5-21.5
						C600.9,417.6,591.3,408,579.4,408L579.4,408z"/>
				</g>
			</g>
		</g>
	</g>
	<text id="XMLID_190_" transform="matrix(1 0 0 1 547.3616 465.3156)" class="st4 st5 st6">talking blues</text>
</g>
<g id="rock_sudiste">
	<g id="XMLID_226_">
		<circle id="XMLID_233_" class="st1" cx="638.1" cy="482" r="24.6"/>
		<g id="XMLID_227_">
			<g id="XMLID_254_" class="st2">
				<g id="XMLID_548_">
					<path id="XMLID_549_" class="st3" d="M638.1,462.1c11,0,19.8,8.9,19.8,19.8c0,11-8.9,19.8-19.8,19.8c-11,0-19.8-8.9-19.8-19.8
						C618.3,471,627.1,462.1,638.1,462.1 M638.1,460.5c-11.8,0-21.5,9.6-21.5,21.5c0,11.8,9.6,21.5,21.5,21.5
						c11.8,0,21.5-9.6,21.5-21.5C659.6,470.1,649.9,460.5,638.1,460.5L638.1,460.5z"/>
				</g>
			</g>
		</g>
	</g>
	<text id="XMLID_196_" transform="matrix(1 0 0 1 607.9298 517.962)" class="st4 st5 st6">rock sudiste</text>
</g>
<g id="doo-wop">
	<g id="XMLID_202_">
		<circle id="XMLID_203_" class="st1" cx="366.1" cy="267" r="24.6"/>
		<g id="XMLID_212_">
			<g id="XMLID_545_" class="st2">
				<g id="XMLID_555_">
					<path id="XMLID_556_" class="st3" d="M366.1,247.1c11,0,19.8,8.9,19.8,19.8c0,11-8.9,19.8-19.8,19.8c-11,0-19.8-8.9-19.8-19.8
						C346.2,256,355.1,247.1,366.1,247.1 M366.1,245.5c-11.8,0-21.5,9.6-21.5,21.5c0,11.8,9.6,21.5,21.5,21.5s21.5-9.6,21.5-21.5
						C387.5,255.1,377.9,245.5,366.1,245.5L366.1,245.5z"/>
				</g>
			</g>
		</g>
	</g>
	<text id="XMLID_218_" transform="matrix(1 0 0 1 344.4667 300.8286)" class="st4 st5 st6">doo-wop</text>
</g>
<g id="rock_instrumental">
	<g id="XMLID_219_">
		<circle id="XMLID_220_" class="st1" cx="782" cy="352.2" r="24.6"/>
		<g id="XMLID_228_">
			<g id="XMLID_554_" class="st2">
				<g id="XMLID_561_">
					<path id="XMLID_562_" class="st3" d="M782,332.4c11,0,19.8,8.9,19.8,19.8c0,11-8.9,19.8-19.8,19.8c-11,0-19.8-8.9-19.8-19.8
						C762.1,341.3,771,332.4,782,332.4 M782,330.7c-11.8,0-21.5,9.6-21.5,21.5s9.6,21.5,21.5,21.5c11.8,0,21.5-9.6,21.5-21.5
						S793.8,330.7,782,330.7L782,330.7z"/>
				</g>
			</g>
		</g>
	</g>
	<text id="XMLID_236_" transform="matrix(1 0 0 1 737.1876 386.7441)" class="st4 st5 st6">rock instrumental</text>
</g>
<g id="rock_x2019_n_x2019_roll">
	<g id="XMLID_237_">
		<circle id="XMLID_238_" class="st1" cx="452.5" cy="112.3" r="24.6"/>
		<g id="XMLID_247_">
			<g id="XMLID_560_" class="st2">
				<g id="XMLID_571_">
					<path id="XMLID_572_" class="st3" d="M452.5,92.5c11,0,19.8,8.9,19.8,19.8c0,11-8.9,19.8-19.8,19.8c-11,0-19.8-8.9-19.8-19.8
						C432.6,101.4,441.5,92.5,452.5,92.5 M452.5,90.8c-11.8,0-21.5,9.6-21.5,21.5s9.6,21.5,21.5,21.5c11.8,0,21.5-9.6,21.5-21.5
						S464.3,90.8,452.5,90.8L452.5,90.8z"/>
				</g>
			</g>
		</g>
	</g>
	<text id="XMLID_250_" transform="matrix(1 0 0 1 425.6472 146.1705)" class="st4 st5 st6">rock’n’roll</text>
</g>
<g id="rock_alternatif">
	<g id="XMLID_251_">
		<circle id="XMLID_252_" class="st1" cx="657.6" cy="413.7" r="24.6"/>
		<g id="XMLID_258_">
			<g id="XMLID_570_" class="st2">
				<g id="XMLID_580_">
					<path id="XMLID_581_" class="st3" d="M657.6,393.8c11,0,19.8,8.9,19.8,19.8c0,11-8.9,19.8-19.8,19.8c-11,0-19.8-8.9-19.8-19.8
						C637.7,402.7,646.6,393.8,657.6,393.8 M657.6,392.2c-11.8,0-21.5,9.6-21.5,21.5c0,11.8,9.6,21.5,21.5,21.5
						c11.8,0,21.5-9.6,21.5-21.5C679,401.8,669.4,392.2,657.6,392.2L657.6,392.2z"/>
				</g>
			</g>
		</g>
	</g>
	<text id="XMLID_261_" transform="matrix(1 0 0 1 620.6614 448.7971)" class="st4 st5 st6">rock alternatif</text>
</g>
<g id="ROOTS_ROCK">
	<g id="XMLID_262_" class="st2">
		<g id="XMLID_263_">
			<defs>
				<rect id="XMLID_265_" x="16" y="244.4" width="49.2" height="49.2"/>
			</defs>
			<clipPath id="XMLID_191_">
				<use xlink:href="#XMLID_265_"  style="overflow:visible;"/>
			</clipPath>
			<path id="XMLID_264_" class="st7" d="M65.1,269c0,13.6-11,24.6-24.6,24.6S16,282.6,16,269c0-13.6,11-24.6,24.6-24.6
				S65.1,255.5,65.1,269"/>
		</g>
	</g>
	<g id="XMLID_266_" class="st2">
		<g id="XMLID_267_">
			<defs>
				<rect id="XMLID_271_" x="19.1" y="247.6" width="43" height="43"/>
			</defs>
			<clipPath id="XMLID_201_">
				<use xlink:href="#XMLID_271_"  style="overflow:visible;"/>
			</clipPath>
			<path id="XMLID_268_" class="st8" d="M40.6,249.2c11,0,19.8,8.9,19.8,19.8c0,11-8.9,19.8-19.8,19.8S20.7,280,20.7,269
				C20.7,258.1,29.6,249.2,40.6,249.2 M40.6,247.6c-11.8,0-21.5,9.6-21.5,21.5c0,11.8,9.6,21.5,21.5,21.5S62,280.9,62,269
				C62,257.2,52.4,247.6,40.6,247.6"/>
		</g>
	</g>
	<text id="XMLID_272_" transform="matrix(1 0 0 1 13.177 304.8826)" class="st4 st5 st6">ROOTS ROCK</text>
</g>
<g id="DANCE_ROCK">
	<g id="XMLID_273_" class="st2">
		<g id="XMLID_275_">
			<defs>
				<rect id="XMLID_277_" x="8.1" y="320" width="49.2" height="49.2"/>
			</defs>
			<clipPath id="XMLID_525_">
				<use xlink:href="#XMLID_277_"  style="overflow:visible;"/>
			</clipPath>
			<path id="XMLID_276_" class="st9" d="M57.3,344.6c0,13.6-11,24.6-24.6,24.6s-24.6-11-24.6-24.6c0-13.6,11-24.6,24.6-24.6
				S57.3,331,57.3,344.6"/>
		</g>
	</g>
	<g id="XMLID_278_" class="st2">
		<g id="XMLID_279_">
			<defs>
				<rect id="XMLID_283_" x="11.2" y="323.2" width="43" height="43"/>
			</defs>
			<clipPath id="XMLID_526_">
				<use xlink:href="#XMLID_283_"  style="overflow:visible;"/>
			</clipPath>
			<path id="XMLID_280_" class="st10" d="M32.7,324.8c11,0,19.8,8.9,19.8,19.8c0,11-8.9,19.8-19.8,19.8s-19.8-8.9-19.8-19.8
				C12.8,333.7,21.7,324.8,32.7,324.8 M32.7,323.2c-11.8,0-21.5,9.6-21.5,21.5s9.6,21.5,21.5,21.5c11.8,0,21.5-9.6,21.5-21.5
				S44.5,323.2,32.7,323.2"/>
		</g>
	</g>
	<text id="XMLID_284_" transform="matrix(1 0 0 1 5.2493 381.3865)" class="st4 st5 st6">DANCE ROCK</text>
</g>
<g id="CALIFORNIA_SOUND">
	<g id="XMLID_285_" class="st2">
		<g id="XMLID_286_">
			<defs>
				<rect id="XMLID_288_" x="76.4" y="339.6" width="49.2" height="49.2"/>
			</defs>
			<clipPath id="XMLID_536_">
				<use xlink:href="#XMLID_288_"  style="overflow:visible;"/>
			</clipPath>
			<path id="XMLID_287_" class="st11" d="M125.5,364.2c0,13.6-11,24.6-24.6,24.6c-13.6,0-24.6-11-24.6-24.6s11-24.6,24.6-24.6
				C114.5,339.6,125.5,350.6,125.5,364.2"/>
		</g>
	</g>
	<g id="XMLID_289_" class="st2">
		<g id="XMLID_290_">
			<defs>
				<rect id="XMLID_295_" x="79.5" y="342.7" width="43" height="43"/>
			</defs>
			<clipPath id="XMLID_537_">
				<use xlink:href="#XMLID_295_"  style="overflow:visible;"/>
			</clipPath>
			<path id="XMLID_291_" class="st12" d="M101,344.4c11,0,19.8,8.9,19.8,19.8c0,11-8.9,19.8-19.8,19.8c-11,0-19.8-8.9-19.8-19.8
				C81.1,353.3,90,344.4,101,344.4 M101,342.7c-11.8,0-21.5,9.6-21.5,21.5s9.6,21.5,21.5,21.5s21.5-9.6,21.5-21.5
				S112.8,342.7,101,342.7"/>
		</g>
	</g>
	<text id="XMLID_296_" transform="matrix(1 0 0 1 59.3567 398.6922)" class="st4 st5 st6">CALIFORNIA SOUND</text>
</g>
<g id="POP_PSYCHÉDÉLIQUE">
	<g id="XMLID_297_" class="st2">
		<g id="XMLID_298_">
			<defs>
				<rect id="XMLID_300_" x="62.4" y="409.3" width="49.2" height="49.2"/>
			</defs>
			<clipPath id="XMLID_546_">
				<use xlink:href="#XMLID_300_"  style="overflow:visible;"/>
			</clipPath>
			<path id="XMLID_299_" class="st13" d="M111.6,433.9c0,13.6-11,24.6-24.6,24.6s-24.6-11-24.6-24.6c0-13.6,11-24.6,24.6-24.6
				S111.6,420.4,111.6,433.9"/>
		</g>
	</g>
	<g id="XMLID_301_" class="st2">
		<g id="XMLID_302_">
			<defs>
				<rect id="XMLID_306_" x="65.5" y="412.5" width="43" height="43"/>
			</defs>
			<clipPath id="XMLID_547_">
				<use xlink:href="#XMLID_306_"  style="overflow:visible;"/>
			</clipPath>
			<path id="XMLID_303_" class="st14" d="M87,414.1c11,0,19.8,8.9,19.8,19.8c0,11-8.9,19.8-19.8,19.8s-19.8-8.9-19.8-19.8
				C67.1,423,76,414.1,87,414.1 M87,412.5c-11.8,0-21.5,9.6-21.5,21.5c0,11.8,9.6,21.5,21.5,21.5c11.8,0,21.5-9.6,21.5-21.5
				C108.5,422.1,98.8,412.5,87,412.5"/>
		</g>
	</g>
	<text id="XMLID_307_" transform="matrix(1 0 0 1 41.1614 469.785)" class="st4 st5 st6">POP PSYCHÉDÉLIQUE</text>
</g>
<g id="CHICAGO_BLUES">
	<g id="XMLID_308_" class="st2">
		<g id="XMLID_309_">
			<defs>
				<rect id="XMLID_311_" x="226.2" y="90.8" width="49.2" height="49.2"/>
			</defs>
			<clipPath id="XMLID_564_">
				<use xlink:href="#XMLID_311_"  style="overflow:visible;"/>
			</clipPath>
			<path id="XMLID_310_" class="st15" d="M275.4,115.4c0,13.6-11,24.6-24.6,24.6c-13.6,0-24.6-11-24.6-24.6
				c0-13.6,11-24.6,24.6-24.6C264.4,90.8,275.4,101.8,275.4,115.4"/>
		</g>
	</g>
	<g id="XMLID_312_" class="st2">
		<g id="XMLID_313_">
			<defs>
				<rect id="XMLID_318_" x="229.3" y="93.9" width="43" height="43"/>
			</defs>
			<clipPath id="XMLID_565_">
				<use xlink:href="#XMLID_318_"  style="overflow:visible;"/>
			</clipPath>
			<path id="XMLID_314_" class="st16" d="M250.8,95.6c11,0,19.8,8.9,19.8,19.8c0,11-8.9,19.8-19.8,19.8c-11,0-19.8-8.9-19.8-19.8
				C230.9,104.5,239.8,95.6,250.8,95.6 M250.8,93.9c-11.8,0-21.5,9.6-21.5,21.5s9.6,21.5,21.5,21.5c11.8,0,21.5-9.6,21.5-21.5
				S262.6,93.9,250.8,93.9"/>
		</g>
	</g>
	<text id="XMLID_319_" transform="matrix(1 0 0 1 216.5465 151.2959)" class="st4 st5 st6">CHICAGO BLUES</text>
</g>
<g id="HOUSE">
	<g id="XMLID_320_" class="st2">
		<g id="XMLID_321_">
			<defs>
				<rect id="XMLID_323_" x="163.8" y="64.4" width="49.2" height="49.2"/>
			</defs>
			<clipPath id="XMLID_576_">
				<use xlink:href="#XMLID_323_"  style="overflow:visible;"/>
			</clipPath>
			<path id="XMLID_322_" class="st17" d="M212.9,89c0,13.6-11,24.6-24.6,24.6c-13.6,0-24.6-11-24.6-24.6s11-24.6,24.6-24.6
				C201.9,64.4,212.9,75.4,212.9,89"/>
		</g>
	</g>
	<g id="XMLID_324_" class="st2">
		<g id="XMLID_325_">
			<defs>
				<rect id="XMLID_329_" x="166.9" y="67.5" width="43" height="43"/>
			</defs>
			<clipPath id="XMLID_577_">
				<use xlink:href="#XMLID_329_"  style="overflow:visible;"/>
			</clipPath>
			<path id="XMLID_326_" class="st18" d="M188.4,69.2c11,0,19.8,8.9,19.8,19.8c0,11-8.9,19.8-19.8,19.8c-11,0-19.8-8.9-19.8-19.8
				C168.5,78.1,177.4,69.2,188.4,69.2 M188.4,67.5c-11.8,0-21.5,9.6-21.5,21.5s9.6,21.5,21.5,21.5c11.8,0,21.5-9.6,21.5-21.5
				S200.2,67.5,188.4,67.5"/>
		</g>
	</g>
	<text id="XMLID_330_" transform="matrix(1 0 0 1 173.3267 125.5161)" class="st4 st5 st6">HOUSE</text>
</g>
<g id="TECH_HOUSE">
	<g id="XMLID_331_" class="st2">
		<g id="XMLID_332_">
			<defs>
				<rect id="XMLID_334_" x="161.5" y="131.7" width="49.2" height="49.2"/>
			</defs>
			<clipPath id="XMLID_589_">
				<use xlink:href="#XMLID_334_"  style="overflow:visible;"/>
			</clipPath>
			<path id="XMLID_333_" class="st19" d="M210.7,156.2c0,13.6-11,24.6-24.6,24.6s-24.6-11-24.6-24.6c0-13.6,11-24.6,24.6-24.6
				S210.7,142.7,210.7,156.2"/>
		</g>
	</g>
	<g id="XMLID_335_" class="st2">
		<g id="XMLID_338_">
			<defs>
				<rect id="XMLID_343_" x="164.6" y="134.8" width="43" height="43"/>
			</defs>
			<clipPath id="XMLID_590_">
				<use xlink:href="#XMLID_343_"  style="overflow:visible;"/>
			</clipPath>
			<path id="XMLID_339_" class="st20" d="M186.1,136.4c11,0,19.8,8.9,19.8,19.8c0,11-8.9,19.8-19.8,19.8c-11,0-19.8-8.9-19.8-19.8
				C166.3,145.3,175.2,136.4,186.1,136.4 M186.1,134.8c-11.8,0-21.5,9.6-21.5,21.5c0,11.8,9.6,21.5,21.5,21.5s21.5-9.6,21.5-21.5
				C207.6,144.4,198,134.8,186.1,134.8"/>
		</g>
	</g>
	<text id="XMLID_344_" transform="matrix(1 0 0 1 157.7242 192.4321)" class="st4 st5 st21">TECH HOUSE </text>
	<text id="XMLID_345_" transform="matrix(1 0 0 1 157.7242 192.4321)" class="st4 st5 st6">TECH HOUSE </text>
</g>
<g id="CHICAGO_SOUL">
	<g id="XMLID_346_" class="st2">
		<g id="XMLID_347_">
			<defs>
				<rect id="XMLID_350_" x="219" y="168.3" width="49.2" height="49.2"/>
			</defs>
			<clipPath id="XMLID_592_">
				<use xlink:href="#XMLID_350_"  style="overflow:visible;"/>
			</clipPath>
			<path id="XMLID_348_" class="st22" d="M268.2,192.9c0,13.6-11,24.6-24.6,24.6c-13.6,0-24.6-11-24.6-24.6
				c0-13.6,11-24.6,24.6-24.6C257.2,168.3,268.2,179.4,268.2,192.9"/>
		</g>
	</g>
	<g id="XMLID_351_" class="st2">
		<g id="XMLID_352_">
			<defs>
				<rect id="XMLID_356_" x="222.1" y="171.5" width="43" height="43"/>
			</defs>
			<clipPath id="XMLID_593_">
				<use xlink:href="#XMLID_356_"  style="overflow:visible;"/>
			</clipPath>
			<path id="XMLID_353_" class="st23" d="M243.6,173.1c11,0,19.8,8.9,19.8,19.8c0,11-8.9,19.8-19.8,19.8c-11,0-19.8-8.9-19.8-19.8
				C223.7,182,232.6,173.1,243.6,173.1 M243.6,171.5c-11.8,0-21.5,9.6-21.5,21.5c0,11.8,9.6,21.5,21.5,21.5s21.5-9.6,21.5-21.5
				C265.1,181.1,255.4,171.5,243.6,171.5"/>
		</g>
	</g>
	<text id="XMLID_357_" transform="matrix(1 0 0 1 211.243 228.8235)" class="st4 st5 st6">CHICAGO SOUL</text>
</g>
<g id="GOSPEL">
	<g id="XMLID_358_">
		<g id="XMLID_359_" class="st2">
			<g id="XMLID_360_">
				<defs>
					<rect id="XMLID_362_" x="303.8" y="70.6" width="49.2" height="49.2"/>
				</defs>
				<clipPath id="XMLID_595_">
					<use xlink:href="#XMLID_362_"  style="overflow:visible;"/>
				</clipPath>
				<path id="XMLID_361_" class="st24" d="M353,95.2c0,13.6-11,24.6-24.6,24.6c-13.6,0-24.6-11-24.6-24.6s11-24.6,24.6-24.6
					C342,70.6,353,81.6,353,95.2"/>
			</g>
		</g>
		<g id="XMLID_363_" class="st2">
			<g id="XMLID_364_">
				<defs>
					<rect id="XMLID_368_" x="306.9" y="73.7" width="43" height="43"/>
				</defs>
				<clipPath id="XMLID_596_">
					<use xlink:href="#XMLID_368_"  style="overflow:visible;"/>
				</clipPath>
				<path id="XMLID_365_" class="st25" d="M328.4,75.3c11,0,19.8,8.9,19.8,19.8c0,11-8.9,19.8-19.8,19.8c-11,0-19.8-8.9-19.8-19.8
					C308.6,84.2,317.4,75.3,328.4,75.3 M328.4,73.7c-11.8,0-21.5,9.6-21.5,21.5s9.6,21.5,21.5,21.5c11.8,0,21.5-9.6,21.5-21.5
					S340.2,73.7,328.4,73.7"/>
			</g>
		</g>
	</g>
	<text id="XMLID_369_" transform="matrix(1 0 0 1 311.6328 131.0668)" class="st4 st5 st6">GOSPEL</text>
</g>
<g id="SOUL">
	<g id="XMLID_370_">
		<g id="XMLID_371_" class="st2">
			<g id="XMLID_372_">
				<defs>
					<rect id="XMLID_374_" x="348.5" y="140.7" width="49.2" height="49.2"/>
				</defs>
				<clipPath id="XMLID_597_">
					<use xlink:href="#XMLID_374_"  style="overflow:visible;"/>
				</clipPath>
				<path id="XMLID_373_" class="st26" d="M397.7,165.3c0,13.6-11,24.6-24.6,24.6s-24.6-11-24.6-24.6c0-13.6,11-24.6,24.6-24.6
					S397.7,151.7,397.7,165.3"/>
			</g>
		</g>
		<g id="XMLID_375_" class="st2">
			<g id="XMLID_376_">
				<defs>
					<rect id="XMLID_380_" x="351.6" y="143.8" width="43" height="43"/>
				</defs>
				<clipPath id="XMLID_599_">
					<use xlink:href="#XMLID_380_"  style="overflow:visible;"/>
				</clipPath>
				<path id="XMLID_377_" class="st27" d="M373.1,145.5c11,0,19.8,8.9,19.8,19.8c0,11-8.9,19.8-19.8,19.8c-11,0-19.8-8.9-19.8-19.8
					C353.3,154.4,362.2,145.5,373.1,145.5 M373.1,143.8c-11.8,0-21.5,9.6-21.5,21.5c0,11.8,9.6,21.5,21.5,21.5s21.5-9.6,21.5-21.5
					C394.6,153.5,385,143.8,373.1,143.8"/>
			</g>
		</g>
	</g>
	<text id="XMLID_381_" transform="matrix(1 0 0 1 361.545 201.1962)" class="st4 st5 st6">SOUL</text>
</g>
<g id="BLUES">
	<g id="XMLID_382_">
		<g id="XMLID_383_" class="st2">
			<g id="XMLID_384_">
				<defs>
					<rect id="XMLID_386_" x="463" y="457.6" width="49.2" height="49.2"/>
				</defs>
				<clipPath id="XMLID_600_">
					<use xlink:href="#XMLID_386_"  style="overflow:visible;"/>
				</clipPath>
				<path id="XMLID_385_" class="st28" d="M512.2,482.2c0,13.6-11,24.6-24.6,24.6c-13.6,0-24.6-11-24.6-24.6
					c0-13.6,11-24.6,24.6-24.6C501.2,457.6,512.2,468.6,512.2,482.2"/>
			</g>
		</g>
		<g id="XMLID_387_" class="st2">
			<g id="XMLID_388_">
				<defs>
					<rect id="XMLID_392_" x="466.1" y="460.7" width="43" height="43"/>
				</defs>
				<clipPath id="XMLID_601_">
					<use xlink:href="#XMLID_392_"  style="overflow:visible;"/>
				</clipPath>
				<path id="XMLID_389_" class="st29" d="M487.6,462.4c11,0,19.8,8.9,19.8,19.8c0,11-8.9,19.8-19.8,19.8c-11,0-19.8-8.9-19.8-19.8
					C467.8,471.2,476.6,462.4,487.6,462.4 M487.6,460.7c-11.8,0-21.5,9.6-21.5,21.5c0,11.8,9.6,21.5,21.5,21.5
					c11.8,0,21.5-9.6,21.5-21.5C509.1,470.3,499.4,460.7,487.6,460.7"/>
			</g>
		</g>
	</g>
	<text id="XMLID_393_" transform="matrix(1 0 0 1 474.1325 518.0753)" class="st4 st5 st6">BLUES</text>
</g>
<g id="RHYTHM_AND_BLUES">
	<line id="XMLID_394_" class="st30" x1="305.5" y1="448.8" x2="354.7" y2="448.8"/>
	<polyline id="XMLID_395_" class="st30" points="308.6,402.7 308.6,445.7 351.6,445.7 	"/>
	<text id="XMLID_396_" transform="matrix(1 0 0 1 287.0649 462.0699)" class="st4 st5 st6">RHYTHM AND BLUES</text>
	<g id="XMLID_397_">
		<g id="XMLID_398_" class="st2">
			<g id="XMLID_399_">
				<defs>
					<rect id="XMLID_401_" x="305.5" y="403.1" width="49.2" height="49.2"/>
				</defs>
				<clipPath id="XMLID_602_">
					<use xlink:href="#XMLID_401_"  style="overflow:visible;"/>
				</clipPath>
				<path id="XMLID_400_" class="st31" d="M354.7,427.7c0,13.6-11,24.6-24.6,24.6c-13.6,0-24.6-11-24.6-24.6
					c0-13.6,11-24.6,24.6-24.6C343.7,403.1,354.7,414.1,354.7,427.7"/>
			</g>
		</g>
		<g id="XMLID_402_" class="st2">
			<g id="XMLID_403_">
				<defs>
					<rect id="XMLID_407_" x="308.6" y="406.2" width="43" height="43"/>
				</defs>
				<clipPath id="XMLID_603_">
					<use xlink:href="#XMLID_407_"  style="overflow:visible;"/>
				</clipPath>
				<path id="XMLID_404_" class="st32" d="M330.1,407.9c11,0,19.8,8.9,19.8,19.8c0,11-8.9,19.8-19.8,19.8s-19.8-8.9-19.8-19.8
					C310.3,416.7,319.1,407.9,330.1,407.9 M330.1,406.2c-11.8,0-21.5,9.6-21.5,21.5c0,11.8,9.6,21.5,21.5,21.5s21.5-9.6,21.5-21.5
					C351.6,415.9,341.9,406.2,330.1,406.2"/>
			</g>
		</g>
	</g>
</g>
<g id="HEAVY_METAL">
	<g id="XMLID_408_">
		<g id="XMLID_409_" class="st2">
			<g id="XMLID_410_">
				<path id="XMLID_411_" class="st33" d="M992.7,260.9c0,13.6-11,24.6-24.6,24.6c-13.6,0-24.6-11-24.6-24.6
					c0-13.6,11-24.6,24.6-24.6C981.7,236.3,992.7,247.3,992.7,260.9"/>
				<rect id="XMLID_412_" x="943.5" y="236.3" class="st30" width="49.2" height="49.2"/>
			</g>
		</g>
		<g id="XMLID_413_" class="st2">
			<g id="XMLID_414_">
				<path id="XMLID_415_" class="st3" d="M968.1,241c11,0,19.8,8.9,19.8,19.8c0,11-8.9,19.8-19.8,19.8c-11,0-19.8-8.9-19.8-19.8
					C948.3,249.9,957.2,241,968.1,241 M968.1,239.4c-11.8,0-21.5,9.6-21.5,21.5s9.6,21.5,21.5,21.5c11.8,0,21.5-9.6,21.5-21.5
					S980,239.4,968.1,239.4"/>
				<rect id="XMLID_418_" x="946.6" y="239.4" class="st30" width="43" height="43"/>
			</g>
		</g>
	</g>
	<text id="XMLID_419_" transform="matrix(1 0 0 1 939.3034 296.1423)" class="st4 st5 st6">HEAVY METAL</text>
</g>
<g id="POP_ROCK">
	<g id="XMLID_420_" class="st2">
		<g id="XMLID_421_">
			<path id="XMLID_422_" class="st33" d="M878.2,152.8c0,13.6-11,24.6-24.6,24.6c-13.6,0-24.6-11-24.6-24.6s11-24.6,24.6-24.6
				C867.2,128.2,878.2,139.2,878.2,152.8"/>
			<rect id="XMLID_423_" x="829" y="128.2" class="st30" width="49.2" height="49.2"/>
		</g>
	</g>
	<g id="XMLID_424_" class="st2">
		<g id="XMLID_425_">
			<path id="XMLID_426_" class="st3" d="M853.6,133c11,0,19.8,8.9,19.8,19.8c0,11-8.9,19.8-19.8,19.8c-11,0-19.8-8.9-19.8-19.8
				C833.7,141.8,842.6,133,853.6,133 M853.6,131.3c-11.8,0-21.5,9.6-21.5,21.5c0,11.8,9.6,21.5,21.5,21.5c11.8,0,21.5-9.6,21.5-21.5
				C875.1,141,865.4,131.3,853.6,131.3"/>
			<rect id="XMLID_429_" x="832.1" y="131.3" class="st30" width="43" height="43"/>
		</g>
	</g>
	<text id="XMLID_430_" transform="matrix(1 0 0 1 831.9324 189.2931)" class="st4 st5 st6">POP ROCK</text>
</g>
<g id="NEW_WAVE">
	<g id="XMLID_431_" class="st2">
		<g id="XMLID_432_">
			<path id="XMLID_433_" class="st33" d="M792.4,477.6c0,13.6-11,24.6-24.6,24.6c-13.6,0-24.6-11-24.6-24.6
				c0-13.6,11-24.6,24.6-24.6C781.4,453,792.4,464,792.4,477.6"/>
			<rect id="XMLID_434_" x="743.2" y="453" class="st30" width="49.2" height="49.2"/>
		</g>
	</g>
	<g id="XMLID_435_" class="st2">
		<g id="XMLID_436_">
			<path id="XMLID_437_" class="st3" d="M767.8,457.7c11,0,19.8,8.9,19.8,19.8c0,11-8.9,19.8-19.8,19.8c-11,0-19.8-8.9-19.8-19.8
				C747.9,466.6,756.8,457.7,767.8,457.7 M767.8,456.1c-11.8,0-21.5,9.6-21.5,21.5c0,11.8,9.6,21.5,21.5,21.5
				c11.8,0,21.5-9.6,21.5-21.5C789.2,465.7,779.6,456.1,767.8,456.1"/>
			<rect id="XMLID_440_" x="746.3" y="456.1" class="st30" width="43" height="43"/>
		</g>
	</g>
	<text id="XMLID_441_" transform="matrix(1 0 0 1 744.795 514.168)" class="st4 st5 st6">NEW WAVE</text>
</g>
<g id="FOLK_ROCK">
	<polyline id="XMLID_442_" class="st30" points="827.3,109.4 876.5,109.4 876.5,60.3 827.3,60.3 	"/>
	<text id="XMLID_443_" transform="matrix(1 0 0 1 828.291 117.5134)" class="st4 st5 st6">FOLK ROCK</text>
	<g id="XMLID_444_">
		<g id="XMLID_446_" class="st2">
			<g id="XMLID_447_">
				<path id="XMLID_448_" class="st33" d="M876.5,81.7c0,13.6-11,24.6-24.6,24.6c-13.6,0-24.6-11-24.6-24.6s11-24.6,24.6-24.6
					C865.5,57.1,876.5,68.2,876.5,81.7"/>
				<rect id="XMLID_449_" x="827.3" y="57.1" class="st30" width="49.2" height="49.2"/>
			</g>
		</g>
		<g id="XMLID_450_" class="st2">
			<g id="XMLID_451_">
				<path id="XMLID_452_" class="st3" d="M851.9,61.9c11,0,19.8,8.9,19.8,19.8c0,11-8.9,19.8-19.8,19.8c-11,0-19.8-8.9-19.8-19.8
					C832,70.8,840.9,61.9,851.9,61.9 M851.9,60.3c-11.8,0-21.5,9.6-21.5,21.5s9.6,21.5,21.5,21.5c11.8,0,21.5-9.6,21.5-21.5
					S863.7,60.3,851.9,60.3"/>
				<rect id="XMLID_460_" x="830.4" y="60.3" class="st30" width="43" height="43"/>
			</g>
		</g>
	</g>
</g>
<g id="HARD_ROCK">
	<text id="XMLID_461_" transform="matrix(1 0 0 1 884.152 269.5858)" class="st4 st5 st6">HARD ROCK</text>
	<g id="XMLID_462_">
		<g id="XMLID_467_" class="st2">
			<g id="XMLID_468_">
				<path id="XMLID_470_" class="st33" d="M933.5,235.4c0,13.6-11,24.6-24.6,24.6c-13.6,0-24.6-11-24.6-24.6
					c0-13.6,11-24.6,24.6-24.6C922.5,210.8,933.5,221.9,933.5,235.4"/>
				<rect id="XMLID_471_" x="884.3" y="210.8" class="st30" width="49.2" height="49.2"/>
			</g>
		</g>
		<g id="XMLID_472_" class="st2">
			<g id="XMLID_477_">
				<path id="XMLID_478_" class="st3" d="M908.9,215.6c11,0,19.8,8.9,19.8,19.8c0,11-8.9,19.8-19.8,19.8c-11,0-19.8-8.9-19.8-19.8
					C889.1,224.5,898,215.6,908.9,215.6 M908.9,214c-11.8,0-21.5,9.6-21.5,21.5c0,11.8,9.6,21.5,21.5,21.5
					c11.8,0,21.5-9.6,21.5-21.5C930.4,223.6,920.8,214,908.9,214"/>
				<rect id="XMLID_482_" x="887.4" y="214" class="st30" width="43" height="43"/>
			</g>
		</g>
	</g>
</g>
<g id="MERSEY_BEAT">
	<polyline id="XMLID_487_" class="st30" points="933.6,74 884.5,74 884.5,123.2 933.6,123.2 	"/>
	<text id="XMLID_488_" transform="matrix(1 0 0 1 879.6573 133.9617)" class="st4 st5 st6">MERSEY BEAT </text>
	<g id="XMLID_490_">
		<g id="XMLID_491_" class="st2">
			<g id="XMLID_492_">
				<path id="XMLID_497_" class="st33" d="M933.6,99.3c0,13.6-11,24.6-24.6,24.6c-13.6,0-24.6-11-24.6-24.6s11-24.6,24.6-24.6
					C922.6,74.8,933.6,85.8,933.6,99.3"/>
				<rect id="XMLID_498_" x="884.5" y="74.8" class="st30" width="49.2" height="49.2"/>
			</g>
		</g>
		<g id="XMLID_500_" class="st2">
			<g id="XMLID_501_">
				<path id="XMLID_502_" class="st3" d="M909.1,79.5c11,0,19.8,8.9,19.8,19.8s-8.9,19.8-19.8,19.8c-11,0-19.8-8.9-19.8-19.8
					S898.1,79.5,909.1,79.5 M909.1,77.9c-11.8,0-21.5,9.6-21.5,21.5c0,11.8,9.6,21.5,21.5,21.5c11.8,0,21.5-9.6,21.5-21.5
					C930.5,87.5,920.9,77.9,909.1,77.9"/>
				<rect id="XMLID_505_" x="887.6" y="77.9" class="st30" width="43" height="43"/>
			</g>
		</g>
	</g>
</g>
<g id="ROCK_PSYCHÉDÉLIQUE">
	<g id="XMLID_506_" class="st2">
		<g id="XMLID_507_">
			<defs>
				<rect id="XMLID_509_" x="191.5" y="416.5" width="49.2" height="49.2"/>
			</defs>
			<clipPath id="XMLID_604_">
				<use xlink:href="#XMLID_509_"  style="overflow:visible;"/>
			</clipPath>
			<path id="XMLID_508_" class="st34" d="M240.7,441.1c0,13.6-11,24.6-24.6,24.6c-13.6,0-24.6-11-24.6-24.6
				c0-13.6,11-24.6,24.6-24.6C229.7,416.5,240.7,427.5,240.7,441.1"/>
		</g>
	</g>
	<g id="XMLID_510_" class="st2">
		<g id="XMLID_515_">
			<defs>
				<rect id="XMLID_520_" x="194.6" y="419.6" width="43" height="43"/>
			</defs>
			<clipPath id="XMLID_605_">
				<use xlink:href="#XMLID_520_"  style="overflow:visible;"/>
			</clipPath>
			<path id="XMLID_516_" class="st35" d="M216.1,421.2c11,0,19.8,8.9,19.8,19.8c0,11-8.9,19.8-19.8,19.8c-11,0-19.8-8.9-19.8-19.8
				C196.3,430.1,205.2,421.2,216.1,421.2 M216.1,419.6c-11.8,0-21.5,9.6-21.5,21.5c0,11.8,9.6,21.5,21.5,21.5
				c11.8,0,21.5-9.6,21.5-21.5C237.6,429.2,228,419.6,216.1,419.6"/>
		</g>
	</g>
	<text id="XMLID_521_" transform="matrix(1 0 0 1 167.4447 478.9444)" class="st4 st5 st6">ROCK PSYCHÉDÉLIQUE</text>
</g>
<g id="FUNK">
	<g id="XMLID_522_">
		<g id="XMLID_523_" class="st2">
			<g id="XMLID_524_">
				<defs>
					<rect id="XMLID_530_" x="359.8" y="456.2" width="49.2" height="49.2"/>
				</defs>
				<clipPath id="XMLID_607_">
					<use xlink:href="#XMLID_530_"  style="overflow:visible;"/>
				</clipPath>
				<path id="XMLID_528_" class="st36" d="M409,480.8c0,13.6-11,24.6-24.6,24.6c-13.6,0-24.6-11-24.6-24.6c0-13.6,11-24.6,24.6-24.6
					C398,456.2,409,467.2,409,480.8"/>
			</g>
		</g>
		<g id="XMLID_531_" class="st2">
			<g id="XMLID_533_">
				<defs>
					<rect id="XMLID_541_" x="362.9" y="459.3" width="43" height="43"/>
				</defs>
				<clipPath id="XMLID_608_">
					<use xlink:href="#XMLID_541_"  style="overflow:visible;"/>
				</clipPath>
				<path id="XMLID_534_" class="st37" d="M384.4,460.9c11,0,19.8,8.9,19.8,19.8c0,11-8.9,19.8-19.8,19.8c-11,0-19.8-8.9-19.8-19.8
					C364.5,469.8,373.4,460.9,384.4,460.9 M384.4,459.3c-11.8,0-21.5,9.6-21.5,21.5s9.6,21.5,21.5,21.5c11.8,0,21.5-9.6,21.5-21.5
					S396.2,459.3,384.4,459.3"/>
			</g>
		</g>
	</g>
	<text id="XMLID_543_" transform="matrix(1 0 0 1 372.8803 516.6683)" class="st4 st5 st6">FUNK</text>
</g>
<text id="XMLID_4_" transform="matrix(1 0 0 1 26.0512 68.4793)" class="st38 st39 st40">Washington</text>
<text id="XMLID_11_" transform="matrix(1 0 0 1 17.1768 231.1429)" class="st38 st39 st40">californie</text>
<text id="XMLID_8_" transform="matrix(1 0 0 1 320.876 60.8769)" class="st38 st39 st40">Michigan</text>
<text id="XMLID_12_" transform="matrix(1 0 0 1 194.9149 54.0843)" class="st38 st39 st40">Illinois</text>
<text id="XMLID_46_" transform="matrix(1 0 0 1 127.0089 259.4074)" class="st38 st39 st40">Missouri</text>
<text id="XMLID_13_" transform="matrix(1 0 0 1 447.1169 77.2266)" class="st38 st39 st40">Ohio</text>
<text id="XMLID_14_" transform="matrix(1 0 0 1 326.5887 231.1264)" class="st38 st39 st40">Maryland</text>
<text id="XMLID_15_" transform="matrix(1 0 0 1 225.7577 297.8107)" class="st38 st39 st40">Oklahoma</text>
<text id="XMLID_17_" transform="matrix(1 0 0 1 196.7959 393.9142)" class="st38 st39 st40">Texas</text>
<text id="XMLID_19_" transform="matrix(1 0 0 1 301.1999 388.0649)" class="st38 st39 st40">Louisiane</text>
<text id="XMLID_20_" transform="matrix(1 0 0 1 427.4602 306.3828)" class="st38 st39 st40">tennessee</text>
<text id="XMLID_21_" transform="matrix(1 0 0 1 460.0037 441.5706)" class="st38 st39 st40">Mississipi</text>
<text id="XMLID_22_" transform="matrix(1 0 0 1 569.5875 326.4349)" class="st38 st39 st40">Georgie</text>
<text id="XMLID_23_" transform="matrix(1 0 0 1 724.961 441.5762)" class="st38 st39 st40">Southampton</text>
<text id="XMLID_25_" transform="matrix(1 0 0 1 897.8703 341.6292)" class="st38 st39 st40">Londres</text>
<text id="XMLID_26_" transform="matrix(1 0 0 1 908.8339 198.9765)" class="st38 st39 st40">Birmingham</text>
<text id="XMLID_29_" transform="matrix(1 0 0 1 731.8946 315.5488)" class="st38 st39 st40">Caroline du nord</text>
<text id="XMLID_31_" transform="matrix(1 0 0 1 646.035 268.751)" class="st38 st39 st40">New Jersey</text>
<text id="XMLID_28_" transform="matrix(1 0 0 1 851.8839 44.9929)" class="st38 st39 st40">Liverpool</text>
<text id="XMLID_10_" transform="matrix(1 0 0 1 526.4897 87.7704)" class="st38 st39 st40">new-york</text>
</svg>
