<?xml version="1.0" encoding="utf-8"?>
<!-- Generator: Adobe Illustrator 19.0.0, SVG Export Plug-In . SVG Version: 6.00 Build 0)  -->
<svg version="1.1" xmlns="http://www.w3.org/2000/svg" xmlns:xlink="http://www.w3.org/1999/xlink" x="0px" y="0px"
	 viewBox="0 0 1047 558" style="enable-background:new 0 0 1047 558;" xml:space="preserve">
<style type="text/css">
	.st0{opacity:0.15;fill:#636363;}
	.st1{opacity:0.3;}
	.st2{fill:#3F4977;}
	.st3{fill:none;}
	.st4{opacity:0.25;fill:none;stroke:#8EB2DD;stroke-width:1.5;stroke-miterlimit:10;}
	.st5{fill:#ABC5FF;}
	.st6{font-family:'Open Sans'; font-weight: light; text-transform: uppercase;}
	.st7{font-size:10px;}
	.st8{fill:#FFFFFF;}
	.st9{font-family:'Open Sans', sans-serif; font-weight: 600; font-style: italic; text-transform: uppercase;}
	.st10{font-size:12pt;}
	.st11{fill:none;stroke:#FFFFFF;stroke-width:0.5;stroke-miterlimit:10; display:none;}
</style>
<g id="territoire">
	<path id="NY" class="st0" d="M825.5,226.6c-1.8-1.3-4.8,2.5-8.9,0.5c-4-2-4.3,2.3-4.8,3.8c-0.5,1.5-5.8,8.3-7.3,7.6
		c-1.5-0.8,2.5-5,3.8-8.1c1.3-3,0.3-8.6-0.8-5.3c-1,3.3-5.3,9.3-9.4,11.6c-4,2.3-9.9,3-13.2,3.3c-3.3,0.3-7.1,1-8.9,4.5
		c-1.8,3.5-6.3,3-9.9,4c-3.5,1-6.3,4.3-9.4,5.5c-3,1.3-5.3,1.3-2.5-2c0.9-1,1.9-2,3-2.9c-1.5-1.5-3.6-3.7-3.8-4.9
		c-0.3-1.8,2.8-5.5,4.6-7.1c1.8-1.5,1.3-4.5,0.5-6.3c-0.8-1.8-2-2.3-2-5c0-2.8-1-11.3-3.3-15.9c-2.3-4.5-2.6-12.2-3.1-12.9
		c-0.5-0.7-0.7-8.7-1-8.9c0,0,0,0,0-0.1c-0.8-0.2-1.1-1.4-1.1-1.4l0.9-38.3c-0.5-0.8-4.6-19.9-6.1-26.5c-1.5-6.6-3.5-14.6-5.3-18.2
		c-1.8-3.5-2,0.8-5.1,0c-3-0.8-3.3-8.6-3.3-11.3c0-2.8-1.8-10.3-3.3-14.6c-1.5-4.3,0.8-7.6,0.5-10.8c-0.2-3.3-2.3-10.3-3.8-12.9
		c-1.5-2.5-3.8-2.8-4.8-6.8c-1-4,0-9.1-1.5-11.1c-1.2-1.5-1.3-8.2-1.3-11.3c-29.1,7.1-56.6,13.4-58.7,13.7
		c-4.6,0.8-31.2,35.3-31.2,40.1c0,3.8-6.6,9-11,12.8c1.3,0.1,2.2,0.3,1.5,0.8c-1.9,1.2-7.8,7.7-7.8,9.1c0,1.3,4.6,2.7,5.4,1.8
		c0.8-0.8,4.1-1.5,3.6,0.7c-0.5,2.2-0.3,2.7,1.7,1.3c2-1.3,4.6,0.7,2.4,1.7c-2.2,1-3.7,3.9-3.4,4.5c0.3,0.7-0.7,1.2-0.8,3.5
		c-0.2,2.3,1,3.9,2,6.4c1,2.5,2.9,4.2,2.2,6.7c-0.7,2.5-0.5,5.7-2.9,5.7c-2.4,0-4.4-1.2-5.4,1c-1,2.2-1.7,4.2-3,4.5
		c-1.4,0.3-3,0.7-3.6,2.4c-0.5,1.7-1.3,4-3.7,5.4c-2.4,1.3-4.4,3-5.2,4.4c-0.8,1.4-0.2,2.7-2,2.2c-1.9-0.5-3-1-5.9-0.8
		c-2.9,0.2-7.3,0.7-9.1,1.7c-1.9,1-5.7,2-7.1,3.7c-1.4,1.7-3.2,2.7-5.4,0.8c-2.2-1.8-4.9-4.2-7.3-3.5c-2.4,0.7-28.4-1.2-44.2,10.9
		c-2,1.5-3.7,2.8-5.1,3.8c1.2,3.1,2,7.4,2.5,9.8c0.6,2.9,4.2,8.5,5.8,10.9c0.6-0.2,1-0.5,0.9-0.9c0,0,4.1,0.2,3.2,2.2
		c-0.8,2-1.2,6.7-4.1,8.7c-2.9,2-12.8,16.1-16.7,20.3c-1.6,1.7-5.6,5.6-10.5,10l2.9,13.2c0,0,164.8-31.6,168.2-32.9
		c3.4-1.3,6.2-5.2,12-0.7c5.7,4.5,8.6,4.5,12.2,4.7c3.5,0.2,6.7,13.8,8.9,17.3c2.2,3.5,2.7,0.7,7.8,1.8c5.1,1.2,6.9,2.2,10,5.4
		c3,3.2,25.5,8.5,28.2,9c2.7,0.5,4.5,1.9,5.2,3.6c0.8,1.8-1.5,9.1-1.9,10.9c-0.3,1.2-1.2,4.1-1.7,5.9c2.2,1.3,0.5,4.2,6,3.2
		c5.6-1,19-8.8,28.4-12.9c9.4-4,15.7-10.8,24.3-14.6c8.6-3.8,9.4-5.8,13.2-9.1C819.4,233.2,827.3,227.9,825.5,226.6z"/>
	<path id="Londres" class="st0" d="M967.4,390.4c0,0-22.9,3.9-20.3-20.9c0,0-22.7-1.1-24.2-2c-5.9-3.3-12.4,15-65.4,32.7
		c0,0,0,34.7-6.5,35.3c0,0,45.8,36.6,46.4,39.2c0.7,2.6,2.6-8.5,32,15c0,0,11.7-7.8,16.7-9.9c3.4-2.1,6.9,1.1,9.4,3.5
		c1.9,1.7,3.6,3.7,5.3,5.5c0,0,0.1,0.1,0.1,0.1c1.3,1.3,2.8,2.9,4.4,4.6c0,0,14.4-13.1,16.3-20.3v-28.8l14.4-12.4v-12.4l21.6-13.1
		C1017.7,406.7,1004.6,362.9,967.4,390.4z"/>
	<path id="Birmingham" class="st0" d="M984.5,255.5c-2.1-2.1-4.9,4.9-13.3,2.8c-8.4-2.1-10.5-13.3-15.4-19l2.8-4.2l-4.9-0.7
		c0,0-7.7-9.8-11.2-7.7c0,0-0.7-0.7-8.1,4.2c0,0-6,0-7.7-2.5c0,0-24.2,4.6-20.7,9.5c3.5,4.9,5.6,2.1,0.7,10.5
		c-3.2,5.5,1.1,11,3.4,13.4c0.1,0,0.2,0,0.3,0c0.2-1.1,12.5,2.5,18.8,0.7c7-2.1,5.6,2.8,9.1,5.6c3.5,2.8,10.5-2.1,14.7-0.7
		c4.2,1.4,7,13.3,14,9.8c7-3.5,23.9,0,28.1-13.3C995.1,263.9,986.7,257.6,984.5,255.5z"/>
	<path id="Liverpool" class="st0" d="M858.6,78.6c0,0-2,36.5,13,28.5c0,0,2.5-3,17.5,7.5c0,0,4.5,2.5,8-5l5,0.5c0,0,12,17,13.5,12.5
		c1.5-4.5,0,16.5,0,16.5s-19,2-15.5,16c0,0-11,11.5-27-3c-16-14.5-26.5-46.5-26.5-46.5S841.5,97.6,858.6,78.6z"/>
	<path id="Washington" class="st0" d="M122.6,132.2c0.3-1.1,4.2-21.7,5.2-26.8c-49.4-10.3-81-19.3-81-19.3c0.7,0.6,1.5,0,1.8,1
		c0.3,1,0,2.3,0.9,3.2c0.9,0.9,1.7,1,1.9,1.7c0.3,0.7,0.6,0.8,0.4,2.1c-0.1,1.3-0.6,2-0.8,2.4c-0.3,0.4-0.5,0.8-0.5,1.5
		c0.1,0.7,0.1,0.6-0.7,0.6c-0.8,0-1.8-0.1-0.9,0.8c0.9,0.8,0.9,1.2,1.3,1.8c0.4,0.6,1.4,0.6,1.2,1.5c-0.3,1-0.9,0.8-0.8,1.9
		c0.1,1,0.6,1.8,0.9,2.3c0.3,0.5,0.3,1.8-0.2,2.7c-0.4,0.9-0.6,1.3-1.3,1.9c-0.8,0.6-1.2,1.3-1.8,2c-0.6,0.7-1,0.9-0.6,2.1
		c0.3,1.2,0.4,1.6,0,2.3c-0.4,0.7-0.4,1-0.6,2.1c-0.2,1-0.1,0.9-1,2c-1,1.1-0.6,1.4-2.6,2c-2,0.7-1,1.7-3.2,0.9
		c-2.2-0.7-3.6-0.8-3.1-1.9c0.5-1.1,1.6-1.2,2.1-2.3c0.4-1.1,1-1.5,1-0.5c0,1-1,2.2-0.1,2.2c0.9,0.1,0.4-0.9,1-1.4
		c0.6-0.5,0.6-1.4,1-0.5c0.4,0.8-0.3,1.3,0.8,1.4c1.2,0.1,2-1.2,2.1-2.5c0.1-1.3,1-2.7,0.1-2.9c-0.9-0.2-1.9-0.6-1-1.3
		c0.9-0.7,0.7-1.5,1.3-2.1c0.6-0.6,1.7-0.3,1.8-1.2c0.1-0.9-0.3-2.2-1-2.2c-0.6,0-0.6,0.6-0.9-0.9c-0.3-1.5,0-2.1-0.2-3.3
		c-0.2-1.2-1.2-2-1.6-1.3c-0.4,0.7-1,0.6-1.5-0.4c-0.6-1-1-1.7-2.2-1.7c-1.2,0-1.2-0.1-3.5-1.1c-2.4-1-11-2.7-15-8.8
		c0,0-0.8-1.1-0.8-0.1c0.1,1,0.3,0.6-0.1,1.3c-0.4,0.7-2.3,3.1-2,5.2c0.3,2,1.5,2.6,1.8,4.3c0.3,1.7,0.2,1.7-0.1,3.8
		c-0.3,2.1,0.1,4.7,0.4,6.6c0.3,1.8,0.5,0.5,0.2,2.1c-0.3,1.6-0.3,2.5-0.6,3.6c-0.4,1.1-1.1,1.5-0.6,2.3c0.5,0.8,0.7-0.3,1.3,0
		c0.6,0.3,1.2,0.5,1.6,1c0.4,0.5,1.5,0.7,0.8,1c-0.6,0.3-0.4,1-1.6,1c-1.2,0-1.7-1.5-1.9-0.8c-0.1,0.7-0.3,1.3-0.1,2.7
		c0.1,1.4-1.2,2.2,0.5,2.3c1.7,0.1,1.9-0.6,2.3,0c0.4,0.6,0.4,0.8-0.3,0.9c-0.7,0.1-1.6-0.6-1.7,0.2c-0.1,0.8-0.2,1.3-0.1,2
		c0.1,0.7-0.6,0.7-1,1.5c-0.3,0.8,0.1,2.2-0.5,1.3c-0.6-1-0.7-1-0.4-2.5c0.3-1.6,0.6-2.6,0-1.9c-0.6,0.7-0.9,1.5-0.7,2.6
		c0.2,1.1,0.1,2.6,0.4,3.7c0.2,0.8,0.4,0.9,0.4,1.3c1.8,0.7,3.9,1.5,4.6,1.7c1.3,0.4,1.2,0.4,1.5,2.3c0.4,1.9,0.9,0.6,2.6,0.6
		c1.7,0,2.6,1.8,3.8,3.8c1.3,2-0.6,5.5-0.9,7.1c-0.3,1.7-0.1,2.7,0.5,3.2c0.6,0.5,3.2,0.4,4.5,1.5c1.3,1.1,4.1,1.3,5.9,0.6
		c1.8-0.6,1.9-1.5,3.8-0.6c1.9,0.9,2.3,0.3,3.8,0.3c1.5,0,1.8,0.5,2.7,1.7c0.9,1.1,1,1.5,1.8,1.4c0.8-0.1,2.7-0.3,3.5,0.5
		c0.8,0.8,3.2-0.1,4-0.6c0.8-0.5,2.8,0.1,4,1.5c1.1,1.4,4.2,0.6,4.9,0.1c0.6-0.5,3.5-0.5,6.9-0.3c3.5,0.3,1.4-0.1,2-0.8
		c0.6-0.6,2.7,0,3.8,0.4c1.2,0.4,4,0.4,5-0.1c1-0.5,8.3,1.4,10.9,2.7c2.6,1.3,18.7,3.4,18.7,3.4l0.7,0.2c-0.2-1.2-0.2-2.2-0.1-2.6
		c0.1-0.9,0.9-2.8,0.4-3.7c-0.5-0.9-0.6-7.4,0.3-8.8C118.7,151.7,122.3,133.5,122.6,132.2z"/>
	<path id="tennessee" class="st0" d="M513.8,360.5c1.1-1,0.4-2.5,0.1-4.1c-0.3-1.6,1-0.1,3.7-2.3c2.8-2.2,4.1,0.4,5.7-1.1
		c1.5-1.5,5.2-6.2,7.2-6.3c1.9-0.1,2.1-2.3,2.1-3.4c0-1.1,2.3-0.7,3.2-1.8c0.8-1.1-0.3-2.2,1-2.2c1.2,0,0.1,2.2,2.6,1.9
		c2.5-0.3,0.7-3,2.8-5.1c2.1-2.1,4.1,0,4.3,1c0.1,1,2.5-2.2,3.3-4.4c0.8-2.2,1.5-1,2.6-3.2c0.7-1.3,0.5-3.7,0.3-5.3
		c-1.8,0.1-4.8,0.6-7.5,1.1c-3.6,0.7-65.5,9.6-99,11.1c0,0-2.1,0.7-2.5,1.5c-0.4,0.8-1.5-0.1-2.5-0.8c-1-0.7-4.1-0.8-4.1,0.3
		c0,1.1,1.8,3.9,0,4c-1.6,0.1-19.6,1.7-24.2,1.1c-0.3,0.2-1.1,0.2-2.6-0.2c-2.1-0.5,0.6,2.7,0.2,3.6c-0.4,0.9,0,2-1.2,2.9
		c-1.2,0.9,0,3-0.9,3.8c-0.9,0.8-0.2,1.2,0.2,2.6c0.4,1.3-1.2,5.6-2.8,6c-1.5,0.4,0.2,1.9-0.5,2.7c-0.7,0.8-0.9,0.1-1.1,1.2
		c-0.2,1.1-0.2,2.1-1.6,2.7c-1.3,0.6-1,1.3-1,2.5s2.1,0.5,2.5,2.9c0.4,2.4-0.6,1.8-1.9,2.7c-1.2,0.9-1.9,2.3-1.9,2.3
		c28.7-1.3,80-7.1,109.3-10.5c0.1-2.2,0.1-4.7,0.1-5.3C509.5,361.1,512.7,361.5,513.8,360.5z"/>
	<path id="Oklahoma" class="st0" d="M294.4,340.5c-2.4-9.7-2.6-17.6-2.6-17.6c-30.5,0.4-57.6-0.4-81-1.8l-0.1,6.3l29,1.5
		c0,0-0.4,22.9,0.5,23.4c0.9,0.5,1,1.5,2,2.3c1,0.8,1-0.1,2.1,0.2c1.1,0.3,0.7-0.7,1.2-0.9c0.6-0.2,0.9,0.5,1.2,1.2
		c0.3,0.7,0,1.6,0.9,1.9c0.9,0.2,1.1,0.5,2.2,0.4c1.1-0.1,1.4,0.7,1.4,0.7c0.7,0.6,1.5-0.2,2.4-0.1c0.9,0.1,0.8,0.4,0.9,1
		c0.1,0.7,1,0.3,1.2-0.5c0.2-0.8,0.8-0.1,0.9-0.4c0.1-0.4,0.7-0.1,1.5-0.1c0.7,0,0.5,0.5,0.5,1.1c0,0.6,0.2,0.4,0.7,0.7
		c0.5,0.2,0.1,1,0.4,1.8c0.2,0.8,1.2-0.2,1.5-0.7c0.3-0.5,0.9-0.7,1.7-0.4c0.8,0.2,1,0.7,1.3,1.1c0.3,0.4,1.1,0.4,1.1-0.1
		c0-0.5,2-0.4,2.4-0.4c0.4,0,0.1,0.5-0.1,1.3c-0.1,0.8,0.4,0.9,0.8,1c0.4,0.1,0.6-0.7,0.6-1.5c0-0.7,0.1-0.7,0.5-1.5
		c0.4-0.9,0.4-0.1,0.8,0.2c0.4,0.4,0.7,0.7,1.1,1.2c0.4,0.6,0.7-0.1,0.9-0.7c0.2-0.6,0.8,0.1,1.5,0.9c0.7,0.7,1.2,1.2,1.9,1.7
		c0.7,0.5,1.2-0.2,1.7-0.9c0.5-0.7,1.3-1.2,2.2-1.5c0.9-0.3,0.5,0.2,1.2,0.7c0.7,0.5,1.1-0.1,1.2-0.9c0.1-0.7,1.2-0.7,1.8-0.7
		c0.5,0,0.4,0.4,1.2,1.1c0.8,0.7,1.2-0.1,1.5-0.4c0.3-0.4,0.6-0.9,1.2-1c0.6-0.1,1.1,0.4,2.2,1.6c1.1,1.2,1.8,1,2.1,1.3
		c0.3,0.3,0.8,0.8,1.7,0.8c0.7,0,0.7-0.3,1.1-0.3L294.4,340.5z"/>
	<path id="Missouri" class="st0" d="M185.4,316.5c-0.2-0.2-1.6,0.4-2-0.6c-0.4-1-1.6-1.7-1.2-2.2c0.4-0.5,1-0.2,0.6-1.1
		c-0.4-0.9-1.1-1.7-1-2.4c0-0.6-0.8-0.2-1.3-0.9c-0.5-0.7-1.6-0.6-2-1.3c-0.4-0.7-5-2.9-3.8-5c1.2-2,1.9-4.1,1.2-4.7
		c-0.7-0.6-1.3-0.9-1.3-0.6c0,0.3-0.5,0.4-0.6,0.1c-0.1-0.3-0.4-0.4-0.9-0.2c-0.5,0.3-0.8,0.7-1.1-0.2c-0.4-0.9-0.4-2.7-0.9-2.8
		c-0.4-0.2-2.5-1.1-2.6-2c-0.1-1-2.9-2.9-3.1-4.1c-0.2-1.1-0.3-3.7,0.1-4.4c-0.7-0.7-1.7-1.7-2-2.1c-0.4-0.6-0.6-0.4-0.6-0.4
		c-6.9,1.1-27.1,1.4-29.7,1.4c0,0.2,0.1,0.5,0.3,0.7c0.4,0.6,0,0,0.1,0.8c0.1,0.8,0.9,1,1.6,1.7c0.7,0.7,0.3,1,0.3,1.7
		c0,0.7,0.7,0.5,0.9,0.7c0.2,0.2,1.3,1.3,1.7,1.7c0.4,0.4,0.4,0,0.4-0.5c0-0.5,0.8-0.4,0.8,0.1c0,0.5,0.5,0.5,0.8,1.1
		c0.3,0.5-0.1,0.5-0.5,0.7c-0.5,0.1-0.9,0.6-1.5,1.2c-0.6,0.7,0.5,0.7,1.2,1.2c0.8,0.5,0.8,0.5,0.7,1.1c-0.1,0.7,0.7,0.9,1.1,1.4
		c0.4,0.5,1.2-0.3,1.1,2.4c-0.2,2.7,0.1,19.6,0.1,19.6s0.1,2.1,0.5,5.2c4.5-0.1,29-1,34.4-1.8c0,0,1.9,0.3,1.5,1.8
		c-0.4,1.5-1.1,1.8-1.5,2.4c-0.4,0.7-0.4,1.1,0.7,0.9c0.7-0.1,2.8-0.3,4.1-0.4c0-0.1,0-0.1,0-0.2c-0.2-0.6-0.5-0.8-0.1-1.1
		c0.4-0.4-0.1-1.2,0.4-1.6c0.5-0.4,0.4-0.8,0.5-1.2c0.2-0.4-1-1.8-0.1-1.6c0.9,0.2,1.2,0.2,1.2-0.1c0-0.3,0.4-0.6,0.7-0.5
		c0.3,0.1,0.3,0.4,0.6-0.5c0.3-1-0.4-1.4,0.4-1.5C186.1,318.5,185.5,316.7,185.4,316.5z"/>
	<path id="New_Jersey" class="st0" d="M692.1,310.2c-6.2,1.1-3.5,0-3.5-2c0-2,1-4.3,2-3.7c0,0,0,0,0,0c0.3-0.9,0.7-2.2,0.8-2.8
		c0.2-0.9,1.3-4.3,0.9-5.2c-0.4-0.8-1.2-1.5-2.5-1.7c-1.3-0.2-11.9-2.8-13.4-4.3c-0.6-0.6-1.1-1-1.6-1.4c-0.9,0.8-3.2,3.2-3.1,3.9
		c0.1,0.9,0.5,3.2-0.5,3.9c-1,0.7-4.7,5.2-2.6,6.1c2.1,0.9,2.2,0,2.2,1.3c0,1.3-0.2,1.9-1.2,2.7c-1,0.8-1.4,2.8-0.6,3.4
		c0.7,0.6,11.2,9.2,11.4,9.6c0.2,0.3-2,3.3-2.9,4.3c-0.9,1-1.3,3.4-1.8,4.9c-0.6,1.4-1.3,2-2.8,2.5c-1.5,0.5-4.2,2.8-3.7,5.4
		c0.4,2,0.9,4.5,2.3,6.7c0.8-0.4,0-1.3,1.5,0.4c1.6,1.8-1.3,1.4,2.8,2.9c4.1,1.4,4,1,5.2,0.6c1.2-0.4,1.8-1.4,1.9,0.4
		c0.1,1.8,2.7-0.1,1.6,2.2c-1.1,2.3-2.1,3.2-0.1,3.1c1.9-0.1,2.5-0.4,3-1.7c0.6-1.3,1.8-1.8,2.3-3.8c0.5-2-0.6-3.7,0.7-5.5
		c1.4-1.8,1.7-2.6,2.2-4.8c0.6-2.2-0.4-3.3,1.4-4.1c1.8-0.8,2.3-12.4,1.8-15.3C695.3,315.4,698.3,309.1,692.1,310.2z"/>
	<path id="Georgie" class="st0" d="M675.6,446.1c-2-1.1,0.6-4.4-0.5-5c-1.1-0.6-2.2-3-3.3-4.5c-1.1-1.6-2.4-1.4-3.6-2.4
		c-1.3-0.9-0.6-3.1-0.8-4.4c-0.2-1.3-2.8-4.7-4.4-5.8c-1.6-1.1-2.8-1.9-5.7-4.2c-2.8-2.4-2.8-3.8-3.9-5.3c-1.1-1.6-2.5-2-4.4-2.7
		c-1.9-0.6-3.2-1.3-4.9-3.6c-1.7-2.3-2.5-2.7-5.4-3.8c-2.8-1.1-6-6-7.6-8.6c-1.6-2.7-2.2-4.4-3.5-4.4c-1.3,0-2.4,1.3-3.3,0
		c-0.9-1.3-4.1-3.1-5-3.8c-0.9-0.6-0.6-2.8-0.5-4.5c0.2-1.7,3.2-3.3,3.6-3.8c0.1-0.2,0.2-0.5,0.2-1c-0.6,0.1-1.2,0.2-1.9,0.2
		c-2,0.1-24,2.8-51.8,5.8l20,62.7c0,0,1.4,0.5,2.2,1.1c0.8,0.6,0,1.6,0.5,3.3c0.5,1.7,1.4,0.9,1.4,2.4c0,1.4-0.5,2-1.4,2.7
		c-0.9,0.6-2,1.3-1.4,2.2c0.6,0.9,0.8,3.3,0,4.1c-0.8,0.8-1.6,4.2-0.8,5.2c0.8,0.9,2.8,2.5,2.8,4.5c0,2-0.9,6.7-0.6,8
		c0.3,1.3,2.8,5.7,2.8,7c0,0,4.2,7.3,5,7.3c0.7,0,58.1-4.7,58.1-4.7s0.6,0.1,1.1,1.5c0.5,1.4-0.2,3.5,1.5,3.6c1.8,0.1,3,0.7,3-1.4
		c0-2.1,0.8-4.9-0.2-6.6c-1.1-1.6-1.5-2.9-0.4-3.6c1.2-0.7,10.9,2.1,11.9,0c0.1-0.1,0.1-0.3,0.2-0.4c-1.2-0.7-1.1-1.1-0.8-3.2
		c0.2-2.2,0.6-2.4-0.4-3.8c-0.9-1.4,1.8-2,0.9-2.7c-0.8-0.7-0.6-1.9,0.9-2.1c1.5-0.2,3.1-2.2,2-2.9c-1.1-0.7-2,0.8-1.5-0.9
		c0.5-1.8-0.6-1.7,0.5-2.1c1.1-0.5,2.5-1.5,1.7-2.4c-0.8-0.9-1.1-0.9-1.8-1.1c-0.8-0.2-1.1-0.9-0.2-1.5c0.9-0.5,2-0.1,2.4-1.4
		c0.4-1.3,0-1.6-0.9-1.6c-0.9,0-2,0.2-1.1-0.5c0.9-0.7,2.1-0.5,2.8-1.3c0.7-0.8,1.8-1.6,0.2-2.2c-1.6-0.5-2.7-0.5-1.9-0.9
		c0.8-0.5,2-0.9,2.8-0.7c0.8,0.2,1.7,0.4,1.2-0.4c-0.5-0.8-1.1-1.6-0.2-1.6c0.9,0,2,0.1,1.5-0.4c-0.4-0.4,2.3-0.6,1.7-1.4
		c-0.5-0.6-1.3-0.7-1.6-1C681.3,447.1,677.2,447,675.6,446.1z"/>
	<path id="Californie" class="st0" d="M85.2,263.4c-25.6-6.2-44.9-11.6-53.5-14c0.2,1.2-1.2,1.2-1.2,1.2s-2,1-1,2.6
		c1,1.6,2.2,1.6,1.6,2.9c-0.5,1.3-1,1.2-1.2,2.6c-0.2,1.4,0.4,1.4-0.3,2.1c-0.8,0.7-1.8,1.3-2,2.4c-0.2,1.1,0.4,1.5-0.2,2.8
		c-0.7,1.3-0.8,0.8-1.2,2c-0.4,1.2-0.2,1.6-0.9,2.3c-0.7,0.7-2.4,2.2-3,3c-0.5,0.9-1.6,0.5-1.6,2.6c0,2.1-1,2.2,0.2,4
		c1.2,1.9,1.4,1,2,2.9c0.5,2,1.1,1.6,1.5,3.9c0.4,2.3,0.3,2.2,0.2,4c-0.1,1.9,0.9,2.6-0.3,3.6c-1.2,1-1.9,0.8-1.3,2.3
		c0.5,1.5,0.7,1.5,0,3.2c-0.7,1.6-1.1,2.5-0.8,3.5c0.3,1-1.8-0.4,0.3,2.4c2.1,2.8,0.8,3.3,1.8,4.4c1,1.1,1.4,1.1,1.8,2.7
		c0.3,1.6,0.5,1.3,1.4,2.1c0.9,0.8,0.4,0.8,0.8,2.3c0.3,1.5,0.7,0.7,0.9,2c0.2,1.3,0,2.7-0.7,3.3c-0.7,0.5-2.1,1.5-0.7,1.6
		c1.4,0.1,2-1,2.8,1.2c0.9,2.2,1.5,3.2,2.1,3.4c0.5,0.2,1.5,0.4,1.5-0.8c0-1.2-0.4-1.1,0.2-2.3c0.7-1.2,0.1-2.3,0.9-2.1
		c0.8,0.2,1.2,0.5,2,1.2c0.8,0.7-0.1,1.7-0.9,1.7c-0.8,0-1.3,0.8-1.1,1.5c0.2,0.8,0.9,0.3,1.1,1.5c0.2,1.2,0.7,2.9,0.9,4.4
		c0.2,1.4,1,2.6,0,2.6c-1,0-0.7,1-1.9-1.5c-1.2-2.5-1-2.6-1.9-3.2c-0.9-0.5-1.1-0.3-1.1,1c0,1.3,0.7,1.6,0.1,3.3
		c-0.5,1.6-0.9,1.3-0.9,2.8c0,1.5-0.4,3.2,0.7,4.4c1.1,1.2,0.8,0.5,2.1,2.2c1.3,1.6,0.7,0.8,2.4,1.1c1.8,0.3,2,0,1.5,2.1
		c-0.4,2.1-0.3,3.4-2.3,3.6c-2,0.2-0.8-0.1-1,1.6c-0.2,1.7-0.4,5,0.4,5.9c0.9,0.9,1.2,1.3,1.6,2.6c0.4,1.3,1,2.4,1.8,2.6
		c0.8,0.2,0.3,1.4,0.4,2.6c0.1,1.2,0.3,1.4,0.9,1.9c0.5,0.4,0.2,0.5,0.7,2c0.4,1.4,0.3,0.3,0.9,1.7c0.5,1.4,0.5,2.6,1.5,3.2
		c1,0.5,2.4,1.4,1.6,2.5c-0.8,1.1-1.5,2.4-0.7,3.1c0.9,0.7,2.3,0.7,2.2,2.6c-0.1,2-1.2,1.2-1,2.7c0.2,1.5-0.7,1.6-0.8,3
		c-0.1,1.4-1,1.9-0.2,2.7c0.8,0.9,1.3,0.8,1.4,2.1c0.1,1.3,0.9,1.4,2.5,1.4c1.6,0,3.3,0,3.9,1.2c0.7,1.2,3,2.8,4.9,2.4
		c2-0.4,2.6,1,3.2,1.4c0.5,0.4,2.1,2.4,3,4.5c0.9,2.1,2.2,2,3.1,2.5c0.9,0.5,2.4,2.3,5.3,1.6c2.8-0.7,1.5,1.4,1.6,2.2
		c0.1,0.8-0.5,5,1.6,4.8c2.2-0.2,2.8-1,3.6,1.1c0.8,2.1,3.6,5.7,5.8,7.1c2.2,1.4,2.7,9.7,2.5,12.2c-0.2,2.4-1.3,2.9-0.4,3.9
		c7.5,0.8,34.9,3.9,36.3,4.2c0.5,0.1,0.8,0.3,0.9,0.5c0.4-0.1,1.1-0.2,1.5-0.2c0.7,0,2.2-0.2,2.3-1.2c0.1-1.1,1.5-0.5,1.3-2
		c-0.2-1.5-0.2-1.7-1.2-2.2c-1-0.5-2,0.1-1.9-1c0.1-1.1,0.5-0.2,0.7-1.7c0.2-1.5-1.2-2-0.6-3.1c0.7-1.1,2.1-0.8,2.5-1.6
		c0.5-0.8,2.4-3.3,2.7-5.1c0.3-1.8-0.9-3,0.7-3.9c1.6-0.9,2.3-2.4,3.7-3.2c1.4-0.8,1.9-0.5,2.4-1.3c0.5-0.8,0.2-2.3-0.7-2.8
		c-0.9-0.5-1.7-3-1.9-4c-0.2-1-0.6-1.6-1.2-2.9c-0.7-1.3-1.7-1.2-1.3-3c0.1-0.7,0.2-1.2,0.2-1.6l-61.5-88L85.2,263.4z"/>
	<path id="Illinois" class="st0" d="M244.1,219.9c2.2,1.8,4-0.6,4.3-2.2c0.4-1.6-1-2-1.8-5.5c-0.8-3.5,7.5-3.6,8.5-4.1
		c1.1-0.5-0.2-1.7-1.4-2.9c-1.2-1.2,0.4-2,1.2-3.2c0.8-1.2-0.4-2.5-0.5-4.4c-0.1-1.9,0-3,0.7-4.1c0.7-1.1,0.8-2.6,0.7-3.3
		c-0.1-0.7-0.8-3.1,0.6-3.6c1.4-0.5,4.6-6.5,4.6-7.5c0-1.1,0.8-2.4,2.3-3.2c1.4-0.8,0.5-3.8-0.4-4.3c-0.8-0.5-0.8-1.8-1-4.7
		c-0.1-2.9-1.2-1.6-2.2-3.2c-1-1.7,0.1-3.8,0.8-4.8c0.7-1,1-5.7,1-5.7l-5.7-58.7c-0.9-0.6-1.6-1.4-1.9-2.5c-1-2.6-1.1-5.1-2.9-7.5
		c-1.8-2.4-2.6-1.3-2.6-5.1c0-1.5,0-3.8-0.1-6.2c-10,1.5-45.1,4.2-55.5,5c0.1,0.3,0.2,0.6,0.2,0.8c0.4,1.1,4.9,4.2,5.2,6.1
		c0.2,1.9,3.1,2.5,4.3,3.5c1.2,1,1.4,5.5,0.4,7.5c-1.1,2-2.8,1.7-2.8,4.8c0,3.1-1.6,3-3.4,3.9c-1.8,1-2.6,1-4,2.3
		c-1.3,1.3-4,0.2-6.2,0.7c-2.3,0.5-0.4,3.6-0.4,5.3c0,1.7,2.4,1.8,2.8,3.4c0.4,1.6-0.8,5.3-2,6c-1.2,0.7-0.5,1.1-0.5,3.5
		c0,2.4-4.3,3.6-6,4.4c-1.7,0.8,0.1,1.2,0.6,2.2c0.5,1,0.4,2.2-0.8,3.5c-1.2,1.3-0.8,8.9-0.4,12c0.5,3.1,8.2,8.4,8.4,11
		c0.2,2.6,5.9,5,7.1,5.5c1.2,0.5,1.4,5.1,2.4,7.7c1,2.5,1.6,1.3,3,0.6c1.4-0.7,2.2-0.4,2.5,0.5c0.4,0.8,1.7,0.5,1.7-0.4
		c0-0.8,1.7,0,3.6,1.7c1.9,1.7,0,7.3-3.2,12.8c-3.2,5.5,9.3,11.5,10.2,13.4c1,1.9,4.1,1.7,5.4,3.5c1.3,1.8,3.6,0.7,3.5,2.4
		c-0.1,1.7,1.7,3.8,2.8,6.3c1.1,2.5-0.5,1.7-1.6,3c-1.1,1.3,2,3.2,3.1,5.9c1.1,2.6,4.8,1.1,5.3,1.6
		C233.9,216.3,242,218.1,244.1,219.9z"/>
	<path id="Mississipi" class="st0" d="M506.5,463.2c0-0.4,0.4-0.9-0.5-1.6c-0.3-0.2-0.6-0.6-0.8-1.1c-9.2,0.9-17.9,1.5-24.6,1.9
		c0,0-0.6,0.3-0.6,1.4c0,1.1-0.1,0.9-0.7,1c-0.5,0.1-1.2,0-1.3,1.1c-0.1,1.1-0.3,2.9-0.8,3.3c-0.5,0.4-0.6,1.2-0.6,2.1
		c0,0.9-0.2,1.4-1.1,1.7c-0.9,0.3-2.3,0.9-2.2,1.8c0.1,0.9,0.4,1.1,0,1.5c-0.4,0.4-0.3,0.7-0.1,1c0.3,0.3,0.1,0.9-0.7,0.9
		c-0.7,0-1.4-0.1-1.3,0.9c0.1,1,0.9,2.1,0.1,2.6c-0.9,0.5-0.9,1.5-0.9,2c0,0.5,0.5,1.7,0.1,2.1c-0.5,0.4-0.3,1.1,0.4,2.1
		c0.7,0.9,1.2,1.1,0.9,1.9c-0.3,0.8-0.6,1.1-0.3,1.8c0.3,0.7-0.5,0.2-0.1,1.7c0.3,1.5,0.7,1.4,0.9,2c0.2,0.6-1.1,1.6-0.6,2.1
		c0.5,0.5-0.3,2.7,1.1,2.5c0,0,0.5,0.6,0.3,1.3c-0.2,0.7-0.8,0.7,0.3,1.3c1.1,0.5,1.7,1.1,1,1.3c-0.7,0.2-4.1,0.7-2.7,1.5
		c1.4,0.7,1.9,0.5,1.7,1.3c-0.2,0.7-1.3,2.8-1.7,3.1c-0.4,0.3-1.2,0.1-1,1c0.2,0.9,0.1,1.3-0.2,1.4c-0.3,0.1-1.1-0.1-1,0.5
		c0.1,0.7,0.5,1.2,0.1,1.3c-0.4,0.1-1.3,0.1-1.3,0.8c0,0.7,0.2,1.9-0.1,1.9c-0.3,0.1-0.7,0.6-0.5,1.1c0.3,0.5,0.3,1.9-0.2,2.1
		c-0.5,0.2-1.1,0.7-0.7,1.3c0.5,0.6,0.8,1.3,0.5,1.7c-0.3,0.3-0.4,0.5,0.2,0.6c0.6,0.1,23.1-1.2,23.1-1.2s1.2,0.3,0.7,0.8
		c-0.5,0.5-2.5,2.2-1.1,4c1.3,1.8,2,1.7,2.3,2.9c0.3,1.2,2.4,3.9,2.5,4.1c0.2-0.1,0.4-0.2,0.6-0.5c0.8-0.9,1-1.3,1.7-2
		c0.7-0.7,1.6-0.1,2.4-0.5c0.8-0.4,1.8-1.7,3-1.3c1.2,0.4,2.6,0.8,3.4,0.3c0.8-0.5,1.2,0.8,2,0.1c0.1-0.1,0.3-0.2,0.4-0.3l-2.7-21
		C506,508.8,506.5,463.6,506.5,463.2z"/>
	<path id="Texas" class="st0" d="M253.1,469.2c-0.2-0.1-0.4-0.2-0.3-0.5c0.1-0.3,0.3-0.5,0.7-0.8c0.4-0.3,0.2-0.8,0.4-1.1
		c0.2-0.3,0.4-0.2,0.4-0.5c0-0.3,0.1-0.7-0.1-1.1c-0.2-0.4-0.4-0.6-0.4-0.9c0.1-0.3,0.2-0.8,0.4-0.8c0.2,0,0.2-0.3,0-0.6
		c-0.1-0.3-0.8-0.1-0.3-0.6c0.5-0.5,0.6-0.3,0.9-1c0.3-0.7,0.4-1.2,0.3-1.5c0-0.3-0.1-0.7,0-1.1c0.1-0.4,0-1.1-0.3-1.6
		c-0.3-0.6-0.8-0.1-0.7-0.9c0-0.8-0.3-1.2-0.6-1.4c-0.3-0.3-0.6-0.2-0.5-0.7c0.1-0.4,0.3-0.5,0.1-1.1c-0.2-0.6-0.7-0.9-1-1.3
		c-0.3-0.4-0.8-0.7-0.8-0.7l-0.2-13c0,0-0.2-0.3-0.7-0.3c-0.5,0-0.9-0.1-1.1-0.1c-0.2,0-0.1,0.9-0.5,0.5c-0.4-0.3-0.1-1-0.6-1.1
		c-0.5,0-0.3,0.2-0.9,0.2c-0.6,0-0.9-0.3-1.1-0.5c-0.2-0.2-0.6,0-1.4-0.9c-0.7-0.8-1.1-1.1-1.5-1.1c-0.4,0-0.6,0.4-0.8,0.7
		c-0.2,0.2-0.5,0.7-1,0.3c-0.5-0.4-0.4-0.7-0.8-0.7c-0.3,0-1.1,0-1.2,0.5c-0.1,0.5-0.4,0.9-0.8,0.6c-0.4-0.3-0.2-0.7-0.8-0.5
		c-0.6,0.2-1.1,0.5-1.5,1c-0.3,0.4-0.6,0.9-1.1,0.6c-0.5-0.3-0.8-0.6-1.3-1.1c-0.5-0.5-0.9-1-1-0.6c-0.1,0.4-0.3,0.9-0.6,0.5
		c-0.3-0.4-0.5-0.6-0.7-0.8c-0.2-0.2-0.3-0.7-0.5-0.1c-0.2,0.6-0.3,0.5-0.3,1c0,0.5-0.1,1.1-0.4,1c-0.2-0.1-0.6-0.1-0.5-0.7
		c0.1-0.5,0.3-0.9,0-0.9c-0.2,0-1.6-0.1-1.6,0.2c0,0.3-0.5,0.4-0.7,0.1c-0.2-0.3-0.3-0.6-0.9-0.7c-0.5-0.1-0.9,0-1.1,0.3
		c-0.2,0.3-0.8,1-1,0.5c-0.2-0.5,0.1-1.1-0.2-1.2c-0.3-0.1-0.5,0-0.5-0.4c0-0.4,0.1-0.7-0.3-0.7c-0.5,0-0.9-0.1-1,0.1
		c0,0.2-0.4-0.2-0.6,0.3c-0.1,0.5-0.7,0.8-0.8,0.3c0-0.4,0-0.6-0.6-0.7c-0.6-0.1-1.1,0.4-1.6,0c0,0-0.2-0.6-0.9-0.5
		c-0.7,0.1-0.9-0.2-1.5-0.3c-0.6-0.1-0.4-0.8-0.6-1.3c-0.2-0.4-0.4-1-0.8-0.8c-0.4,0.1-0.1,0.8-0.8,0.6c-0.7-0.2-0.7,0.4-1.4-0.1
		c-0.7-0.5-0.7-1.2-1.3-1.6c-0.6-0.4-0.3-15.8-0.3-15.8l-19.9-1l-2.5,36.5c0,0,0,0.8-0.5,0.8c-0.5,0-24.4-2.1-24.4-2.1
		s-0.7-0.7,0.5,1.9c0.3,0,0.6,0.1,0.6,0.1c0.1,0,1.4,0.9,1.4,2.1c0,1.2,0.2,0.4,1.2,1.1c1,0.6,1.4,1,2.1,1.8c0.7,0.8,1,0.8,1.2,1.9
		c0.2,1.1,1.1,0.7,1.8,1.4c0.7,0.7,1,1.2,2.2,2c1.1,0.8,0.7,0.9,0.7,1.5c0,0.6-0.3,0.4,0.8,1.8c1.1,1.4-0.1,0.9-0.4,1.8
		c-0.3,0.9,0.8,2,1,2.9c0.2,0.8,0.7,0.9,1.4,1.2c0.7,0.2,0.4,0.4,0.8,1c0.4,0.6,1.5,1.1,2.1,1.1c0.6,0,1.5,1.4,1.9,1.2
		c0.3-0.1,2.3,1.3,3.3,2c1,0.7,0.6-0.6,1.5-1c0.8-0.4,0.8-1.4,1-2.1c0.2-0.7,0.7-1.3,0.9-1.7c0.2-0.4-0.1-1.3,1.3-1.4
		c1.4-0.1,1.4-0.8,2.3-0.7c0.8,0.1,0.9,0.8,1.4,0.8c0.5,0,0.5-0.1,1.1-0.2c0.6-0.2,0.7,0.1,1.1,0.4c0.3,0.3,0.9,0.1,1.3-0.1
		c0.3-0.3,1.8,1.8,2.4,2.4c0.6,0.6,2,1.8,2.8,2.3c0.8,0.5-0.2,0.8,1.6,3.4c1.8,2.7,1.2,3.1,1.7,3.7c0.5,0.6-0.4,0.8,0.4,1.2
		c0.8,0.4,2.5,2.7,2.9,3.3c0.4,0.6,0.3,1.3,1,1.4c0.7,0.1,0.9,0.6,1.3,1c0.4,0.3,0.1,0.3,0,0.9c-0.1,0.6-0.3,1,0.5,1.5
		c0.9,0.5-0.6,1.1,0,1.8c0.6,0.7,1.3,2.3,1.8,2.8c0.4,0.4-0.2,1.2,0.2,1.5c0.4,0.3,0.2,0.8,0.6,0.9c0.3,0,1,0.2,1.9,0.7
		c0.9,0.5,0.6,0.7,1.4,0.6c0.8-0.1,1,0.3,1.9,0.9c0.9,0.6,1.2,0.8,2,0.9c0.8,0.1,1,0.1,1.5-0.3c0.6-0.4,1.5,0.5,2.2,0.8
		c0.6,0.3,0.9,0.9,1.2,1.2c0.3,0.3,0.1,0.5,0.7,0.4c0.6-0.2,0.3-0.6,0.3-0.6s0.6-0.3,0.7-0.5c0.1-0.2,0.4,0,0.5,0c0,0,0-0.1,0-0.1
		c-0.2-1-0.3-0.7-0.5-0.5c-0.1,0.2-0.1,0.7-0.3,0.4c-0.2-0.3,0.3-0.4,0-1c-0.4-0.6-0.4-0.4-0.6-1.3c-0.1-0.9-0.7-0.6-0.7-1.6
		c0-1,0.3-1.5,0-2c-0.4-0.5-0.7-0.8-0.6-1.1c0.1-0.4-0.2-0.3-0.3-0.7c-0.1-0.4-0.1-0.5,0.3-0.7c0.4-0.2,0.5-0.6,0.5-0.8
		c0-0.2,0.3,0.1,0.3,0.8c0,0.7,0.2,3,0.5,3.4c0.3,0.4,0.9,2,0.8,2.4c0,0.4,0.1,1.4,0.3,1.1c0.1-0.3,0.2-0.3,0-1
		c-0.2-0.8-0.4-1.9-0.7-3c-0.3-1.1-0.6-1.6-0.6-2.3c0-0.7-0.1-1-0.3-1.4c-0.1-0.4,0-0.5-0.3-0.8c-0.2-0.3-0.3-0.4-0.7-0.4
		c-0.4,0-0.6,0.3-0.9,0c-0.3-0.3-0.6-0.4-0.4-0.6c0.3-0.2,1-0.1,1.3,0.1c0.3,0.1,0.4,0.3,0.7,0.1c0.3-0.2,0.3-0.7,0.4-0.4
		c0.1,0.3-0.2,0.8,0.1,0.8c0.3,0,0.2-0.2,0.3-0.7c0.1-0.4,1.1-2.5,1.4-3c0.3-0.4,0.2-1-0.1-0.6c-0.3,0.3-0.6,0.5-0.6,0.8
		c0,0.4-0.1,0.8-0.3,0.9c-0.1,0.1-0.3,0.1-0.3-0.4c0-0.6,0.1-0.5-0.3-0.8c-0.4-0.4-0.9-0.2-0.9-0.6c0-0.4-0.3-0.6,0.1-0.6
		c0.4,0,0.8-0.1,1,0c0.2,0.1,0.1,0.5,0.4,0.6c0.3,0,0.2,0,0.5-0.5c0.3-0.5,1.3-1.8,0.9-1.8c-0.4,0-0.8,0.6-0.9,0.3
		c-0.1-0.4,0-0.8,0.3-0.8c0.3,0,0.7-0.4,1.1-0.1c0.4,0.3,0.4,0.4,0.6,0.2c0.3-0.2,1.3-1.3,0.9-1.4c-0.5-0.1-0.5-0.1-0.5-0.5
		c0-0.3,0-0.8,0.6-0.3c0.6,0.6,0.2,0.7,0.7,0.7c0.6,0,1.1-0.7,1-0.3c-0.1,0.4-1.9,1.4-1.8,1.7c0.1,0.3,0.4,0,0.8-0.3
		c0.4-0.3,2.3-1.4,1.9-1.6c-0.4-0.2,0.1-0.6-0.5-0.9c-0.7-0.3-0.3-0.4-0.7-0.7c-0.3-0.3-0.6-0.8-0.3-1c0.4-0.1,0.1,0.4,0.6,0.6
		c0.5,0.2,0.9,0.5,1.1,0.1c0.3-0.4,0.4-0.4,0.8-0.3c0.4,0.2,0.7,0.5,1.1,0.4c0.4-0.1,0.2,0.3-0.2,0.4c-0.4,0.1-0.6,0.7-0.5,0.7
		c0.1,0,1-0.5,1.8-0.9c0.8-0.4,1.3-0.7,1.1-0.9c-0.2-0.2-0.2-0.3,0.2-0.4c0.4-0.1,0.9-0.1,1.2-0.4c0.3-0.3,2.6-1.5,3-2.3
		c0.4-0.8,0-1.1,0.6-1.3c0.5-0.3,1.1-0.7,1.2-0.8c0.2-0.2,0.4-0.8,0.1-1.1c-0.3-0.3-0.2-0.4-0.5-0.8c-0.2-0.4-0.4-0.3-0.4-0.7
		c0.1-0.4-0.2-0.7,0.1-0.6c0.3,0.1,0.7,0.6,0.9,0.3c0.2-0.3,0.2-0.4,0.4-0.6c0.2-0.2,0.4-0.4,0.5-0.2c0.1,0.2,0.6,0.5,0.2,0.7
		c-0.3,0.1-0.4,0.5-0.3,0.6c0.1,0.1-0.4,0.1-0.2,0.4c0.1,0.3,0,0.3,0.5,0.3c0.5,0,0.7,0,0.4,0.1c-0.3,0.1-0.9,0.9-1,1.2
		c-0.1,0.3-0.4,0.6-0.7,0.8c-0.3,0.2-0.9,0.4-0.9,0.7c0,0.2-0.3,0.6,0.4,0.2c0.6-0.3,1.3-0.8,1.4-1.1c0.1-0.3,0.4-1,1.4-1.4
		c0.9-0.4,1.4-1,2.1-1.1c0.6-0.1,2.6-1,3.1-1.1c0.1,0,0.1,0,0.2,0l0-0.1C253.4,469.5,253.3,469.3,253.1,469.2z"/>
	<path id="Michigan" class="st0" d="M359.8,208.5c1.1,1.5,20.7-3.6,28.9-5.7c0-0.2,0.2-0.5,0.4-0.9c1.3-2.2,2.2-4.6,3.5-5.4
		c1.1-0.7,1.6-2.6,2.9-3.2c-0.6-1.8-1-3.5-1.3-4.4c-0.4-1.1,2-3.9,4.7-6.6c0-0.2-0.1-0.6-0.2-1.4c-0.4-2.2-1.4-2.4-0.4-4.1
		c1-1.7-0.3-3.4,2.4-2.9c2.6,0.4,5.1,0.6,5.3,1.5c0.3-0.7-0.2-1-0.2-1c-0.2-2.5,0.2-7.2,0.8-12c-0.1,0.3,0,0.4-0.5-1
		c-0.7-2.1-0.9-0.9-2-4c-1.1-3.1-2.9-8.7-4-10.9c-1.2-2.1-2.7-6.3-3-8.4c-0.3-2.1-4.7-4.8-7-4.6c-2.2,0.2-6.1,2.8-6.8,4.3
		c0,0-0.4,0.9-1.2,0.6c-0.7-0.3-0.7,1.1-0.6,2.4c0.1,1.3-0.8,2.1-1.8,3.6c-1,1.5-2.4,2.7-2.9,3.6c-0.4,1-3.7,0.5-5.4-1.3
		c-1.7-1.9-2.1-6.6-0.5-7.7c1.6-1.2,3,0.4,4.1-2.1c1.1-2.5,1.4-4.2,1.4-5.2c0-1.1,0.2-3,1.6-3.6c1.4-0.6,1.8-0.2,2.2-2.3
		c0.4-2.1,0.7-3.5-0.3-5.5c-1-2-0.3-3.2-0.2-5.4c0.1-2.2-2.1-5.2-2.9-6c-0.8-0.7-2.6-2.2-1.3-3.1c1.3-0.9,2.8-2.8,2-3.4
		c-0.8-0.6-2.1-0.8-2.5-2c-0.4-1.2-1.3-2.8-3.1-3.3c-1.9-0.4-10.4-3.6-11.3-3.6c-1,0.1-1.4,0.4-2.1-1.2c-0.7-1.7-3.8-2-5.3-1.8
		c-1.4,0.2-3-0.3-3.7-1.2c-0.7-0.9-3.7-2.1-5.5-1.2c-1.9,0.9-3,3.7-3.7,4.1c-0.7,0.4-2.8,2.1-1.7,3.9c1.1,1.8,2.7,1.5,2.6,2.8
		c-0.1,1.3,0,1.4-1.8,1.4c-1.8,0-3.2,0.5-3.8,1.5c-0.6,1-1.5-0.4-1.8,2.5c-0.3,2.8,0.5,5.7,0.6,8c0.1,2.3-0.1,5.7-1.3,5
		c-1.2-0.7-0.3-3.8-1.1-4.2c-0.8-0.4-0.5,1.3-0.4,2.3c0.1,1,0.7,3.8-0.4,2.2c-1.1-1.6-1-3-0.8-5c0.2-2,0.2-5.1-0.2-5.7
		c-0.4-0.6-1.3-0.6-1.5,0.5c-0.2,1.2-1.3,4.1-2.3,5.1c-1,1,0.6,3.4-2.1,2.7c-2.8-0.7-2-0.6-2.6,1.2c-0.6,1.9-1,4.4-1.8,4.5
		c-0.8,0.1-3.3,1.1-2.5,2.8c0.8,1.7,2,2.6,1.3,3.9c-0.6,1.3,1.1,6.2,0,7.5c-1.1,1.2-2.3,3.5-3.3,4.8c-1,1.3-3,2.8-1.6,4.1
		c1.4,1.3,2.2,2,2.1,4.2c-0.2,2.1,0.8,4.2-0.2,5.1c-1,0.9-0.3,4.9,0.6,6.2c0.9,1.3,2,2.7,3.5,5.2c1.5,2.6,7.4,17.5,4,26.6
		c-3.4,9.1-2.9,11.4-3.6,12.6c-0.7,1.2-2.9,5.5-5,7.5c-0.2,0.2-0.3,0.3-0.5,0.5l42.2-5C357.1,206.9,358.4,206.6,359.8,208.5z"/>
	<path id="Louisiane" class="st0" d="M301.6,438c0,0,1.8,0.9,2.8,2.3c1,1.4,2.8,2.4,3.6,4.6c0.8,2.2-0.1,2.4-0.4,4
		c-0.3,1.5,0.8,1.4,1.8,2.3c1,0.9,2.1,2.3,1.9,5c-0.1,2.7,1.5,1.3,2.6,3.2c1,1.9,1.3,4.1,0.9,5.6c-0.4,1.5-0.1,2.7,0,3.8
		c0.1,1.2-0.1,2.9-1.2,5.3c-1,2.3-1.3,1.7-3,3.3c-1.7,1.7,0.5,1.1,1,2.2c0.5,1,0.5,2.2-0.1,2.2c-0.6,0-1,1.8-1.3,2.7
		c-0.3,0.9,0.5,1.8,1.3,3.1c0.8,1.3,0.5,2.7,0.5,3.7c0,1-0.6,0.8-1.4,1.7c-0.8,0.9-0.3,2.6-1.5,3.7c-1.3,1.2-1.9,1.9-2.4,2.9
		c-0.5,1,0.4,1.4,1,1.8c0.6,0.4,0.9,1,0.9,1l0.1,0.2c1.4-0.4,2.3-1.6,5.2-1.7c3.3-0.1,6.2,0.2,6.5-0.8c0.3-1-0.8-2.8-1-2.8
		c-0.2-0.1,1.3,0.1,1.4-1c0.1-1-0.5-1.4-0.1-2.4c0.4-1,0.6-2.8,1.3-1.1c0.6,1.7,1.3,2.1,1.5,2.6c0.2,0.5,0.3,1.2-0.8,1.3
		c-1,0.2-2.3,0.1-1.3,1.5c1,1.3-0.1,1.9,1.1,1.9c1.2,0.1,12.2,3.1,14.3,4.3c2.1,1.2,15.8,2.6,15.4-1.7c-0.5-4.3-3.2-2.4-1-3.6
		c2.3-1.2,1.9-0.3,3.2-1.1c1.2-0.8,3-1.9,3-0.3c0,1.6,0,3.3,1.5,2.5c1.5-0.8,0.4-2.9,2.6-1.3c2.3,1.6,2.8,1.6,3.2,3.4
		c0.5,1.8,0.7,2.4,2.1,2.4c1.4,0.1,4.4,0.8,5.3,1.3c0.9,0.4,1.4,0.7,2.4,1.5c1.1,0.8,0.7,1.8-0.6,1.8c-1.3,0-2.8,0-2.1,1.3
		c0.7,1.3,0.7,2.1,2.6,2.4c1.9,0.3,2.2-0.4,4.1,0.3c1.9,0.6,0.6,1.4,3.3,1.9c2.7,0.5,6.6,1.1,7.4-0.5c0.8-1.6-1-3.1,0.2-4
		c1.2-1,5.4-0.7,5.8-0.1c0.4,0.6,0.9,1.3,1.8,0.8c0.9-0.5,1.5-0.6,1.4,0.6c-0.1,1.3-1.3,2.8,0.2,3.1c1.5,0.3,3.5,1.7,4-0.7
		c0.4-2.4,0.4-4,1-4.9c0.6-0.9,0.9-1.1,0.3-2.6c-0.6-1.5-1.1-1.2-2.8-2.2c-1.7-1.1-3.1-3.1-1.6-2.8c1.5,0.3,1.5,0.4,3.7,1.3
		c2.3,0.8,4.1,1,5.2,1.6c1.1,0.6,2.2,2,1.2,2.2c-1,0.3-2,0.7-0.3,1c1.7,0.3,2.9-0.4,3.5,0.2c0.6,0.6-0.4,1.8,1.2,2.1
		c1.6,0.3,4.2-1.5,4.2-0.6c0,0.8-0.3,1.5,0.6,2.6c1,1.1,1.7,0.4,2.1,1.2c0.4,0.8,1.1,1.2,0.2,2.2c-0.9,1-1.4,1.4-1,2.3
		c0.4,0.9-0.3,2.8,1.1,1.1c1.4-1.7,1.7-3.3,2.4-4.2c0.7-1,0.8-0.8,1.1,0.1c0.3,0.9,1,2.2,1.6,1.5c0.6-0.8,0.5-0.8,1-2.5
		c0.5-1.7,0.6-0.7,1.5-2c0.9-1.3,0.6-2.7-1-3.4c-1.5-0.7-0.9-1.7-3.1-2.1c-2.2-0.4-2.6,0.1-4.9-1c-2.3-1-3.1-0.5-5.1-2.2
		c-1.9-1.7-3.5-1.7-3.1-2.8c0.4-1,1.9-1.9,3.1-1.7c1.2,0.3,3.1-0.1,1.9-0.6c-1.2-0.5-3.6-0.3-3.1-1.3c0.5-1,1.5-2,2.7-2.1
		c1.2-0.1,2.5,1.3,3,0.3c0.5-1,0.5-1.4,0-3.1c-0.4-1.7-1.8-0.9-1.9-2.2c-0.1-1.3,0.5-3.2-0.7-3.7c-1.2-0.4-2.3,1.3-2.3,1.3
		s-1.1,2.6-1.1,3.1c0,0.5,0.3,1.6-0.7,1.3c-1-0.3-1.9,0.6-2.1-1.1c-0.1-1.7-2.3-0.6-1.7-1.8c0.5-1.1,1.9-1.5,2.5-2.3
		c0.6-0.8-0.8-1.6-1.4-1.6c-0.6,0-3.3-1-4.4-0.2c-1.1,0.8-2.9,2.5-1.7,3.7c1.2,1.2,2.8,3.2,0.7,2.4c-2.1-0.9-2.6-3.3-3.9-3.3
		c-1.3-0.1-1.9,0.3-2.9-0.2c-1-0.5-3.3,2-3.8-0.8c-0.5-2.8,2.2-5.6,3.2-6.7c0.9-1.1-0.9-2.3,2.5-0.5c3.4,1.8,1.7,1.3,4.9,2.5
		c3.2,1.2,2.8,1.4,4.8,2c2,0.5,2.9,0.9,4.3,0.4c0.9-0.3,1.3,0,2-0.2c-0.2-0.5-4.2-5.6-4.9-7.9c-0.6-2.3-1.9-2-4.5-5.5
		c-2.6-3.5,1.3-6.8,2.2-7.7c0.9-0.9-1.4-1.5-1.4-1.5s-43.2,2.6-44.4,2.3c-1.2-0.3-0.9-0.5-0.4-1.2c0.5-0.6-0.1-2-1-3.2
		c-0.9-1.2,0.4-2.1,1.3-2.4c0.9-0.4,0.9-3.1,0.4-4.1c-0.5-1,0.3-2,0.9-2.2c0.6-0.1,0.3-2.3,0.3-3.7c0-1.4,1.8-1.3,2.6-1.5
		c0.8-0.3,0-1.3-0.1-2.6c-0.1-1.3,1.4-0.9,1.9-1c0.5-0.1,0.8-0.9,0.4-2.7c-0.4-1.8,1.2-1.4,1.9-1.9c0.8-0.5,2.8-4.5,3.2-5.9
		c0.4-1.4-0.6-1-3.3-2.4c-2.7-1.4,4-2.4,5.3-2.8c1.3-0.4,0.3-1.5-1.9-2.6c-2.2-1-1-1.1-0.6-2.4c0.4-1.3-0.6-2.4-0.6-2.4
		c-2.8,0.3-1.2-3.8-2.2-4.9c-1-1,1.5-2.9,1.2-4.1c-0.4-1.1-1.1-0.9-1.7-3.3l-68.7,2.1L301.6,438z"/>
	<path id="Southampton" class="st0" d="M741,467l-1.3-1.7c0,0-1.5,0.3-1.9,0.7c-0.5,0.5,0.2-2.5,0.2-2.5s0.6-0.6,1,0.1
		c0.5,0.6,1.5,1.9,4.3-2.2l0.5-3c0,0,0.9-0.1,1.1,0.5l0.2,2.3c0,0,1.2,3,1.7,3s0.6-1.3,1-1.4c0.4-0.1,2,1.3,2.3,0.7
		c0.3-0.6,1.3-1.4,2.4-0.9c1.1,0.5,3.5,1.2,4.9,0.8c0,0,0.4-2.2,2-2.6c0,0,2.7,0.8,3-1.1l1-1.6c0,0,2.1,1.9,3,2.2
		c0.8,0.3,1.2,0,1.2,0l2.4,1.9c0,0,0.8,0,1.8,1.4c0.9,1.4,2.1,1.6,2.1,1.6s6.7-0.1,7.9,0.3l1.6-1.5h1.1c0,0,0.9-0.2,0.8,1.4l0.1,0.8
		l-1.7,1.4l0.9,1.1c0,0,0.2,0,0.1,1.3l-4.3,0.2l-2.7,3c0,0-0.5,1.2,0.8,0.6c1.3-0.6,8.1-5.3,10.5,0.9c0,0,1.6,2.8,1.1-1.7
		c0,0,0.3-3.9,5.7,2.4c0,0,3.8,3.5,3,0.2l2.5-1.1l1.9-0.1l2,1.8v1.2l-1,0.7l-0.6,1.4h-2.3l-0.6,3.9l3.1,4.5c0,0,0.4,2.6,1,2.6
		c0,0,0.4,1-1.8,2v5.2l-7.5,3.5c0,0,0.6,3.8-2.4,4.3c0,0-1.3-1-1.9,1.6c0,0-3-0.1-3,1.7c0,0-4.2,0.6-4.6-0.9c0,0-0.7-1.5-2.7-0.1
		c0,0-5.1-0.5-4.7-3.6l0.6-1.1l-0.2-2.4h0.8l-0.2-3.7c0,0-2.7-2.6,1.3-3.9c4-1.4,3.6-3,3.6-3s0.3-4-5.3-4c-5.6,0,2.2-2.4,1.7-2.9
		c0,0,2.6-1.3,0.2-4.7c0,0-1-0.6-0.5,2.2c0.6,2.8-3.6,1.3-4.5,3.4c-0.9,2.1-0.2,4.1,3.2,4.2c3.4,0.1,2.6,2.5,1.3,2.6
		c-1.3,0.1-5.4,1.3-3.5,6.9l-0.4,3.6c0,0-1-1.6-1.7-0.4c-0.7,1.2,0.5,1.7,1,1.9c0.5,0.2-0.8,2.9-0.8,2.9l-0.2,0.2l-1.5-2.4
		c0,0-0.7-0.9-0.3,2l1.5,1.3l-0.4,3c0,0-0.5,0.7-1.2-1.2c-0.8-2-1.6-1.9-1.6-1.9l-0.1-1l0.7-1.1l0.4-2.2l-0.5-0.3l-1.1,2.3l-0.5-1.8
		l-1.4-2.3l-0.1,2.9l-0.8,0l-0.2-2.3l-2.6-2.6l-4.5-2.4l-7.3-3.7c0,0-2.4-1.3-3.8,3l-2.3,0c0,0-9-5.5-9-10.6l-2.4-3.4
		c0,0,3,0,4.2-1.2c0,0,0.2-1.5-0.8-2.2l-0.1-1l2.7,0.3v-0.7l-1.8-1.5c0,0-1.9-0.8,1.1-2.2v-0.8l-2.4-0.3c0,0,1.6-2.4,1.9-2.2
		c0.4,0.2,2.4-2.7,2.4-2.7L741,467z"/>
	<path id="Ohio" class="st0" d="M482.8,118c-0.2-1-0.4-2-0.5-2.6c-0.1-0.4,0.5-0.4,1-0.4L479,92.5c-3.4,1.9-8.4,5.3-9.3,6.6
		c-1.1,1.6-3.6,4.4-4.8,4.4c-1.3,0-3.6,0-4.3,0.8c-0.8,0.8-4.3,2.2-5,1.6c-0.7-0.6-2.2-0.7-2.3-0.5c0,0.3-1.2,0.5-1.8,0.7
		c-0.6,0.3-1-0.6-0.5-0.8c0.5-0.2,1.9-0.1,1.7-0.6c-0.2-0.6-0.5-0.9-1.3-0.5c-0.8,0.4-0.6,1-1.2,0.3c-0.6-0.7-0.7-0.5-2.1-1
		c-1.5-0.5-1.4-0.3-2.5-0.9c-0.9-0.5-1.9-0.2-1.8-0.8c-4.6,1.2-15.7,4.1-16.3,3.2c0,0-0.1-0.1-0.1-0.1l5.3,43.1
		c0.2-0.3,0.4-0.5,0.8-0.5c0.9,0,1.9,0.2,3,0.4c1.1,0.3,1.3-1,2.2,0.3c0.8,1.2,1,2,1.8,2.5c0.8,0.5,0.2,1.8,2,2
		c1.7,0.2,3.3-0.8,3.9,0c0.6,0.7,2.3,2.1,3.1,1.8c0.9-0.3,0.6-1.9,1.7-1.6c1.1,0.3,1.4,0.9,2.1,0.8c0.7,0,1.1-0.3,1.2-0.7
		c0.2-0.4,0.7-0.3,1-0.2c0.3,0.1,0.6-0.5,0.7-0.7c0.1-0.2,0.8-0.5,0.8-0.5l0.8-0.7l0.5,0.4c0,0,0,0.1,0.2,0.5
		c0.1,0.4,0.5,0.7,0.9,0.8c0.4,0.1,0.1,0.3,0.5,0.7c0.4,0.5,1.3,0.7,1.8,0.8c0.6,0.1,0.5,0.6,0.7,1.1c0.1,0.2,0.6,0.6,1.1,0.9
		c0.4-0.2,1-0.4,1.6-0.4c1-0.2,0.9-0.4,0.9-1.7c0-1.2,0.5-0.9,1.2-1.2c0.8-0.3,0.4-1.7,0-2.5c-0.4-0.8,0.3-2,0.2-3
		c-0.1-1,0.8-2.3,1.2-2.8c0.5-0.5,1.5,0.8,2.3,1.3c0.8,0.5,0.2-3.5-0.2-4.7c-0.3-1.2,1.4-1.4,2.2-1.8c0.8-0.4,0.7-1.4,0.9-2.6
		c0.2-1.1,1.1-0.3,2,0.3c0.9,0.6,1.1,0.1,2.1-0.2c1-0.2,2.2-2.7,2.9-3.7c0.8-1,0.5-3.1,0.3-5.2c-0.2-2.1,0.9-1.4,1.4-1.8
		c0.5-0.5-0.1-3.3-0.1-4.7c-0.1-1.4,0.1-0.9,0.7-1.1C483.7,120.4,483,119.1,482.8,118z"/>
	<path id="Maryland" class="st0" d="M403.8,300.1c-0.7-1.2-1.7-2-0.4-2.9c1.3-0.9,0.6-0.9,2.3-2.6c1.2-1.3,1.5-2.1,1.6-3.1
		c-2.2-0.7-5.3-0.9-8.1-1.3c-4-0.6-6.5-0.6-6.9-1.3c-0.4-0.7-2.2-9.9-2.3-12.4c-0.2-2.5-2.4-9.3-3.8-12.5c-1-2.3-1.4-4.1-1.4-5.1
		l-71.8,13.6l2.1,13.1l6.8-7.7c0,0,2.3-1,2.5-0.1c0.2,0.9,0.7-0.1,1-0.7c0.3-0.6,1.7-5.4,2.3-4.6c0.6,0.8,0.6,1.7,2.8,1.9
		c2.2,0.2,2.3-1.9,3.5-2.5c1.2-0.5,2.5-0.9,3.1-1.5c0.6-0.6,2-1.5,3-1c1,0.5,2.3,0.5,3.8,0.5c1.5,0,2.6,1,3,2.2
		c0.3,1.2,2.3,4.1,2.3,4.1s4.5-0.7,4.7,0.5c0.2,1.2,0.4,4,1,4.5c0.6,0.5,3.3-0.3,4.6,0.6c1.3,0.9,5.4,2.6,5.5,4.4
		c0.2,1.9,0.6,3.4-0.7,5.7c-1.3,2.2-2.6,5.2-1.9,6.4c0.8,1.2,3,1,4.1-0.1c1.1-1.1,3-0.6,3.5,0.1c0.5,0.7-1.1,1,0.3,1.7
		c1.4,0.7,3.9,1.5,5.8,1.9c1.8,0.3,4-0.7,4.8-0.3c0.2-1,0.6-1.6,0.1-3c-0.6-1.9,0.1-2.5-0.8-4.3c-0.9-1.9-1.7-1.4-2.2-3
		c-0.5-1.6-1.9-3.3-2-5.7c-0.2-2.3-0.1-4.7-0.3-6.6c-0.2-1.9,0.4-3.2-0.9-3.7c-1.2-0.5-2.6-3.6-1.9-3.3c0.7,0.3,1.3,1.2,1.9-0.1
		c0.6-1.3,1.9-2.9,2.3-3c0.4-0.2,0.9-0.3,2-1c1.1-0.7,2.1-1.4,1.9-2.1c-0.2-0.7,0.8-1.5,0.8-0.4c0,1.1-0.3,2.5,0.4,2.5
		c0.7,0,1.5,0.5,0.4,0.8c-1.1,0.3-5.6,1.1-4.9,2.6c0.7,1.5,0.2,5.1,1.5,5c1.3-0.2,1.6-0.2,1.4,0.9c-0.2,1.2-1.4,0.9-2,2
		c-0.6,1.1-2.8,2.4-1.1,2.6c1.7,0.2,2.7-1.9,3.1-1.2c0.4,0.6,1.6,1,0.8,1.9c-0.9,0.9-1.8,0.3-1.9,1.2c-0.1,0.9-0.8,1.6,0.5,1.9
		c1.3,0.3,1.9-0.9,2.6,0c0.7,0.8,1.9,1.1,0.9,1.8c-0.9,0.7-2-0.2-2.3,1.3c-0.3,1.5-1,2,0.5,2.2c1.5,0.2,1.9-0.2,2,1.1
		c0.2,1.2,0,0.6-0.2,2.5c-0.2,1.9-0.5,2.5,1.2,2.6c1.6,0.2,2.5-1.3,2.8-1.9c0.3-0.5,1.1-1.9,2.7,0.7c1.6,2.6,2.6,2.9,2.1,4.8
		c-0.5,1.9-0.9,1.3,0.3,2.1c1.2,0.8,1.9,0.8,2.5,0.5c0.5-0.2,0.9,0.5,1,2c0.1,1.5-1.7,5.4-1.8,7.1c-0.1,1.7-0.7,3.3-0.5,6
		c0.2,2.7-0.5,3.7,0.8,5c1.3,1.3,2,1.9,2.1-1c0.1-2.9-0.5-5.1,0.3-6c0.8-0.9,1.1-0.8,1.1-2.2c0-1.4,2.8,1.1,2.4-1.4
		c-0.4-2.5-0.6-4.7,0.3-6.3c0.9-1.5,0.1-2.8,2.1-3.6c2-0.8,2.7-1.2,2.6-2C405.6,300.3,404.5,301.3,403.8,300.1z"/>
	<path id="Caroline_du_nord" class="st0" d="M819,351.4c-0.6-0.6-0.9-1-1.4-1.8c-0.5-0.8-1.2-2.3-1.6-2.8c-0.4-0.5-0.5-1.2-1.2-2.3
		c-0.2-0.3-0.3-0.5-0.4-0.6c-4.1,1-28.9,6.9-50.5,9.7c0,0-1.8,0.4-2.4,0.2c-0.1-0.1-0.4-0.1-0.7-0.1c0.1,0.8,0.2,2-0.2,2.7
		c-0.6,1.1-0.9,0.5-1.3,1.6c-0.4,1.1-1.6,2.7-1.7,2.2c-0.1-0.5-1.1-1.5-2.2-0.5c-1,1-0.1,2.4-1.4,2.6c-1.3,0.1-0.7-1-1.3-1
		c-0.6,0-0.1,0.6-0.5,1.1c-0.4,0.6-1.6,0.3-1.6,0.9c0,0.6-0.1,1.7-1,1.7c-1,0.1-2.9,2.4-3.6,3.2c-0.8,0.8-1.5-0.6-2.9,0.6
		c-1.4,1.1-2,0.3-1.9,1.2c0.1,0.8,0.5,1.6-0.1,2.1c-0.6,0.5-2.2,0.3-2.2,0.8c0,0.3,0,1.6-0.1,2.7c6.2-0.7,10.5-1.2,11-1.2
		c1.9-0.1,2.2-0.8,3.4-1.5c1.2-0.7,4.7-2.5,5.6-2.6c0.8-0.1,10.3-1.5,10.3-1c0,0.4-0.6,0.7,0.6,0.8c1.1,0.1,1.4-0.1,1.8,0.3
		c0.4,0.4,1,2.4,1,2.4l10.9-1.8l12,9.1c0.2-0.1,0.5-0.3,0.8-0.4c1.3-0.4,1-0.4,2.4-0.6c1.4-0.2,2.2,0.3,2.3-1.5
		c0.1-1.8,3.3-6.1,4-6.6c0.7-0.5,0.1-0.7,0-1c-0.1-0.3-0.2-0.9,0-1c0.2-0.1,0,0.1,0.2,0.5c0.2,0.4,0.8,0.8,0.9,0.5
		c0.1-0.3,0.6-0.8,0.7-1.4c0.1-0.6,0.4-1,0.7-0.7c0.3,0.3,1,0.5,1.3,0.3c0.3-0.2,1.5-0.5,1.9-0.7c0.3-0.2,0-0.8,0.2-1.1
		c0.2-0.3,0.1,0.2,0.8,0.1c0.8-0.1,0.6-0.5,0.9-0.2c0.3,0.4,0.1,0.9,0.3,1.2c0.2,0.3,0.1,0.6,0.5-0.5c0.4-1.1,1-2.3,1.5-2.7
		c0.4-0.4,0.2-0.8-0.2-0.6c-0.4,0.2-0.5,0.6-0.5-0.1c0-0.7,0.4-1.6-0.1-1.2c-0.5,0.5-0.5,1.7-0.9,1.3c-0.4-0.5-0.4-0.5-0.4-1
		c0-0.6-0.5-1.4-0.5-0.5c-0.1,0.9,0.2,1.3-0.5,1.5c-0.7,0.2-0.8,0.6-1.6,0.7c-0.9,0.1-1.7,0.1-1.2-0.1c0.6-0.2,1,0.2,1.5-0.7
		c0.5-0.9,0.4-1,0.8-1.8c0.4-0.8,1.3-1,0.6-1.4c-0.7-0.4-0.4-0.3-1.6-0.7c-1.2-0.4-2.6-0.5-2.1-0.7c0.5-0.2,1.1,0.1,1.7-0.2
		c0.6-0.3,0.2-0.9,0.8-0.7c0.6,0.2-0.1,0.3,1.5,0.5c1.6,0.2,1.7,0.3,2,0.2c0.3,0,1.7-1,1.9-2.7c0.1-1.6,0.4-0.9,0.8-0.9
		c0.4,0,0.8,0,0.7-0.7c-0.1-0.7-0.3-1.5-0.4-2.3c0-0.8-0.7-0.9-0.9-0.9c-0.2-0.1-0.9-0.2-0.9,0.3c0,0.5-0.8,0.2-0.5,0.8
		c0.3,0.6,0.7,1.3,0.1,1.8c-0.6,0.5-1,0.6-0.8-0.5c0.2-1.1,0.9-1.3,0.3-1.9c-0.6-0.6-0.7-1.1-1.2-0.7c-0.5,0.4-1.3,0.4-1.4,1
		c-0.1,0.6-1.4-0.8-1.6-0.3c-0.2,0.5-0.8,1.3-1.7,0.9c-0.9-0.4-1.4-1-1.5-1.5c-0.1-0.5,0.1,0.1,0.8,0.3c0.7,0.1,0.7,0.5,1.2,0.2
		c0.5-0.3,1.3-0.1,1.6-0.8c0.4-0.7,0.8-0.9,1.6-1c0.8-0.1,1.5-0.7,0.9-1c-0.6-0.3-0.7-1.1,0-0.7c0.7,0.4,1.3,0.9,1.6,0.7
		c0.3-0.2,0.3,0,0.6,0.1c0.2,0.2,1,0.6,0.4-0.1c-0.7-0.7-0.7-1.6-1.2-2.1c-0.5-0.5-1.1-0.6-1.3-1.2c-0.2-0.6-0.5-1.4,0.3-1
		c0.7,0.4,0.9,0.3,1.2,1.3c0.3,0.9,0.8,1.3,1.1,1.8c0.3,0.5,0.5,1,1.1,2c0.6,1,1,1.6,1.4,2C818.8,351.7,819.5,352,819,351.4z"/>
</g>
<g id="genre">
	<g id="Mersey_Beat_Circle">
		<g id="XMLID_912_">
			<g id="XMLID_919_" class="st1">
				<g id="XMLID_920_">
					<path id="XMLID_922_" class="st2" d="M936.3,105.7c0,13.6-11,24.6-24.6,24.6c-13.6,0-24.6-11-24.6-24.6s11-24.6,24.6-24.6
						C925.3,81.1,936.3,92.1,936.3,105.7"/>
					<rect id="XMLID_921_" x="887.1" y="81.1" class="st3" width="49.2" height="49.2"/>
				</g>
			</g>
		</g>
		<circle id="XMLID_910_" class="st4" cx="911.7" cy="105.7" r="21"/>
	</g>
	<g id="Mersey_Beat_Circle_1_">
		<g id="XMLID_6_">
			<g id="XMLID_7_" class="st1">
				<g id="XMLID_8_">
					<path id="XMLID_10_" class="st2" d="M878.8,88.7c0,13.6-11,24.6-24.6,24.6c-13.6,0-24.6-11-24.6-24.6s11-24.6,24.6-24.6
						C867.8,64.1,878.8,75.1,878.8,88.7"/>
					<rect id="XMLID_9_" x="829.6" y="64.1" class="st3" width="49.2" height="49.2"/>
				</g>
			</g>
		</g>
		<circle id="XMLID_5_" class="st4" cx="854.2" cy="88.7" r="21"/>
	</g>
	<g id="Mersey_Beat_Circle_2_">
		<g id="XMLID_12_">
			<g id="XMLID_13_" class="st1">
				<g id="XMLID_14_">
					<path id="XMLID_16_" class="st2" d="M880.5,160.7c0,13.6-11,24.6-24.6,24.6c-13.6,0-24.6-11-24.6-24.6s11-24.6,24.6-24.6
						C869.5,136.1,880.5,147.1,880.5,160.7"/>
					<rect id="XMLID_15_" x="831.3" y="136.1" class="st3" width="49.2" height="49.2"/>
				</g>
			</g>
		</g>
		<circle id="XMLID_11_" class="st4" cx="855.9" cy="160.7" r="21"/>
	</g>
	<g id="Mersey_Beat_Circle_3_">
		<g id="XMLID_18_">
			<g id="XMLID_19_" class="st1">
				<g id="XMLID_20_">
					<path id="XMLID_22_" class="st2" d="M935.3,243.5c0,13.6-11,24.6-24.6,24.6c-13.6,0-24.6-11-24.6-24.6s11-24.6,24.6-24.6
						C924.3,218.9,935.3,229.9,935.3,243.5"/>
					<rect id="XMLID_21_" x="886.1" y="218.9" class="st3" width="49.2" height="49.2"/>
				</g>
			</g>
		</g>
		<circle id="XMLID_17_" class="st4" cx="910.7" cy="243.5" r="21"/>
	</g>
	<g id="Mersey_Beat_Circle_4_">
		<g id="XMLID_24_">
			<g id="XMLID_25_" class="st1">
				<g id="XMLID_26_">
					<path id="XMLID_28_" class="st2" d="M994.5,268.1c0,13.6-11,24.6-24.6,24.6c-13.6,0-24.6-11-24.6-24.6
						c0-13.6,11-24.6,24.6-24.6C983.5,243.5,994.5,254.5,994.5,268.1"/>
					<rect id="XMLID_27_" x="945.3" y="243.5" class="st3" width="49.2" height="49.2"/>
				</g>
			</g>
		</g>
		<circle id="XMLID_23_" class="st4" cx="969.9" cy="268.1" r="21"/>
	</g>
	<g id="Mersey_Beat_Circle_5_">
		<g id="XMLID_30_">
			<g id="XMLID_31_" class="st1">
				<g id="XMLID_32_">
					<path id="XMLID_34_" class="st2" d="M1015.5,365.8c0,13.6-11,24.6-24.6,24.6c-13.6,0-24.6-11-24.6-24.6s11-24.6,24.6-24.6
						C1004.5,341.2,1015.5,352.2,1015.5,365.8"/>
					<rect id="XMLID_33_" x="966.3" y="341.2" class="st3" width="49.2" height="49.2"/>
				</g>
			</g>
		</g>
		<circle id="XMLID_29_" class="st4" cx="990.9" cy="365.8" r="21"/>
	</g>
	<g id="Mersey_Beat_Circle_6_">
		<g id="XMLID_36_">
			<g id="XMLID_37_" class="st1">
				<g id="XMLID_38_">
					<path id="XMLID_40_" class="st2" d="M1015.5,433.6c0,13.6-11,24.6-24.6,24.6c-13.6,0-24.6-11-24.6-24.6s11-24.6,24.6-24.6
						C1004.5,409,1015.5,420,1015.5,433.6"/>
					<rect id="XMLID_39_" x="966.3" y="409" class="st3" width="49.2" height="49.2"/>
				</g>
			</g>
		</g>
		<circle id="XMLID_35_" class="st4" cx="990.9" cy="433.6" r="21"/>
	</g>
	<g id="Mersey_Beat_Circle_7_">
		<g id="XMLID_42_">
			<g id="XMLID_43_" class="st1">
				<g id="XMLID_44_">
					<path id="XMLID_46_" class="st2" d="M992.3,497.6c0,13.6-11,24.6-24.6,24.6c-13.6,0-24.6-11-24.6-24.6s11-24.6,24.6-24.6
						C981.3,473,992.3,484,992.3,497.6"/>
					<rect id="XMLID_45_" x="943.1" y="473" class="st3" width="49.2" height="49.2"/>
				</g>
			</g>
		</g>
		<circle id="XMLID_41_" class="st4" cx="967.7" cy="497.6" r="21"/>
	</g>
	<g id="Mersey_Beat_Circle_8_">
		<g id="XMLID_48_">
			<g id="XMLID_49_" class="st1">
				<g id="XMLID_50_">
					<path id="XMLID_52_" class="st2" d="M951,453.1c0,13.6-11,24.6-24.6,24.6c-13.6,0-24.6-11-24.6-24.6s11-24.6,24.6-24.6
						C940,428.5,951,439.5,951,453.1"/>
					<rect id="XMLID_51_" x="901.8" y="428.5" class="st3" width="49.2" height="49.2"/>
				</g>
			</g>
		</g>
		<circle id="XMLID_47_" class="st4" cx="926.4" cy="453.1" r="21"/>
	</g>
	<g id="Mersey_Beat_Circle_9_">
		<g id="XMLID_54_">
			<g id="XMLID_55_" class="st1">
				<g id="XMLID_56_">
					<path id="XMLID_58_" class="st2" d="M896.3,463.6c0,13.6-11,24.6-24.6,24.6c-13.6,0-24.6-11-24.6-24.6s11-24.6,24.6-24.6
						C885.3,439,896.3,450,896.3,463.6"/>
					<rect id="XMLID_57_" x="847.1" y="439" class="st3" width="49.2" height="49.2"/>
				</g>
			</g>
		</g>
		<circle id="XMLID_53_" class="st4" cx="871.7" cy="463.6" r="21"/>
	</g>
	<g id="Mersey_Beat_Circle_10_">
		<g id="XMLID_60_">
			<g id="XMLID_61_" class="st1">
				<g id="XMLID_62_">
					<path id="XMLID_64_" class="st2" d="M892.7,395.3c0,13.6-11,24.6-24.6,24.6c-13.6,0-24.6-11-24.6-24.6s11-24.6,24.6-24.6
						C881.7,370.7,892.7,381.7,892.7,395.3"/>
					<rect id="XMLID_63_" x="843.5" y="370.7" class="st3" width="49.2" height="49.2"/>
				</g>
			</g>
		</g>
		<circle id="XMLID_59_" class="st4" cx="868.1" cy="395.3" r="21"/>
	</g>
	<g id="Mersey_Beat_Circle_11_">
		<g id="XMLID_66_">
			<g id="XMLID_67_" class="st1">
				<g id="XMLID_68_">
					<path id="XMLID_70_" class="st2" d="M954.6,385.6c0,13.6-11,24.6-24.6,24.6s-24.6-11-24.6-24.6s11-24.6,24.6-24.6
						S954.6,372,954.6,385.6"/>
					<rect id="XMLID_69_" x="905.4" y="361" class="st3" width="49.2" height="49.2"/>
				</g>
			</g>
		</g>
		<circle id="XMLID_65_" class="st4" cx="930" cy="385.6" r="21"/>
	</g>
	<g id="Mersey_Beat_Circle_12_">
		<g id="XMLID_72_">
			<g id="XMLID_73_" class="st1">
				<g id="XMLID_74_">
					<path id="XMLID_76_" class="st2" d="M793.9,484.5c0,13.6-11,24.6-24.6,24.6c-13.6,0-24.6-11-24.6-24.6
						c0-13.6,11-24.6,24.6-24.6C782.9,460,793.9,471,793.9,484.5"/>
					<rect id="XMLID_75_" x="744.8" y="460" class="st3" width="49.2" height="49.2"/>
				</g>
			</g>
		</g>
		<circle id="XMLID_71_" class="st4" cx="769.4" cy="484.5" r="21"/>
	</g>
	<g id="Mersey_Beat_Circle_13_">
		<g id="XMLID_78_">
			<g id="XMLID_79_" class="st1">
				<g id="XMLID_80_">
					<path id="XMLID_82_" class="st2" d="M809.2,358.6c0,13.6-11,24.6-24.6,24.6c-13.6,0-24.6-11-24.6-24.6s11-24.6,24.6-24.6
						C798.2,334,809.2,345,809.2,358.6"/>
					<rect id="XMLID_81_" x="760" y="334" class="st3" width="49.2" height="49.2"/>
				</g>
			</g>
		</g>
		<circle id="XMLID_77_" class="st4" cx="784.6" cy="358.6" r="21"/>
	</g>
	<g id="Mersey_Beat_Circle_14_">
		<g id="XMLID_84_">
			<g id="XMLID_85_" class="st1">
				<g id="XMLID_86_">
					<path id="XMLID_88_" class="st2" d="M825.9,235.6c0,13.6-11,24.6-24.6,24.6c-13.6,0-24.6-11-24.6-24.6
						c0-13.6,11-24.6,24.6-24.6C814.9,211,825.9,222,825.9,235.6"/>
					<rect id="XMLID_87_" x="776.7" y="211" class="st3" width="49.2" height="49.2"/>
				</g>
			</g>
		</g>
		<circle id="XMLID_83_" class="st4" cx="801.3" cy="235.6" r="21"/>
	</g>
	<g id="Mersey_Beat_Circle_15_">
		<g id="XMLID_90_">
			<g id="XMLID_91_" class="st1">
				<g id="XMLID_92_">
					<path id="XMLID_94_" class="st2" d="M767.2,217.3c0,13.6-11,24.6-24.6,24.6c-13.6,0-24.6-11-24.6-24.6s11-24.6,24.6-24.6
						C756.2,192.7,767.2,203.7,767.2,217.3"/>
					<rect id="XMLID_93_" x="718" y="192.7" class="st3" width="49.2" height="49.2"/>
				</g>
			</g>
		</g>
		<circle id="XMLID_89_" class="st4" cx="742.6" cy="217.3" r="21"/>
	</g>
	<g id="Mersey_Beat_Circle_16_">
		<g id="XMLID_96_">
			<g id="XMLID_97_" class="st1">
				<g id="XMLID_98_">
					<path id="XMLID_100_" class="st2" d="M767.2,139.7c0,13.6-11,24.6-24.6,24.6c-13.6,0-24.6-11-24.6-24.6s11-24.6,24.6-24.6
						C756.2,115.1,767.2,126.1,767.2,139.7"/>
					<rect id="XMLID_99_" x="718" y="115.1" class="st3" width="49.2" height="49.2"/>
				</g>
			</g>
		</g>
		<circle id="XMLID_95_" class="st4" cx="742.6" cy="139.7" r="21"/>
	</g>
	<g id="Mersey_Beat_Circle_17_">
		<g id="XMLID_102_">
			<g id="XMLID_103_" class="st1">
				<g id="XMLID_104_">
					<path id="XMLID_106_" class="st2" d="M736.2,72.7c0,13.6-11,24.6-24.6,24.6c-13.6,0-24.6-11-24.6-24.6s11-24.6,24.6-24.6
						C725.2,48.1,736.2,59.1,736.2,72.7"/>
					<rect id="XMLID_105_" x="687" y="48.1" class="st3" width="49.2" height="49.2"/>
				</g>
			</g>
		</g>
		<circle id="XMLID_101_" class="st4" cx="711.6" cy="72.7" r="21"/>
	</g>
	<g id="Mersey_Beat_Circle_18_">
		<g id="XMLID_108_">
			<g id="XMLID_109_" class="st1">
				<g id="XMLID_110_">
					<path id="XMLID_112_" class="st2" d="M667.2,50.1c0,13.6-11,24.6-24.6,24.6c-13.6,0-24.6-11-24.6-24.6s11-24.6,24.6-24.6
						C656.2,25.5,667.2,36.5,667.2,50.1"/>
					<rect id="XMLID_111_" x="618" y="25.5" class="st3" width="49.2" height="49.2"/>
				</g>
			</g>
		</g>
		<circle id="XMLID_107_" class="st4" cx="642.6" cy="50.1" r="21"/>
	</g>
	<g id="Mersey_Beat_Circle_19_">
		<g id="XMLID_114_">
			<g id="XMLID_115_" class="st1">
				<g id="XMLID_116_">
					<path id="XMLID_118_" class="st2" d="M686,114.1c0,13.6-11,24.6-24.6,24.6c-13.6,0-24.6-11-24.6-24.6s11-24.6,24.6-24.6
						C675,89.5,686,100.6,686,114.1"/>
					<rect id="XMLID_117_" x="636.8" y="89.5" class="st3" width="49.2" height="49.2"/>
				</g>
			</g>
		</g>
		<circle id="XMLID_113_" class="st4" cx="661.4" cy="114.1" r="21"/>
	</g>
	<g id="Mersey_Beat_Circle_20_">
		<g id="XMLID_120_">
			<g id="XMLID_121_" class="st1">
				<g id="XMLID_122_">
					<path id="XMLID_124_" class="st2" d="M710,185.3c0,13.6-11,24.6-24.6,24.6c-13.6,0-24.6-11-24.6-24.6s11-24.6,24.6-24.6
						C699,160.7,710,171.7,710,185.3"/>
					<rect id="XMLID_123_" x="660.8" y="160.7" class="st3" width="49.2" height="49.2"/>
				</g>
			</g>
		</g>
		<circle id="XMLID_119_" class="st4" cx="685.4" cy="185.3" r="21"/>
	</g>
	<g id="Mersey_Beat_Circle_21_">
		<g id="XMLID_126_">
			<g id="XMLID_127_" class="st1">
				<g id="XMLID_128_">
					<path id="XMLID_130_" class="st2" d="M653.2,200.6c0,13.6-11,24.6-24.6,24.6c-13.6,0-24.6-11-24.6-24.6s11-24.6,24.6-24.6
						C642.2,176,653.2,187.1,653.2,200.6"/>
					<rect id="XMLID_129_" x="604" y="176" class="st3" width="49.2" height="49.2"/>
				</g>
			</g>
		</g>
		<circle id="XMLID_125_" class="st4" cx="628.6" cy="200.6" r="21"/>
	</g>
	<g id="Mersey_Beat_Circle_22_">
		<g id="XMLID_132_">
			<g id="XMLID_133_" class="st1">
				<g id="XMLID_134_">
					<path id="XMLID_136_" class="st2" d="M623,130.3c0,13.6-11,24.6-24.6,24.6c-13.6,0-24.6-11-24.6-24.6s11-24.6,24.6-24.6
						C612,105.7,623,116.7,623,130.3"/>
					<rect id="XMLID_135_" x="573.8" y="105.7" class="st3" width="49.2" height="49.2"/>
				</g>
			</g>
		</g>
		<circle id="XMLID_131_" class="st4" cx="598.4" cy="130.3" r="21"/>
	</g>
	<g id="Mersey_Beat_Circle_23_">
		<g id="XMLID_138_">
			<g id="XMLID_139_" class="st1">
				<g id="XMLID_140_">
					<path id="XMLID_142_" class="st2" d="M560.7,163.3c0,13.6-11,24.6-24.6,24.6c-13.6,0-24.6-11-24.6-24.6s11-24.6,24.6-24.6
						C549.7,138.7,560.7,149.7,560.7,163.3"/>
					<rect id="XMLID_141_" x="511.5" y="138.7" class="st3" width="49.2" height="49.2"/>
				</g>
			</g>
		</g>
		<circle id="XMLID_137_" class="st4" cx="536.1" cy="163.3" r="21"/>
	</g>
	<g id="Mersey_Beat_Circle_24_">
		<g id="XMLID_144_">
			<g id="XMLID_145_" class="st1">
				<g id="XMLID_146_">
					<path id="XMLID_148_" class="st2" d="M595.4,230.9c0,13.6-11,24.6-24.6,24.6c-13.6,0-24.6-11-24.6-24.6s11-24.6,24.6-24.6
						C584.3,206.3,595.4,217.3,595.4,230.9"/>
					<rect id="XMLID_147_" x="546.2" y="206.3" class="st3" width="49.2" height="49.2"/>
				</g>
			</g>
		</g>
		<circle id="XMLID_143_" class="st4" cx="570.8" cy="230.9" r="21"/>
	</g>
	<g id="Mersey_Beat_Circle_25_">
		<g id="XMLID_150_">
			<g id="XMLID_151_" class="st1">
				<g id="XMLID_152_">
					<path id="XMLID_154_" class="st2" d="M508,225.2c0,13.6-11,24.6-24.6,24.6s-24.6-11-24.6-24.6s11-24.6,24.6-24.6
						S508,211.6,508,225.2"/>
					<rect id="XMLID_153_" x="458.8" y="200.6" class="st3" width="49.2" height="49.2"/>
				</g>
			</g>
		</g>
		<circle id="XMLID_149_" class="st4" cx="483.4" cy="225.2" r="21"/>
	</g>
	<g id="Mersey_Beat_Circle_26_">
		<g id="XMLID_156_">
			<g id="XMLID_157_" class="st1">
				<g id="XMLID_158_">
					<path id="XMLID_160_" class="st2" d="M704.5,314.6c0,13.6-11,24.6-24.6,24.6c-13.6,0-24.6-11-24.6-24.6s11-24.6,24.6-24.6
						C693.5,290,704.5,301.1,704.5,314.6"/>
					<rect id="XMLID_159_" x="655.3" y="290" class="st3" width="49.2" height="49.2"/>
				</g>
			</g>
		</g>
		<circle id="XMLID_155_" class="st4" cx="679.9" cy="314.6" r="21"/>
	</g>
	<g id="Mersey_Beat_Circle_27_">
		<g id="XMLID_162_">
			<g id="XMLID_163_" class="st1">
				<g id="XMLID_164_">
					<path id="XMLID_166_" class="st2" d="M665,488.1c0,13.6-11,24.6-24.6,24.6c-13.6,0-24.6-11-24.6-24.6s11-24.6,24.6-24.6
						C654,463.6,665,474.6,665,488.1"/>
					<rect id="XMLID_165_" x="615.8" y="463.6" class="st3" width="49.2" height="49.2"/>
				</g>
			</g>
		</g>
		<circle id="XMLID_161_" class="st4" cx="640.4" cy="488.1" r="21"/>
	</g>
	<g id="Mersey_Beat_Circle_28_">
		<g id="XMLID_168_">
			<g id="XMLID_169_" class="st1">
				<g id="XMLID_170_">
					<path id="XMLID_172_" class="st2" d="M683.5,419.9c0,13.6-11,24.6-24.6,24.6c-13.6,0-24.6-11-24.6-24.6s11-24.6,24.6-24.6
						C672.5,395.3,683.5,406.3,683.5,419.9"/>
					<rect id="XMLID_171_" x="634.3" y="395.3" class="st3" width="49.2" height="49.2"/>
				</g>
			</g>
		</g>
		<circle id="XMLID_167_" class="st4" cx="658.9" cy="419.9" r="21"/>
	</g>
	<g id="Mersey_Beat_Circle_29_">
		<g id="XMLID_174_">
			<g id="XMLID_175_" class="st1">
				<g id="XMLID_176_">
					<path id="XMLID_178_" class="st2" d="M627.6,368.7c0,13.6-11,24.6-24.6,24.6c-13.6,0-24.6-11-24.6-24.6s11-24.6,24.6-24.6
						C616.6,344.1,627.6,355.1,627.6,368.7"/>
					<rect id="XMLID_177_" x="578.4" y="344.1" class="st3" width="49.2" height="49.2"/>
				</g>
			</g>
		</g>
		<circle id="XMLID_173_" class="st4" cx="603" cy="368.7" r="21"/>
	</g>
	<g id="Mersey_Beat_Circle_30_">
		<g id="XMLID_180_">
			<g id="XMLID_181_" class="st1">
				<g id="XMLID_182_">
					<path id="XMLID_184_" class="st2" d="M606.6,436.4c0,13.6-11,24.6-24.6,24.6c-13.6,0-24.6-11-24.6-24.6s11-24.6,24.6-24.6
						C595.6,411.8,606.6,422.8,606.6,436.4"/>
					<rect id="XMLID_183_" x="557.4" y="411.8" class="st3" width="49.2" height="49.2"/>
				</g>
			</g>
		</g>
		<circle id="XMLID_179_" class="st4" cx="582" cy="436.4" r="21"/>
	</g>
	<g id="Mersey_Beat_Circle_31_">
		<g id="XMLID_186_">
			<g id="XMLID_187_" class="st1">
				<g id="XMLID_188_">
					<path id="XMLID_190_" class="st2" d="M514.1,489.1c0,13.6-11,24.6-24.6,24.6s-24.6-11-24.6-24.6s11-24.6,24.6-24.6
						S514.1,475.6,514.1,489.1"/>
					<rect id="XMLID_189_" x="464.9" y="464.6" class="st3" width="49.2" height="49.2"/>
				</g>
			</g>
		</g>
		<circle id="XMLID_185_" class="st4" cx="489.5" cy="489.1" r="21"/>
	</g>
	<g id="Mersey_Beat_Circle_32_">
		<g id="XMLID_192_">
			<g id="XMLID_193_" class="st1">
				<g id="XMLID_194_">
					<path id="XMLID_196_" class="st2" d="M555.6,334c0,13.6-11,24.6-24.6,24.6c-13.6,0-24.6-11-24.6-24.6s11-24.6,24.6-24.6
						C544.6,309.4,555.6,320.5,555.6,334"/>
					<rect id="XMLID_195_" x="506.4" y="309.4" class="st3" width="49.2" height="49.2"/>
				</g>
			</g>
		</g>
		<circle id="XMLID_191_" class="st4" cx="531" cy="334" r="21"/>
	</g>
	<g id="Mersey_Beat_Circle_33_">
		<g id="XMLID_198_">
			<g id="XMLID_199_" class="st1">
				<g id="XMLID_200_">
					<path id="XMLID_202_" class="st2" d="M500.6,350.7c0,13.6-11,24.6-24.6,24.6s-24.6-11-24.6-24.6c0-13.6,11-24.6,24.6-24.6
						S500.6,337.1,500.6,350.7"/>
					<rect id="XMLID_201_" x="451.4" y="326.1" class="st3" width="49.2" height="49.2"/>
				</g>
			</g>
		</g>
		<circle id="XMLID_197_" class="st4" cx="476" cy="350.7" r="21"/>
	</g>
	<g id="Mersey_Beat_Circle_34_">
		<g id="XMLID_204_">
			<g id="XMLID_205_" class="st1">
				<g id="XMLID_206_">
					<path id="XMLID_208_" class="st2" d="M436.1,362.6c0,13.6-11,24.6-24.6,24.6s-24.6-11-24.6-24.6s11-24.6,24.6-24.6
						S436.1,349,436.1,362.6"/>
					<rect id="XMLID_207_" x="386.9" y="338" class="st3" width="49.2" height="49.2"/>
				</g>
			</g>
		</g>
		<circle id="XMLID_203_" class="st4" cx="411.5" cy="362.6" r="21"/>
	</g>
	<g id="Mersey_Beat_Circle_35_">
		<g id="XMLID_210_">
			<g id="XMLID_211_" class="st1">
				<g id="XMLID_212_">
					<path id="XMLID_214_" class="st2" d="M411.5,488.1c0,13.6-11,24.6-24.6,24.6s-24.6-11-24.6-24.6s11-24.6,24.6-24.6
						S411.5,474.6,411.5,488.1"/>
					<rect id="XMLID_213_" x="362.3" y="463.6" class="st3" width="49.2" height="49.2"/>
				</g>
			</g>
		</g>
		<circle id="XMLID_209_" class="st4" cx="386.9" cy="488.1" r="21"/>
	</g>
	<g id="Mersey_Beat_Circle_36_">
		<g id="XMLID_216_">
			<g id="XMLID_217_" class="st1">
				<g id="XMLID_218_">
					<path id="XMLID_220_" class="st2" d="M356.5,434.4c0,13.6-11,24.6-24.6,24.6s-24.6-11-24.6-24.6s11-24.6,24.6-24.6
						S356.5,420.8,356.5,434.4"/>
					<rect id="XMLID_219_" x="307.3" y="409.8" class="st3" width="49.2" height="49.2"/>
				</g>
			</g>
		</g>
		<circle id="XMLID_215_" class="st4" cx="331.9" cy="434.4" r="21"/>
	</g>
	<g id="Mersey_Beat_Circle_37_">
		<g id="XMLID_222_">
			<g id="XMLID_223_" class="st1">
				<g id="XMLID_224_">
					<path id="XMLID_226_" class="st2" d="M393.2,273.4c0,13.6-11,24.6-24.6,24.6S344,287,344,273.4s11-24.6,24.6-24.6
						S393.2,259.8,393.2,273.4"/>
					<rect id="XMLID_225_" x="344" y="248.8" class="st3" width="49.2" height="49.2"/>
				</g>
			</g>
		</g>
		<circle id="XMLID_221_" class="st4" cx="368.6" cy="273.4" r="21"/>
	</g>
	<g id="Mersey_Beat_Circle_39_">
		<g id="XMLID_234_">
			<g id="XMLID_235_" class="st1">
				<g id="XMLID_236_">
					<path id="XMLID_238_" class="st2" d="M479.6,118.7c0,13.6-11,24.6-24.6,24.6s-24.6-11-24.6-24.6s11-24.6,24.6-24.6
						S479.6,105.2,479.6,118.7"/>
					<rect id="XMLID_237_" x="430.4" y="94.1" class="st3" width="49.2" height="49.2"/>
				</g>
			</g>
		</g>
		<circle id="XMLID_233_" class="st4" cx="455" cy="118.7" r="21"/>
	</g>
	<g id="Mersey_Beat_Circle_40_">
		<g id="XMLID_240_">
			<g id="XMLID_241_" class="st1">
				<g id="XMLID_242_">
					<path id="XMLID_244_" class="st2" d="M399.6,171.7c0,13.6-11,24.6-24.6,24.6s-24.6-11-24.6-24.6s11-24.6,24.6-24.6
						S399.6,158.1,399.6,171.7"/>
					<rect id="XMLID_243_" x="350.4" y="147.1" class="st3" width="49.2" height="49.2"/>
				</g>
			</g>
		</g>
		<circle id="XMLID_239_" class="st4" cx="375" cy="171.7" r="21"/>
	</g>
	<g id="Mersey_Beat_Circle_41_">
		<g id="XMLID_246_">
			<g id="XMLID_247_" class="st1">
				<g id="XMLID_248_">
					<path id="XMLID_250_" class="st2" d="M355.5,102.2c0,13.6-11,24.6-24.6,24.6s-24.6-11-24.6-24.6s11-24.6,24.6-24.6
						S355.5,88.6,355.5,102.2"/>
					<rect id="XMLID_249_" x="306.3" y="77.6" class="st3" width="49.2" height="49.2"/>
				</g>
			</g>
		</g>
		<circle id="XMLID_245_" class="st4" cx="330.9" cy="102.2" r="21"/>
	</g>
	<g id="Mersey_Beat_Circle_38_">
		<g id="XMLID_228_">
			<g id="XMLID_229_" class="st1">
				<g id="XMLID_230_">
					<path id="XMLID_232_" class="st2" d="M290.8,339.7c0,13.6-11,24.6-24.6,24.6s-24.6-11-24.6-24.6s11-24.6,24.6-24.6
						S290.8,326.2,290.8,339.7"/>
					<rect id="XMLID_231_" x="241.7" y="315.2" class="st3" width="49.2" height="49.2"/>
				</g>
			</g>
		</g>
		<circle id="XMLID_227_" class="st4" cx="266.2" cy="339.7" r="21"/>
	</g>
	<g id="Mersey_Beat_Circle_42_">
		<g id="XMLID_252_">
			<g id="XMLID_253_" class="st1">
				<g id="XMLID_254_">
					<path id="XMLID_256_" class="st2" d="M242.3,448.2c0,13.6-11,24.6-24.6,24.6s-24.6-11-24.6-24.6s11-24.6,24.6-24.6
						S242.3,434.7,242.3,448.2"/>
					<rect id="XMLID_255_" x="193.1" y="423.7" class="st3" width="49.2" height="49.2"/>
				</g>
			</g>
		</g>
		<circle id="XMLID_251_" class="st4" cx="217.7" cy="448.2" r="21"/>
	</g>
	<g id="Mersey_Beat_Circle_43_">
		<g id="XMLID_258_">
			<g id="XMLID_259_" class="st1">
				<g id="XMLID_260_">
					<path id="XMLID_262_" class="st2" d="M113.3,440.9c0,13.6-11,24.6-24.6,24.6s-24.6-11-24.6-24.6s11-24.6,24.6-24.6
						S113.3,427.3,113.3,440.9"/>
					<rect id="XMLID_261_" x="64.1" y="416.3" class="st3" width="49.2" height="49.2"/>
				</g>
			</g>
		</g>
		<circle id="XMLID_257_" class="st4" cx="88.7" cy="440.9" r="21"/>
	</g>
	<g id="Mersey_Beat_Circle_44_">
		<g id="XMLID_264_">
			<g id="XMLID_265_" class="st1">
				<g id="XMLID_266_">
					<path id="XMLID_268_" class="st2" d="M128.3,371.3c0,13.6-11,24.6-24.6,24.6s-24.6-11-24.6-24.6s11-24.6,24.6-24.6
						S128.3,357.7,128.3,371.3"/>
					<rect id="XMLID_267_" x="79.1" y="346.7" class="st3" width="49.2" height="49.2"/>
				</g>
			</g>
		</g>
		<circle id="XMLID_263_" class="st4" cx="103.7" cy="371.3" r="21"/>
	</g>
	<g id="Mersey_Beat_Circle_45_">
		<g id="XMLID_270_">
			<g id="XMLID_271_" class="st1">
				<g id="XMLID_272_">
					<path id="XMLID_274_" class="st2" d="M59.3,350.7c0,13.6-11,24.6-24.6,24.6s-24.6-11-24.6-24.6s11-24.6,24.6-24.6
						S59.3,337.1,59.3,350.7"/>
					<rect id="XMLID_273_" x="10.1" y="326.1" class="st3" width="49.2" height="49.2"/>
				</g>
			</g>
		</g>
		<circle id="XMLID_269_" class="st4" cx="34.7" cy="350.7" r="21"/>
	</g>
	<g id="Mersey_Beat_Circle_46_">
		<g id="XMLID_276_">
			<g id="XMLID_277_" class="st1">
				<g id="XMLID_278_">
					<path id="XMLID_280_" class="st2" d="M67.7,276.5c0,13.6-11,24.6-24.6,24.6s-24.6-11-24.6-24.6s11-24.6,24.6-24.6
						S67.7,262.9,67.7,276.5"/>
					<rect id="XMLID_279_" x="18.5" y="251.9" class="st3" width="49.2" height="49.2"/>
				</g>
			</g>
		</g>
		<circle id="XMLID_275_" class="st4" cx="43.1" cy="276.5" r="21"/>
	</g>
	<g id="Mersey_Beat_Circle_47_">
		<g id="XMLID_282_">
			<g id="XMLID_283_" class="st1">
				<g id="XMLID_284_">
					<path id="XMLID_286_" class="st2" d="M183.2,303.5c0,13.6-11,24.6-24.6,24.6s-24.6-11-24.6-24.6s11-24.6,24.6-24.6
						S183.2,289.9,183.2,303.5"/>
					<rect id="XMLID_285_" x="134" y="278.9" class="st3" width="49.2" height="49.2"/>
				</g>
			</g>
		</g>
		<circle id="XMLID_281_" class="st4" cx="158.6" cy="303.5" r="21"/>
	</g>
	<g id="Mersey_Beat_Circle_48_">
		<g id="XMLID_288_">
			<g id="XMLID_289_" class="st1">
				<g id="XMLID_290_">
					<path id="XMLID_292_" class="st2" d="M269.9,200.6c0,13.6-11,24.6-24.6,24.6c-13.6,0-24.6-11-24.6-24.6s11-24.6,24.6-24.6
						C258.8,176,269.9,187.1,269.9,200.6"/>
					<rect id="XMLID_291_" x="220.7" y="176" class="st3" width="49.2" height="49.2"/>
				</g>
			</g>
		</g>
		<circle id="XMLID_287_" class="st4" cx="245.3" cy="200.6" r="21"/>
	</g>
	<g id="Mersey_Beat_Circle_49_">
		<g id="XMLID_294_">
			<g id="XMLID_295_" class="st1">
				<g id="XMLID_296_">
					<path id="XMLID_298_" class="st2" d="M277.9,122.2c0,13.6-11,24.6-24.6,24.6c-13.6,0-24.6-11-24.6-24.6s11-24.6,24.6-24.6
						C266.8,97.6,277.9,108.6,277.9,122.2"/>
					<rect id="XMLID_297_" x="228.7" y="97.6" class="st3" width="49.2" height="49.2"/>
				</g>
			</g>
		</g>
		<circle id="XMLID_293_" class="st4" cx="253.3" cy="122.2" r="21"/>
	</g>
	<g id="Mersey_Beat_Circle_50_">
		<g id="XMLID_300_">
			<g id="XMLID_301_" class="st1">
				<g id="XMLID_302_">
					<path id="XMLID_304_" class="st2" d="M215.4,96.3c0,13.6-11,24.6-24.6,24.6s-24.6-11-24.6-24.6s11-24.6,24.6-24.6
						S215.4,82.7,215.4,96.3"/>
					<rect id="XMLID_303_" x="166.2" y="71.7" class="st3" width="49.2" height="49.2"/>
				</g>
			</g>
		</g>
		<circle id="XMLID_299_" class="st4" cx="190.8" cy="96.3" r="21"/>
	</g>
	<g id="Mersey_Beat_Circle_51_">
		<g id="XMLID_306_">
			<g id="XMLID_307_" class="st1">
				<g id="XMLID_308_">
					<path id="XMLID_310_" class="st2" d="M212.7,163.3c0,13.6-11,24.6-24.6,24.6s-24.6-11-24.6-24.6c0-13.6,11-24.6,24.6-24.6
						S212.7,149.7,212.7,163.3"/>
					<rect id="XMLID_309_" x="163.6" y="138.7" class="st3" width="49.2" height="49.2"/>
				</g>
			</g>
		</g>
		<circle id="XMLID_305_" class="st4" cx="188.2" cy="163.3" r="21"/>
	</g>
	<g id="Mersey_Beat_Circle_52_">
		<g id="XMLID_312_">
			<g id="XMLID_313_" class="st1">
				<g id="XMLID_314_">
					<path id="XMLID_316_" class="st2" d="M126.2,112.1c0,13.6-11,24.6-24.6,24.6s-24.6-11-24.6-24.6s11-24.6,24.6-24.6
						S126.2,98.6,126.2,112.1"/>
					<rect id="XMLID_315_" x="77.1" y="87.5" class="st3" width="49.2" height="49.2"/>
				</g>
			</g>
		</g>
		<circle id="XMLID_311_" class="st4" cx="101.7" cy="112.1" r="21"/>
	</g>
	<g id="Mersey_Beat_Circle_53_">
		<g id="XMLID_318_">
			<g id="XMLID_319_" class="st1">
				<g id="XMLID_320_">
					<path id="XMLID_322_" class="st2" d="M59.3,136.7c0,13.6-11,24.6-24.6,24.6s-24.6-11-24.6-24.6s11-24.6,24.6-24.6
						S59.3,123.1,59.3,136.7"/>
					<rect id="XMLID_321_" x="10.1" y="112.1" class="st3" width="49.2" height="49.2"/>
				</g>
			</g>
		</g>
		<circle id="XMLID_317_" class="st4" cx="34.7" cy="136.7" r="21"/>
	</g>
</g>
<g id="nom_x5F_genre">
	<text id="XMLID_342_" transform="matrix(1 0 0 1 16.4167 170.9167)" class="st5 st6 st7">GRUNGE</text>
	<text id="XMLID_352_" transform="matrix(1 0 0 1 15.5147 311.7969)" class="st5 st6 st7">ROOTS ROCK</text>
	<text id="XMLID_353_" transform="matrix(1 0 0 1 7.3793 388.7032)" class="st5 st6 st7">DANCE ROCK</text>
	<text id="XMLID_354_" transform="matrix(1 0 0 1 150.3793 337.7033)" class="st5 st6 st7">JAZZ</text>
	<text id="XMLID_355_" transform="matrix(1 0 0 1 61.4209 405.6616)" class="st5 st6 st7">CALIFORNIA SOUND</text>
	<text id="XMLID_356_" transform="matrix(1 0 0 1 43.2779 476.6616)" class="st5 st6 st7">POP PSYCHDLIQUE</text>
	<text id="XMLID_357_" transform="matrix(1 0 0 1 169.7779 485.9116)" class="st5 st6 st7">ROCK PSYCHDLIQUE</text>
	<text id="XMLID_361_" transform="matrix(1 0 0 1 436.847 260.2162)" class="st5 st6 st7">SOUL PSYCHDLIQUE</text>
	<text id="XMLID_358_" transform="matrix(1 0 0 1 289.0279 468.2312)" class="st5 st6 st7">RHYTHM AND BLUES</text>
	<text id="XMLID_362_" transform="matrix(1 0 0 1 386.082 396.5732)" class="st5 st6 st7">ROCKABILLY</text>
	<text id="XMLID_365_" transform="matrix(1 0 0 1 442.9154 384.7399)" class="st5 st6 st7">COUNTRY ROCK</text>
	<text id="XMLID_366_" transform="matrix(1 0 0 1 510.5026 367.2399)" class="st5 st6 st7">COUNTRY</text>
	<text id="XMLID_367_" transform="matrix(1 0 0 1 573.8359 405.6613)" class="st5 st6 st7">COUNTRY RAP</text>
	<text id="XMLID_363_" transform="matrix(1 0 0 1 375.018 523.6982)" class="st5 st6 st7">FUNK</text>
	<text id="XMLID_364_" transform="matrix(1 0 0 1 476.0062 524.6982)" class="st5 st6 st7">BLUES</text>
	<text id="XMLID_368_" transform="matrix(1 0 0 1 549.4437 472.3444)" class="st5 st6 st7">TALKING BLUES</text>
	<text id="XMLID_369_" transform="matrix(1 0 0 1 610.1104 524.6979)" class="st5 st6 st7">ROCK SUDISTE</text>
	<text id="XMLID_372_" transform="matrix(1 0 0 1 746.9437 521.0614)" class="st5 st6 st7">NEW WAVE</text>
	<text id="XMLID_370_" transform="matrix(1 0 0 1 622.6104 455.6979)" class="st5 st6 st7">ROCK ALTERNATIF</text>
	<text id="XMLID_383_" transform="matrix(1 0 0 1 643.027 350.2248)" class="st5 st6 st7">HEARTLAND ROCK</text>
	<text id="XMLID_371_" transform="matrix(1 0 0 1 739.3692 393.804)" class="st5 st6 st7">ROCK INSTRUMENTAL</text>
	<text id="XMLID_359_" transform="matrix(1 0 0 1 237.9913 373.8983)" class="st5 st6 st7">HONKY-TONK</text>
	<text id="XMLID_360_" transform="matrix(1 0 0 1 346.8246 307.5654)" class="st5 st6 st7">DOO-WOP</text>
	<text id="XMLID_344_" transform="matrix(1 0 0 1 71.6252 145.875)" class="st5 st6 st7">GARAGE ROCK</text>
	<text id="XMLID_345_" transform="matrix(1 0 0 1 175.5002 132.5)" class="st5 st6 st7">HOUSE</text>
	<text id="XMLID_346_" transform="matrix(1 0 0 1 218.5002 158.125)" class="st5 st6 st7">CHICAGO BLUES</text>
	<text id="XMLID_347_" transform="matrix(1 0 0 1 160.0008 199.4793)" class="st5 st6 st7">TECH HOUSE</text>
	<text id="XMLID_348_" transform="matrix(1 0 0 1 213.4172 235.8125)" class="st5 st6 st7">CHICAGO SOUL</text>
	<text id="XMLID_349_" transform="matrix(1 0 0 1 363.5002 208.3125)" class="st5 st6 st7">SOUL</text>
	<text id="XMLID_350_" transform="matrix(1 0 0 1 313.8338 137.6458)" class="st5 st6 st7">GOSPEL</text>
	<text id="XMLID_351_" transform="matrix(1 0 0 1 427.3623 153.3958)" class="st5 st6 st7">ROCKNROLL</text>
	<text id="XMLID_373_" transform="matrix(1 0 0 1 510.5026 198.1458)" class="st5 st6 st7">POST-DISCO</text>
	<text id="XMLID_374_" transform="matrix(1 0 0 1 573.3361 165.6456)" class="st5 st6 st7">BREAK BEAT</text>
	<text id="XMLID_377_" transform="matrix(1 0 0 1 631.3361 83.994)" class="st5 st6 st7">FOLK</text>
	<text id="XMLID_379_" transform="matrix(1 0 0 1 698.5861 107.244)" class="st5 st6 st7">DISCO</text>
	<text id="XMLID_380_" transform="matrix(1 0 0 1 665.0861 220.494)" class="st5 st6 st7">RAP ROCK</text>
	<text id="XMLID_382_" transform="matrix(1 0 0 1 725.0863 251.7439)" class="st5 st6 st7">ELECTRO</text>
	<text id="XMLID_384_" transform="matrix(1 0 0 1 765.3363 268.619)" class="st5 st6 st7">BLUE-EYED SOUL</text>
	<text id="XMLID_385_" transform="matrix(1 0 0 1 833.6959 196.3042)" class="st5 st6 st7">POP ROCK</text>
	<text id="XMLID_388_" transform="matrix(1 0 0 1 886.4688 276.7671)" class="st5 st6 st7">HARD ROCK</text>
	<text id="XMLID_389_" transform="matrix(1 0 0 1 941.0524 303.5)" class="st5 st6 st7">HEAVY METAL</text>
	<text id="XMLID_390_" transform="matrix(1 0 0 1 843.479 430.4111)" class="st5 st6 st7">GLAM ROCK</text>
	<text id="XMLID_391_" transform="matrix(1 0 0 1 903.3323 420.5153)" class="st5 st6 st7">BLUES ROCK</text>
	<text id="XMLID_392_" transform="matrix(1 0 0 1 966.9571 401.5778)" class="st5 st6 st7">PUNK ROCK</text>
	<text id="XMLID_393_" transform="matrix(1 0 0 1 846.3944 499.5775)" class="st5 st6 st7">POWER POP</text>
	<text id="XMLID_394_" transform="matrix(1 0 0 1 917.3527 490.1609)" class="st5 st6 st7">POP</text>
	<text id="XMLID_395_" transform="matrix(1 0 0 1 990.5479 467.606)" class="st5 st6 st7">SYNTHROCK</text>
	<text id="XMLID_396_" transform="matrix(1 0 0 1 944.7145 535.606)" class="st5 st6 st7">SYNTHPOP</text>
	<text id="XMLID_386_" transform="matrix(1 0 0 1 830.5931 124.3042)" class="st5 st6 st7">FOLK ROCK</text>
	<text id="XMLID_387_" transform="matrix(1 0 0 1 881.7181 140.6001)" class="st5 st6 st7">MERSEY BEAT</text>
	<text id="XMLID_381_" transform="matrix(1 0 0 1 725.0862 174.494)" class="st5 st6 st7">HIP-HOP</text>
	<text id="XMLID_378_" transform="matrix(1 0 0 1 631.1481 148.3725)" class="st5 st6 st7">POP BAROQUE</text>
	<text id="XMLID_375_" transform="matrix(1 0 0 1 547.3362 264.6456)" class="st5 st6 st7">SOFT ROCK</text>
	<text id="XMLID_376_" transform="matrix(1 0 0 1 618.5029 235.1457)" class="st5 st6 st7">RNB</text>
</g>
<g id="nom_x5F_etat">
	<text id="XMLID_4_" transform="matrix(1 0 0 1 27.9998 75.3275)" class="st8 st9 st10">WASHINGTON</text>
	<text id="XMLID_324_" transform="matrix(1 0 0 1 196.8333 60.8273)" class="st8 st9 st10">ILLINOIS</text>
	<text id="XMLID_325_" transform="matrix(1 0 0 1 323 67.9939)" class="st8 st9 st10">MICHIGAN</text>
	<text id="XMLID_326_" transform="matrix(1 0 0 1 449.3333 83.9939)" class="st8 st9 st10">OHIO</text>
	<text id="XMLID_327_" transform="matrix(1 0 0 1 528.7499 94.5625)" class="st8 st9 st10">NEW-YORK</text>
	<text id="XMLID_328_" transform="matrix(1 0 0 1 854.1842 51.7368)" class="st8 st9 st10">LIVERPOOL</text>
	<text id="XMLID_329_" transform="matrix(1 0 0 1 911.0589 206.0425)" class="st8 st9 st10">BIRMINGHAM</text>
	<text id="XMLID_330_" transform="matrix(1 0 0 1 900.0196 348.7252)" class="st8 st9 st10">LONDRES</text>
	<text id="XMLID_482_" transform="matrix(1 0 0 1 727.0196 448.7014)" class="st8 st9 st10">SOUTHAMPTON</text>
	<text id="XMLID_331_" transform="matrix(1 0 0 1 733.6498 322.5585)" class="st8 st9 st10">CAROLINE DU NORD</text>
	<text id="XMLID_332_" transform="matrix(1 0 0 1 647.8165 275.8921)" class="st8 st9 st10">NEW JERSEY</text>
	<text id="XMLID_333_" transform="matrix(1 0 0 1 572.1498 334.0351)" class="st8 st9 st10">GEORGIE</text>
	<text id="XMLID_334_" transform="matrix(1 0 0 1 462.1498 448.7018)" class="st8 st9 st10">MISSISSIPI</text>
	<text id="XMLID_335_" transform="matrix(1 0 0 1 429.521 313.5464)" class="st8 st9 st10">TENNESSEE</text>
	<text id="XMLID_336_" transform="matrix(1 0 0 1 328.646 238.2339)" class="st8 st9 st10">MARYLAND</text>
	<text id="XMLID_337_" transform="matrix(1 0 0 1 303.3245 395.0543)" class="st8 st9 st10">LOUISIANE</text>
	<text id="XMLID_338_" transform="matrix(1 0 0 1 228.3245 304.4532)" class="st8 st9 st10">OKLAHOMA</text>
	<text id="XMLID_341_" transform="matrix(1 0 0 1 199.1578 400.9532)" class="st8 st9 st10">TEXAS</text>
	<text id="XMLID_339_" transform="matrix(1 0 0 1 129.2601 266.4532)" class="st8 st9 st10">MISSOURI</text>
	<text id="XMLID_340_" transform="matrix(1 0 0 1 19.3495 238.234)" class="st8 st9 st10">CALIFORNIE</text>
</g>
<g id="lien">
	<line id="XMLID_1_" class="st11" x1="386.9" y1="488.1" x2="742.6" y2="139.7"/>
	<line id="XMLID_2_" class="st11" x1="386.9" y1="488.1" x2="375" y2="171.7"/>
	<line id="XMLID_3_" class="st11" x1="386.9" y1="488.1" x2="158.6" y2="303.5"/>
	<line id="XMLID_343_" class="st11" x1="386.9" y1="488.1" x2="217.7" y2="448.2"/>
	<line id="XMLID_397_" class="st11" x1="455" y1="118.7" x2="331.9" y2="434.4"/>
	<line id="XMLID_398_" class="st11" x1="455" y1="118.7" x2="531" y2="334"/>
	<line id="XMLID_399_" class="st11" x1="455" y1="118.7" x2="489.5" y2="489.1"/>
	<line id="XMLID_400_" class="st11" x1="489.5" y1="489.1" x2="158.6" y2="303.5"/>
	<line id="XMLID_401_" class="st11" x1="489.5" y1="489.1" x2="628.6" y2="200.6"/>
	<line id="XMLID_402_" class="st11" x1="489.5" y1="489.1" x2="253.3" y2="122.2"/>
	<line id="XMLID_403_" class="st11" x1="531" y1="334" x2="926.4" y2="453.1"/>
	<line id="XMLID_404_" class="st11" x1="531" y1="334" x2="476" y2="350.7"/>
	<line id="XMLID_405_" class="st11" x1="531" y1="334" x2="411.5" y2="362.6"/>
	<line id="XMLID_406_" class="st11" x1="531" y1="334" x2="43.1" y2="276.5"/>
	<line id="XMLID_407_" class="st11" x1="531" y1="334" x2="640.4" y2="488.1"/>
	<line id="XMLID_408_" class="st11" x1="331.9" y1="434.4" x2="330.9" y2="102.2"/>
	<line id="XMLID_409_" class="st11" x1="331.9" y1="434.4" x2="489.5" y2="489.1"/>
	<line id="XMLID_410_" class="st11" x1="331.9" y1="434.4" x2="158.6" y2="303.5"/>
	<line id="XMLID_411_" class="st11" x1="331.9" y1="434.4" x2="375" y2="171.7"/>
	<line id="XMLID_412_" class="st11" x1="158.6" y1="303.5" x2="926.4" y2="453.1"/>
	<line id="XMLID_413_" class="st11" x1="158.6" y1="303.5" x2="455" y2="118.7"/>
	<line id="XMLID_414_" class="st11" x1="158.6" y1="303.5" x2="217.7" y2="448.2"/>
	<line id="XMLID_415_" class="st11" x1="628.6" y1="200.6" x2="331.9" y2="434.4"/>
	<line id="XMLID_416_" class="st11" x1="628.6" y1="200.6" x2="742.6" y2="139.7"/>
	<line id="XMLID_417_" class="st11" x1="628.6" y1="200.6" x2="375" y2="171.7"/>
	<line id="XMLID_418_" class="st11" x1="628.6" y1="200.6" x2="926.4" y2="453.1"/>
	<line id="XMLID_419_" class="st11" x1="253.3" y1="122.2" x2="455" y2="118.7"/>
	<line id="XMLID_420_" class="st11" x1="253.3" y1="122.2" x2="331.9" y2="434.4"/>
	<line id="XMLID_421_" class="st11" x1="926.4" y1="453.1" x2="331.9" y2="434.4"/>
	<line id="XMLID_422_" class="st11" x1="926.4" y1="453.1" x2="375" y2="171.7"/>
	<line id="XMLID_423_" class="st11" x1="926.4" y1="453.1" x2="855.9" y2="160.7"/>
	<line id="XMLID_424_" class="st11" x1="926.4" y1="453.1" x2="661.4" y2="114.1"/>
	<line id="XMLID_425_" class="st11" x1="926.4" y1="453.1" x2="88.7" y2="440.9"/>
	<line id="XMLID_426_" class="st11" x1="476" y1="350.7" x2="640.4" y2="488.1"/>
	<line id="XMLID_427_" class="st11" x1="476" y1="350.7" x2="854.2" y2="88.7"/>
	<line id="XMLID_428_" class="st11" x1="476" y1="350.7" x2="411.5" y2="362.6"/>
	<line id="XMLID_429_" class="st11" x1="411.5" y1="362.6" x2="990.9" y2="365.8"/>
	<line id="XMLID_430_" class="st11" x1="411.5" y1="362.6" x2="455" y2="118.7"/>
	<line id="XMLID_431_" class="st11" x1="411.5" y1="362.6" x2="331.9" y2="434.4"/>
	<line id="XMLID_432_" class="st11" x1="43.1" y1="276.5" x2="476" y2="350.7"/>
	<line id="XMLID_433_" class="st11" x1="43.1" y1="276.5" x2="640.4" y2="488.1"/>
	<line id="XMLID_434_" class="st11" x1="43.1" y1="276.5" x2="642.6" y2="50.1"/>
	<line id="XMLID_435_" class="st11" x1="43.1" y1="276.5" x2="854.2" y2="88.7"/>
	<line id="XMLID_436_" class="st11" x1="640.4" y1="488.1" x2="455" y2="118.7"/>
	<line id="XMLID_437_" class="st11" x1="640.4" y1="488.1" x2="330.9" y2="102.2"/>
	<line id="XMLID_438_" class="st11" x1="640.4" y1="488.1" x2="331.9" y2="434.4"/>
	<line id="XMLID_439_" class="st11" x1="330.9" y1="102.2" x2="375" y2="171.7"/>
	<line id="XMLID_440_" class="st11" x1="330.9" y1="102.2" x2="489.5" y2="489.1"/>
	<line id="XMLID_441_" class="st11" x1="375" y1="171.7" x2="711.6" y2="72.7"/>
	<line id="XMLID_442_" class="st11" x1="801.3" y1="235.6" x2="375" y2="171.7"/>
	<line id="XMLID_443_" class="st11" x1="801.3" y1="235.6" x2="489.5" y2="489.1"/>
	<line id="XMLID_444_" class="st11" x1="801.3" y1="235.6" x2="330.9" y2="102.2"/>
	<line id="XMLID_445_" class="st11" x1="801.3" y1="235.6" x2="386.9" y2="488.1"/>
	<line id="XMLID_446_" class="st11" x1="642.6" y1="50.1" x2="854.2" y2="88.7"/>
	<line id="XMLID_447_" class="st11" x1="854.2" y1="88.7" x2="217.7" y2="448.2"/>
	<line id="XMLID_448_" class="st11" x1="854.2" y1="88.7" x2="679.9" y2="314.6"/>
	<line id="XMLID_449_" class="st11" x1="386.9" y1="488.1" x2="643" y2="50.1"/>
	<line id="XMLID_450_" class="st11" x1="711.6" y1="72.7" x2="101.7" y2="112.1"/>
	<line id="XMLID_451_" class="st11" x1="711.6" y1="72.7" x2="386.9" y2="488.1"/>
	<line id="XMLID_452_" class="st11" x1="711.6" y1="72.7" x2="188.2" y2="163.3"/>
	<line id="XMLID_453_" class="st11" x1="910.7" y1="243.5" x2="217.7" y2="448.2"/>
	<line id="XMLID_454_" class="st11" x1="910.7" y1="243.5" x2="685.4" y2="185.3"/>
	<line id="XMLID_455_" class="st11" x1="910.7" y1="243.5" x2="101.7" y2="112.1"/>
	<line id="XMLID_456_" class="st11" x1="88.7" y1="440.9" x2="643" y2="50.1"/>
	<line id="XMLID_457_" class="st11" x1="88.7" y1="440.9" x2="217.7" y2="448.2"/>
	<line id="XMLID_458_" class="st11" x1="34.7" y1="136.7" x2="910.7" y2="243.5"/>
	<line id="XMLID_459_" class="st11" x1="34.7" y1="136.7" x2="990.9" y2="365.8"/>
	<line id="XMLID_460_" class="st11" x1="34.7" y1="136.7" x2="855.9" y2="160.7"/>
	<line id="XMLID_461_" class="st11" x1="679.9" y1="314.6" x2="476" y2="350.7"/>
	<line id="XMLID_462_" class="st11" x1="679.9" y1="314.6" x2="455" y2="118.7"/>
	<line id="XMLID_463_" class="st11" x1="217.7" y1="448.2" x2="969.9" y2="268.1"/>
	<line id="XMLID_464_" class="st11" x1="570.8" y1="230.9" x2="855.9" y2="160.7"/>
	<line id="XMLID_465_" class="st11" x1="570.8" y1="230.9" x2="854.2" y2="88.7"/>
	<line id="XMLID_466_" class="st11" x1="570.8" y1="230.9" x2="455" y2="118.7"/>
	<line id="XMLID_467_" class="st11" x1="742.1" y1="217.3" x2="386.9" y2="488.1"/>
	<line id="XMLID_468_" class="st11" x1="742.1" y1="217.3" x2="711.6" y2="72.7"/>
	<line id="XMLID_469_" class="st11" x1="742.1" y1="217.3" x2="190.8" y2="96.3"/>
	<line id="XMLID_470_" class="st11" x1="990.9" y1="433.6" x2="967.7" y2="497.6"/>
	<line id="XMLID_471_" class="st11" x1="990.9" y1="433.6" x2="742.6" y2="139.7"/>
	<line id="XMLID_472_" class="st11" x1="101.7" y1="112.1" x2="411.5" y2="362.6"/>
	<line id="XMLID_473_" class="st11" x1="101.7" y1="112.1" x2="375" y2="171.7"/>
	<line id="XMLID_474_" class="st11" x1="101.7" y1="112.1" x2="969.9" y2="268.1"/>
	<line id="XMLID_475_" class="st11" x1="535.8" y1="162.4" x2="711.6" y2="72.7"/>
	<line id="XMLID_476_" class="st11" x1="535.8" y1="162.4" x2="742.1" y2="217.3"/>
	<line id="XMLID_477_" class="st11" x1="34.7" y1="350.7" x2="769.4" y2="484.5"/>
	<line id="XMLID_478_" class="st11" x1="34.7" y1="350.7" x2="386.9" y2="488.1"/>
	<line id="XMLID_479_" class="st11" x1="34.7" y1="350.7" x2="710" y2="73.5"/>
	<line id="XMLID_480_" class="st11" x1="483.4" y1="225.2" x2="217.7" y2="448.2"/>
	<line id="XMLID_481_" class="st11" x1="483.4" y1="225.2" x2="386.9" y2="488.1"/>
	<line id="XMLID_483_" class="st11" x1="483.4" y1="225.2" x2="710" y2="73.5"/>
	<line id="XMLID_484_" class="st11" x1="769.4" y1="484.5" x2="658.9" y2="419.9"/>
	<line id="XMLID_485_" class="st11" x1="769.4" y1="484.5" x2="990.9" y2="365.8"/>
	<line id="XMLID_486_" class="st11" x1="769.4" y1="484.5" x2="386.9" y2="488.1"/>
	<line id="XMLID_487_" class="st11" x1="368.6" y1="273.4" x2="330.9" y2="102.2"/>
	<line id="XMLID_488_" class="st11" x1="368.6" y1="273.4" x2="489.5" y2="489.1"/>
	<line id="XMLID_489_" class="st11" x1="368.6" y1="273.4" x2="331.9" y2="434.4"/>
	<line id="XMLID_490_" class="st11" x1="990.9" y1="365.8" x2="101.7" y2="113.3"/>
	<line id="XMLID_491_" class="st11" x1="658.9" y1="420.5" x2="855.9" y2="159.8"/>
	<line id="XMLID_492_" class="st11" x1="658.9" y1="420.5" x2="103.7" y2="112"/>
	<line id="XMLID_493_" class="st11" x1="603" y1="368.7" x2="531" y2="334"/>
	<line id="XMLID_494_" class="st11" x1="603" y1="368.7" x2="742.6" y2="139.7"/>
	<line id="XMLID_495_" class="st11" x1="662.2" y1="115.1" x2="88.7" y2="440.9"/>
	<line id="XMLID_496_" class="st11" x1="662.2" y1="115.1" x2="855.3" y2="160.7"/>
	<line id="XMLID_497_" class="st11" x1="266.2" y1="339.2" x2="531" y2="334"/>
	<line id="XMLID_498_" class="st11" x1="930" y1="385.6" x2="969.9" y2="268.1"/>
	<line id="XMLID_499_" class="st11" x1="930" y1="385.6" x2="910.7" y2="243.5"/>
	<line id="XMLID_500_" class="st11" x1="930" y1="385.6" x2="217.7" y2="448.2"/>
	<line id="XMLID_501_" class="st11" x1="685.4" y1="185.3" x2="742.6" y2="139.7"/>
	<line id="XMLID_502_" class="st11" x1="685.4" y1="185.3" x2="455" y2="118.7"/>
	<line id="XMLID_503_" class="st11" x1="742.6" y1="139.7" x2="711.6" y2="73.5"/>
	<line id="XMLID_504_" class="st11" x1="188.2" y1="163.3" x2="190.8" y2="96.3"/>
	<line id="XMLID_505_" class="st11" x1="190.8" y1="96.3" x2="711.6" y2="72.7"/>
	<line id="XMLID_506_" class="st11" x1="103.7" y1="371.3" x2="852.5" y2="89.5"/>
	<line id="XMLID_507_" class="st11" x1="103.7" y1="371.3" x2="455" y2="118.7"/>
	<line id="XMLID_508_" class="st11" x1="103.7" y1="371.3" x2="368.6" y2="273.4"/>
	<line id="XMLID_509_" class="st11" x1="871.7" y1="463.6" x2="769.4" y2="484.5"/>
	<line id="XMLID_510_" class="st11" x1="871.7" y1="463.6" x2="990.9" y2="365.8"/>
	<line id="XMLID_511_" class="st11" x1="871.7" y1="463.6" x2="101.7" y2="113.3"/>
	<line id="XMLID_512_" class="st11" x1="784.6" y1="358.6" x2="455" y2="118.7"/>
	<line id="XMLID_513_" class="st11" x1="784.6" y1="358.6" x2="331.9" y2="434.4"/>
	<line id="XMLID_514_" class="st11" x1="911.7" y1="105.7" x2="101.7" y2="113.3"/>
	<line id="XMLID_515_" class="st11" x1="911.7" y1="105.7" x2="217.7" y2="448.2"/>
	<line id="XMLID_516_" class="st11" x1="582" y1="436.4" x2="643" y2="50.1"/>
	<line id="XMLID_517_" class="st11" x1="582" y1="436.4" x2="531" y2="334"/>
	<line id="XMLID_518_" class="st11" x1="868.1" y1="395.3" x2="990.9" y2="365.8"/>
	<line id="XMLID_519_" class="st11" x1="868.1" y1="395.3" x2="969.9" y2="268.1"/>
	<line id="XMLID_520_" class="st11" x1="598.4" y1="129.8" x2="742.6" y2="139.7"/>
	<line id="XMLID_521_" class="st11" x1="598.4" y1="129.8" x2="742.1" y2="217.3"/>
	<line id="XMLID_522_" class="st11" x1="598.4" y1="129.8" x2="535.8" y2="162.4"/>
	<line id="XMLID_523_" class="st11" x1="598.4" y1="129.8" x2="386.9" y2="488.1"/>
	<line id="XMLID_524_" class="st11" x1="243.9" y1="200.6" x2="331.9" y2="434.4"/>
	<line id="XMLID_525_" class="st11" x1="243.9" y1="200.6" x2="926.4" y2="452.7"/>
	<line id="XMLID_526_" class="st11" x1="969.9" y1="268.1" x2="910.7" y2="243.5"/>
</g>
</svg>
