<?xml version="1.0" encoding="utf-8"?>
<!-- Generator: Adobe Illustrator 19.0.0, SVG Export Plug-In . SVG Version: 6.00 Build 0)  -->
<svg version="1.1" id="Calque_1" xmlns="http://www.w3.org/2000/svg" xmlns:xlink="http://www.w3.org/1999/xlink" x="0px" y="0px"
	 viewBox="-72 141.9 1047 558" style="enable-background:new -72 141.9 1047 558;" xml:space="preserve">
<style type="text/css">
	@import url(https://fonts.googleapis.com/css?family=Open+Sans:300,600italic);
	.st0{opacity:0.15;fill:#636363;enable-background:new    ;}
	.st1{opacity:0.3;}
	.st2{fill:#3F4977;}
	.st3{fill:none;}
	.st4{opacity:0.25;fill:none;stroke:#8EB2DD;stroke-width:1.5;stroke-miterlimit:10;enable-background:new    ;}
	.st5{fill:#ABC5FF;}
	.st6{font-family: 'Open Sans'; font-weight: 300; text-transform: uppercase;}
	.st7{font-size:10px;}
	.st8{fill:#FFFFFF;}
	.st9{font-family: 'Open Sans'; font-weight: 600; font-style: italic; text-transform: uppercase;}
	.st10{font-size:13px;}
	.st11{fill:none;stroke:#FFFFFF;stroke-width:0.5;stroke-miterlimit:10;}
</style>
<g id="territoire">
	<path id="NY" class="st0" d="M753.5,368.5c-1.8-1.3-4.8,2.5-8.9,0.5c-4-2-4.3,2.3-4.8,3.8s-5.8,8.3-7.3,7.6c-1.5-0.8,2.5-5,3.8-8.1
		c1.3-3,0.3-8.6-0.8-5.3c-1,3.3-5.3,9.3-9.4,11.6c-4,2.3-9.9,3-13.2,3.3c-3.3,0.3-7.1,1-8.9,4.5c-1.8,3.5-6.3,3-9.9,4
		c-3.5,1-6.3,4.3-9.4,5.5c-3,1.3-5.3,1.3-2.5-2c0.9-1,1.9-2,3-2.9c-1.5-1.5-3.6-3.7-3.8-4.9c-0.3-1.8,2.8-5.5,4.6-7.1
		c1.8-1.5,1.3-4.5,0.5-6.3c-0.8-1.8-2-2.3-2-5c0-2.8-1-11.3-3.3-15.9c-2.3-4.5-2.6-12.2-3.1-12.9c-0.5-0.7-0.7-8.7-1-8.9
		c0,0,0,0,0-0.1c-0.8-0.2-1.1-1.4-1.1-1.4l0.9-38.3c-0.5-0.8-4.6-19.9-6.1-26.5s-3.5-14.6-5.3-18.2c-1.8-3.5-2,0.8-5.1,0
		c-3-0.8-3.3-8.6-3.3-11.3c0-2.8-1.8-10.3-3.3-14.6c-1.5-4.3,0.8-7.6,0.5-10.8c-0.2-3.3-2.3-10.3-3.8-12.9c-1.5-2.5-3.8-2.8-4.8-6.8
		s0-9.1-1.5-11.1c-1.2-1.5-1.3-8.2-1.3-11.3c-29.1,7.1-56.6,13.4-58.7,13.7c-4.6,0.8-31.2,35.3-31.2,40.1c0,3.8-6.6,9-11,12.8
		c1.3,0.1,2.2,0.3,1.5,0.8c-1.9,1.2-7.8,7.7-7.8,9.1c0,1.3,4.6,2.7,5.4,1.8c0.8-0.8,4.1-1.5,3.6,0.7s-0.3,2.7,1.7,1.3
		c2-1.3,4.6,0.7,2.4,1.7c-2.2,1-3.7,3.9-3.4,4.5c0.3,0.7-0.7,1.2-0.8,3.5c-0.2,2.3,1,3.9,2,6.4s2.9,4.2,2.2,6.7s-0.5,5.7-2.9,5.7
		s-4.4-1.2-5.4,1c-1,2.2-1.7,4.2-3,4.5c-1.4,0.3-3,0.7-3.6,2.4c-0.5,1.7-1.3,4-3.7,5.4c-2.4,1.3-4.4,3-5.2,4.4s-0.2,2.7-2,2.2
		c-1.9-0.5-3-1-5.9-0.8c-2.9,0.2-7.3,0.7-9.1,1.7c-1.9,1-5.7,2-7.1,3.7c-1.4,1.7-3.2,2.7-5.4,0.8c-2.2-1.8-4.9-4.2-7.3-3.5
		c-2.4,0.7-28.4-1.2-44.2,10.9c-2,1.5-3.7,2.8-5.1,3.8c1.2,3.1,2,7.4,2.5,9.8c0.6,2.9,4.2,8.5,5.8,10.9c0.6-0.2,1-0.5,0.9-0.9
		c0,0,4.1,0.2,3.2,2.2c-0.8,2-1.2,6.7-4.1,8.7c-2.9,2-12.8,16.1-16.7,20.3c-1.6,1.7-5.6,5.6-10.5,10l2.9,13.2
		c0,0,164.8-31.6,168.2-32.9c3.4-1.3,6.2-5.2,12-0.7c5.7,4.5,8.6,4.5,12.2,4.7c3.5,0.2,6.7,13.8,8.9,17.3s2.7,0.7,7.8,1.8
		c5.1,1.2,6.9,2.2,10,5.4c3,3.2,25.5,8.5,28.2,9s4.5,1.9,5.2,3.6c0.8,1.8-1.5,9.1-1.9,10.9c-0.3,1.2-1.2,4.1-1.7,5.9
		c2.2,1.3,0.5,4.2,6,3.2c5.6-1,19-8.8,28.4-12.9c9.4-4,15.7-10.8,24.3-14.6c8.6-3.8,9.4-5.8,13.2-9.1
		C747.4,375.1,755.3,369.8,753.5,368.5z"/>
	<path id="Londres" class="st0" d="M895.4,532.3c0,0-22.9,3.9-20.3-20.9c0,0-22.7-1.1-24.2-2c-5.9-3.3-12.4,15-65.4,32.7
		c0,0,0,34.7-6.5,35.3c0,0,45.8,36.6,46.4,39.2c0.7,2.6,2.6-8.5,32,15c0,0,11.7-7.8,16.7-9.9c3.4-2.1,6.9,1.1,9.4,3.5
		c1.9,1.7,3.6,3.7,5.3,5.5l0.1,0.1c1.3,1.3,2.8,2.9,4.4,4.6c0,0,14.4-13.1,16.3-20.3v-28.8l14.4-12.4v-12.4l21.6-13.1
		C945.7,548.6,932.6,504.8,895.4,532.3z"/>
	<path id="Birmingham" class="st0" d="M912.5,397.4c-2.1-2.1-4.9,4.9-13.3,2.8c-8.4-2.1-10.5-13.3-15.4-19l2.8-4.2l-4.9-0.7
		c0,0-7.7-9.8-11.2-7.7c0,0-0.7-0.7-8.1,4.2c0,0-6,0-7.7-2.5c0,0-24.2,4.6-20.7,9.5s5.6,2.1,0.7,10.5c-3.2,5.5,1.1,11,3.4,13.4
		c0.1,0,0.2,0,0.3,0c0.2-1.1,12.5,2.5,18.8,0.7c7-2.1,5.6,2.8,9.1,5.6c3.5,2.8,10.5-2.1,14.7-0.7s7,13.3,14,9.8s23.9,0,28.1-13.3
		C923.1,405.8,914.7,399.5,912.5,397.4z"/>
	<path id="Liverpool" class="st0" d="M786.6,220.5c0,0-2,36.5,13,28.5c0,0,2.5-3,17.5,7.5c0,0,4.5,2.5,8-5l5,0.5
		c0,0,12,17,13.5,12.5s0,16.5,0,16.5s-19,2-15.5,16c0,0-11,11.5-27-3s-26.5-46.5-26.5-46.5S769.5,239.5,786.6,220.5z"/>
	<path id="Washington" class="st0" d="M50.6,274.1c0.3-1.1,4.2-21.7,5.2-26.8C6.4,237-25.2,228-25.2,228c0.7,0.6,1.5,0,1.8,1
		s0,2.3,0.9,3.2c0.9,0.9,1.7,1,1.9,1.7c0.3,0.7,0.6,0.8,0.4,2.1c-0.1,1.3-0.6,2-0.8,2.4c-0.3,0.4-0.5,0.8-0.5,1.5
		c0.1,0.7,0.1,0.6-0.7,0.6s-1.8-0.1-0.9,0.8c0.9,0.8,0.9,1.2,1.3,1.8c0.4,0.6,1.4,0.6,1.2,1.5c-0.3,1-0.9,0.8-0.8,1.9
		c0.1,1,0.6,1.8,0.9,2.3c0.3,0.5,0.3,1.8-0.2,2.7c-0.4,0.9-0.6,1.3-1.3,1.9c-0.8,0.6-1.2,1.3-1.8,2s-1,0.9-0.6,2.1
		c0.3,1.2,0.4,1.6,0,2.3c-0.4,0.7-0.4,1-0.6,2.1c-0.2,1-0.1,0.9-1,2c-1,1.1-0.6,1.4-2.6,2c-2,0.7-1,1.7-3.2,0.9
		c-2.2-0.7-3.6-0.8-3.1-1.9c0.5-1.1,1.6-1.2,2.1-2.3c0.4-1.1,1-1.5,1-0.5s-1,2.2-0.1,2.2c0.9,0.1,0.4-0.9,1-1.4s0.6-1.4,1-0.5
		c0.4,0.8-0.3,1.3,0.8,1.4c1.2,0.1,2-1.2,2.1-2.5c0.1-1.3,1-2.7,0.1-2.9c-0.9-0.2-1.9-0.6-1-1.3c0.9-0.7,0.7-1.5,1.3-2.1
		c0.6-0.6,1.7-0.3,1.8-1.2c0.1-0.9-0.3-2.2-1-2.2c-0.6,0-0.6,0.6-0.9-0.9c-0.3-1.5,0-2.1-0.2-3.3c-0.2-1.2-1.2-2-1.6-1.3
		c-0.4,0.7-1,0.6-1.5-0.4c-0.6-1-1-1.7-2.2-1.7s-1.2-0.1-3.5-1.1c-2.4-1-11-2.7-15-8.8c0,0-0.8-1.1-0.8-0.1c0.1,1,0.3,0.6-0.1,1.3
		c-0.4,0.7-2.3,3.1-2,5.2c0.3,2,1.5,2.6,1.8,4.3c0.3,1.7,0.2,1.7-0.1,3.8c-0.3,2.1,0.1,4.7,0.4,6.6c0.3,1.8,0.5,0.5,0.2,2.1
		c-0.3,1.6-0.3,2.5-0.6,3.6c-0.4,1.1-1.1,1.5-0.6,2.3c0.5,0.8,0.7-0.3,1.3,0c0.6,0.3,1.2,0.5,1.6,1s1.5,0.7,0.8,1
		c-0.6,0.3-0.4,1-1.6,1c-1.2,0-1.7-1.5-1.9-0.8c-0.1,0.7-0.3,1.3-0.1,2.7c0.1,1.4-1.2,2.2,0.5,2.3c1.7,0.1,1.9-0.6,2.3,0
		c0.4,0.6,0.4,0.8-0.3,0.9c-0.7,0.1-1.6-0.6-1.7,0.2c-0.1,0.8-0.2,1.3-0.1,2c0.1,0.7-0.6,0.7-1,1.5c-0.3,0.8,0.1,2.2-0.5,1.3
		c-0.6-1-0.7-1-0.4-2.5c0.3-1.6,0.6-2.6,0-1.9c-0.6,0.7-0.9,1.5-0.7,2.6c0.2,1.1,0.1,2.6,0.4,3.7c0.2,0.8,0.4,0.9,0.4,1.3
		c1.8,0.7,3.9,1.5,4.6,1.7c1.3,0.4,1.2,0.4,1.5,2.3c0.4,1.9,0.9,0.6,2.6,0.6c1.7,0,2.6,1.8,3.8,3.8c1.3,2-0.6,5.5-0.9,7.1
		c-0.3,1.7-0.1,2.7,0.5,3.2s3.2,0.4,4.5,1.5s4.1,1.3,5.9,0.6c1.8-0.6,1.9-1.5,3.8-0.6c1.9,0.9,2.3,0.3,3.8,0.3s1.8,0.5,2.7,1.7
		c0.9,1.1,1,1.5,1.8,1.4s2.7-0.3,3.5,0.5c0.8,0.8,3.2-0.1,4-0.6s2.8,0.1,4,1.5c1.1,1.4,4.2,0.6,4.9,0.1c0.6-0.5,3.5-0.5,6.9-0.3
		c3.5,0.3,1.4-0.1,2-0.8c0.6-0.6,2.7,0,3.8,0.4c1.2,0.4,4,0.4,5-0.1s8.3,1.4,10.9,2.7c2.6,1.3,18.7,3.4,18.7,3.4l0.7,0.2
		c-0.2-1.2-0.2-2.2-0.1-2.6c0.1-0.9,0.9-2.8,0.4-3.7s-0.6-7.4,0.3-8.8C46.7,293.6,50.3,275.4,50.6,274.1z"/>
	<path id="tennessee" class="st0" d="M441.8,502.4c1.1-1,0.4-2.5,0.1-4.1c-0.3-1.6,1-0.1,3.7-2.3c2.8-2.2,4.1,0.4,5.7-1.1
		c1.5-1.5,5.2-6.2,7.2-6.3c1.9-0.1,2.1-2.3,2.1-3.4s2.3-0.7,3.2-1.8c0.8-1.1-0.3-2.2,1-2.2c1.2,0,0.1,2.2,2.6,1.9
		c2.5-0.3,0.7-3,2.8-5.1s4.1,0,4.3,1c0.1,1,2.5-2.2,3.3-4.4c0.8-2.2,1.5-1,2.6-3.2c0.7-1.3,0.5-3.7,0.3-5.3
		c-1.8,0.1-4.8,0.6-7.5,1.1c-3.6,0.7-65.5,9.6-99,11.1c0,0-2.1,0.7-2.5,1.5s-1.5-0.1-2.5-0.8c-1-0.7-4.1-0.8-4.1,0.3
		c0,1.1,1.8,3.9,0,4c-1.6,0.1-19.6,1.7-24.2,1.1c-0.3,0.2-1.1,0.2-2.6-0.2c-2.1-0.5,0.6,2.7,0.2,3.6s0,2-1.2,2.9s0,3-0.9,3.8
		s-0.2,1.2,0.2,2.6c0.4,1.3-1.2,5.6-2.8,6c-1.5,0.4,0.2,1.9-0.5,2.7c-0.7,0.8-0.9,0.1-1.1,1.2s-0.2,2.1-1.6,2.7
		c-1.3,0.6-1,1.3-1,2.5s2.1,0.5,2.5,2.9c0.4,2.4-0.6,1.8-1.9,2.7c-1.2,0.9-1.9,2.3-1.9,2.3c28.7-1.3,80-7.1,109.3-10.5
		c0.1-2.2,0.1-4.7,0.1-5.3C437.5,503,440.7,503.4,441.8,502.4z"/>
	<path id="Oklahoma" class="st0" d="M222.4,482.4c-2.4-9.7-2.6-17.6-2.6-17.6c-30.5,0.4-57.6-0.4-81-1.8l-0.1,6.3l29,1.5
		c0,0-0.4,22.9,0.5,23.4s1,1.5,2,2.3s1-0.1,2.1,0.2c1.1,0.3,0.7-0.7,1.2-0.9c0.6-0.2,0.9,0.5,1.2,1.2s0,1.6,0.9,1.9
		c0.9,0.2,1.1,0.5,2.2,0.4c1.1-0.1,1.4,0.7,1.4,0.7c0.7,0.6,1.5-0.2,2.4-0.1s0.8,0.4,0.9,1c0.1,0.7,1,0.3,1.2-0.5s0.8-0.1,0.9-0.4
		c0.1-0.4,0.7-0.1,1.5-0.1c0.7,0,0.5,0.5,0.5,1.1s0.2,0.4,0.7,0.7c0.5,0.2,0.1,1,0.4,1.8c0.2,0.8,1.2-0.2,1.5-0.7s0.9-0.7,1.7-0.4
		c0.8,0.2,1,0.7,1.3,1.1s1.1,0.4,1.1-0.1s2-0.4,2.4-0.4s0.1,0.5-0.1,1.3c-0.1,0.8,0.4,0.9,0.8,1s0.6-0.7,0.6-1.5
		c0-0.7,0.1-0.7,0.5-1.5c0.4-0.9,0.4-0.1,0.8,0.2c0.4,0.4,0.7,0.7,1.1,1.2c0.4,0.6,0.7-0.1,0.9-0.7c0.2-0.6,0.8,0.1,1.5,0.9
		c0.7,0.7,1.2,1.2,1.9,1.7c0.7,0.5,1.2-0.2,1.7-0.9c0.5-0.7,1.3-1.2,2.2-1.5c0.9-0.3,0.5,0.2,1.2,0.7s1.1-0.1,1.2-0.9
		c0.1-0.7,1.2-0.7,1.8-0.7c0.5,0,0.4,0.4,1.2,1.1c0.8,0.7,1.2-0.1,1.5-0.4c0.3-0.4,0.6-0.9,1.2-1s1.1,0.4,2.2,1.6s1.8,1,2.1,1.3
		c0.3,0.3,0.8,0.8,1.7,0.8c0.7,0,0.7-0.3,1.1-0.3L222.4,482.4z"/>
	<path id="Missouri" class="st0" d="M113.4,458.4c-0.2-0.2-1.6,0.4-2-0.6s-1.6-1.7-1.2-2.2c0.4-0.5,1-0.2,0.6-1.1s-1.1-1.7-1-2.4
		c0-0.6-0.8-0.2-1.3-0.9c-0.5-0.7-1.6-0.6-2-1.3c-0.4-0.7-5-2.9-3.8-5c1.2-2,1.9-4.1,1.2-4.7s-1.3-0.9-1.3-0.6s-0.5,0.4-0.6,0.1
		s-0.4-0.4-0.9-0.2c-0.5,0.3-0.8,0.7-1.1-0.2c-0.4-0.9-0.4-2.7-0.9-2.8c-0.4-0.2-2.5-1.1-2.6-2c-0.1-1-2.9-2.9-3.1-4.1
		c-0.2-1.1-0.3-3.7,0.1-4.4c-0.7-0.7-1.7-1.7-2-2.1c-0.4-0.6-0.6-0.4-0.6-0.4c-6.9,1.1-27.1,1.4-29.7,1.4c0,0.2,0.1,0.5,0.3,0.7
		c0.4,0.6,0,0,0.1,0.8s0.9,1,1.6,1.7c0.7,0.7,0.3,1,0.3,1.7s0.7,0.5,0.9,0.7s1.3,1.3,1.7,1.7c0.4,0.4,0.4,0,0.4-0.5s0.8-0.4,0.8,0.1
		s0.5,0.5,0.8,1.1c0.3,0.5-0.1,0.5-0.5,0.7c-0.5,0.1-0.9,0.6-1.5,1.2c-0.6,0.7,0.5,0.7,1.2,1.2c0.8,0.5,0.8,0.5,0.7,1.1
		c-0.1,0.7,0.7,0.9,1.1,1.4c0.4,0.5,1.2-0.3,1.1,2.4c-0.2,2.7,0.1,19.6,0.1,19.6s0.1,2.1,0.5,5.2c4.5-0.1,29-1,34.4-1.8
		c0,0,1.9,0.3,1.5,1.8s-1.1,1.8-1.5,2.4c-0.4,0.7-0.4,1.1,0.7,0.9c0.7-0.1,2.8-0.3,4.1-0.4c0-0.1,0-0.1,0-0.2
		c-0.2-0.6-0.5-0.8-0.1-1.1c0.4-0.4-0.1-1.2,0.4-1.6s0.4-0.8,0.5-1.2c0.2-0.4-1-1.8-0.1-1.6c0.9,0.2,1.2,0.2,1.2-0.1
		c0-0.3,0.4-0.6,0.7-0.5s0.3,0.4,0.6-0.5c0.3-1-0.4-1.4,0.4-1.5C114.1,460.4,113.5,458.6,113.4,458.4z"/>
	<path id="New_Jersey" class="st0" d="M620.1,452.1c-6.2,1.1-3.5,0-3.5-2s1-4.3,2-3.7l0,0c0.3-0.9,0.7-2.2,0.8-2.8
		c0.2-0.9,1.3-4.3,0.9-5.2c-0.4-0.8-1.2-1.5-2.5-1.7s-11.9-2.8-13.4-4.3c-0.6-0.6-1.1-1-1.6-1.4c-0.9,0.8-3.2,3.2-3.1,3.9
		c0.1,0.9,0.5,3.2-0.5,3.9c-1,0.7-4.7,5.2-2.6,6.1c2.1,0.9,2.2,0,2.2,1.3s-0.2,1.9-1.2,2.7c-1,0.8-1.4,2.8-0.6,3.4
		c0.7,0.6,11.2,9.2,11.4,9.6c0.2,0.3-2,3.3-2.9,4.3s-1.3,3.4-1.8,4.9c-0.6,1.4-1.3,2-2.8,2.5s-4.2,2.8-3.7,5.4
		c0.4,2,0.9,4.5,2.3,6.7c0.8-0.4,0-1.3,1.5,0.4c1.6,1.8-1.3,1.4,2.8,2.9c4.1,1.4,4,1,5.2,0.6s1.8-1.4,1.9,0.4
		c0.1,1.8,2.7-0.1,1.6,2.2c-1.1,2.3-2.1,3.2-0.1,3.1c1.9-0.1,2.5-0.4,3-1.7c0.6-1.3,1.8-1.8,2.3-3.8s-0.6-3.7,0.7-5.5
		c1.4-1.8,1.7-2.6,2.2-4.8c0.6-2.2-0.4-3.3,1.4-4.1c1.8-0.8,2.3-12.4,1.8-15.3C623.3,457.3,626.3,451,620.1,452.1z"/>
	<path id="Georgie" class="st0" d="M603.6,588c-2-1.1,0.6-4.4-0.5-5c-1.1-0.6-2.2-3-3.3-4.5c-1.1-1.6-2.4-1.4-3.6-2.4
		c-1.3-0.9-0.6-3.1-0.8-4.4s-2.8-4.7-4.4-5.8c-1.6-1.1-2.8-1.9-5.7-4.2c-2.8-2.4-2.8-3.8-3.9-5.3c-1.1-1.6-2.5-2-4.4-2.7
		c-1.9-0.6-3.2-1.3-4.9-3.6s-2.5-2.7-5.4-3.8c-2.8-1.1-6-6-7.6-8.6c-1.6-2.7-2.2-4.4-3.5-4.4s-2.4,1.3-3.3,0c-0.9-1.3-4.1-3.1-5-3.8
		c-0.9-0.6-0.6-2.8-0.5-4.5c0.2-1.7,3.2-3.3,3.6-3.8c0.1-0.2,0.2-0.5,0.2-1c-0.6,0.1-1.2,0.2-1.9,0.2c-2,0.1-24,2.8-51.8,5.8
		l20,62.7c0,0,1.4,0.5,2.2,1.1c0.8,0.6,0,1.6,0.5,3.3c0.5,1.7,1.4,0.9,1.4,2.4c0,1.4-0.5,2-1.4,2.7c-0.9,0.6-2,1.3-1.4,2.2
		c0.6,0.9,0.8,3.3,0,4.1s-1.6,4.2-0.8,5.2c0.8,0.9,2.8,2.5,2.8,4.5s-0.9,6.7-0.6,8c0.3,1.3,2.8,5.7,2.8,7c0,0,4.2,7.3,5,7.3
		c0.7,0,58.1-4.7,58.1-4.7s0.6,0.1,1.1,1.5c0.5,1.4-0.2,3.5,1.5,3.6c1.8,0.1,3,0.7,3-1.4c0-2.1,0.8-4.9-0.2-6.6
		c-1.1-1.6-1.5-2.9-0.4-3.6c1.2-0.7,10.9,2.1,11.9,0c0.1-0.1,0.1-0.3,0.2-0.4c-1.2-0.7-1.1-1.1-0.8-3.2c0.2-2.2,0.6-2.4-0.4-3.8
		c-0.9-1.4,1.8-2,0.9-2.7c-0.8-0.7-0.6-1.9,0.9-2.1s3.1-2.2,2-2.9c-1.1-0.7-2,0.8-1.5-0.9c0.5-1.8-0.6-1.7,0.5-2.1
		c1.1-0.5,2.5-1.5,1.7-2.4c-0.8-0.9-1.1-0.9-1.8-1.1c-0.8-0.2-1.1-0.9-0.2-1.5c0.9-0.5,2-0.1,2.4-1.4s0-1.6-0.9-1.6s-2,0.2-1.1-0.5
		s2.1-0.5,2.8-1.3s1.8-1.6,0.2-2.2c-1.6-0.5-2.7-0.5-1.9-0.9c0.8-0.5,2-0.9,2.8-0.7c0.8,0.2,1.7,0.4,1.2-0.4s-1.1-1.6-0.2-1.6
		c0.9,0,2,0.1,1.5-0.4c-0.4-0.4,2.3-0.6,1.7-1.4c-0.5-0.6-1.3-0.7-1.6-1C609.3,589,605.2,588.9,603.6,588z"/>
	<path id="Californie" class="st0" d="M13.2,405.3c-25.6-6.2-44.9-11.6-53.5-14c0.2,1.2-1.2,1.2-1.2,1.2s-2,1-1,2.6s2.2,1.6,1.6,2.9
		c-0.5,1.3-1,1.2-1.2,2.6c-0.2,1.4,0.4,1.4-0.3,2.1c-0.8,0.7-1.8,1.3-2,2.4c-0.2,1.1,0.4,1.5-0.2,2.8c-0.7,1.3-0.8,0.8-1.2,2
		s-0.2,1.6-0.9,2.3c-0.7,0.7-2.4,2.2-3,3c-0.5,0.9-1.6,0.5-1.6,2.6s-1,2.2,0.2,4c1.2,1.9,1.4,1,2,2.9c0.5,2,1.1,1.6,1.5,3.9
		c0.4,2.3,0.3,2.2,0.2,4c-0.1,1.9,0.9,2.6-0.3,3.6c-1.2,1-1.9,0.8-1.3,2.3c0.5,1.5,0.7,1.5,0,3.2c-0.7,1.6-1.1,2.5-0.8,3.5
		c0.3,1-1.8-0.4,0.3,2.4s0.8,3.3,1.8,4.4s1.4,1.1,1.8,2.7c0.3,1.6,0.5,1.3,1.4,2.1c0.9,0.8,0.4,0.8,0.8,2.3c0.3,1.5,0.7,0.7,0.9,2
		c0.2,1.3,0,2.7-0.7,3.3c-0.7,0.5-2.1,1.5-0.7,1.6c1.4,0.1,2-1,2.8,1.2c0.9,2.2,1.5,3.2,2.1,3.4c0.5,0.2,1.5,0.4,1.5-0.8
		c0-1.2-0.4-1.1,0.2-2.3c0.7-1.2,0.1-2.3,0.9-2.1c0.8,0.2,1.2,0.5,2,1.2s-0.1,1.7-0.9,1.7c-0.8,0-1.3,0.8-1.1,1.5
		c0.2,0.8,0.9,0.3,1.1,1.5c0.2,1.2,0.7,2.9,0.9,4.4c0.2,1.4,1,2.6,0,2.6s-0.7,1-1.9-1.5s-1-2.6-1.9-3.2c-0.9-0.5-1.1-0.3-1.1,1
		s0.7,1.6,0.1,3.3c-0.5,1.6-0.9,1.3-0.9,2.8s-0.4,3.2,0.7,4.4c1.1,1.2,0.8,0.5,2.1,2.2c1.3,1.6,0.7,0.8,2.4,1.1c1.8,0.3,2,0,1.5,2.1
		c-0.4,2.1-0.3,3.4-2.3,3.6s-0.8-0.1-1,1.6s-0.4,5,0.4,5.9c0.9,0.9,1.2,1.3,1.6,2.6c0.4,1.3,1,2.4,1.8,2.6s0.3,1.4,0.4,2.6
		c0.1,1.2,0.3,1.4,0.9,1.9c0.5,0.4,0.2,0.5,0.7,2c0.4,1.4,0.3,0.3,0.9,1.7c0.5,1.4,0.5,2.6,1.5,3.2c1,0.5,2.4,1.4,1.6,2.5
		c-0.8,1.1-1.5,2.4-0.7,3.1c0.9,0.7,2.3,0.7,2.2,2.6c-0.1,2-1.2,1.2-1,2.7s-0.7,1.6-0.8,3c-0.1,1.4-1,1.9-0.2,2.7
		c0.8,0.9,1.3,0.8,1.4,2.1c0.1,1.3,0.9,1.4,2.5,1.4s3.3,0,3.9,1.2c0.7,1.2,3,2.8,4.9,2.4c2-0.4,2.6,1,3.2,1.4c0.5,0.4,2.1,2.4,3,4.5
		c0.9,2.1,2.2,2,3.1,2.5s2.4,2.3,5.3,1.6c2.8-0.7,1.5,1.4,1.6,2.2s-0.5,5,1.6,4.8c2.2-0.2,2.8-1,3.6,1.1c0.8,2.1,3.6,5.7,5.8,7.1
		c2.2,1.4,2.7,9.7,2.5,12.2c-0.2,2.4-1.3,2.9-0.4,3.9c7.5,0.8,34.9,3.9,36.3,4.2c0.5,0.1,0.8,0.3,0.9,0.5c0.4-0.1,1.1-0.2,1.5-0.2
		c0.7,0,2.2-0.2,2.3-1.2c0.1-1.1,1.5-0.5,1.3-2c-0.2-1.5-0.2-1.7-1.2-2.2s-2,0.1-1.9-1c0.1-1.1,0.5-0.2,0.7-1.7s-1.2-2-0.6-3.1
		c0.7-1.1,2.1-0.8,2.5-1.6c0.5-0.8,2.4-3.3,2.7-5.1c0.3-1.8-0.9-3,0.7-3.9c1.6-0.9,2.3-2.4,3.7-3.2s1.9-0.5,2.4-1.3s0.2-2.3-0.7-2.8
		s-1.7-3-1.9-4s-0.6-1.6-1.2-2.9c-0.7-1.3-1.7-1.2-1.3-3c0.1-0.7,0.2-1.2,0.2-1.6l-61.5-88L13.2,405.3z"/>
	<path id="Illinois" class="st0" d="M172.1,361.8c2.2,1.8,4-0.6,4.3-2.2c0.4-1.6-1-2-1.8-5.5s7.5-3.6,8.5-4.1
		c1.1-0.5-0.2-1.7-1.4-2.9c-1.2-1.2,0.4-2,1.2-3.2c0.8-1.2-0.4-2.5-0.5-4.4s0-3,0.7-4.1s0.8-2.6,0.7-3.3c-0.1-0.7-0.8-3.1,0.6-3.6
		s4.6-6.5,4.6-7.5c0-1.1,0.8-2.4,2.3-3.2c1.4-0.8,0.5-3.8-0.4-4.3c-0.8-0.5-0.8-1.8-1-4.7c-0.1-2.9-1.2-1.6-2.2-3.2
		c-1-1.7,0.1-3.8,0.8-4.8c0.7-1,1-5.7,1-5.7l-5.7-58.7c-0.9-0.6-1.6-1.4-1.9-2.5c-1-2.6-1.1-5.1-2.9-7.5c-1.8-2.4-2.6-1.3-2.6-5.1
		c0-1.5,0-3.8-0.1-6.2c-10,1.5-45.1,4.2-55.5,5c0.1,0.3,0.2,0.6,0.2,0.8c0.4,1.1,4.9,4.2,5.2,6.1c0.2,1.9,3.1,2.5,4.3,3.5
		s1.4,5.5,0.4,7.5c-1.1,2-2.8,1.7-2.8,4.8s-1.6,3-3.4,3.9c-1.8,1-2.6,1-4,2.3c-1.3,1.3-4,0.2-6.2,0.7c-2.3,0.5-0.4,3.6-0.4,5.3
		c0,1.7,2.4,1.8,2.8,3.4c0.4,1.6-0.8,5.3-2,6c-1.2,0.7-0.5,1.1-0.5,3.5s-4.3,3.6-6,4.4c-1.7,0.8,0.1,1.2,0.6,2.2s0.4,2.2-0.8,3.5
		c-1.2,1.3-0.8,8.9-0.4,12c0.5,3.1,8.2,8.4,8.4,11s5.9,5,7.1,5.5c1.2,0.5,1.4,5.1,2.4,7.7c1,2.5,1.6,1.3,3,0.6
		c1.4-0.7,2.2-0.4,2.5,0.5c0.4,0.8,1.7,0.5,1.7-0.4c0-0.8,1.7,0,3.6,1.7c1.9,1.7,0,7.3-3.2,12.8s9.3,11.5,10.2,13.4
		c1,1.9,4.1,1.7,5.4,3.5c1.3,1.8,3.6,0.7,3.5,2.4c-0.1,1.7,1.7,3.8,2.8,6.3s-0.5,1.7-1.6,3c-1.1,1.3,2,3.2,3.1,5.9
		c1.1,2.6,4.8,1.1,5.3,1.6C161.9,358.2,170,360,172.1,361.8z"/>
	<path id="Mississipi" class="st0" d="M434.5,605.1c0-0.4,0.4-0.9-0.5-1.6c-0.3-0.2-0.6-0.6-0.8-1.1c-9.2,0.9-17.9,1.5-24.6,1.9
		c0,0-0.6,0.3-0.6,1.4c0,1.1-0.1,0.9-0.7,1c-0.5,0.1-1.2,0-1.3,1.1c-0.1,1.1-0.3,2.9-0.8,3.3c-0.5,0.4-0.6,1.2-0.6,2.1
		c0,0.9-0.2,1.4-1.1,1.7c-0.9,0.3-2.3,0.9-2.2,1.8c0.1,0.9,0.4,1.1,0,1.5c-0.4,0.4-0.3,0.7-0.1,1c0.3,0.3,0.1,0.9-0.7,0.9
		c-0.7,0-1.4-0.1-1.3,0.9s0.9,2.1,0.1,2.6c-0.9,0.5-0.9,1.5-0.9,2s0.5,1.7,0.1,2.1c-0.5,0.4-0.3,1.1,0.4,2.1
		c0.7,0.9,1.2,1.1,0.9,1.9c-0.3,0.8-0.6,1.1-0.3,1.8c0.3,0.7-0.5,0.2-0.1,1.7c0.3,1.5,0.7,1.4,0.9,2c0.2,0.6-1.1,1.6-0.6,2.1
		s-0.3,2.7,1.1,2.5c0,0,0.5,0.6,0.3,1.3c-0.2,0.7-0.8,0.7,0.3,1.3c1.1,0.5,1.7,1.1,1,1.3c-0.7,0.2-4.1,0.7-2.7,1.5
		c1.4,0.7,1.9,0.5,1.7,1.3c-0.2,0.7-1.3,2.8-1.7,3.1c-0.4,0.3-1.2,0.1-1,1c0.2,0.9,0.1,1.3-0.2,1.4c-0.3,0.1-1.1-0.1-1,0.5
		c0.1,0.7,0.5,1.2,0.1,1.3s-1.3,0.1-1.3,0.8s0.2,1.9-0.1,1.9c-0.3,0.1-0.7,0.6-0.5,1.1c0.3,0.5,0.3,1.9-0.2,2.1
		c-0.5,0.2-1.1,0.7-0.7,1.3c0.5,0.6,0.8,1.3,0.5,1.7c-0.3,0.3-0.4,0.5,0.2,0.6s23.1-1.2,23.1-1.2s1.2,0.3,0.7,0.8s-2.5,2.2-1.1,4
		c1.3,1.8,2,1.7,2.3,2.9s2.4,3.9,2.5,4.1c0.2-0.1,0.4-0.2,0.6-0.5c0.8-0.9,1-1.3,1.7-2s1.6-0.1,2.4-0.5s1.8-1.7,3-1.3
		s2.6,0.8,3.4,0.3s1.2,0.8,2,0.1c0.1-0.1,0.3-0.2,0.4-0.3l-2.7-21C434,650.7,434.5,605.5,434.5,605.1z"/>
	<path id="Texas" class="st0" d="M181.1,611.1c-0.2-0.1-0.4-0.2-0.3-0.5c0.1-0.3,0.3-0.5,0.7-0.8s0.2-0.8,0.4-1.1
		c0.2-0.3,0.4-0.2,0.4-0.5s0.1-0.7-0.1-1.1c-0.2-0.4-0.4-0.6-0.4-0.9c0.1-0.3,0.2-0.8,0.4-0.8s0.2-0.3,0-0.6
		c-0.1-0.3-0.8-0.1-0.3-0.6s0.6-0.3,0.9-1c0.3-0.7,0.4-1.2,0.3-1.5c0-0.3-0.1-0.7,0-1.1c0.1-0.4,0-1.1-0.3-1.6
		c-0.3-0.6-0.8-0.1-0.7-0.9c0-0.8-0.3-1.2-0.6-1.4c-0.3-0.3-0.6-0.2-0.5-0.7c0.1-0.4,0.3-0.5,0.1-1.1c-0.2-0.6-0.7-0.9-1-1.3
		c-0.3-0.4-0.8-0.7-0.8-0.7l-0.2-13c0,0-0.2-0.3-0.7-0.3s-0.9-0.1-1.1-0.1c-0.2,0-0.1,0.9-0.5,0.5c-0.4-0.3-0.1-1-0.6-1.1
		c-0.5,0-0.3,0.2-0.9,0.2c-0.6,0-0.9-0.3-1.1-0.5c-0.2-0.2-0.6,0-1.4-0.9c-0.7-0.8-1.1-1.1-1.5-1.1s-0.6,0.4-0.8,0.7
		c-0.2,0.2-0.5,0.7-1,0.3s-0.4-0.7-0.8-0.7c-0.3,0-1.1,0-1.2,0.5c-0.1,0.5-0.4,0.9-0.8,0.6c-0.4-0.3-0.2-0.7-0.8-0.5s-1.1,0.5-1.5,1
		c-0.3,0.4-0.6,0.9-1.1,0.6s-0.8-0.6-1.3-1.1s-0.9-1-1-0.6c-0.1,0.4-0.3,0.9-0.6,0.5c-0.3-0.4-0.5-0.6-0.7-0.8
		c-0.2-0.2-0.3-0.7-0.5-0.1c-0.2,0.6-0.3,0.5-0.3,1s-0.1,1.1-0.4,1c-0.2-0.1-0.6-0.1-0.5-0.7c0.1-0.5,0.3-0.9,0-0.9
		c-0.2,0-1.6-0.1-1.6,0.2c0,0.3-0.5,0.4-0.7,0.1s-0.3-0.6-0.9-0.7c-0.5-0.1-0.9,0-1.1,0.3c-0.2,0.3-0.8,1-1,0.5s0.1-1.1-0.2-1.2
		c-0.3-0.1-0.5,0-0.5-0.4c0-0.4,0.1-0.7-0.3-0.7c-0.5,0-0.9-0.1-1,0.1c0,0.2-0.4-0.2-0.6,0.3c-0.1,0.5-0.7,0.8-0.8,0.3
		c0-0.4,0-0.6-0.6-0.7c-0.6-0.1-1.1,0.4-1.6,0c0,0-0.2-0.6-0.9-0.5c-0.7,0.1-0.9-0.2-1.5-0.3s-0.4-0.8-0.6-1.3
		c-0.2-0.4-0.4-1-0.8-0.8c-0.4,0.1-0.1,0.8-0.8,0.6c-0.7-0.2-0.7,0.4-1.4-0.1s-0.7-1.2-1.3-1.6c-0.6-0.4-0.3-15.8-0.3-15.8l-19.9-1
		l-2.5,36.5c0,0,0,0.8-0.5,0.8s-24.4-2.1-24.4-2.1s-0.7-0.7,0.5,1.9c0.3,0,0.6,0.1,0.6,0.1c0.1,0,1.4,0.9,1.4,2.1s0.2,0.4,1.2,1.1
		c1,0.6,1.4,1,2.1,1.8c0.7,0.8,1,0.8,1.2,1.9c0.2,1.1,1.1,0.7,1.8,1.4c0.7,0.7,1,1.2,2.2,2c1.1,0.8,0.7,0.9,0.7,1.5
		c0,0.6-0.3,0.4,0.8,1.8c1.1,1.4-0.1,0.9-0.4,1.8c-0.3,0.9,0.8,2,1,2.9c0.2,0.8,0.7,0.9,1.4,1.2c0.7,0.2,0.4,0.4,0.8,1
		c0.4,0.6,1.5,1.1,2.1,1.1s1.5,1.4,1.9,1.2c0.3-0.1,2.3,1.3,3.3,2s0.6-0.6,1.5-1c0.8-0.4,0.8-1.4,1-2.1s0.7-1.3,0.9-1.7
		s-0.1-1.3,1.3-1.4c1.4-0.1,1.4-0.8,2.3-0.7c0.8,0.1,0.9,0.8,1.4,0.8s0.5-0.1,1.1-0.2c0.6-0.2,0.7,0.1,1.1,0.4
		c0.3,0.3,0.9,0.1,1.3-0.1c0.3-0.3,1.8,1.8,2.4,2.4c0.6,0.6,2,1.8,2.8,2.3s-0.2,0.8,1.6,3.4c1.8,2.7,1.2,3.1,1.7,3.7
		c0.5,0.6-0.4,0.8,0.4,1.2c0.8,0.4,2.5,2.7,2.9,3.3c0.4,0.6,0.3,1.3,1,1.4c0.7,0.1,0.9,0.6,1.3,1c0.4,0.3,0.1,0.3,0,0.9
		c-0.1,0.6-0.3,1,0.5,1.5c0.9,0.5-0.6,1.1,0,1.8c0.6,0.7,1.3,2.3,1.8,2.8c0.4,0.4-0.2,1.2,0.2,1.5s0.2,0.8,0.6,0.9
		c0.3,0,1,0.2,1.9,0.7s0.6,0.7,1.4,0.6c0.8-0.1,1,0.3,1.9,0.9c0.9,0.6,1.2,0.8,2,0.9c0.8,0.1,1,0.1,1.5-0.3c0.6-0.4,1.5,0.5,2.2,0.8
		c0.6,0.3,0.9,0.9,1.2,1.2s0.1,0.5,0.7,0.4c0.6-0.2,0.3-0.6,0.3-0.6s0.6-0.3,0.7-0.5c0.1-0.2,0.4,0,0.5,0v-0.1
		c-0.2-1-0.3-0.7-0.5-0.5c-0.1,0.2-0.1,0.7-0.3,0.4c-0.2-0.3,0.3-0.4,0-1c-0.4-0.6-0.4-0.4-0.6-1.3c-0.1-0.9-0.7-0.6-0.7-1.6
		s0.3-1.5,0-2c-0.4-0.5-0.7-0.8-0.6-1.1c0.1-0.4-0.2-0.3-0.3-0.7c-0.1-0.4-0.1-0.5,0.3-0.7c0.4-0.2,0.5-0.6,0.5-0.8s0.3,0.1,0.3,0.8
		c0,0.7,0.2,3,0.5,3.4c0.3,0.4,0.9,2,0.8,2.4c0,0.4,0.1,1.4,0.3,1.1c0.1-0.3,0.2-0.3,0-1c-0.2-0.8-0.4-1.9-0.7-3
		c-0.3-1.1-0.6-1.6-0.6-2.3c0-0.7-0.1-1-0.3-1.4c-0.1-0.4,0-0.5-0.3-0.8c-0.2-0.3-0.3-0.4-0.7-0.4s-0.6,0.3-0.9,0
		c-0.3-0.3-0.6-0.4-0.4-0.6c0.3-0.2,1-0.1,1.3,0.1c0.3,0.1,0.4,0.3,0.7,0.1s0.3-0.7,0.4-0.4c0.1,0.3-0.2,0.8,0.1,0.8
		s0.2-0.2,0.3-0.7c0.1-0.4,1.1-2.5,1.4-3c0.3-0.4,0.2-1-0.1-0.6c-0.3,0.3-0.6,0.5-0.6,0.8c0,0.4-0.1,0.8-0.3,0.9
		c-0.1,0.1-0.3,0.1-0.3-0.4c0-0.6,0.1-0.5-0.3-0.8c-0.4-0.4-0.9-0.2-0.9-0.6c0-0.4-0.3-0.6,0.1-0.6c0.4,0,0.8-0.1,1,0
		c0.2,0.1,0.1,0.5,0.4,0.6c0.3,0,0.2,0,0.5-0.5s1.3-1.8,0.9-1.8c-0.4,0-0.8,0.6-0.9,0.3c-0.1-0.4,0-0.8,0.3-0.8s0.7-0.4,1.1-0.1
		c0.4,0.3,0.4,0.4,0.6,0.2c0.3-0.2,1.3-1.3,0.9-1.4c-0.5-0.1-0.5-0.1-0.5-0.5c0-0.3,0-0.8,0.6-0.3c0.6,0.6,0.2,0.7,0.7,0.7
		c0.6,0,1.1-0.7,1-0.3c-0.1,0.4-1.9,1.4-1.8,1.7c0.1,0.3,0.4,0,0.8-0.3c0.4-0.3,2.3-1.4,1.9-1.6c-0.4-0.2,0.1-0.6-0.5-0.9
		c-0.7-0.3-0.3-0.4-0.7-0.7c-0.3-0.3-0.6-0.8-0.3-1c0.4-0.1,0.1,0.4,0.6,0.6s0.9,0.5,1.1,0.1c0.3-0.4,0.4-0.4,0.8-0.3
		c0.4,0.2,0.7,0.5,1.1,0.4c0.4-0.1,0.2,0.3-0.2,0.4c-0.4,0.1-0.6,0.7-0.5,0.7s1-0.5,1.8-0.9c0.8-0.4,1.3-0.7,1.1-0.9
		c-0.2-0.2-0.2-0.3,0.2-0.4c0.4-0.1,0.9-0.1,1.2-0.4s2.6-1.5,3-2.3s0-1.1,0.6-1.3c0.5-0.3,1.1-0.7,1.2-0.8c0.2-0.2,0.4-0.8,0.1-1.1
		c-0.3-0.3-0.2-0.4-0.5-0.8c-0.2-0.4-0.4-0.3-0.4-0.7c0.1-0.4-0.2-0.7,0.1-0.6c0.3,0.1,0.7,0.6,0.9,0.3s0.2-0.4,0.4-0.6
		s0.4-0.4,0.5-0.2c0.1,0.2,0.6,0.5,0.2,0.7c-0.3,0.1-0.4,0.5-0.3,0.6c0.1,0.1-0.4,0.1-0.2,0.4c0.1,0.3,0,0.3,0.5,0.3s0.7,0,0.4,0.1
		c-0.3,0.1-0.9,0.9-1,1.2c-0.1,0.3-0.4,0.6-0.7,0.8s-0.9,0.4-0.9,0.7c0,0.2-0.3,0.6,0.4,0.2c0.6-0.3,1.3-0.8,1.4-1.1
		c0.1-0.3,0.4-1,1.4-1.4c0.9-0.4,1.4-1,2.1-1.1c0.6-0.1,2.6-1,3.1-1.1c0.1,0,0.1,0,0.2,0V612C181.4,611.4,181.3,611.2,181.1,611.1z"
		/>
	<path id="Michigan" class="st0" d="M287.8,350.4c1.1,1.5,20.7-3.6,28.9-5.7c0-0.2,0.2-0.5,0.4-0.9c1.3-2.2,2.2-4.6,3.5-5.4
		c1.1-0.7,1.6-2.6,2.9-3.2c-0.6-1.8-1-3.5-1.3-4.4c-0.4-1.1,2-3.9,4.7-6.6c0-0.2-0.1-0.6-0.2-1.4c-0.4-2.2-1.4-2.4-0.4-4.1
		s-0.3-3.4,2.4-2.9c2.6,0.4,5.1,0.6,5.3,1.5c0.3-0.7-0.2-1-0.2-1c-0.2-2.5,0.2-7.2,0.8-12c-0.1,0.3,0,0.4-0.5-1
		c-0.7-2.1-0.9-0.9-2-4s-2.9-8.7-4-10.9c-1.2-2.1-2.7-6.3-3-8.4c-0.3-2.1-4.7-4.8-7-4.6c-2.2,0.2-6.1,2.8-6.8,4.3
		c0,0-0.4,0.9-1.2,0.6c-0.7-0.3-0.7,1.1-0.6,2.4c0.1,1.3-0.8,2.1-1.8,3.6s-2.4,2.7-2.9,3.6c-0.4,1-3.7,0.5-5.4-1.3
		c-1.7-1.9-2.1-6.6-0.5-7.7c1.6-1.2,3,0.4,4.1-2.1s1.4-4.2,1.4-5.2c0-1.1,0.2-3,1.6-3.6s1.8-0.2,2.2-2.3c0.4-2.1,0.7-3.5-0.3-5.5
		s-0.3-3.2-0.2-5.4c0.1-2.2-2.1-5.2-2.9-6c-0.8-0.7-2.6-2.2-1.3-3.1c1.3-0.9,2.8-2.8,2-3.4c-0.8-0.6-2.1-0.8-2.5-2s-1.3-2.8-3.1-3.3
		c-1.9-0.4-10.4-3.6-11.3-3.6c-1,0.1-1.4,0.4-2.1-1.2c-0.7-1.7-3.8-2-5.3-1.8c-1.4,0.2-3-0.3-3.7-1.2s-3.7-2.1-5.5-1.2
		c-1.9,0.9-3,3.7-3.7,4.1c-0.7,0.4-2.8,2.1-1.7,3.9c1.1,1.8,2.7,1.5,2.6,2.8s0,1.4-1.8,1.4s-3.2,0.5-3.8,1.5c-0.6,1-1.5-0.4-1.8,2.5
		c-0.3,2.8,0.5,5.7,0.6,8s-0.1,5.7-1.3,5c-1.2-0.7-0.3-3.8-1.1-4.2c-0.8-0.4-0.5,1.3-0.4,2.3s0.7,3.8-0.4,2.2s-1-3-0.8-5
		s0.2-5.1-0.2-5.7c-0.4-0.6-1.3-0.6-1.5,0.5c-0.2,1.2-1.3,4.1-2.3,5.1s0.6,3.4-2.1,2.7c-2.8-0.7-2-0.6-2.6,1.2
		c-0.6,1.9-1,4.4-1.8,4.5s-3.3,1.1-2.5,2.8c0.8,1.7,2,2.6,1.3,3.9c-0.6,1.3,1.1,6.2,0,7.5c-1.1,1.2-2.3,3.5-3.3,4.8
		c-1,1.3-3,2.8-1.6,4.1c1.4,1.3,2.2,2,2.1,4.2c-0.2,2.1,0.8,4.2-0.2,5.1c-1,0.9-0.3,4.9,0.6,6.2c0.9,1.3,2,2.7,3.5,5.2
		c1.5,2.6,7.4,17.5,4,26.6s-2.9,11.4-3.6,12.6c-0.7,1.2-2.9,5.5-5,7.5c-0.2,0.2-0.3,0.3-0.5,0.5l42.2-5
		C285.1,348.8,286.4,348.5,287.8,350.4z"/>
	<path id="Louisiane" class="st0" d="M229.6,579.9c0,0,1.8,0.9,2.8,2.3c1,1.4,2.8,2.4,3.6,4.6c0.8,2.2-0.1,2.4-0.4,4
		c-0.3,1.5,0.8,1.4,1.8,2.3c1,0.9,2.1,2.3,1.9,5c-0.1,2.7,1.5,1.3,2.6,3.2c1,1.9,1.3,4.1,0.9,5.6s-0.1,2.7,0,3.8
		c0.1,1.2-0.1,2.9-1.2,5.3c-1,2.3-1.3,1.7-3,3.3c-1.7,1.7,0.5,1.1,1,2.2c0.5,1,0.5,2.2-0.1,2.2s-1,1.8-1.3,2.7
		c-0.3,0.9,0.5,1.8,1.3,3.1s0.5,2.7,0.5,3.7s-0.6,0.8-1.4,1.7s-0.3,2.6-1.5,3.7c-1.3,1.2-1.9,1.9-2.4,2.9s0.4,1.4,1,1.8
		c0.6,0.4,0.9,1,0.9,1l0.1,0.2c1.4-0.4,2.3-1.6,5.2-1.7c3.3-0.1,6.2,0.2,6.5-0.8s-0.8-2.8-1-2.8c-0.2-0.1,1.3,0.1,1.4-1
		c0.1-1-0.5-1.4-0.1-2.4s0.6-2.8,1.3-1.1c0.6,1.7,1.3,2.1,1.5,2.6s0.3,1.2-0.8,1.3c-1,0.2-2.3,0.1-1.3,1.5c1,1.3-0.1,1.9,1.1,1.9
		c1.2,0.1,12.2,3.1,14.3,4.3c2.1,1.2,15.8,2.6,15.4-1.7c-0.5-4.3-3.2-2.4-1-3.6c2.3-1.2,1.9-0.3,3.2-1.1c1.2-0.8,3-1.9,3-0.3
		c0,1.6,0,3.3,1.5,2.5s0.4-2.9,2.6-1.3c2.3,1.6,2.8,1.6,3.2,3.4c0.5,1.8,0.7,2.4,2.1,2.4c1.4,0.1,4.4,0.8,5.3,1.3
		c0.9,0.4,1.4,0.7,2.4,1.5c1.1,0.8,0.7,1.8-0.6,1.8c-1.3,0-2.8,0-2.1,1.3c0.7,1.3,0.7,2.1,2.6,2.4c1.9,0.3,2.2-0.4,4.1,0.3
		c1.9,0.6,0.6,1.4,3.3,1.9c2.7,0.5,6.6,1.1,7.4-0.5s-1-3.1,0.2-4c1.2-1,5.4-0.7,5.8-0.1c0.4,0.6,0.9,1.3,1.8,0.8s1.5-0.6,1.4,0.6
		c-0.1,1.3-1.3,2.8,0.2,3.1s3.5,1.7,4-0.7c0.4-2.4,0.4-4,1-4.9c0.6-0.9,0.9-1.1,0.3-2.6s-1.1-1.2-2.8-2.2c-1.7-1.1-3.1-3.1-1.6-2.8
		c1.5,0.3,1.5,0.4,3.7,1.3c2.3,0.8,4.1,1,5.2,1.6c1.1,0.6,2.2,2,1.2,2.2c-1,0.3-2,0.7-0.3,1s2.9-0.4,3.5,0.2
		c0.6,0.6-0.4,1.8,1.2,2.1c1.6,0.3,4.2-1.5,4.2-0.6c0,0.8-0.3,1.5,0.6,2.6c1,1.1,1.7,0.4,2.1,1.2s1.1,1.2,0.2,2.2s-1.4,1.4-1,2.3
		c0.4,0.9-0.3,2.8,1.1,1.1s1.7-3.3,2.4-4.2c0.7-1,0.8-0.8,1.1,0.1c0.3,0.9,1,2.2,1.6,1.5c0.6-0.8,0.5-0.8,1-2.5s0.6-0.7,1.5-2
		s0.6-2.7-1-3.4c-1.5-0.7-0.9-1.7-3.1-2.1c-2.2-0.4-2.6,0.1-4.9-1c-2.3-1-3.1-0.5-5.1-2.2c-1.9-1.7-3.5-1.7-3.1-2.8
		c0.4-1,1.9-1.9,3.1-1.7c1.2,0.3,3.1-0.1,1.9-0.6s-3.6-0.3-3.1-1.3s1.5-2,2.7-2.1c1.2-0.1,2.5,1.3,3,0.3s0.5-1.4,0-3.1
		c-0.4-1.7-1.8-0.9-1.9-2.2c-0.1-1.3,0.5-3.2-0.7-3.7c-1.2-0.4-2.3,1.3-2.3,1.3s-1.1,2.6-1.1,3.1s0.3,1.6-0.7,1.3s-1.9,0.6-2.1-1.1
		c-0.1-1.7-2.3-0.6-1.7-1.8c0.5-1.1,1.9-1.5,2.5-2.3s-0.8-1.6-1.4-1.6s-3.3-1-4.4-0.2s-2.9,2.5-1.7,3.7c1.2,1.2,2.8,3.2,0.7,2.4
		c-2.1-0.9-2.6-3.3-3.9-3.3c-1.3-0.1-1.9,0.3-2.9-0.2s-3.3,2-3.8-0.8s2.2-5.6,3.2-6.7c0.9-1.1-0.9-2.3,2.5-0.5s1.7,1.3,4.9,2.5
		c3.2,1.2,2.8,1.4,4.8,2c2,0.5,2.9,0.9,4.3,0.4c0.9-0.3,1.3,0,2-0.2c-0.2-0.5-4.2-5.6-4.9-7.9c-0.6-2.3-1.9-2-4.5-5.5
		s1.3-6.8,2.2-7.7c0.9-0.9-1.4-1.5-1.4-1.5s-43.2,2.6-44.4,2.3c-1.2-0.3-0.9-0.5-0.4-1.2c0.5-0.6-0.1-2-1-3.2s0.4-2.1,1.3-2.4
		c0.9-0.4,0.9-3.1,0.4-4.1s0.3-2,0.9-2.2c0.6-0.1,0.3-2.3,0.3-3.7c0-1.4,1.8-1.3,2.6-1.5c0.8-0.3,0-1.3-0.1-2.6s1.4-0.9,1.9-1
		c0.5-0.1,0.8-0.9,0.4-2.7s1.2-1.4,1.9-1.9c0.8-0.5,2.8-4.5,3.2-5.9c0.4-1.4-0.6-1-3.3-2.4c-2.7-1.4,4-2.4,5.3-2.8
		c1.3-0.4,0.3-1.5-1.9-2.6c-2.2-1-1-1.1-0.6-2.4s-0.6-2.4-0.6-2.4c-2.8,0.3-1.2-3.8-2.2-4.9c-1-1,1.5-2.9,1.2-4.1
		c-0.4-1.1-1.1-0.9-1.7-3.3l-68.7,2.1L229.6,579.9z"/>
	<path id="Southampton" class="st0" d="M669,608.9l-1.3-1.7c0,0-1.5,0.3-1.9,0.7c-0.5,0.5,0.2-2.5,0.2-2.5s0.6-0.6,1,0.1
		c0.5,0.6,1.5,1.9,4.3-2.2l0.5-3c0,0,0.9-0.1,1.1,0.5l0.2,2.3c0,0,1.2,3,1.7,3s0.6-1.3,1-1.4c0.4-0.1,2,1.3,2.3,0.7
		c0.3-0.6,1.3-1.4,2.4-0.9c1.1,0.5,3.5,1.2,4.9,0.8c0,0,0.4-2.2,2-2.6c0,0,2.7,0.8,3-1.1l1-1.6c0,0,2.1,1.9,3,2.2
		c0.8,0.3,1.2,0,1.2,0l2.4,1.9c0,0,0.8,0,1.8,1.4c0.9,1.4,2.1,1.6,2.1,1.6s6.7-0.1,7.9,0.3l1.6-1.5h1.1c0,0,0.9-0.2,0.8,1.4l0.1,0.8
		l-1.7,1.4l0.9,1.1c0,0,0.2,0,0.1,1.3l-4.3,0.2l-2.7,3c0,0-0.5,1.2,0.8,0.6c1.3-0.6,8.1-5.3,10.5,0.9c0,0,1.6,2.8,1.1-1.7
		c0,0,0.3-3.9,5.7,2.4c0,0,3.8,3.5,3,0.2l2.5-1.1l1.9-0.1l2,1.8v1.2l-1,0.7l-0.6,1.4h-2.3l-0.6,3.9l3.1,4.5c0,0,0.4,2.6,1,2.6
		c0,0,0.4,1-1.8,2v5.2l-7.5,3.5c0,0,0.6,3.8-2.4,4.3c0,0-1.3-1-1.9,1.6c0,0-3-0.1-3,1.7c0,0-4.2,0.6-4.6-0.9c0,0-0.7-1.5-2.7-0.1
		c0,0-5.1-0.5-4.7-3.6l0.6-1.1l-0.2-2.4h0.8l-0.2-3.7c0,0-2.7-2.6,1.3-3.9c4-1.4,3.6-3,3.6-3s0.3-4-5.3-4s2.2-2.4,1.7-2.9
		c0,0,2.6-1.3,0.2-4.7c0,0-1-0.6-0.5,2.2c0.6,2.8-3.6,1.3-4.5,3.4c-0.9,2.1-0.2,4.1,3.2,4.2c3.4,0.1,2.6,2.5,1.3,2.6
		c-1.3,0.1-5.4,1.3-3.5,6.9l-0.4,3.6c0,0-1-1.6-1.7-0.4s0.5,1.7,1,1.9s-0.8,2.9-0.8,2.9l-0.2,0.2l-1.5-2.4c0,0-0.7-0.9-0.3,2
		l1.5,1.3l-0.4,3c0,0-0.5,0.7-1.2-1.2c-0.8-2-1.6-1.9-1.6-1.9l-0.1-1l0.7-1.1l0.4-2.2l-0.5-0.3l-1.1,2.3l-0.5-1.8l-1.4-2.3l-0.1,2.9
		h-0.8l-0.2-2.3l-2.6-2.6l-4.5-2.4l-7.3-3.7c0,0-2.4-1.3-3.8,3H673c0,0-9-5.5-9-10.6l-2.4-3.4c0,0,3,0,4.2-1.2c0,0,0.2-1.5-0.8-2.2
		l-0.1-1l2.7,0.3v-0.7l-1.8-1.5c0,0-1.9-0.8,1.1-2.2v-0.8l-2.4-0.3c0,0,1.6-2.4,1.9-2.2c0.4,0.2,2.4-2.7,2.4-2.7L669,608.9z"/>
	<path id="Ohio" class="st0" d="M410.8,259.9c-0.2-1-0.4-2-0.5-2.6c-0.1-0.4,0.5-0.4,1-0.4l-4.3-22.5c-3.4,1.9-8.4,5.3-9.3,6.6
		c-1.1,1.6-3.6,4.4-4.8,4.4c-1.3,0-3.6,0-4.3,0.8c-0.8,0.8-4.3,2.2-5,1.6c-0.7-0.6-2.2-0.7-2.3-0.5c0,0.3-1.2,0.5-1.8,0.7
		c-0.6,0.3-1-0.6-0.5-0.8s1.9-0.1,1.7-0.6c-0.2-0.6-0.5-0.9-1.3-0.5c-0.8,0.4-0.6,1-1.2,0.3s-0.7-0.5-2.1-1
		c-1.5-0.5-1.4-0.3-2.5-0.9c-0.9-0.5-1.9-0.2-1.8-0.8c-4.6,1.2-15.7,4.1-16.3,3.2l-0.1-0.1l5.3,43.1c0.2-0.3,0.4-0.5,0.8-0.5
		c0.9,0,1.9,0.2,3,0.4c1.1,0.3,1.3-1,2.2,0.3c0.8,1.2,1,2,1.8,2.5s0.2,1.8,2,2c1.7,0.2,3.3-0.8,3.9,0c0.6,0.7,2.3,2.1,3.1,1.8
		c0.9-0.3,0.6-1.9,1.7-1.6s1.4,0.9,2.1,0.8c0.7,0,1.1-0.3,1.2-0.7c0.2-0.4,0.7-0.3,1-0.2s0.6-0.5,0.7-0.7c0.1-0.2,0.8-0.5,0.8-0.5
		l0.8-0.7l0.5,0.4c0,0,0,0.1,0.2,0.5c0.1,0.4,0.5,0.7,0.9,0.8s0.1,0.3,0.5,0.7c0.4,0.5,1.3,0.7,1.8,0.8c0.6,0.1,0.5,0.6,0.7,1.1
		c0.1,0.2,0.6,0.6,1.1,0.9c0.4-0.2,1-0.4,1.6-0.4c1-0.2,0.9-0.4,0.9-1.7c0-1.2,0.5-0.9,1.2-1.2c0.8-0.3,0.4-1.7,0-2.5
		c-0.4-0.8,0.3-2,0.2-3c-0.1-1,0.8-2.3,1.2-2.8c0.5-0.5,1.5,0.8,2.3,1.3s0.2-3.5-0.2-4.7c-0.3-1.2,1.4-1.4,2.2-1.8
		c0.8-0.4,0.7-1.4,0.9-2.6c0.2-1.1,1.1-0.3,2,0.3s1.1,0.1,2.1-0.2c1-0.2,2.2-2.7,2.9-3.7c0.8-1,0.5-3.1,0.3-5.2
		c-0.2-2.1,0.9-1.4,1.4-1.8c0.5-0.5-0.1-3.3-0.1-4.7c-0.1-1.4,0.1-0.9,0.7-1.1C411.7,262.3,411,261,410.8,259.9z"/>
	<path id="Maryland" class="st0" d="M331.8,442c-0.7-1.2-1.7-2-0.4-2.9c1.3-0.9,0.6-0.9,2.3-2.6c1.2-1.3,1.5-2.1,1.6-3.1
		c-2.2-0.7-5.3-0.9-8.1-1.3c-4-0.6-6.5-0.6-6.9-1.3c-0.4-0.7-2.2-9.9-2.3-12.4c-0.2-2.5-2.4-9.3-3.8-12.5c-1-2.3-1.4-4.1-1.4-5.1
		L241,414.4l2.1,13.1l6.8-7.7c0,0,2.3-1,2.5-0.1s0.7-0.1,1-0.7s1.7-5.4,2.3-4.6c0.6,0.8,0.6,1.7,2.8,1.9c2.2,0.2,2.3-1.9,3.5-2.5
		c1.2-0.5,2.5-0.9,3.1-1.5s2-1.5,3-1s2.3,0.5,3.8,0.5s2.6,1,3,2.2c0.3,1.2,2.3,4.1,2.3,4.1s4.5-0.7,4.7,0.5s0.4,4,1,4.5
		s3.3-0.3,4.6,0.6c1.3,0.9,5.4,2.6,5.5,4.4c0.2,1.9,0.6,3.4-0.7,5.7c-1.3,2.2-2.6,5.2-1.9,6.4c0.8,1.2,3,1,4.1-0.1s3-0.6,3.5,0.1
		s-1.1,1,0.3,1.7s3.9,1.5,5.8,1.9c1.8,0.3,4-0.7,4.8-0.3c0.2-1,0.6-1.6,0.1-3c-0.6-1.9,0.1-2.5-0.8-4.3c-0.9-1.9-1.7-1.4-2.2-3
		s-1.9-3.3-2-5.7c-0.2-2.3-0.1-4.7-0.3-6.6c-0.2-1.9,0.4-3.2-0.9-3.7c-1.2-0.5-2.6-3.6-1.9-3.3c0.7,0.3,1.3,1.2,1.9-0.1
		c0.6-1.3,1.9-2.9,2.3-3c0.4-0.2,0.9-0.3,2-1s2.1-1.4,1.9-2.1s0.8-1.5,0.8-0.4s-0.3,2.5,0.4,2.5c0.7,0,1.5,0.5,0.4,0.8
		s-5.6,1.1-4.9,2.6s0.2,5.1,1.5,5c1.3-0.2,1.6-0.2,1.4,0.9c-0.2,1.2-1.4,0.9-2,2s-2.8,2.4-1.1,2.6c1.7,0.2,2.7-1.9,3.1-1.2
		c0.4,0.6,1.6,1,0.8,1.9c-0.9,0.9-1.8,0.3-1.9,1.2c-0.1,0.9-0.8,1.6,0.5,1.9s1.9-0.9,2.6,0c0.7,0.8,1.9,1.1,0.9,1.8
		c-0.9,0.7-2-0.2-2.3,1.3s-1,2,0.5,2.2s1.9-0.2,2,1.1c0.2,1.2,0,0.6-0.2,2.5s-0.5,2.5,1.2,2.6c1.6,0.2,2.5-1.3,2.8-1.9
		c0.3-0.5,1.1-1.9,2.7,0.7s2.6,2.9,2.1,4.8s-0.9,1.3,0.3,2.1c1.2,0.8,1.9,0.8,2.5,0.5c0.5-0.2,0.9,0.5,1,2s-1.7,5.4-1.8,7.1
		c-0.1,1.7-0.7,3.3-0.5,6s-0.5,3.7,0.8,5s2,1.9,2.1-1s-0.5-5.1,0.3-6s1.1-0.8,1.1-2.2c0-1.4,2.8,1.1,2.4-1.4s-0.6-4.7,0.3-6.3
		c0.9-1.5,0.1-2.8,2.1-3.6c2-0.8,2.7-1.2,2.6-2C333.6,442.2,332.5,443.2,331.8,442z"/>
	<path id="Caroline_du_nord" class="st0" d="M747,493.3c-0.6-0.6-0.9-1-1.4-1.8s-1.2-2.3-1.6-2.8c-0.4-0.5-0.5-1.2-1.2-2.3
		c-0.2-0.3-0.3-0.5-0.4-0.6c-4.1,1-28.9,6.9-50.5,9.7c0,0-1.8,0.4-2.4,0.2c-0.1-0.1-0.4-0.1-0.7-0.1c0.1,0.8,0.2,2-0.2,2.7
		c-0.6,1.1-0.9,0.5-1.3,1.6c-0.4,1.1-1.6,2.7-1.7,2.2c-0.1-0.5-1.1-1.5-2.2-0.5c-1,1-0.1,2.4-1.4,2.6c-1.3,0.1-0.7-1-1.3-1
		s-0.1,0.6-0.5,1.1c-0.4,0.6-1.6,0.3-1.6,0.9s-0.1,1.7-1,1.7c-1,0.1-2.9,2.4-3.6,3.2c-0.8,0.8-1.5-0.6-2.9,0.6
		c-1.4,1.1-2,0.3-1.9,1.2c0.1,0.8,0.5,1.6-0.1,2.1s-2.2,0.3-2.2,0.8c0,0.3,0,1.6-0.1,2.7c6.2-0.7,10.5-1.2,11-1.2
		c1.9-0.1,2.2-0.8,3.4-1.5s4.7-2.5,5.6-2.6c0.8-0.1,10.3-1.5,10.3-1c0,0.4-0.6,0.7,0.6,0.8c1.1,0.1,1.4-0.1,1.8,0.3
		c0.4,0.4,1,2.4,1,2.4l10.9-1.8l12,9.1c0.2-0.1,0.5-0.3,0.8-0.4c1.3-0.4,1-0.4,2.4-0.6s2.2,0.3,2.3-1.5s3.3-6.1,4-6.6s0.1-0.7,0-1
		c-0.1-0.3-0.2-0.9,0-1s0,0.1,0.2,0.5s0.8,0.8,0.9,0.5c0.1-0.3,0.6-0.8,0.7-1.4c0.1-0.6,0.4-1,0.7-0.7s1,0.5,1.3,0.3
		s1.5-0.5,1.9-0.7c0.3-0.2,0-0.8,0.2-1.1c0.2-0.3,0.1,0.2,0.8,0.1c0.8-0.1,0.6-0.5,0.9-0.2c0.3,0.4,0.1,0.9,0.3,1.2
		c0.2,0.3,0.1,0.6,0.5-0.5s1-2.3,1.5-2.7c0.4-0.4,0.2-0.8-0.2-0.6c-0.4,0.2-0.5,0.6-0.5-0.1s0.4-1.6-0.1-1.2
		c-0.5,0.5-0.5,1.7-0.9,1.3c-0.4-0.5-0.4-0.5-0.4-1c0-0.6-0.5-1.4-0.5-0.5c-0.1,0.9,0.2,1.3-0.5,1.5s-0.8,0.6-1.6,0.7
		c-0.9,0.1-1.7,0.1-1.2-0.1c0.6-0.2,1,0.2,1.5-0.7c0.5-0.9,0.4-1,0.8-1.8c0.4-0.8,1.3-1,0.6-1.4s-0.4-0.3-1.6-0.7
		c-1.2-0.4-2.6-0.5-2.1-0.7s1.1,0.1,1.7-0.2c0.6-0.3,0.2-0.9,0.8-0.7c0.6,0.2-0.1,0.3,1.5,0.5s1.7,0.3,2,0.2c0.3,0,1.7-1,1.9-2.7
		c0.1-1.6,0.4-0.9,0.8-0.9c0.4,0,0.8,0,0.7-0.7s-0.3-1.5-0.4-2.3c0-0.8-0.7-0.9-0.9-0.9c-0.2-0.1-0.9-0.2-0.9,0.3s-0.8,0.2-0.5,0.8
		c0.3,0.6,0.7,1.3,0.1,1.8c-0.6,0.5-1,0.6-0.8-0.5s0.9-1.3,0.3-1.9c-0.6-0.6-0.7-1.1-1.2-0.7s-1.3,0.4-1.4,1
		c-0.1,0.6-1.4-0.8-1.6-0.3c-0.2,0.5-0.8,1.3-1.7,0.9s-1.4-1-1.5-1.5s0.1,0.1,0.8,0.3c0.7,0.1,0.7,0.5,1.2,0.2s1.3-0.1,1.6-0.8
		c0.4-0.7,0.8-0.9,1.6-1s1.5-0.7,0.9-1s-0.7-1.1,0-0.7s1.3,0.9,1.6,0.7c0.3-0.2,0.3,0,0.6,0.1c0.2,0.2,1,0.6,0.4-0.1
		c-0.7-0.7-0.7-1.6-1.2-2.1s-1.1-0.6-1.3-1.2s-0.5-1.4,0.3-1c0.7,0.4,0.9,0.3,1.2,1.3c0.3,0.9,0.8,1.3,1.1,1.8s0.5,1,1.1,2
		s1,1.6,1.4,2C746.8,493.6,747.5,493.9,747,493.3z"/>
</g>
<g id="genre">
	<g id="Mersey_Beat_Circle">
		<g id="XMLID_912_">
			<g id="XMLID_919_" class="st1">
				<g id="XMLID_920_">
					<path id="XMLID_922_" class="st2" d="M864.3,247.6c0,13.6-11,24.6-24.6,24.6s-24.6-11-24.6-24.6c0-13.6,11-24.6,24.6-24.6
						S864.3,234,864.3,247.6"/>
					<rect id="XMLID_921_" x="815.1" y="223" class="st3" width="49.2" height="49.2"/>
				</g>
			</g>
		</g>
		<circle id="XMLID_910_" class="st4" cx="839.7" cy="247.6" r="21"/>
	</g>
	<g id="Mersey_Beat_Circle_1_">
		<g id="XMLID_6_">
			<g id="XMLID_7_" class="st1">
				<g id="XMLID_8_">
					<path id="XMLID_10_" class="st2" d="M806.8,230.6c0,13.6-11,24.6-24.6,24.6s-24.6-11-24.6-24.6c0-13.6,11-24.6,24.6-24.6
						S806.8,217,806.8,230.6"/>
					<rect id="XMLID_9_" x="757.6" y="206" class="st3" width="49.2" height="49.2"/>
				</g>
			</g>
		</g>
		<circle id="XMLID_5_" class="st4" cx="782.2" cy="230.6" r="21"/>
	</g>
	<g id="Mersey_Beat_Circle_2_">
		<g id="XMLID_12_">
			<g id="XMLID_13_" class="st1">
				<g id="XMLID_14_">
					<path id="XMLID_16_" class="st2" d="M808.5,302.6c0,13.6-11,24.6-24.6,24.6s-24.6-11-24.6-24.6s11-24.6,24.6-24.6
						C797.5,278,808.5,289,808.5,302.6"/>
					<rect id="XMLID_15_" x="759.3" y="278" class="st3" width="49.2" height="49.2"/>
				</g>
			</g>
		</g>
		<circle id="XMLID_11_" class="st4" cx="783.9" cy="302.6" r="21"/>
	</g>
	<g id="Mersey_Beat_Circle_3_">
		<g id="XMLID_18_">
			<g id="XMLID_19_" class="st1">
				<g id="XMLID_20_">
					<path id="XMLID_22_" class="st2" d="M863.3,385.4c0,13.6-11,24.6-24.6,24.6s-24.6-11-24.6-24.6s11-24.6,24.6-24.6
						S863.3,371.8,863.3,385.4"/>
					<rect id="XMLID_21_" x="814.1" y="360.8" class="st3" width="49.2" height="49.2"/>
				</g>
			</g>
		</g>
		<circle id="XMLID_17_" class="st4" cx="838.7" cy="385.4" r="21"/>
	</g>
	<g id="Mersey_Beat_Circle_4_">
		<g id="XMLID_24_">
			<g id="XMLID_25_" class="st1">
				<g id="XMLID_26_">
					<path id="XMLID_28_" class="st2" d="M922.5,410c0,13.6-11,24.6-24.6,24.6s-24.6-11-24.6-24.6s11-24.6,24.6-24.6
						S922.5,396.4,922.5,410"/>
					<rect id="XMLID_27_" x="873.3" y="385.4" class="st3" width="49.2" height="49.2"/>
				</g>
			</g>
		</g>
		<circle id="XMLID_23_" class="st4" cx="897.9" cy="410" r="21"/>
	</g>
	<g id="Mersey_Beat_Circle_5_">
		<g id="XMLID_30_">
			<g id="XMLID_31_" class="st1">
				<g id="XMLID_32_">
					<path id="XMLID_34_" class="st2" d="M943.5,507.7c0,13.6-11,24.6-24.6,24.6s-24.6-11-24.6-24.6c0-13.6,11-24.6,24.6-24.6
						C932.5,483.1,943.5,494.1,943.5,507.7"/>
					<rect id="XMLID_33_" x="894.3" y="483.1" class="st3" width="49.2" height="49.2"/>
				</g>
			</g>
		</g>
		<circle id="XMLID_29_" class="st4" cx="918.9" cy="507.7" r="21"/>
	</g>
	<g id="Mersey_Beat_Circle_6_">
		<g id="XMLID_36_">
			<g id="XMLID_37_" class="st1">
				<g id="XMLID_38_">
					<path id="XMLID_40_" class="st2" d="M943.5,575.5c0,13.6-11,24.6-24.6,24.6s-24.6-11-24.6-24.6c0-13.6,11-24.6,24.6-24.6
						S943.5,561.9,943.5,575.5"/>
					<rect id="XMLID_39_" x="894.3" y="550.9" class="st3" width="49.2" height="49.2"/>
				</g>
			</g>
		</g>
		<circle id="XMLID_35_" class="st4" cx="918.9" cy="575.5" r="21"/>
	</g>
	<g id="Mersey_Beat_Circle_7_">
		<g id="XMLID_42_">
			<g id="XMLID_43_" class="st1">
				<g id="XMLID_44_">
					<path id="XMLID_46_" class="st2" d="M920.3,639.5c0,13.6-11,24.6-24.6,24.6s-24.6-11-24.6-24.6c0-13.6,11-24.6,24.6-24.6
						S920.3,625.9,920.3,639.5"/>
					<rect id="XMLID_45_" x="871.1" y="614.9" class="st3" width="49.2" height="49.2"/>
				</g>
			</g>
		</g>
		<circle id="XMLID_41_" class="st4" cx="895.7" cy="639.5" r="21"/>
	</g>
	<g id="Mersey_Beat_Circle_8_">
		<g id="XMLID_48_">
			<g id="XMLID_49_" class="st1">
				<g id="XMLID_50_">
					<path id="XMLID_52_" class="st2" d="M879,595c0,13.6-11,24.6-24.6,24.6s-24.6-11-24.6-24.6c0-13.6,11-24.6,24.6-24.6
						S879,581.4,879,595"/>
					<rect id="XMLID_51_" x="829.8" y="570.4" class="st3" width="49.2" height="49.2"/>
				</g>
			</g>
		</g>
		<circle id="XMLID_47_" class="st4" cx="854.4" cy="595" r="21"/>
	</g>
	<g id="Mersey_Beat_Circle_9_">
		<g id="XMLID_54_">
			<g id="XMLID_55_" class="st1">
				<g id="XMLID_56_">
					<path id="XMLID_58_" class="st2" d="M824.3,605.5c0,13.6-11,24.6-24.6,24.6s-24.6-11-24.6-24.6c0-13.6,11-24.6,24.6-24.6
						S824.3,591.9,824.3,605.5"/>
					<rect id="XMLID_57_" x="775.1" y="580.9" class="st3" width="49.2" height="49.2"/>
				</g>
			</g>
		</g>
		<circle id="XMLID_53_" class="st4" cx="799.7" cy="605.5" r="21"/>
	</g>
	<g id="Mersey_Beat_Circle_10_">
		<g id="XMLID_60_">
			<g id="XMLID_61_" class="st1">
				<g id="XMLID_62_">
					<path id="XMLID_64_" class="st2" d="M820.7,537.2c0,13.6-11,24.6-24.6,24.6s-24.6-11-24.6-24.6c0-13.6,11-24.6,24.6-24.6
						C809.7,512.6,820.7,523.6,820.7,537.2"/>
					<rect id="XMLID_63_" x="771.5" y="512.6" class="st3" width="49.2" height="49.2"/>
				</g>
			</g>
		</g>
		<circle id="XMLID_59_" class="st4" cx="796.1" cy="537.2" r="21"/>
	</g>
	<g id="Mersey_Beat_Circle_11_">
		<g id="XMLID_66_">
			<g id="XMLID_67_" class="st1">
				<g id="XMLID_68_">
					<path id="XMLID_70_" class="st2" d="M882.6,527.5c0,13.6-11,24.6-24.6,24.6s-24.6-11-24.6-24.6c0-13.6,11-24.6,24.6-24.6
						S882.6,513.9,882.6,527.5"/>
					<rect id="XMLID_69_" x="833.4" y="502.9" class="st3" width="49.2" height="49.2"/>
				</g>
			</g>
		</g>
		<circle id="XMLID_65_" class="st4" cx="858" cy="527.5" r="21"/>
	</g>
	<g id="Mersey_Beat_Circle_12_">
		<g id="XMLID_72_">
			<g id="XMLID_73_" class="st1">
				<g id="XMLID_74_">
					<path id="XMLID_76_" class="st2" d="M721.9,626.4c0,13.6-11,24.6-24.6,24.6s-24.6-11-24.6-24.6c0-13.6,11-24.6,24.6-24.6
						C710.9,601.9,721.9,612.9,721.9,626.4"/>
					<rect id="XMLID_75_" x="672.8" y="601.9" class="st3" width="49.2" height="49.2"/>
				</g>
			</g>
		</g>
		<circle id="XMLID_71_" class="st4" cx="697.4" cy="626.4" r="21"/>
	</g>
	<g id="Mersey_Beat_Circle_13_">
		<g id="XMLID_78_">
			<g id="XMLID_79_" class="st1">
				<g id="XMLID_80_">
					<path id="XMLID_82_" class="st2" d="M737.2,500.5c0,13.6-11,24.6-24.6,24.6s-24.6-11-24.6-24.6s11-24.6,24.6-24.6
						S737.2,486.9,737.2,500.5"/>
					<rect id="XMLID_81_" x="688" y="475.9" class="st3" width="49.2" height="49.2"/>
				</g>
			</g>
		</g>
		<circle id="XMLID_77_" class="st4" cx="712.6" cy="500.5" r="21"/>
	</g>
	<g id="Mersey_Beat_Circle_14_">
		<g id="XMLID_84_">
			<g id="XMLID_85_" class="st1">
				<g id="XMLID_86_">
					<path id="XMLID_88_" class="st2" d="M753.9,377.5c0,13.6-11,24.6-24.6,24.6s-24.6-11-24.6-24.6s11-24.6,24.6-24.6
						S753.9,363.9,753.9,377.5"/>
					<rect id="XMLID_87_" x="704.7" y="352.9" class="st3" width="49.2" height="49.2"/>
				</g>
			</g>
		</g>
		<circle id="XMLID_83_" class="st4" cx="729.3" cy="377.5" r="21"/>
	</g>
	<g id="Mersey_Beat_Circle_15_">
		<g id="XMLID_90_">
			<g id="XMLID_91_" class="st1">
				<g id="XMLID_92_">
					<path id="XMLID_94_" class="st2" d="M695.2,359.2c0,13.6-11,24.6-24.6,24.6s-24.6-11-24.6-24.6s11-24.6,24.6-24.6
						S695.2,345.6,695.2,359.2"/>
					<rect id="XMLID_93_" x="646" y="334.6" class="st3" width="49.2" height="49.2"/>
				</g>
			</g>
		</g>
		<circle id="XMLID_89_" class="st4" cx="670.6" cy="359.2" r="21"/>
	</g>
	<g id="Mersey_Beat_Circle_16_">
		<g id="XMLID_96_">
			<g id="XMLID_97_" class="st1">
				<g id="XMLID_98_">
					<path id="XMLID_100_" class="st2" d="M695.2,281.6c0,13.6-11,24.6-24.6,24.6s-24.6-11-24.6-24.6s11-24.6,24.6-24.6
						S695.2,268,695.2,281.6"/>
					<rect id="XMLID_99_" x="646" y="257" class="st3" width="49.2" height="49.2"/>
				</g>
			</g>
		</g>
		<circle id="XMLID_95_" class="st4" cx="670.6" cy="281.6" r="21"/>
	</g>
	<g id="Mersey_Beat_Circle_17_">
		<g id="XMLID_102_">
			<g id="XMLID_103_" class="st1">
				<g id="XMLID_104_">
					<path id="XMLID_106_" class="st2" d="M664.2,214.6c0,13.6-11,24.6-24.6,24.6s-24.6-11-24.6-24.6c0-13.6,11-24.6,24.6-24.6
						S664.2,201,664.2,214.6"/>
					<rect id="XMLID_105_" x="615" y="190" class="st3" width="49.2" height="49.2"/>
				</g>
			</g>
		</g>
		<circle id="XMLID_101_" class="st4" cx="639.6" cy="214.6" r="21"/>
	</g>
	<g id="Mersey_Beat_Circle_18_">
		<g id="XMLID_108_">
			<g id="XMLID_109_" class="st1">
				<g id="XMLID_110_">
					<path id="XMLID_112_" class="st2" d="M595.2,192c0,13.6-11,24.6-24.6,24.6S546,205.6,546,192c0-13.6,11-24.6,24.6-24.6
						S595.2,178.4,595.2,192"/>
					<rect id="XMLID_111_" x="546" y="167.4" class="st3" width="49.2" height="49.2"/>
				</g>
			</g>
		</g>
		<circle id="XMLID_107_" class="st4" cx="570.6" cy="192" r="21"/>
	</g>
	<g id="Mersey_Beat_Circle_19_">
		<g id="XMLID_114_">
			<g id="XMLID_115_" class="st1">
				<g id="XMLID_116_">
					<path id="XMLID_118_" class="st2" d="M614,256c0,13.6-11,24.6-24.6,24.6s-24.6-11-24.6-24.6c0-13.6,11-24.6,24.6-24.6
						S614,242.5,614,256"/>
					<rect id="XMLID_117_" x="564.8" y="231.4" class="st3" width="49.2" height="49.2"/>
				</g>
			</g>
		</g>
		<circle id="XMLID_113_" class="st4" cx="589.4" cy="256" r="21"/>
	</g>
	<g id="Mersey_Beat_Circle_20_">
		<g id="XMLID_120_">
			<g id="XMLID_121_" class="st1">
				<g id="XMLID_122_">
					<path id="XMLID_124_" class="st2" d="M638,327.2c0,13.6-11,24.6-24.6,24.6s-24.6-11-24.6-24.6s11-24.6,24.6-24.6
						S638,313.6,638,327.2"/>
					<rect id="XMLID_123_" x="588.8" y="302.6" class="st3" width="49.2" height="49.2"/>
				</g>
			</g>
		</g>
		<circle id="XMLID_119_" class="st4" cx="613.4" cy="327.2" r="21"/>
	</g>
	<g id="Mersey_Beat_Circle_21_">
		<g id="XMLID_126_">
			<g id="XMLID_127_" class="st1">
				<g id="XMLID_128_">
					<path id="XMLID_130_" class="st2" d="M581.2,342.5c0,13.6-11,24.6-24.6,24.6s-24.6-11-24.6-24.6s11-24.6,24.6-24.6
						S581.2,329,581.2,342.5"/>
					<rect id="XMLID_129_" x="532" y="317.9" class="st3" width="49.2" height="49.2"/>
				</g>
			</g>
		</g>
		<circle id="XMLID_125_" class="st4" cx="556.6" cy="342.5" r="21"/>
	</g>
	<g id="Mersey_Beat_Circle_22_">
		<g id="XMLID_132_">
			<g id="XMLID_133_" class="st1">
				<g id="XMLID_134_">
					<path id="XMLID_136_" class="st2" d="M551,272.2c0,13.6-11,24.6-24.6,24.6s-24.6-11-24.6-24.6s11-24.6,24.6-24.6
						C540,247.6,551,258.6,551,272.2"/>
					<rect id="XMLID_135_" x="501.8" y="247.6" class="st3" width="49.2" height="49.2"/>
				</g>
			</g>
		</g>
		<circle id="XMLID_131_" class="st4" cx="526.4" cy="272.2" r="21"/>
	</g>
	<g id="Mersey_Beat_Circle_23_">
		<g id="XMLID_138_">
			<g id="XMLID_139_" class="st1">
				<g id="XMLID_140_">
					<path id="XMLID_142_" class="st2" d="M488.7,305.2c0,13.6-11,24.6-24.6,24.6s-24.6-11-24.6-24.6s11-24.6,24.6-24.6
						C477.7,280.6,488.7,291.6,488.7,305.2"/>
					<rect id="XMLID_141_" x="439.5" y="280.6" class="st3" width="49.2" height="49.2"/>
				</g>
			</g>
		</g>
		<circle id="XMLID_137_" class="st4" cx="464.1" cy="305.2" r="21"/>
	</g>
	<g id="Mersey_Beat_Circle_24_">
		<g id="XMLID_144_">
			<g id="XMLID_145_" class="st1">
				<g id="XMLID_146_">
					<path id="XMLID_148_" class="st2" d="M523.4,372.8c0,13.6-11,24.6-24.6,24.6s-24.6-11-24.6-24.6s11-24.6,24.6-24.6
						C512.3,348.2,523.4,359.2,523.4,372.8"/>
					<rect id="XMLID_147_" x="474.2" y="348.2" class="st3" width="49.2" height="49.2"/>
				</g>
			</g>
		</g>
		<circle id="XMLID_143_" class="st4" cx="498.8" cy="372.8" r="21"/>
	</g>
	<g id="Mersey_Beat_Circle_25_">
		<g id="XMLID_150_">
			<g id="XMLID_151_" class="st1">
				<g id="XMLID_152_">
					<path id="XMLID_154_" class="st2" d="M436,367.1c0,13.6-11,24.6-24.6,24.6s-24.6-11-24.6-24.6s11-24.6,24.6-24.6
						S436,353.5,436,367.1"/>
					<rect id="XMLID_153_" x="386.8" y="342.5" class="st3" width="49.2" height="49.2"/>
				</g>
			</g>
		</g>
		<circle id="XMLID_149_" class="st4" cx="411.4" cy="367.1" r="21"/>
	</g>
	<g id="Mersey_Beat_Circle_26_">
		<g id="XMLID_156_">
			<g id="XMLID_157_" class="st1">
				<g id="XMLID_158_">
					<path id="XMLID_160_" class="st2" d="M632.5,456.5c0,13.6-11,24.6-24.6,24.6s-24.6-11-24.6-24.6s11-24.6,24.6-24.6
						S632.5,443,632.5,456.5"/>
					<rect id="XMLID_159_" x="583.3" y="431.9" class="st3" width="49.2" height="49.2"/>
				</g>
			</g>
		</g>
		<circle id="XMLID_155_" class="st4" cx="607.9" cy="456.5" r="21"/>
	</g>
	<g id="Mersey_Beat_Circle_27_">
		<g id="XMLID_162_">
			<g id="XMLID_163_" class="st1">
				<g id="XMLID_164_">
					<path id="XMLID_166_" class="st2" d="M593,630c0,13.6-11,24.6-24.6,24.6s-24.6-11-24.6-24.6c0-13.6,11-24.6,24.6-24.6
						C582,605.5,593,616.5,593,630"/>
					<rect id="XMLID_165_" x="543.8" y="605.5" class="st3" width="49.2" height="49.2"/>
				</g>
			</g>
		</g>
		<circle id="XMLID_161_" class="st4" cx="568.4" cy="630" r="21"/>
	</g>
	<g id="Mersey_Beat_Circle_28_">
		<g id="XMLID_168_">
			<g id="XMLID_169_" class="st1">
				<g id="XMLID_170_">
					<path id="XMLID_172_" class="st2" d="M611.5,561.8c0,13.6-11,24.6-24.6,24.6s-24.6-11-24.6-24.6c0-13.6,11-24.6,24.6-24.6
						S611.5,548.2,611.5,561.8"/>
					<rect id="XMLID_171_" x="562.3" y="537.2" class="st3" width="49.2" height="49.2"/>
				</g>
			</g>
		</g>
		<circle id="XMLID_167_" class="st4" cx="586.9" cy="561.8" r="21"/>
	</g>
	<g id="Mersey_Beat_Circle_29_">
		<g id="XMLID_174_">
			<g id="XMLID_175_" class="st1">
				<g id="XMLID_176_">
					<path id="XMLID_178_" class="st2" d="M555.6,510.6c0,13.6-11,24.6-24.6,24.6s-24.6-11-24.6-24.6c0-13.6,11-24.6,24.6-24.6
						S555.6,497,555.6,510.6"/>
					<rect id="XMLID_177_" x="506.4" y="486" class="st3" width="49.2" height="49.2"/>
				</g>
			</g>
		</g>
		<circle id="XMLID_173_" class="st4" cx="531" cy="510.6" r="21"/>
	</g>
	<g id="Mersey_Beat_Circle_30_">
		<g id="XMLID_180_">
			<g id="XMLID_181_" class="st1">
				<g id="XMLID_182_">
					<path id="XMLID_184_" class="st2" d="M534.6,578.3c0,13.6-11,24.6-24.6,24.6s-24.6-11-24.6-24.6c0-13.6,11-24.6,24.6-24.6
						S534.6,564.7,534.6,578.3"/>
					<rect id="XMLID_183_" x="485.4" y="553.7" class="st3" width="49.2" height="49.2"/>
				</g>
			</g>
		</g>
		<circle id="XMLID_179_" class="st4" cx="510" cy="578.3" r="21"/>
	</g>
	<g id="Mersey_Beat_Circle_31_">
		<g id="XMLID_186_">
			<g id="XMLID_187_" class="st1">
				<g id="XMLID_188_">
					<path id="XMLID_190_" class="st2" d="M442.1,631c0,13.6-11,24.6-24.6,24.6s-24.6-11-24.6-24.6c0-13.6,11-24.6,24.6-24.6
						S442.1,617.5,442.1,631"/>
					<rect id="XMLID_189_" x="392.9" y="606.5" class="st3" width="49.2" height="49.2"/>
				</g>
			</g>
		</g>
		<circle id="XMLID_185_" class="st4" cx="417.5" cy="631" r="21"/>
	</g>
	<g id="Mersey_Beat_Circle_32_">
		<g id="XMLID_192_">
			<g id="XMLID_193_" class="st1">
				<g id="XMLID_194_">
					<path id="XMLID_196_" class="st2" d="M483.6,475.9c0,13.6-11,24.6-24.6,24.6s-24.6-11-24.6-24.6s11-24.6,24.6-24.6
						S483.6,462.4,483.6,475.9"/>
					<rect id="XMLID_195_" x="434.4" y="451.3" class="st3" width="49.2" height="49.2"/>
				</g>
			</g>
		</g>
		<circle id="XMLID_191_" class="st4" cx="459" cy="475.9" r="21"/>
	</g>
	<g id="Mersey_Beat_Circle_33_">
		<g id="XMLID_198_">
			<g id="XMLID_199_" class="st1">
				<g id="XMLID_200_">
					<path id="XMLID_202_" class="st2" d="M428.6,492.6c0,13.6-11,24.6-24.6,24.6s-24.6-11-24.6-24.6s11-24.6,24.6-24.6
						S428.6,479,428.6,492.6"/>
					<rect id="XMLID_201_" x="379.4" y="468" class="st3" width="49.2" height="49.2"/>
				</g>
			</g>
		</g>
		<circle id="XMLID_197_" class="st4" cx="404" cy="492.6" r="21"/>
	</g>
	<g id="Mersey_Beat_Circle_34_">
		<g id="XMLID_204_">
			<g id="XMLID_205_" class="st1">
				<g id="XMLID_206_">
					<path id="XMLID_208_" class="st2" d="M364.1,504.5c0,13.6-11,24.6-24.6,24.6s-24.6-11-24.6-24.6s11-24.6,24.6-24.6
						S364.1,490.9,364.1,504.5"/>
					<rect id="XMLID_207_" x="314.9" y="479.9" class="st3" width="49.2" height="49.2"/>
				</g>
			</g>
		</g>
		<circle id="XMLID_203_" class="st4" cx="339.5" cy="504.5" r="21"/>
	</g>
	<g id="Mersey_Beat_Circle_35_">
		<g id="XMLID_210_">
			<g id="XMLID_211_" class="st1">
				<g id="XMLID_212_">
					<path id="XMLID_214_" class="st2" d="M339.5,630c0,13.6-11,24.6-24.6,24.6s-24.6-11-24.6-24.6c0-13.6,11-24.6,24.6-24.6
						S339.5,616.5,339.5,630"/>
					<rect id="XMLID_213_" x="290.3" y="605.5" class="st3" width="49.2" height="49.2"/>
				</g>
			</g>
		</g>
		<circle id="XMLID_209_" class="st4" cx="314.9" cy="630" r="21"/>
	</g>
	<g id="Mersey_Beat_Circle_36_">
		<g id="XMLID_216_">
			<g id="XMLID_217_" class="st1">
				<g id="XMLID_218_">
					<path id="XMLID_220_" class="st2" d="M284.5,576.3c0,13.6-11,24.6-24.6,24.6s-24.6-11-24.6-24.6c0-13.6,11-24.6,24.6-24.6
						S284.5,562.7,284.5,576.3"/>
					<rect id="XMLID_219_" x="235.3" y="551.7" class="st3" width="49.2" height="49.2"/>
				</g>
			</g>
		</g>
		<circle id="XMLID_215_" class="st4" cx="259.9" cy="576.3" r="21"/>
	</g>
	<g id="Mersey_Beat_Circle_37_">
		<g id="XMLID_222_">
			<g id="XMLID_223_" class="st1">
				<g id="XMLID_224_">
					<path id="XMLID_226_" class="st2" d="M321.2,415.3c0,13.6-11,24.6-24.6,24.6s-24.6-11-24.6-24.6s11-24.6,24.6-24.6
						S321.2,401.7,321.2,415.3"/>
					<rect id="XMLID_225_" x="272" y="390.7" class="st3" width="49.2" height="49.2"/>
				</g>
			</g>
		</g>
		<circle id="XMLID_221_" class="st4" cx="296.6" cy="415.3" r="21"/>
	</g>
	<g id="Mersey_Beat_Circle_39_">
		<g id="XMLID_234_">
			<g id="XMLID_235_" class="st1">
				<g id="XMLID_236_">
					<path id="XMLID_238_" class="st2" d="M407.6,260.6c0,13.6-11,24.6-24.6,24.6s-24.6-11-24.6-24.6c0-13.6,11-24.6,24.6-24.6
						S407.6,247.1,407.6,260.6"/>
					<rect id="XMLID_237_" x="358.4" y="236" class="st3" width="49.2" height="49.2"/>
				</g>
			</g>
		</g>
		<circle id="XMLID_233_" class="st4" cx="383" cy="260.6" r="21"/>
	</g>
	<g id="Mersey_Beat_Circle_40_">
		<g id="XMLID_240_">
			<g id="XMLID_241_" class="st1">
				<g id="XMLID_242_">
					<path id="XMLID_244_" class="st2" d="M327.6,313.6c0,13.6-11,24.6-24.6,24.6s-24.6-11-24.6-24.6s11-24.6,24.6-24.6
						S327.6,300,327.6,313.6"/>
					<rect id="XMLID_243_" x="278.4" y="289" class="st3" width="49.2" height="49.2"/>
				</g>
			</g>
		</g>
		<circle id="XMLID_239_" class="st4" cx="303" cy="313.6" r="21"/>
	</g>
	<g id="Mersey_Beat_Circle_41_">
		<g id="XMLID_246_">
			<g id="XMLID_247_" class="st1">
				<g id="XMLID_248_">
					<path id="XMLID_250_" class="st2" d="M283.5,244.1c0,13.6-11,24.6-24.6,24.6s-24.6-11-24.6-24.6c0-13.6,11-24.6,24.6-24.6
						S283.5,230.5,283.5,244.1"/>
					<rect id="XMLID_249_" x="234.3" y="219.5" class="st3" width="49.2" height="49.2"/>
				</g>
			</g>
		</g>
		<circle id="XMLID_245_" class="st4" cx="258.9" cy="244.1" r="21"/>
	</g>
	<g id="Mersey_Beat_Circle_38_">
		<g id="XMLID_228_">
			<g id="XMLID_229_" class="st1">
				<g id="XMLID_230_">
					<path id="XMLID_232_" class="st2" d="M218.8,481.6c0,13.6-11,24.6-24.6,24.6s-24.6-11-24.6-24.6s11-24.6,24.6-24.6
						S218.8,468.1,218.8,481.6"/>
					<rect id="XMLID_231_" x="169.7" y="457.1" class="st3" width="49.2" height="49.2"/>
				</g>
			</g>
		</g>
		<circle id="XMLID_227_" class="st4" cx="194.2" cy="481.6" r="21"/>
	</g>
	<g id="Mersey_Beat_Circle_42_">
		<g id="XMLID_252_">
			<g id="XMLID_253_" class="st1">
				<g id="XMLID_254_">
					<path id="XMLID_256_" class="st2" d="M170.3,590.1c0,13.6-11,24.6-24.6,24.6s-24.6-11-24.6-24.6c0-13.6,11-24.6,24.6-24.6
						S170.3,576.6,170.3,590.1"/>
					<rect id="XMLID_255_" x="121.1" y="565.6" class="st3" width="49.2" height="49.2"/>
				</g>
			</g>
		</g>
		<circle id="XMLID_251_" class="st4" cx="145.7" cy="590.1" r="21"/>
	</g>
	<g id="Mersey_Beat_Circle_43_">
		<g id="XMLID_258_">
			<g id="XMLID_259_" class="st1">
				<g id="XMLID_260_">
					<path id="XMLID_262_" class="st2" d="M41.3,582.8c0,13.6-11,24.6-24.6,24.6s-24.6-11-24.6-24.6c0-13.6,11-24.6,24.6-24.6
						S41.3,569.2,41.3,582.8"/>
					<rect id="XMLID_261_" x="-7.9" y="558.2" class="st3" width="49.2" height="49.2"/>
				</g>
			</g>
		</g>
		<circle id="XMLID_257_" class="st4" cx="16.7" cy="582.8" r="21"/>
	</g>
	<g id="Mersey_Beat_Circle_44_">
		<g id="XMLID_264_">
			<g id="XMLID_265_" class="st1">
				<g id="XMLID_266_">
					<path id="XMLID_268_" class="st2" d="M56.3,513.2c0,13.6-11,24.6-24.6,24.6s-24.6-11-24.6-24.6c0-13.6,11-24.6,24.6-24.6
						S56.3,499.6,56.3,513.2"/>
					<rect id="XMLID_267_" x="7.1" y="488.6" class="st3" width="49.2" height="49.2"/>
				</g>
			</g>
		</g>
		<circle id="XMLID_263_" class="st4" cx="31.7" cy="513.2" r="21"/>
	</g>
	<g id="Mersey_Beat_Circle_45_">
		<g id="XMLID_270_">
			<g id="XMLID_271_" class="st1">
				<g id="XMLID_272_">
					<path id="XMLID_274_" class="st2" d="M-12.7,492.6c0,13.6-11,24.6-24.6,24.6s-24.6-11-24.6-24.6s11-24.6,24.6-24.6
						S-12.7,479-12.7,492.6"/>
					<rect id="XMLID_273_" x="-61.9" y="468" class="st3" width="49.2" height="49.2"/>
				</g>
			</g>
		</g>
		<circle id="XMLID_269_" class="st4" cx="-37.3" cy="492.6" r="21"/>
	</g>
	<g id="Mersey_Beat_Circle_46_">
		<g id="XMLID_276_">
			<g id="XMLID_277_" class="st1">
				<g id="XMLID_278_">
					<path id="XMLID_280_" class="st2" d="M-4.3,418.4c0,13.6-11,24.6-24.6,24.6s-24.6-11-24.6-24.6s11-24.6,24.6-24.6
						S-4.3,404.8-4.3,418.4"/>
					<rect id="XMLID_279_" x="-53.5" y="393.8" class="st3" width="49.2" height="49.2"/>
				</g>
			</g>
		</g>
		<circle id="XMLID_275_" class="st4" cx="-28.9" cy="418.4" r="21"/>
	</g>
	<g id="Mersey_Beat_Circle_47_">
		<g id="XMLID_282_">
			<g id="XMLID_283_" class="st1">
				<g id="XMLID_284_">
					<path id="XMLID_286_" class="st2" d="M111.2,445.4c0,13.6-11,24.6-24.6,24.6S62,459,62,445.4s11-24.6,24.6-24.6
						S111.2,431.8,111.2,445.4"/>
					<rect id="XMLID_285_" x="62" y="420.8" class="st3" width="49.2" height="49.2"/>
				</g>
			</g>
		</g>
		<circle id="XMLID_281_" class="st4" cx="86.6" cy="445.4" r="21"/>
	</g>
	<g id="Mersey_Beat_Circle_48_">
		<g id="XMLID_288_">
			<g id="XMLID_289_" class="st1">
				<g id="XMLID_290_">
					<path id="XMLID_292_" class="st2" d="M197.9,342.5c0,13.6-11,24.6-24.6,24.6s-24.6-11-24.6-24.6s11-24.6,24.6-24.6
						C186.8,317.9,197.9,329,197.9,342.5"/>
					<rect id="XMLID_291_" x="148.7" y="317.9" class="st3" width="49.2" height="49.2"/>
				</g>
			</g>
		</g>
		<circle id="XMLID_287_" class="st4" cx="173.3" cy="342.5" r="21"/>
	</g>
	<g id="Mersey_Beat_Circle_49_">
		<g id="XMLID_294_">
			<g id="XMLID_295_" class="st1">
				<g id="XMLID_296_">
					<path id="XMLID_298_" class="st2" d="M205.9,264.1c0,13.6-11,24.6-24.6,24.6s-24.6-11-24.6-24.6c0-13.6,11-24.6,24.6-24.6
						C194.8,239.5,205.9,250.5,205.9,264.1"/>
					<rect id="XMLID_297_" x="156.7" y="239.5" class="st3" width="49.2" height="49.2"/>
				</g>
			</g>
		</g>
		<circle id="XMLID_293_" class="st4" cx="181.3" cy="264.1" r="21"/>
	</g>
	<g id="Mersey_Beat_Circle_50_">
		<g id="XMLID_300_">
			<g id="XMLID_301_" class="st1">
				<g id="XMLID_302_">
					<path id="XMLID_304_" class="st2" d="M143.4,238.2c0,13.6-11,24.6-24.6,24.6s-24.6-11-24.6-24.6c0-13.6,11-24.6,24.6-24.6
						S143.4,224.6,143.4,238.2"/>
					<rect id="XMLID_303_" x="94.2" y="213.6" class="st3" width="49.2" height="49.2"/>
				</g>
			</g>
		</g>
		<circle id="XMLID_299_" class="st4" cx="118.8" cy="238.2" r="21"/>
	</g>
	<g id="Mersey_Beat_Circle_51_">
		<g id="XMLID_306_">
			<g id="XMLID_307_" class="st1">
				<g id="XMLID_308_">
					<path id="XMLID_310_" class="st2" d="M140.7,305.2c0,13.6-11,24.6-24.6,24.6s-24.6-11-24.6-24.6s11-24.6,24.6-24.6
						S140.7,291.6,140.7,305.2"/>
					<rect id="XMLID_309_" x="91.6" y="280.6" class="st3" width="49.2" height="49.2"/>
				</g>
			</g>
		</g>
		<circle id="XMLID_305_" class="st4" cx="116.2" cy="305.2" r="21"/>
	</g>
	<g id="Mersey_Beat_Circle_52_">
		<g id="XMLID_312_">
			<g id="XMLID_313_" class="st1">
				<g id="XMLID_314_">
					<path id="XMLID_316_" class="st2" d="M54.2,254c0,13.6-11,24.6-24.6,24.6S5,267.6,5,254c0-13.6,11-24.6,24.6-24.6
						S54.2,240.5,54.2,254"/>
					<rect id="XMLID_315_" x="5.1" y="229.4" class="st3" width="49.2" height="49.2"/>
				</g>
			</g>
		</g>
		<circle id="XMLID_311_" class="st4" cx="29.7" cy="254" r="21"/>
	</g>
	<g id="Mersey_Beat_Circle_53_">
		<g id="XMLID_318_">
			<g id="XMLID_319_" class="st1">
				<g id="XMLID_320_">
					<path id="XMLID_322_" class="st2" d="M-12.7,278.6c0,13.6-11,24.6-24.6,24.6s-24.6-11-24.6-24.6s11-24.6,24.6-24.6
						S-12.7,265-12.7,278.6"/>
					<rect id="XMLID_321_" x="-61.9" y="254" class="st3" width="49.2" height="49.2"/>
				</g>
			</g>
		</g>
		<circle id="XMLID_317_" class="st4" cx="-37.3" cy="278.6" r="21"/>
	</g>
</g>
<g id="nom_x5F_genre">
	<text id="XMLID_342_" transform="matrix(1 0 0 1 -55.5833 312.8067)" class="st5 st6 st7">GRUNGE</text>
	<text id="XMLID_352_" transform="matrix(1 0 0 1 -56.4853 453.6869)" class="st5 st6 st7">ROOTS ROCK</text>
	<text id="XMLID_353_" transform="matrix(1 0 0 1 -64.6207 530.5932)" class="st5 st6 st7">DANCE ROCK</text>
	<text id="XMLID_354_" transform="matrix(1 0 0 1 78.3793 479.5933)" class="st5 st6 st7">JAZZ</text>
	<text id="XMLID_355_" transform="matrix(1 0 0 1 -10.5791 547.5516)" class="st5 st6 st7">CALIFORNIA SOUND</text>
	<text id="XMLID_356_" transform="matrix(1 0 0 1 -28.7221 618.5516)" class="st5 st6 st7">POP PSYCHDLIQUE</text>
	<text id="XMLID_357_" transform="matrix(1 0 0 1 97.7779 627.8016)" class="st5 st6 st7">ROCK PSYCHDLIQUE</text>
	<text id="XMLID_361_" transform="matrix(1 0 0 1 364.847 402.1062)" class="st5 st6 st7">SOUL PSYCHDLIQUE</text>
	<text id="XMLID_358_" transform="matrix(1 0 0 1 217.0279 610.1212)" class="st5 st6 st7">RHYTHM AND BLUES</text>
	<text id="XMLID_362_" transform="matrix(1 0 0 1 314.082 538.4632)" class="st5 st6 st7">ROCKABILLY</text>
	<text id="XMLID_365_" transform="matrix(1 0 0 1 370.9154 526.6299)" class="st5 st6 st7">COUNTRY ROCK</text>
	<text id="XMLID_366_" transform="matrix(1 0 0 1 438.5026 509.1299)" class="st5 st6 st7">COUNTRY</text>
	<text id="XMLID_367_" transform="matrix(1 0 0 1 501.8359 547.5513)" class="st5 st6 st7">COUNTRY RAP</text>
	<text id="XMLID_363_" transform="matrix(1 0 0 1 303.018 665.5882)" class="st5 st6 st7">FUNK</text>
	<text id="XMLID_364_" transform="matrix(1 0 0 1 404.0062 666.5882)" class="st5 st6 st7">BLUES</text>
	<text id="XMLID_368_" transform="matrix(1 0 0 1 477.4437 614.2344)" class="st5 st6 st7">TALKING BLUES</text>
	<text id="XMLID_369_" transform="matrix(1 0 0 1 538.1104 666.5879)" class="st5 st6 st7">ROCK SUDISTE</text>
	<text id="XMLID_372_" transform="matrix(1 0 0 1 674.9437 662.9514)" class="st5 st6 st7">NEW WAVE</text>
	<text id="XMLID_370_" transform="matrix(1 0 0 1 550.6104 597.5879)" class="st5 st6 st7">ROCK ALTERNATIF</text>
	<text id="XMLID_383_" transform="matrix(1 0 0 1 571.027 492.1148)" class="st5 st6 st7">HEARTLAND ROCK</text>
	<text id="XMLID_371_" transform="matrix(1 0 0 1 667.3692 535.694)" class="st5 st6 st7">ROCK INSTRUMENTAL</text>
	<text id="XMLID_359_" transform="matrix(1 0 0 1 165.9913 515.7883)" class="st5 st6 st7">HONKY-TONK</text>
	<text id="XMLID_360_" transform="matrix(1 0 0 1 274.8246 449.4554)" class="st5 st6 st7">DOO-WOP</text>
	<text id="XMLID_344_" transform="matrix(1 0 0 1 -0.3748 287.765)" class="st5 st6 st7">GARAGE ROCK</text>
	<text id="XMLID_345_" transform="matrix(1 0 0 1 103.5002 274.39)" class="st5 st6 st7">HOUSE</text>
	<text id="XMLID_346_" transform="matrix(1 0 0 1 146.5002 300.015)" class="st5 st6 st7">CHICAGO BLUES</text>
	<text id="XMLID_347_" transform="matrix(1 0 0 1 88.0008 341.3693)" class="st5 st6 st7">TECH HOUSE</text>
	<text id="XMLID_348_" transform="matrix(1 0 0 1 141.4172 377.7025)" class="st5 st6 st7">CHICAGO SOUL</text>
	<text id="XMLID_349_" transform="matrix(1 0 0 1 291.5002 350.2025)" class="st5 st6 st7">SOUL</text>
	<text id="XMLID_350_" transform="matrix(1 0 0 1 241.8338 279.5358)" class="st5 st6 st7">GOSPEL</text>
	<text id="XMLID_351_" transform="matrix(1 0 0 1 355.3623 295.2858)" class="st5 st6 st7">ROCKNROLL</text>
	<text id="XMLID_373_" transform="matrix(1 0 0 1 438.5026 340.0358)" class="st5 st6 st7">POST-DISCO</text>
	<text id="XMLID_374_" transform="matrix(1 0 0 1 501.3361 307.5356)" class="st5 st6 st7">BREAK BEAT</text>
	<text id="XMLID_377_" transform="matrix(1 0 0 1 559.3361 225.884)" class="st5 st6 st7">FOLK</text>
	<text id="XMLID_379_" transform="matrix(1 0 0 1 626.5861 249.134)" class="st5 st6 st7">DISCO</text>
	<text id="XMLID_380_" transform="matrix(1 0 0 1 593.0861 362.384)" class="st5 st6 st7">RAP ROCK</text>
	<text id="XMLID_382_" transform="matrix(1 0 0 1 653.0863 393.6339)" class="st5 st6 st7">ELECTRO</text>
	<text id="XMLID_384_" transform="matrix(1 0 0 1 693.3363 410.509)" class="st5 st6 st7">BLUE-EYED SOUL</text>
	<text id="XMLID_385_" transform="matrix(1 0 0 1 761.6959 338.1942)" class="st5 st6 st7">POP ROCK</text>
	<text id="XMLID_388_" transform="matrix(1 0 0 1 814.4688 418.6571)" class="st5 st6 st7">HARD ROCK</text>
	<text id="XMLID_389_" transform="matrix(1 0 0 1 869.0524 445.39)" class="st5 st6 st7">HEAVY METAL</text>
	<text id="XMLID_390_" transform="matrix(1 0 0 1 771.479 572.3011)" class="st5 st6 st7">GLAM ROCK</text>
	<text id="XMLID_391_" transform="matrix(1 0 0 1 831.3323 562.4053)" class="st5 st6 st7">BLUES ROCK</text>
	<text id="XMLID_392_" transform="matrix(1 0 0 1 894.957 543.4678)" class="st5 st6 st7">PUNK ROCK</text>
	<text id="XMLID_393_" transform="matrix(1 0 0 1 774.3944 641.4675)" class="st5 st6 st7">POWER POP</text>
	<text id="XMLID_394_" transform="matrix(1 0 0 1 845.3527 632.0509)" class="st5 st6 st7">POP</text>
	<text id="XMLID_395_" transform="matrix(1 0 0 1 918.5479 609.496)" class="st5 st6 st7">SYNTHROCK</text>
	<text id="XMLID_396_" transform="matrix(1 0 0 1 872.7145 677.496)" class="st5 st6 st7">SYNTHPOP</text>
	<text id="XMLID_386_" transform="matrix(1 0 0 1 758.5931 266.1942)" class="st5 st6 st7">FOLK ROCK</text>
	<text id="XMLID_387_" transform="matrix(1 0 0 1 809.7181 282.4901)" class="st5 st6 st7">MERSEY BEAT</text>
	<text id="XMLID_381_" transform="matrix(1 0 0 1 653.0862 316.384)" class="st5 st6 st7">HIP-HOP</text>
	<text id="XMLID_378_" transform="matrix(1 0 0 1 559.1481 290.2625)" class="st5 st6 st7">POP BAROQUE</text>
	<text id="XMLID_375_" transform="matrix(1 0 0 1 475.3362 406.5356)" class="st5 st6 st7">SOFT ROCK</text>
	<text id="XMLID_376_" transform="matrix(1 0 0 1 546.5029 377.0357)" class="st5 st6 st7">RNB</text>
</g>
<g id="nom_x5F_etat">
	<text id="XMLID_4_" transform="matrix(1 0 0 1 -44.0002 217.2175)" class="st8 st9 st10">WASHINGTON</text>
	<text id="XMLID_324_" transform="matrix(1 0 0 1 124.8333 202.7173)" class="st8 st9 st10">ILLINOIS</text>
	<text id="XMLID_325_" transform="matrix(1 0 0 1 251 209.8839)" class="st8 st9 st10">MICHIGAN</text>
	<text id="XMLID_326_" transform="matrix(1 0 0 1 377.3333 225.8839)" class="st8 st9 st10">OHIO</text>
	<text id="XMLID_327_" transform="matrix(1 0 0 1 456.7499 236.4525)" class="st8 st9 st10">NEW-YORK</text>
	<text id="XMLID_328_" transform="matrix(1 0 0 1 782.1842 193.6268)" class="st8 st9 st10">LIVERPOOL</text>
	<text id="XMLID_329_" transform="matrix(1 0 0 1 839.0589 347.9325)" class="st8 st9 st10">BIRMINGHAM</text>
	<text id="XMLID_330_" transform="matrix(1 0 0 1 828.0196 490.6152)" class="st8 st9 st10">LONDRES</text>
	<text id="XMLID_482_" transform="matrix(1 0 0 1 655.0196 590.5914)" class="st8 st9 st10">SOUTHAMPTON</text>
	<text id="XMLID_331_" transform="matrix(1 0 0 1 661.6498 464.4485)" class="st8 st9 st10">CAROLINE DU NORD</text>
	<text id="XMLID_332_" transform="matrix(1 0 0 1 575.8165 417.7821)" class="st8 st9 st10">NEW JERSEY</text>
	<text id="XMLID_333_" transform="matrix(1 0 0 1 500.1498 475.9251)" class="st8 st9 st10">GEORGIE</text>
	<text id="XMLID_334_" transform="matrix(1 0 0 1 390.1498 590.5918)" class="st8 st9 st10">MISSISSIPI</text>
	<text id="XMLID_335_" transform="matrix(1 0 0 1 357.521 455.4364)" class="st8 st9 st10">TENNESSEE</text>
	<text id="XMLID_336_" transform="matrix(1 0 0 1 256.646 380.1239)" class="st8 st9 st10">MARYLAND</text>
	<text id="XMLID_337_" transform="matrix(1 0 0 1 231.3245 536.9443)" class="st8 st9 st10">LOUISIANE</text>
	<text id="XMLID_338_" transform="matrix(1 0 0 1 156.3245 446.3432)" class="st8 st9 st10">OKLAHOMA</text>
	<text id="XMLID_341_" transform="matrix(1 0 0 1 127.1578 542.8432)" class="st8 st9 st10">TEXAS</text>
	<text id="XMLID_339_" transform="matrix(1 0 0 1 57.2601 408.3432)" class="st8 st9 st10">MISSOURI</text>
	<text id="XMLID_340_" transform="matrix(1 0 0 1 -52.6505 380.124)" class="st8 st9 st10">CALIFORNIE</text>
</g>
<g id="lien">
	
		<image style="overflow:visible;opacity:0.75;" width="988" height="479" xlink:href="96CFA66B.png"  transform="matrix(1 0 0 1 -53 175.89)">
	</image>
	<g>
		<g>
			<line id="XMLID_2127_" class="st11" x1="314.9" y1="630" x2="670.6" y2="281.6"/>
			<line id="XMLID_2126_" class="st11" x1="314.9" y1="630" x2="303" y2="313.6"/>
			<line id="XMLID_2125_" class="st11" x1="314.9" y1="630" x2="86.6" y2="445.4"/>
			<line id="XMLID_2124_" class="st11" x1="314.9" y1="630" x2="145.7" y2="590.1"/>
			<line id="XMLID_2123_" class="st11" x1="383" y1="260.6" x2="259.9" y2="576.3"/>
			<line id="XMLID_2122_" class="st11" x1="383" y1="260.6" x2="459" y2="475.9"/>
			<line id="XMLID_2121_" class="st11" x1="383" y1="260.6" x2="417.5" y2="631"/>
			<line id="XMLID_2120_" class="st11" x1="417.5" y1="631" x2="86.6" y2="445.4"/>
			<line id="XMLID_2119_" class="st11" x1="417.5" y1="631" x2="556.6" y2="342.5"/>
			<line id="XMLID_2118_" class="st11" x1="417.5" y1="631" x2="181.3" y2="264.1"/>
			<line id="XMLID_2117_" class="st11" x1="459" y1="475.9" x2="854.4" y2="595"/>
			<line id="XMLID_2116_" class="st11" x1="459" y1="475.9" x2="404" y2="492.6"/>
			<line id="XMLID_2115_" class="st11" x1="459" y1="475.9" x2="339.5" y2="504.5"/>
			<line id="XMLID_2114_" class="st11" x1="459" y1="475.9" x2="-28.9" y2="418.4"/>
			<line id="XMLID_2113_" class="st11" x1="459" y1="475.9" x2="568.4" y2="630"/>
			<line id="XMLID_2112_" class="st11" x1="259.9" y1="576.3" x2="258.9" y2="244.1"/>
			<line id="XMLID_2111_" class="st11" x1="259.9" y1="576.3" x2="417.5" y2="631"/>
			<line id="XMLID_2110_" class="st11" x1="259.9" y1="576.3" x2="86.6" y2="445.4"/>
			<line id="XMLID_2109_" class="st11" x1="259.9" y1="576.3" x2="303" y2="313.6"/>
			<line id="XMLID_2108_" class="st11" x1="86.6" y1="445.4" x2="854.4" y2="595"/>
			<line id="XMLID_2107_" class="st11" x1="86.6" y1="445.4" x2="383" y2="260.6"/>
			<line id="XMLID_2106_" class="st11" x1="86.6" y1="445.4" x2="145.7" y2="590.1"/>
			<line id="XMLID_2105_" class="st11" x1="556.6" y1="342.5" x2="259.9" y2="576.3"/>
			<line id="XMLID_2104_" class="st11" x1="556.6" y1="342.5" x2="670.6" y2="281.6"/>
			<line id="XMLID_2103_" class="st11" x1="556.6" y1="342.5" x2="303" y2="313.6"/>
			<line id="XMLID_2102_" class="st11" x1="556.6" y1="342.5" x2="854.4" y2="595"/>
			<line id="XMLID_2101_" class="st11" x1="181.3" y1="264.1" x2="383" y2="260.6"/>
			<line id="XMLID_2100_" class="st11" x1="181.3" y1="264.1" x2="259.9" y2="576.3"/>
			<line id="XMLID_2099_" class="st11" x1="854.4" y1="595" x2="259.9" y2="576.3"/>
			<line id="XMLID_2098_" class="st11" x1="854.4" y1="595" x2="303" y2="313.6"/>
			<line id="XMLID_2097_" class="st11" x1="854.4" y1="595" x2="783.9" y2="302.6"/>
			<line id="XMLID_2096_" class="st11" x1="854.4" y1="595" x2="589.4" y2="256"/>
			<line id="XMLID_2095_" class="st11" x1="854.4" y1="595" x2="16.7" y2="582.8"/>
			<line id="XMLID_2094_" class="st11" x1="404" y1="492.6" x2="568.4" y2="630"/>
			<line id="XMLID_2093_" class="st11" x1="404" y1="492.6" x2="782.2" y2="230.6"/>
			<line id="XMLID_2092_" class="st11" x1="404" y1="492.6" x2="339.5" y2="504.5"/>
			<line id="XMLID_2091_" class="st11" x1="339.5" y1="504.5" x2="918.9" y2="507.7"/>
			<line id="XMLID_2090_" class="st11" x1="339.5" y1="504.5" x2="383" y2="260.6"/>
			<line id="XMLID_2089_" class="st11" x1="339.5" y1="504.5" x2="259.9" y2="576.3"/>
			<line id="XMLID_2088_" class="st11" x1="-28.9" y1="418.4" x2="404" y2="492.6"/>
			<line id="XMLID_2087_" class="st11" x1="-28.9" y1="418.4" x2="568.4" y2="630"/>
			<line id="XMLID_2086_" class="st11" x1="-28.9" y1="418.4" x2="570.6" y2="192"/>
			<line id="XMLID_2085_" class="st11" x1="-28.9" y1="418.4" x2="782.2" y2="230.6"/>
			<line id="XMLID_2084_" class="st11" x1="568.4" y1="630" x2="383" y2="260.6"/>
			<line id="XMLID_2083_" class="st11" x1="568.4" y1="630" x2="258.9" y2="244.1"/>
			<line id="XMLID_2082_" class="st11" x1="568.4" y1="630" x2="259.9" y2="576.3"/>
			<line id="XMLID_2081_" class="st11" x1="258.9" y1="244.1" x2="303" y2="313.6"/>
			<line id="XMLID_2080_" class="st11" x1="258.9" y1="244.1" x2="417.5" y2="631"/>
			<line id="XMLID_2079_" class="st11" x1="303" y1="313.6" x2="639.6" y2="214.6"/>
			<line id="XMLID_2078_" class="st11" x1="729.3" y1="377.5" x2="303" y2="313.6"/>
			<line id="XMLID_2077_" class="st11" x1="729.3" y1="377.5" x2="417.5" y2="631"/>
			<line id="XMLID_2076_" class="st11" x1="729.3" y1="377.5" x2="258.9" y2="244.1"/>
			<line id="XMLID_2075_" class="st11" x1="729.3" y1="377.5" x2="314.9" y2="630"/>
			<line id="XMLID_2074_" class="st11" x1="570.6" y1="192" x2="782.2" y2="230.6"/>
			<line id="XMLID_2073_" class="st11" x1="782.2" y1="230.6" x2="145.7" y2="590.1"/>
			<line id="XMLID_2072_" class="st11" x1="782.2" y1="230.6" x2="607.9" y2="456.5"/>
			<line id="XMLID_2071_" class="st11" x1="314.9" y1="630" x2="571" y2="192"/>
			<line id="XMLID_2070_" class="st11" x1="639.6" y1="214.6" x2="29.7" y2="254"/>
			<line id="XMLID_2069_" class="st11" x1="639.6" y1="214.6" x2="314.9" y2="630"/>
			<line id="XMLID_2068_" class="st11" x1="639.6" y1="214.6" x2="116.2" y2="305.2"/>
			<line id="XMLID_2067_" class="st11" x1="838.7" y1="385.4" x2="145.7" y2="590.1"/>
			<line id="XMLID_2066_" class="st11" x1="838.7" y1="385.4" x2="613.4" y2="327.2"/>
			<line id="XMLID_2065_" class="st11" x1="838.7" y1="385.4" x2="29.7" y2="254"/>
			<line id="XMLID_2064_" class="st11" x1="16.7" y1="582.8" x2="571" y2="192"/>
			<line id="XMLID_2063_" class="st11" x1="16.7" y1="582.8" x2="145.7" y2="590.1"/>
			<line id="XMLID_2062_" class="st11" x1="-37.3" y1="278.6" x2="838.7" y2="385.4"/>
			<line id="XMLID_2061_" class="st11" x1="-37.3" y1="278.6" x2="918.9" y2="507.7"/>
			<line id="XMLID_2060_" class="st11" x1="-37.3" y1="278.6" x2="783.9" y2="302.6"/>
			<line id="XMLID_2059_" class="st11" x1="607.9" y1="456.5" x2="404" y2="492.6"/>
			<line id="XMLID_2058_" class="st11" x1="607.9" y1="456.5" x2="383" y2="260.6"/>
			<line id="XMLID_2057_" class="st11" x1="145.7" y1="590.1" x2="897.9" y2="410"/>
			<line id="XMLID_2056_" class="st11" x1="498.8" y1="372.8" x2="783.9" y2="302.6"/>
			<line id="XMLID_2055_" class="st11" x1="498.8" y1="372.8" x2="782.2" y2="230.6"/>
			<line id="XMLID_2054_" class="st11" x1="498.8" y1="372.8" x2="383" y2="260.6"/>
			<line id="XMLID_2053_" class="st11" x1="670.1" y1="359.2" x2="314.9" y2="630"/>
			<line id="XMLID_2052_" class="st11" x1="670.1" y1="359.2" x2="639.6" y2="214.6"/>
			<line id="XMLID_2051_" class="st11" x1="670.1" y1="359.2" x2="118.8" y2="238.2"/>
			<line id="XMLID_2050_" class="st11" x1="918.9" y1="575.5" x2="895.7" y2="639.5"/>
			<line id="XMLID_2049_" class="st11" x1="918.9" y1="575.5" x2="670.6" y2="281.6"/>
			<line id="XMLID_2048_" class="st11" x1="29.7" y1="254" x2="339.5" y2="504.5"/>
			<line id="XMLID_2047_" class="st11" x1="29.7" y1="254" x2="303" y2="313.6"/>
			<line id="XMLID_2046_" class="st11" x1="29.7" y1="254" x2="897.9" y2="410"/>
			<line id="XMLID_2045_" class="st11" x1="463.8" y1="304.3" x2="639.6" y2="214.6"/>
			<line id="XMLID_2044_" class="st11" x1="463.8" y1="304.3" x2="670.1" y2="359.2"/>
			<line id="XMLID_2043_" class="st11" x1="-37.3" y1="492.6" x2="697.4" y2="626.4"/>
			<line id="XMLID_2042_" class="st11" x1="-37.3" y1="492.6" x2="314.9" y2="630"/>
			<line id="XMLID_2041_" class="st11" x1="-37.3" y1="492.6" x2="638" y2="215.4"/>
			<line id="XMLID_2040_" class="st11" x1="411.4" y1="367.1" x2="145.7" y2="590.1"/>
			<line id="XMLID_2039_" class="st11" x1="411.4" y1="367.1" x2="314.9" y2="630"/>
			<line id="XMLID_2038_" class="st11" x1="411.4" y1="367.1" x2="638" y2="215.4"/>
			<line id="XMLID_2037_" class="st11" x1="697.4" y1="626.4" x2="586.9" y2="561.8"/>
			<line id="XMLID_2036_" class="st11" x1="697.4" y1="626.4" x2="918.9" y2="507.7"/>
			<line id="XMLID_2035_" class="st11" x1="697.4" y1="626.4" x2="314.9" y2="630"/>
			<line id="XMLID_2034_" class="st11" x1="296.6" y1="415.3" x2="258.9" y2="244.1"/>
			<line id="XMLID_2033_" class="st11" x1="296.6" y1="415.3" x2="417.5" y2="631"/>
			<line id="XMLID_2032_" class="st11" x1="296.6" y1="415.3" x2="259.9" y2="576.3"/>
			<line id="XMLID_2031_" class="st11" x1="918.9" y1="507.7" x2="29.7" y2="255.2"/>
			<line id="XMLID_2030_" class="st11" x1="586.9" y1="562.4" x2="783.9" y2="301.7"/>
			<line id="XMLID_2029_" class="st11" x1="586.9" y1="562.4" x2="31.7" y2="253.9"/>
			<line id="XMLID_2028_" class="st11" x1="531" y1="510.6" x2="459" y2="475.9"/>
			<line id="XMLID_2027_" class="st11" x1="531" y1="510.6" x2="670.6" y2="281.6"/>
			<line id="XMLID_2026_" class="st11" x1="590.2" y1="257" x2="16.7" y2="582.8"/>
			<line id="XMLID_2025_" class="st11" x1="590.2" y1="257" x2="783.3" y2="302.6"/>
			<line id="XMLID_2024_" class="st11" x1="194.2" y1="481.1" x2="459" y2="475.9"/>
			<line id="XMLID_2023_" class="st11" x1="858" y1="527.5" x2="897.9" y2="410"/>
			<line id="XMLID_2022_" class="st11" x1="858" y1="527.5" x2="838.7" y2="385.4"/>
			<line id="XMLID_2021_" class="st11" x1="858" y1="527.5" x2="145.7" y2="590.1"/>
			<line id="XMLID_2020_" class="st11" x1="613.4" y1="327.2" x2="670.6" y2="281.6"/>
			<line id="XMLID_2019_" class="st11" x1="613.4" y1="327.2" x2="383" y2="260.6"/>
			<line id="XMLID_2018_" class="st11" x1="670.6" y1="281.6" x2="639.6" y2="215.4"/>
			<line id="XMLID_2017_" class="st11" x1="116.2" y1="305.2" x2="118.8" y2="238.2"/>
			<line id="XMLID_2016_" class="st11" x1="118.8" y1="238.2" x2="639.6" y2="214.6"/>
			<line id="XMLID_2015_" class="st11" x1="31.7" y1="513.2" x2="780.5" y2="231.4"/>
			<line id="XMLID_2014_" class="st11" x1="31.7" y1="513.2" x2="383" y2="260.6"/>
			<line id="XMLID_2013_" class="st11" x1="31.7" y1="513.2" x2="296.6" y2="415.3"/>
			<line id="XMLID_2012_" class="st11" x1="799.7" y1="605.5" x2="697.4" y2="626.4"/>
			<line id="XMLID_2011_" class="st11" x1="799.7" y1="605.5" x2="918.9" y2="507.7"/>
			<line id="XMLID_2010_" class="st11" x1="799.7" y1="605.5" x2="29.7" y2="255.2"/>
			<line id="XMLID_2009_" class="st11" x1="712.6" y1="500.5" x2="383" y2="260.6"/>
			<line id="XMLID_2008_" class="st11" x1="712.6" y1="500.5" x2="259.9" y2="576.3"/>
			<line id="XMLID_2007_" class="st11" x1="839.7" y1="247.6" x2="29.7" y2="255.2"/>
			<line id="XMLID_2006_" class="st11" x1="839.7" y1="247.6" x2="145.7" y2="590.1"/>
			<line id="XMLID_2005_" class="st11" x1="510" y1="578.3" x2="571" y2="192"/>
			<line id="XMLID_2004_" class="st11" x1="510" y1="578.3" x2="459" y2="475.9"/>
			<line id="XMLID_2003_" class="st11" x1="796.1" y1="537.2" x2="918.9" y2="507.7"/>
			<line id="XMLID_2002_" class="st11" x1="796.1" y1="537.2" x2="897.9" y2="410"/>
			<line id="XMLID_2001_" class="st11" x1="526.4" y1="271.7" x2="670.6" y2="281.6"/>
			<line id="XMLID_2000_" class="st11" x1="526.4" y1="271.7" x2="670.1" y2="359.2"/>
			<line id="XMLID_1999_" class="st11" x1="526.4" y1="271.7" x2="463.8" y2="304.3"/>
			<line id="XMLID_1998_" class="st11" x1="526.4" y1="271.7" x2="314.9" y2="630"/>
			<line id="XMLID_1997_" class="st11" x1="171.9" y1="342.5" x2="259.9" y2="576.3"/>
			<line id="XMLID_1996_" class="st11" x1="171.9" y1="342.5" x2="854.4" y2="594.6"/>
			<line id="XMLID_1995_" class="st11" x1="897.9" y1="410" x2="838.7" y2="385.4"/>
		</g>
	</g>
</g>
</svg>
